<svg width="695" height="210" viewBox="0 0 695 210" fill="none" xmlns="http://www.w3.org/2000/svg">
<path d="M24.5568 39.3643V37.8182H32.6804V39.3643H29.5334V48H27.7038V39.3643H24.5568ZM34.4105 50.8636C34.1652 50.8636 33.9382 50.8438 33.7294 50.804C33.5239 50.7675 33.3598 50.7244 33.2372 50.6747L33.6548 49.2727C33.9167 49.349 34.1503 49.3854 34.3558 49.3821C34.5613 49.3788 34.742 49.3142 34.8977 49.1882C35.0568 49.0656 35.1911 48.8601 35.3004 48.5717L35.4545 48.1591L32.6854 40.3636H34.5945L36.3544 46.1307H36.4339L38.1989 40.3636H40.1129L37.0554 48.9247C36.9129 49.3291 36.724 49.6754 36.4886 49.9638C36.2533 50.2554 35.965 50.4775 35.6236 50.63C35.2855 50.7857 34.8812 50.8636 34.4105 50.8636ZM41.3583 50.8636V40.3636H43.1282V41.6264H43.2326C43.3254 41.4408 43.4563 41.2436 43.6254 41.0348C43.7944 40.8227 44.0231 40.642 44.3114 40.4929C44.5998 40.3404 44.9677 40.2642 45.4151 40.2642C46.0051 40.2642 46.5371 40.415 47.011 40.7166C47.4883 41.0149 47.8661 41.4574 48.1445 42.044C48.4263 42.6274 48.5671 43.3433 48.5671 44.1918C48.5671 45.0303 48.4296 45.7429 48.1545 46.3295C47.8794 46.9162 47.5049 47.3636 47.0309 47.6719C46.5569 47.9801 46.02 48.1342 45.4201 48.1342C44.9826 48.1342 44.6197 48.0613 44.3313 47.9155C44.043 47.7696 43.811 47.594 43.6353 47.3885C43.4629 47.1797 43.3287 46.9825 43.2326 46.7969H43.158V50.8636H41.3583ZM43.1232 44.1818C43.1232 44.6757 43.1928 45.1082 43.332 45.4794C43.4746 45.8506 43.6784 46.1406 43.9435 46.3494C44.212 46.5549 44.5368 46.6577 44.918 46.6577C45.3157 46.6577 45.6488 46.5516 45.9173 46.3395C46.1857 46.1241 46.3879 45.8307 46.5238 45.4595C46.663 45.085 46.7326 44.6591 46.7326 44.1818C46.7326 43.7079 46.6647 43.2869 46.5288 42.919C46.3929 42.5511 46.1907 42.2628 45.9222 42.054C45.6538 41.8452 45.319 41.7408 44.918 41.7408C44.5335 41.7408 44.207 41.8419 43.9386 42.044C43.6701 42.2462 43.4663 42.5296 43.3271 42.8942C43.1912 43.2588 43.1232 43.688 43.1232 44.1818ZM53.489 48.1491C52.7234 48.1491 52.0621 47.9901 51.5053 47.6719C50.9518 47.3504 50.5259 46.8963 50.2276 46.3097C49.9293 45.7197 49.7802 45.0253 49.7802 44.2266C49.7802 43.4411 49.9293 42.7517 50.2276 42.1584C50.5292 41.5618 50.9502 41.0978 51.4904 40.7663C52.0307 40.4316 52.6654 40.2642 53.3945 40.2642C53.8652 40.2642 54.3093 40.3404 54.7269 40.4929C55.1478 40.642 55.5191 40.8741 55.8406 41.1889C56.1654 41.5038 56.4206 41.9048 56.6062 42.392C56.7918 42.8759 56.8846 43.4527 56.8846 44.1222V44.674H50.6254V43.4609H55.1594C55.1561 43.1162 55.0816 42.8097 54.9357 42.5412C54.7899 42.2694 54.5861 42.0556 54.3242 41.8999C54.0657 41.7441 53.7641 41.6662 53.4194 41.6662C53.0515 41.6662 52.7283 41.7557 52.4499 41.9347C52.1715 42.1103 51.9544 42.3423 51.7987 42.6307C51.6462 42.9157 51.5683 43.2289 51.565 43.5703V44.6293C51.565 45.0734 51.6462 45.4545 51.8086 45.7727C51.971 46.0876 52.198 46.3295 52.4897 46.4986C52.7814 46.6643 53.1228 46.7472 53.5138 46.7472C53.7757 46.7472 54.0127 46.7107 54.2248 46.6378C54.4369 46.5616 54.6209 46.4505 54.7766 46.3047C54.9324 46.1589 55.0501 45.9782 55.1296 45.7628L56.81 45.9517C56.704 46.3958 56.5018 46.7836 56.2035 47.1151C55.9085 47.4432 55.5307 47.6984 55.07 47.8807C54.6093 48.0597 54.0823 48.1491 53.489 48.1491ZM65.2108 48.1491C64.465 48.1491 63.8187 47.9851 63.2718 47.657C62.725 47.3288 62.3007 46.8698 61.9991 46.2798C61.7008 45.6899 61.5517 45.0005 61.5517 44.2116C61.5517 43.4228 61.7008 42.7318 61.9991 42.1385C62.3007 41.5452 62.725 41.0845 63.2718 40.7564C63.8187 40.4283 64.465 40.2642 65.2108 40.2642C65.9565 40.2642 66.6028 40.4283 67.1497 40.7564C67.6966 41.0845 68.1191 41.5452 68.4174 42.1385C68.719 42.7318 68.8699 43.4228 68.8699 44.2116C68.8699 45.0005 68.719 45.6899 68.4174 46.2798C68.1191 46.8698 67.6966 47.3288 67.1497 47.657C66.6028 47.9851 65.9565 48.1491 65.2108 48.1491ZM65.2207 46.7074C65.6251 46.7074 65.9631 46.5964 66.2349 46.3743C66.5067 46.1489 66.7089 45.8473 66.8414 45.4695C66.9773 45.0916 67.0453 44.6707 67.0453 44.2067C67.0453 43.7393 66.9773 43.3168 66.8414 42.9389C66.7089 42.5578 66.5067 42.2545 66.2349 42.0291C65.9631 41.8037 65.6251 41.6911 65.2207 41.6911C64.8064 41.6911 64.4617 41.8037 64.1866 42.0291C63.9148 42.2545 63.711 42.5578 63.5751 42.9389C63.4425 43.3168 63.3762 43.7393 63.3762 44.2067C63.3762 44.6707 63.4425 45.0916 63.5751 45.4695C63.711 45.8473 63.9148 46.1489 64.1866 46.3743C64.4617 46.5964 64.8064 46.7074 65.2207 46.7074ZM74.2653 40.3636V41.7557H69.7511V40.3636H74.2653ZM70.8796 48V39.6428C70.8796 39.129 70.9857 38.7015 71.1978 38.3601C71.4132 38.0187 71.7016 37.7635 72.0629 37.5945C72.4241 37.4254 72.8252 37.3409 73.266 37.3409C73.5775 37.3409 73.8543 37.3658 74.0962 37.4155C74.3382 37.4652 74.5172 37.5099 74.6332 37.5497L74.2752 38.9418C74.199 38.9186 74.1029 38.8954 73.9869 38.8722C73.8709 38.8456 73.7416 38.8324 73.5991 38.8324C73.2643 38.8324 73.0273 38.9136 72.8881 39.076C72.7522 39.2351 72.6843 39.4638 72.6843 39.7621V48H70.8796ZM84.0146 44.7884V40.3636H85.8143V48H84.0692V46.6428H83.9897C83.8174 47.0703 83.534 47.42 83.1396 47.6918C82.7485 47.9635 82.2662 48.0994 81.6928 48.0994C81.1924 48.0994 80.7499 47.9884 80.3654 47.7663C79.9843 47.541 79.686 47.2145 79.4705 46.7869C79.2551 46.3561 79.1474 45.8357 79.1474 45.2259V40.3636H80.9471V44.9474C80.9471 45.4313 81.0797 45.8158 81.3448 46.1009C81.61 46.3859 81.958 46.5284 82.3888 46.5284C82.654 46.5284 82.9109 46.4638 83.1594 46.3345C83.408 46.2053 83.6119 46.013 83.771 45.7578C83.9334 45.4993 84.0146 45.1761 84.0146 44.7884ZM93.7005 42.3821L92.0598 42.5611C92.0134 42.3954 91.9322 42.2396 91.8162 42.0938C91.7035 41.9479 91.5511 41.8303 91.3588 41.7408C91.1666 41.6513 90.9313 41.6065 90.6529 41.6065C90.2783 41.6065 89.9635 41.6877 89.7083 41.8501C89.4564 42.0125 89.3321 42.223 89.3354 42.4815C89.3321 42.7036 89.4133 42.8842 89.579 43.0234C89.748 43.1626 90.0265 43.277 90.4142 43.3665L91.7168 43.6449C92.4393 43.8007 92.9763 44.0476 93.3276 44.3857C93.6822 44.7237 93.8612 45.1662 93.8645 45.7131C93.8612 46.1937 93.7203 46.6179 93.4419 46.9858C93.1668 47.3504 92.784 47.6354 92.2935 47.8409C91.803 48.0464 91.2395 48.1491 90.6032 48.1491C89.6685 48.1491 88.9161 47.9536 88.3461 47.5625C87.776 47.1681 87.4363 46.6196 87.3269 45.9169L89.0819 45.7479C89.1614 46.0926 89.3304 46.3527 89.589 46.5284C89.8475 46.7041 90.1839 46.7919 90.5982 46.7919C91.0257 46.7919 91.3688 46.7041 91.6273 46.5284C91.8891 46.3527 92.0201 46.1357 92.0201 45.8771C92.0201 45.6584 91.9355 45.4777 91.7665 45.3352C91.6008 45.1927 91.3423 45.0833 90.9909 45.0071L89.6884 44.7337C88.9559 44.5812 88.414 44.3243 88.0627 43.9631C87.7114 43.5985 87.5373 43.1378 87.5407 42.581C87.5373 42.1103 87.665 41.7027 87.9235 41.358C88.1853 41.0099 88.5482 40.7415 89.0123 40.5526C89.4796 40.3603 90.0182 40.2642 90.628 40.2642C91.5229 40.2642 92.2272 40.4548 92.7409 40.8359C93.258 41.2171 93.5778 41.7325 93.7005 42.3821ZM98.7292 48.1491C97.9636 48.1491 97.3024 47.9901 96.7456 47.6719C96.1921 47.3504 95.7662 46.8963 95.4679 46.3097C95.1696 45.7197 95.0204 45.0253 95.0204 44.2266C95.0204 43.4411 95.1696 42.7517 95.4679 42.1584C95.7695 41.5618 96.1904 41.0978 96.7306 40.7663C97.2709 40.4316 97.9056 40.2642 98.6348 40.2642C99.1054 40.2642 99.5495 40.3404 99.9672 40.4929C100.388 40.642 100.759 40.8741 101.081 41.1889C101.406 41.5038 101.661 41.9048 101.846 42.392C102.032 42.8759 102.125 43.4527 102.125 44.1222V44.674H95.8656V43.4609H100.4C100.396 43.1162 100.322 42.8097 100.176 42.5412C100.03 42.2694 99.8263 42.0556 99.5645 41.8999C99.3059 41.7441 99.0043 41.6662 98.6596 41.6662C98.2917 41.6662 97.9686 41.7557 97.6902 41.9347C97.4118 42.1103 97.1947 42.3423 97.0389 42.6307C96.8864 42.9157 96.8085 43.2289 96.8052 43.5703V44.6293C96.8052 45.0734 96.8864 45.4545 97.0488 45.7727C97.2112 46.0876 97.4383 46.3295 97.7299 46.4986C98.0216 46.6643 98.363 46.7472 98.7541 46.7472C99.0159 46.7472 99.2529 46.7107 99.465 46.6378C99.6771 46.5616 99.8611 46.4505 100.017 46.3047C100.173 46.1589 100.29 45.9782 100.37 45.7628L102.05 45.9517C101.944 46.3958 101.742 46.7836 101.444 47.1151C101.149 47.4432 100.771 47.6984 100.31 47.8807C99.8495 48.0597 99.3225 48.1491 98.7292 48.1491ZM103.647 48V40.3636H105.392V41.6364H105.472C105.611 41.1955 105.85 40.8558 106.188 40.6172C106.529 40.3752 106.919 40.2543 107.356 40.2543C107.456 40.2543 107.567 40.2592 107.689 40.2692C107.815 40.2758 107.92 40.2874 108.002 40.304V41.9595C107.926 41.933 107.805 41.9098 107.64 41.8899C107.477 41.8667 107.32 41.8551 107.167 41.8551C106.839 41.8551 106.544 41.9264 106.282 42.0689C106.024 42.2081 105.82 42.402 105.671 42.6506C105.522 42.8991 105.447 43.1858 105.447 43.5107V48H103.647Z" fill="#BB83CF"/>
<line x1="122" y1="42.5" x2="185" y2="42.5" stroke="#BB83CF"/>
<line x1="185" y1="23.5" x2="191" y2="23.5" stroke="#BB83CF"/>
<line x1="185.5" y1="24" x2="185.5" y2="62" stroke="#BB83CF"/>
<line x1="185" y1="61.5" x2="191" y2="61.5" stroke="#BB83CF"/>
<path d="M206.054 40L206.327 38.4659C206.406 38 206.571 37.5057 206.821 36.983C207.077 36.4545 207.403 35.946 207.801 35.4574C208.205 34.9631 208.668 34.5341 209.19 34.1705L209.889 34.8949C209.389 35.3892 208.94 35.9432 208.543 36.5568C208.145 37.1648 207.892 37.7926 207.784 38.4403L207.511 40H206.054ZM210.051 40L210.324 38.4659C210.403 38 210.568 37.5057 210.818 36.983C211.074 36.4545 211.401 35.946 211.798 35.4574C212.202 34.9631 212.665 34.5341 213.188 34.1705L213.886 34.8949C213.386 35.3892 212.938 35.9432 212.54 36.5568C212.142 37.1648 211.889 37.7926 211.781 38.4403L211.509 40H210.051ZM211.487 52H209.817L219.064 34.5455H220.768L224.22 52H222.55L219.643 36.6165H219.533L211.487 52ZM213.805 45.3097H222.464L222.226 46.7415H213.567L213.805 45.3097ZM237.396 41.7812L235.939 42.1562C235.865 41.7642 235.729 41.4119 235.53 41.0994C235.337 40.7812 235.055 40.5312 234.686 40.3494C234.322 40.1619 233.845 40.0682 233.254 40.0682C232.368 40.0682 231.604 40.2841 230.962 40.7159C230.32 41.142 229.945 41.6875 229.837 42.3523C229.746 42.9091 229.862 43.3608 230.186 43.7074C230.516 44.054 231.067 44.3267 231.839 44.5256L233.749 45.0114C234.805 45.2841 235.558 45.7102 236.007 46.2898C236.462 46.8693 236.618 47.6023 236.476 48.4886C236.351 49.2273 236.036 49.8807 235.53 50.4489C235.03 51.017 234.388 51.4631 233.604 51.7869C232.825 52.1108 231.956 52.2727 230.996 52.2727C229.706 52.2727 228.692 51.983 227.953 51.4034C227.22 50.8239 226.828 49.9886 226.777 48.8977L228.303 48.5568C228.348 49.3295 228.612 49.9148 229.095 50.3125C229.584 50.7102 230.271 50.9091 231.158 50.9091C232.169 50.9091 233.018 50.679 233.706 50.2188C234.393 49.7585 234.788 49.1903 234.891 48.5142C234.987 47.9801 234.888 47.5369 234.592 47.1847C234.303 46.8324 233.808 46.571 233.109 46.4006L231.072 45.8892C229.976 45.6108 229.2 45.1761 228.746 44.5852C228.297 43.9886 228.146 43.2528 228.294 42.3778C228.413 41.6562 228.714 41.0227 229.197 40.4773C229.68 39.9318 230.291 39.5057 231.03 39.1989C231.768 38.8864 232.575 38.7301 233.45 38.7301C234.655 38.7301 235.572 39.0028 236.203 39.5483C236.834 40.0881 237.232 40.8324 237.396 41.7812ZM249.573 52.2983C248.783 52.2983 248.087 52.1449 247.485 51.8381C246.883 51.5256 246.434 51.0767 246.138 50.4915C245.849 49.9006 245.769 49.1847 245.9 48.3438C246.013 47.696 246.229 47.1506 246.548 46.7074C246.871 46.2642 247.281 45.9006 247.775 45.6165C248.269 45.3267 248.837 45.0994 249.479 44.9347C250.121 44.7699 250.82 44.6449 251.576 44.5597C252.315 44.4687 252.945 44.3892 253.468 44.321C253.991 44.2528 254.397 44.1449 254.687 43.9972C254.977 43.8494 255.15 43.6108 255.207 43.2812L255.258 42.9744C255.406 42.0824 255.269 41.3807 254.849 40.8693C254.428 40.3523 253.724 40.0938 252.735 40.0938C251.792 40.0938 250.974 40.304 250.281 40.7244C249.593 41.1392 249.082 41.625 248.746 42.1818L247.4 41.6619C247.809 40.946 248.312 40.375 248.908 39.9489C249.505 39.517 250.144 39.2074 250.826 39.0199C251.508 38.8267 252.181 38.7301 252.846 38.7301C253.346 38.7301 253.854 38.7955 254.371 38.9261C254.888 39.0568 255.352 39.2841 255.761 39.608C256.175 39.9261 256.479 40.3722 256.673 40.946C256.871 41.5142 256.9 42.2358 256.758 43.1108L255.275 52H253.758L254.107 49.929H254.013C253.775 50.3153 253.445 50.6903 253.025 51.054C252.61 51.4176 252.113 51.7159 251.533 51.9489C250.954 52.1818 250.3 52.2983 249.573 52.2983ZM249.957 50.9091C250.763 50.9091 251.494 50.7301 252.147 50.3722C252.806 50.0142 253.346 49.5398 253.766 48.9489C254.192 48.3523 254.465 47.696 254.585 46.9801L254.9 45.0881C254.775 45.196 254.57 45.2926 254.286 45.3778C254.008 45.4631 253.692 45.5398 253.34 45.608C252.994 45.6705 252.644 45.7244 252.292 45.7699C251.945 45.8153 251.638 45.8551 251.371 45.8892C250.616 45.9801 249.957 46.1222 249.394 46.3153C248.837 46.5085 248.391 46.7756 248.056 47.1165C247.721 47.4517 247.511 47.8835 247.425 48.4119C247.295 49.2074 247.468 49.8239 247.945 50.2614C248.428 50.6932 249.099 50.9091 249.957 50.9091ZM266.376 52L269.273 34.5455H270.799L269.674 41.4062H269.81C270.043 41.0142 270.353 40.6108 270.739 40.196C271.131 39.7812 271.614 39.4347 272.188 39.1562C272.762 38.8722 273.45 38.7301 274.251 38.7301C275.325 38.7301 276.219 39.0142 276.935 39.5824C277.657 40.1449 278.16 40.9347 278.444 41.9517C278.728 42.9631 278.759 44.142 278.538 45.4886C278.31 46.8409 277.887 48.0256 277.268 49.0426C276.648 50.0597 275.887 50.8523 274.984 51.4205C274.08 51.9886 273.094 52.2727 272.026 52.2727C271.231 52.2727 270.589 52.1307 270.1 51.8466C269.617 51.5625 269.248 51.2131 268.992 50.7983C268.742 50.3778 268.56 49.9687 268.447 49.571H268.259L267.85 52H266.376ZM268.967 45.4631C268.796 46.5199 268.796 47.4574 268.967 48.2756C269.143 49.0881 269.487 49.7273 269.998 50.1932C270.515 50.6534 271.197 50.8835 272.043 50.8835C272.913 50.8835 273.688 50.6449 274.37 50.1676C275.058 49.6847 275.626 49.0341 276.075 48.2159C276.529 47.3977 276.842 46.4801 277.012 45.4631C277.177 44.4574 277.174 43.5511 277.004 42.7443C276.833 41.9375 276.489 41.2983 275.972 40.8267C275.455 40.3494 274.759 40.1108 273.884 40.1108C273.032 40.1108 272.265 40.3409 271.583 40.8011C270.907 41.2557 270.344 41.8864 269.896 42.6932C269.447 43.4943 269.137 44.4176 268.967 45.4631ZM280.779 52L282.961 38.9091H284.435L284.094 40.9205H284.205C284.569 40.2614 285.112 39.7301 285.833 39.3267C286.56 38.9176 287.336 38.7131 288.16 38.7131C288.285 38.7131 288.424 38.7159 288.577 38.7216C288.731 38.7216 288.859 38.7273 288.961 38.7386L288.697 40.2812C288.629 40.2699 288.509 40.2528 288.339 40.2301C288.174 40.2074 287.989 40.196 287.785 40.196C287.103 40.196 286.472 40.3409 285.893 40.6307C285.319 40.9148 284.836 41.3097 284.444 41.8153C284.058 42.321 283.808 42.8977 283.694 43.5455L282.296 52H280.779ZM294.107 52.2727C292.959 52.2727 291.993 51.983 291.209 51.4034C290.425 50.8182 289.871 50.0085 289.547 48.9744C289.223 47.9403 289.169 46.7472 289.385 45.3949C289.601 44.0767 290.03 42.9176 290.672 41.9176C291.32 40.9119 292.115 40.1307 293.058 39.5739C294.001 39.0114 295.027 38.7301 296.135 38.7301C297.288 38.7301 298.254 39.0227 299.033 39.608C299.817 40.1932 300.371 41.0028 300.695 42.0369C301.024 43.071 301.081 44.267 300.865 45.625C300.649 46.9375 300.217 48.0938 299.57 49.0938C298.922 50.0881 298.126 50.8665 297.183 51.429C296.246 51.9915 295.22 52.2727 294.107 52.2727ZM294.124 50.8835C295.055 50.8835 295.885 50.6364 296.612 50.142C297.345 49.642 297.95 48.9773 298.428 48.1477C298.905 47.3125 299.226 46.3949 299.391 45.3949C299.544 44.4403 299.527 43.5625 299.339 42.7614C299.152 41.9602 298.791 41.3182 298.257 40.8352C297.723 40.3523 297.013 40.1108 296.126 40.1108C295.2 40.1108 294.371 40.3636 293.638 40.8693C292.905 41.3693 292.3 42.0398 291.822 42.8807C291.345 43.7159 291.027 44.6307 290.868 45.625C290.709 46.5852 290.72 47.4631 290.902 48.2585C291.089 49.054 291.45 49.6903 291.984 50.1676C292.524 50.6449 293.237 50.8835 294.124 50.8835ZM305.599 52L303.827 38.9091H305.42L306.724 49.7074H306.835L311.727 38.9091H313.338L314.608 49.6818H314.727L319.619 38.9091H321.239L315.102 52H313.534L312.205 41.2869H312.043L307.168 52H305.599ZM332.506 41.7812L331.048 42.1562C330.974 41.7642 330.838 41.4119 330.639 41.0994C330.446 40.7812 330.165 40.5312 329.795 40.3494C329.432 40.1619 328.955 40.0682 328.364 40.0682C327.477 40.0682 326.713 40.2841 326.071 40.7159C325.429 41.142 325.054 41.6875 324.946 42.3523C324.855 42.9091 324.972 43.3608 325.295 43.7074C325.625 44.054 326.176 44.3267 326.949 44.5256L328.858 45.0114C329.915 45.2841 330.668 45.7102 331.116 46.2898C331.571 46.8693 331.727 47.6023 331.585 48.4886C331.46 49.2273 331.145 49.8807 330.639 50.4489C330.139 51.017 329.497 51.4631 328.713 51.7869C327.935 52.1108 327.065 52.2727 326.105 52.2727C324.815 52.2727 323.801 51.983 323.062 51.4034C322.33 50.8239 321.938 49.9886 321.886 48.8977L323.412 48.5568C323.457 49.3295 323.722 49.9148 324.205 50.3125C324.693 50.7102 325.381 50.9091 326.267 50.9091C327.278 50.9091 328.128 50.679 328.815 50.2188C329.503 49.7585 329.898 49.1903 330 48.5142C330.097 47.9801 329.997 47.5369 329.702 47.1847C329.412 46.8324 328.918 46.571 328.219 46.4006L326.182 45.8892C325.085 45.6108 324.31 45.1761 323.855 44.5852C323.406 43.9886 323.256 43.2528 323.403 42.3778C323.523 41.6562 323.824 41.0227 324.307 40.4773C324.79 39.9318 325.401 39.5057 326.139 39.1989C326.878 38.8864 327.685 38.7301 328.56 38.7301C329.764 38.7301 330.682 39.0028 331.312 39.5483C331.943 40.0881 332.341 40.8324 332.506 41.7812ZM339.569 52.2727C338.347 52.2727 337.339 51.9886 336.543 51.4205C335.748 50.8466 335.191 50.054 334.873 49.0426C334.555 48.0256 334.506 46.8551 334.728 45.5312C334.95 44.2131 335.387 43.0426 336.04 42.0199C336.694 40.9915 337.501 40.1875 338.461 39.608C339.421 39.0227 340.464 38.7301 341.589 38.7301C342.299 38.7301 342.964 38.8608 343.583 39.1222C344.202 39.3778 344.728 39.7727 345.16 40.3068C345.597 40.8352 345.901 41.5028 346.072 42.3097C346.242 43.1108 346.237 44.0597 346.055 45.1562L345.935 45.9062H335.708L335.921 44.5682H344.606C344.748 43.7273 344.708 42.9716 344.487 42.3011C344.265 41.6307 343.887 41.0994 343.353 40.7074C342.825 40.3097 342.168 40.1108 341.384 40.1108C340.583 40.1108 339.825 40.3352 339.109 40.7841C338.398 41.233 337.796 41.8182 337.302 42.5398C336.813 43.2557 336.498 44.0199 336.356 44.8324L336.185 45.8381C336.004 46.946 336.026 47.875 336.254 48.625C336.481 49.3693 336.893 49.9318 337.489 50.3125C338.086 50.6932 338.85 50.8835 339.782 50.8835C340.407 50.8835 340.972 50.7869 341.478 50.5938C341.984 50.4006 342.424 50.142 342.799 49.8182C343.174 49.4886 343.475 49.1278 343.702 48.7358L345.058 49.2045C344.768 49.7557 344.359 50.2642 343.83 50.7301C343.308 51.196 342.685 51.571 341.964 51.8551C341.248 52.1335 340.45 52.2727 339.569 52.2727ZM348.256 52L350.438 38.9091H351.912L351.571 40.9205H351.682C352.045 40.2614 352.588 39.7301 353.31 39.3267C354.037 38.9176 354.813 38.7131 355.636 38.7131C355.761 38.7131 355.901 38.7159 356.054 38.7216C356.207 38.7216 356.335 38.7273 356.438 38.7386L356.173 40.2812C356.105 40.2699 355.986 40.2528 355.815 40.2301C355.651 40.2074 355.466 40.196 355.261 40.196C354.58 40.196 353.949 40.3409 353.369 40.6307C352.795 40.9148 352.313 41.3097 351.92 41.8153C351.534 42.321 351.284 42.8977 351.17 43.5455L349.773 52H348.256ZM370.922 38.9091L370.709 40.2301H364.453L364.675 38.9091H370.922ZM367.138 35.7727H368.663L366.533 48.5824C366.442 49.1278 366.464 49.5568 366.601 49.8693C366.737 50.1761 366.947 50.3949 367.232 50.5256C367.516 50.6506 367.828 50.7131 368.169 50.7131C368.368 50.7131 368.538 50.7017 368.68 50.679C368.828 50.6506 368.959 50.6222 369.072 50.5938L369.183 51.9659C369.018 52.0227 368.822 52.0739 368.595 52.1193C368.368 52.1705 368.095 52.196 367.777 52.196C367.22 52.196 366.706 52.0739 366.234 51.8295C365.763 51.5852 365.405 51.2216 365.161 50.7386C364.916 50.2557 364.851 49.6562 364.964 48.9403L367.138 35.7727ZM372.441 56.9091C372.14 56.9091 371.862 56.8807 371.606 56.8239C371.356 56.767 371.16 56.7045 371.018 56.6364L371.657 55.2983C372.134 55.4631 372.572 55.5142 372.969 55.4517C373.373 55.3949 373.756 55.2017 374.12 54.8722C374.484 54.5426 374.842 54.0511 375.194 53.3977L375.91 52.0682L373.319 38.9091H374.896L376.941 50.0227H377.052L382.788 38.9091H384.501L376.447 54.054C376.1 54.7074 375.717 55.2443 375.296 55.6648C374.881 56.0852 374.433 56.3977 373.95 56.6023C373.472 56.8068 372.969 56.9091 372.441 56.9091ZM384.469 56.9091L387.486 38.9091H388.96L388.551 41.4062H388.73C388.969 41.0142 389.278 40.6108 389.659 40.196C390.045 39.7812 390.526 39.4347 391.099 39.1562C391.679 38.8722 392.372 38.7301 393.179 38.7301C394.259 38.7301 395.153 39.0114 395.864 39.5739C396.58 40.1364 397.08 40.9261 397.364 41.9432C397.653 42.9602 397.685 44.142 397.457 45.4886C397.236 46.8409 396.812 48.0256 396.188 49.0426C395.562 50.0597 394.798 50.8523 393.895 51.4205C392.997 51.9886 392.014 52.2727 390.946 52.2727C390.156 52.2727 389.517 52.1307 389.028 51.8466C388.545 51.5625 388.176 51.2131 387.92 50.7983C387.665 50.3778 387.48 49.9687 387.366 49.571H387.23L386.003 56.9091H384.469ZM387.895 45.4631C387.724 46.5199 387.724 47.4574 387.895 48.2756C388.065 49.0881 388.409 49.7273 388.926 50.1932C389.443 50.6534 390.125 50.8835 390.972 50.8835C391.841 50.8835 392.616 50.6449 393.298 50.1676C393.98 49.6847 394.548 49.0341 395.003 48.2159C395.457 47.3977 395.77 46.4801 395.94 45.4631C396.099 44.4574 396.094 43.5511 395.923 42.7443C395.753 41.9375 395.412 41.2983 394.901 40.8267C394.389 40.3494 393.693 40.1108 392.812 40.1108C391.96 40.1108 391.193 40.3409 390.511 40.8011C389.835 41.2557 389.273 41.8864 388.824 42.6932C388.375 43.4943 388.065 44.4176 387.895 45.4631ZM404.96 52.2727C403.738 52.2727 402.729 51.9886 401.934 51.4205C401.138 50.8466 400.582 50.054 400.263 49.0426C399.945 48.0256 399.897 46.8551 400.119 45.5312C400.34 44.2131 400.778 43.0426 401.431 42.0199C402.085 40.9915 402.891 40.1875 403.852 39.608C404.812 39.0227 405.854 38.7301 406.979 38.7301C407.69 38.7301 408.354 38.8608 408.974 39.1222C409.593 39.3778 410.119 39.7727 410.55 40.3068C410.988 40.8352 411.292 41.5028 411.462 42.3097C411.633 43.1108 411.627 44.0597 411.445 45.1562L411.326 45.9062H401.099L401.312 44.5682H409.996C410.138 43.7273 410.099 42.9716 409.877 42.3011C409.656 41.6307 409.278 41.0994 408.744 40.7074C408.215 40.3097 407.559 40.1108 406.775 40.1108C405.974 40.1108 405.215 40.3352 404.499 40.7841C403.789 41.233 403.187 41.8182 402.692 42.5398C402.204 43.2557 401.888 44.0199 401.746 44.8324L401.576 45.8381C401.394 46.946 401.417 47.875 401.644 48.625C401.871 49.3693 402.283 49.9318 402.88 50.3125C403.477 50.6932 404.241 50.8835 405.173 50.8835C405.798 50.8835 406.363 50.7869 406.869 50.5938C407.374 50.4006 407.815 50.142 408.19 49.8182C408.565 49.4886 408.866 49.1278 409.093 48.7358L410.448 49.2045C410.158 49.7557 409.749 50.2642 409.221 50.7301C408.698 51.196 408.076 51.571 407.354 51.8551C406.638 52.1335 405.84 52.2727 404.96 52.2727ZM420.712 52L423.609 34.5455H425.135L424.01 41.4062H424.146C424.379 41.0142 424.689 40.6108 425.075 40.196C425.467 39.7812 425.95 39.4347 426.524 39.1562C427.098 38.8722 427.786 38.7301 428.587 38.7301C429.661 38.7301 430.555 39.0142 431.271 39.5824C431.993 40.1449 432.496 40.9347 432.78 41.9517C433.064 42.9631 433.095 44.142 432.874 45.4886C432.646 46.8409 432.223 48.0256 431.604 49.0426C430.984 50.0597 430.223 50.8523 429.32 51.4205C428.416 51.9886 427.43 52.2727 426.362 52.2727C425.567 52.2727 424.925 52.1307 424.436 51.8466C423.953 51.5625 423.584 51.2131 423.328 50.7983C423.078 50.3778 422.896 49.9687 422.783 49.571H422.595L422.186 52H420.712ZM423.303 45.4631C423.132 46.5199 423.132 47.4574 423.303 48.2756C423.479 49.0881 423.822 49.7273 424.334 50.1932C424.851 50.6534 425.533 50.8835 426.379 50.8835C427.249 50.8835 428.024 50.6449 428.706 50.1676C429.393 49.6847 429.962 49.0341 430.411 48.2159C430.865 47.3977 431.178 46.4801 431.348 45.4631C431.513 44.4574 431.51 43.5511 431.339 42.7443C431.169 41.9375 430.825 41.2983 430.308 40.8267C429.791 40.3494 429.095 40.1108 428.22 40.1108C427.368 40.1108 426.601 40.3409 425.919 40.8011C425.243 41.2557 424.68 41.8864 424.232 42.6932C423.783 43.4943 423.473 44.4176 423.303 45.4631ZM444.26 46.9972L445.615 38.9091H447.132L444.95 52H443.433L443.791 49.8267H443.68C443.271 50.4972 442.692 51.0568 441.942 51.5057C441.197 51.9489 440.345 52.1705 439.385 52.1705C438.55 52.1705 437.837 51.9886 437.246 51.625C436.661 51.2557 436.243 50.7159 435.993 50.0057C435.743 49.2955 435.703 48.4233 435.874 47.3892L437.297 38.9091H438.814L437.416 47.2955C437.251 48.3182 437.416 49.142 437.911 49.767C438.411 50.3864 439.132 50.696 440.075 50.696C440.666 50.696 441.257 50.554 441.848 50.2699C442.445 49.9858 442.962 49.571 443.399 49.0256C443.842 48.4744 444.129 47.7983 444.26 46.9972ZM449.222 56.9091C448.921 56.9091 448.643 56.8807 448.387 56.8239C448.137 56.767 447.941 56.7045 447.799 56.6364L448.438 55.2983C448.915 55.4631 449.353 55.5142 449.751 55.4517C450.154 55.3949 450.538 55.2017 450.901 54.8722C451.265 54.5426 451.623 54.0511 451.975 53.3977L452.691 52.0682L450.1 38.9091H451.677L453.722 50.0227H453.833L459.569 38.9091H461.282L453.228 54.054C452.881 54.7074 452.498 55.2443 452.077 55.6648C451.663 56.0852 451.214 56.3977 450.731 56.6023C450.254 56.8068 449.751 56.9091 449.222 56.9091ZM466.858 52.2727C465.636 52.2727 464.628 51.9886 463.832 51.4205C463.037 50.8466 462.48 50.054 462.162 49.0426C461.844 48.0256 461.795 46.8551 462.017 45.5312C462.239 44.2131 462.676 43.0426 463.33 42.0199C463.983 40.9915 464.79 40.1875 465.75 39.608C466.71 39.0227 467.753 38.7301 468.878 38.7301C469.588 38.7301 470.253 38.8608 470.872 39.1222C471.491 39.3778 472.017 39.7727 472.449 40.3068C472.886 40.8352 473.19 41.5028 473.361 42.3097C473.531 43.1108 473.526 44.0597 473.344 45.1562L473.224 45.9062H462.997L463.21 44.5682H471.895C472.037 43.7273 471.997 42.9716 471.776 42.3011C471.554 41.6307 471.176 41.0994 470.642 40.7074C470.114 40.3097 469.457 40.1108 468.673 40.1108C467.872 40.1108 467.114 40.3352 466.398 40.7841C465.688 41.233 465.085 41.8182 464.591 42.5398C464.102 43.2557 463.787 44.0199 463.645 44.8324L463.474 45.8381C463.293 46.946 463.315 47.875 463.543 48.625C463.77 49.3693 464.182 49.9318 464.778 50.3125C465.375 50.6932 466.139 50.8835 467.071 50.8835C467.696 50.8835 468.261 50.7869 468.767 50.5938C469.273 50.4006 469.713 50.142 470.088 49.8182C470.463 49.4886 470.764 49.1278 470.991 48.7358L472.347 49.2045C472.057 49.7557 471.648 50.2642 471.119 50.7301C470.597 51.196 469.974 51.571 469.253 51.8551C468.537 52.1335 467.739 52.2727 466.858 52.2727ZM475.545 52L477.727 38.9091H479.201L478.86 40.9205H478.971C479.335 40.2614 479.877 39.7301 480.599 39.3267C481.326 38.9176 482.102 38.7131 482.925 38.7131C483.05 38.7131 483.19 38.7159 483.343 38.7216C483.496 38.7216 483.624 38.7273 483.727 38.7386L483.462 40.2812C483.394 40.2699 483.275 40.2528 483.104 40.2301C482.94 40.2074 482.755 40.196 482.55 40.196C481.869 40.196 481.238 40.3409 480.658 40.6307C480.085 40.9148 479.602 41.3097 479.21 41.8153C478.823 42.321 478.573 42.8977 478.46 43.5455L477.062 52H475.545ZM485.521 49.6136L485.197 50.5256C484.992 51.1392 484.742 51.8125 484.447 52.5455C484.151 53.2841 483.859 53.9858 483.569 54.6506C483.279 55.321 483.035 55.858 482.836 56.2614H481.668C481.799 55.875 481.969 55.3835 482.18 54.7869C482.396 54.1903 482.626 53.5312 482.87 52.8097C483.114 52.0881 483.35 51.3409 483.577 50.5682L483.867 49.6136H485.521Z" fill="white" fill-opacity="0.9"/>
<path d="M31.8253 103.07C31.7424 102.801 31.6281 102.561 31.4822 102.349C31.3397 102.133 31.1674 101.949 30.9652 101.797C30.7663 101.644 30.5376 101.53 30.2791 101.454C30.0206 101.374 29.7389 101.335 29.4339 101.335C28.8871 101.335 28.3999 101.472 27.9723 101.747C27.5447 102.022 27.2083 102.427 26.9631 102.96C26.7211 103.491 26.6001 104.137 26.6001 104.899C26.6001 105.668 26.7211 106.319 26.9631 106.853C27.205 107.387 27.5414 107.793 27.9723 108.071C28.4032 108.346 28.9036 108.484 29.4737 108.484C29.9908 108.484 30.4382 108.384 30.8161 108.185C31.1972 107.987 31.4905 107.705 31.696 107.34C31.9015 106.972 32.0043 106.541 32.0043 106.048L32.4219 106.112H29.6577V104.67H33.7891V105.893C33.7891 106.765 33.6035 107.519 33.2322 108.156C32.861 108.792 32.3506 109.282 31.701 109.627C31.0514 109.969 30.3056 110.139 29.4638 110.139C28.5258 110.139 27.7022 109.929 26.9929 109.508C26.2869 109.084 25.7351 108.482 25.3374 107.703C24.9429 106.921 24.7457 105.993 24.7457 104.919C24.7457 104.097 24.8617 103.363 25.0938 102.717C25.3291 102.07 25.6572 101.522 26.0781 101.071C26.4991 100.617 26.9929 100.272 27.5597 100.037C28.1264 99.7983 28.7429 99.679 29.4091 99.679C29.9725 99.679 30.4979 99.7618 30.9851 99.9276C31.4723 100.09 31.9048 100.322 32.2827 100.624C32.6638 100.925 32.977 101.283 33.2223 101.697C33.4676 102.112 33.6283 102.569 33.7045 103.07H31.8253ZM38.824 110.149C38.0783 110.149 37.432 109.985 36.8851 109.657C36.3382 109.329 35.914 108.87 35.6124 108.28C35.3141 107.69 35.165 107 35.165 106.212C35.165 105.423 35.3141 104.732 35.6124 104.138C35.914 103.545 36.3382 103.085 36.8851 102.756C37.432 102.428 38.0783 102.264 38.824 102.264C39.5698 102.264 40.2161 102.428 40.763 102.756C41.3098 103.085 41.7324 103.545 42.0307 104.138C42.3323 104.732 42.4831 105.423 42.4831 106.212C42.4831 107 42.3323 107.69 42.0307 108.28C41.7324 108.87 41.3098 109.329 40.763 109.657C40.2161 109.985 39.5698 110.149 38.824 110.149ZM38.834 108.707C39.2383 108.707 39.5764 108.596 39.8482 108.374C40.12 108.149 40.3221 107.847 40.4547 107.469C40.5906 107.092 40.6586 106.671 40.6586 106.207C40.6586 105.739 40.5906 105.317 40.4547 104.939C40.3221 104.558 40.12 104.254 39.8482 104.029C39.5764 103.804 39.2383 103.691 38.834 103.691C38.4197 103.691 38.075 103.804 37.7999 104.029C37.5281 104.254 37.3243 104.558 37.1884 104.939C37.0558 105.317 36.9895 105.739 36.9895 106.207C36.9895 106.671 37.0558 107.092 37.1884 107.469C37.3243 107.847 37.5281 108.149 37.7999 108.374C38.075 108.596 38.4197 108.707 38.834 108.707ZM46.2081 110.154C45.7242 110.154 45.2884 110.068 44.9006 109.896C44.5161 109.72 44.2112 109.461 43.9858 109.12C43.7637 108.779 43.6527 108.358 43.6527 107.857C43.6527 107.426 43.7322 107.07 43.8913 106.788C44.0504 106.507 44.2675 106.281 44.5426 106.112C44.8177 105.943 45.1276 105.816 45.4723 105.729C45.8203 105.64 46.1799 105.575 46.5511 105.536C46.9986 105.489 47.3615 105.448 47.6399 105.411C47.9183 105.371 48.1205 105.312 48.2464 105.232C48.3757 105.149 48.4403 105.022 48.4403 104.849V104.82C48.4403 104.445 48.3293 104.155 48.1072 103.95C47.8852 103.744 47.5653 103.641 47.1477 103.641C46.7069 103.641 46.3572 103.737 46.0987 103.93C45.8435 104.122 45.6712 104.349 45.5817 104.611L43.9013 104.372C44.0339 103.908 44.2526 103.52 44.5575 103.209C44.8625 102.894 45.2353 102.659 45.6761 102.503C46.117 102.344 46.6042 102.264 47.1378 102.264C47.5057 102.264 47.8719 102.307 48.2365 102.393C48.6011 102.48 48.9342 102.622 49.2358 102.821C49.5374 103.017 49.7794 103.283 49.9616 103.621C50.1473 103.96 50.2401 104.382 50.2401 104.889V110H48.5099V108.951H48.4503C48.3409 109.163 48.1868 109.362 47.9879 109.548C47.7924 109.73 47.5455 109.877 47.2472 109.99C46.9522 110.099 46.6058 110.154 46.2081 110.154ZM46.6754 108.832C47.0367 108.832 47.3499 108.76 47.6151 108.618C47.8802 108.472 48.084 108.28 48.2266 108.041C48.3724 107.803 48.4453 107.542 48.4453 107.261V106.361C48.389 106.407 48.2929 106.45 48.157 106.49C48.0244 106.53 47.8752 106.565 47.7095 106.594C47.5438 106.624 47.3797 106.651 47.2173 106.674C47.0549 106.697 46.9141 106.717 46.7947 106.734C46.5263 106.77 46.286 106.83 46.0739 106.913C45.8617 106.996 45.6944 107.112 45.5717 107.261C45.4491 107.406 45.3878 107.595 45.3878 107.827C45.3878 108.159 45.5088 108.409 45.7507 108.578C45.9927 108.747 46.3009 108.832 46.6754 108.832ZM53.8494 99.8182V110H52.0497V99.8182H53.8494Z" fill="#BB83CF"/>
<line x1="68" y1="104.5" x2="184" y2="104.5" stroke="#BB83CF"/>
<line x1="184" y1="85.5" x2="190" y2="85.5" stroke="#BB83CF"/>
<line x1="184.5" y1="86" x2="184.5" y2="124" stroke="#BB83CF"/>
<line x1="184" y1="123.5" x2="190" y2="123.5" stroke="#BB83CF"/>
<path d="M208.719 96.5455L205.821 114H204.227L207.125 96.5455H208.719ZM219.803 114L218.03 100.909H219.624L220.928 111.707H221.038L225.93 100.909H227.541L228.811 111.682H228.93L233.822 100.909H235.442L229.305 114H227.737L226.408 103.287H226.246L221.371 114H219.803ZM239.831 114.298C239.041 114.298 238.345 114.145 237.743 113.838C237.141 113.526 236.692 113.077 236.396 112.491C236.107 111.901 236.027 111.185 236.158 110.344C236.271 109.696 236.487 109.151 236.805 108.707C237.129 108.264 237.538 107.901 238.033 107.616C238.527 107.327 239.095 107.099 239.737 106.935C240.379 106.77 241.078 106.645 241.834 106.56C242.572 106.469 243.203 106.389 243.726 106.321C244.249 106.253 244.655 106.145 244.945 105.997C245.234 105.849 245.408 105.611 245.464 105.281L245.516 104.974C245.663 104.082 245.527 103.381 245.107 102.869C244.686 102.352 243.982 102.094 242.993 102.094C242.05 102.094 241.232 102.304 240.538 102.724C239.851 103.139 239.339 103.625 239.004 104.182L237.658 103.662C238.067 102.946 238.57 102.375 239.166 101.949C239.763 101.517 240.402 101.207 241.084 101.02C241.766 100.827 242.439 100.73 243.104 100.73C243.604 100.73 244.112 100.795 244.629 100.926C245.146 101.057 245.609 101.284 246.018 101.608C246.433 101.926 246.737 102.372 246.93 102.946C247.129 103.514 247.158 104.236 247.016 105.111L245.533 114H244.016L244.365 111.929H244.271C244.033 112.315 243.703 112.69 243.283 113.054C242.868 113.418 242.371 113.716 241.791 113.949C241.212 114.182 240.558 114.298 239.831 114.298ZM240.214 112.909C241.021 112.909 241.751 112.73 242.405 112.372C243.064 112.014 243.604 111.54 244.024 110.949C244.45 110.352 244.723 109.696 244.842 108.98L245.158 107.088C245.033 107.196 244.828 107.293 244.544 107.378C244.266 107.463 243.95 107.54 243.598 107.608C243.251 107.67 242.902 107.724 242.55 107.77C242.203 107.815 241.896 107.855 241.629 107.889C240.874 107.98 240.214 108.122 239.652 108.315C239.095 108.509 238.649 108.776 238.314 109.116C237.979 109.452 237.768 109.884 237.683 110.412C237.553 111.207 237.726 111.824 238.203 112.261C238.686 112.693 239.357 112.909 240.214 112.909ZM252.44 105.818L251.085 114H249.568L251.75 100.909H253.224L252.884 102.963H253.02C253.429 102.293 253.994 101.756 254.716 101.352C255.443 100.943 256.287 100.739 257.247 100.739C258.122 100.739 258.861 100.923 259.463 101.293C260.071 101.656 260.503 102.193 260.759 102.903C261.02 103.614 261.065 104.486 260.895 105.52L259.472 114H257.955L259.352 105.614C259.528 104.545 259.372 103.699 258.884 103.074C258.401 102.443 257.653 102.128 256.642 102.128C255.955 102.128 255.315 102.276 254.724 102.571C254.139 102.866 253.645 103.293 253.241 103.849C252.838 104.401 252.571 105.057 252.44 105.818ZM270.805 100.909L270.592 102.23H264.336L264.558 100.909H270.805ZM267.021 97.7727H268.546L266.415 110.582C266.325 111.128 266.347 111.557 266.484 111.869C266.62 112.176 266.83 112.395 267.114 112.526C267.398 112.651 267.711 112.713 268.052 112.713C268.251 112.713 268.421 112.702 268.563 112.679C268.711 112.651 268.842 112.622 268.955 112.594L269.066 113.966C268.901 114.023 268.705 114.074 268.478 114.119C268.251 114.17 267.978 114.196 267.66 114.196C267.103 114.196 266.589 114.074 266.117 113.83C265.646 113.585 265.288 113.222 265.043 112.739C264.799 112.256 264.734 111.656 264.847 110.94L267.021 97.7727ZM286.156 100.909L285.943 102.23H279.688L279.909 100.909H286.156ZM282.372 97.7727H283.898L281.767 110.582C281.676 111.128 281.699 111.557 281.835 111.869C281.972 112.176 282.182 112.395 282.466 112.526C282.75 112.651 283.063 112.713 283.403 112.713C283.602 112.713 283.773 112.702 283.915 112.679C284.062 112.651 284.193 112.622 284.307 112.594L284.418 113.966C284.253 114.023 284.057 114.074 283.83 114.119C283.602 114.17 283.33 114.196 283.011 114.196C282.455 114.196 281.94 114.074 281.469 113.83C280.997 113.585 280.639 113.222 280.395 112.739C280.151 112.256 280.085 111.656 280.199 110.94L282.372 97.7727ZM292.427 114.273C291.279 114.273 290.313 113.983 289.529 113.403C288.745 112.818 288.191 112.009 287.867 110.974C287.543 109.94 287.489 108.747 287.705 107.395C287.921 106.077 288.35 104.918 288.992 103.918C289.64 102.912 290.435 102.131 291.379 101.574C292.322 101.011 293.347 100.73 294.455 100.73C295.609 100.73 296.575 101.023 297.353 101.608C298.137 102.193 298.691 103.003 299.015 104.037C299.344 105.071 299.401 106.267 299.185 107.625C298.969 108.938 298.538 110.094 297.89 111.094C297.242 112.088 296.447 112.866 295.504 113.429C294.566 113.991 293.54 114.273 292.427 114.273ZM292.444 112.884C293.376 112.884 294.205 112.636 294.933 112.142C295.665 111.642 296.271 110.977 296.748 110.148C297.225 109.312 297.546 108.395 297.711 107.395C297.864 106.44 297.847 105.562 297.66 104.761C297.472 103.96 297.112 103.318 296.577 102.835C296.043 102.352 295.333 102.111 294.447 102.111C293.521 102.111 292.691 102.364 291.958 102.869C291.225 103.369 290.62 104.04 290.143 104.881C289.665 105.716 289.347 106.631 289.188 107.625C289.029 108.585 289.04 109.463 289.222 110.259C289.41 111.054 289.771 111.69 290.305 112.168C290.844 112.645 291.558 112.884 292.444 112.884ZM318.709 103.781L317.251 104.156C317.178 103.764 317.041 103.412 316.842 103.099C316.649 102.781 316.368 102.531 315.999 102.349C315.635 102.162 315.158 102.068 314.567 102.068C313.68 102.068 312.916 102.284 312.274 102.716C311.632 103.142 311.257 103.687 311.149 104.352C311.058 104.909 311.175 105.361 311.499 105.707C311.828 106.054 312.379 106.327 313.152 106.526L315.061 107.011C316.118 107.284 316.871 107.71 317.32 108.29C317.774 108.869 317.93 109.602 317.788 110.489C317.663 111.227 317.348 111.881 316.842 112.449C316.342 113.017 315.7 113.463 314.916 113.787C314.138 114.111 313.268 114.273 312.308 114.273C311.018 114.273 310.004 113.983 309.266 113.403C308.533 112.824 308.141 111.989 308.089 110.898L309.615 110.557C309.661 111.33 309.925 111.915 310.408 112.312C310.896 112.71 311.584 112.909 312.47 112.909C313.482 112.909 314.331 112.679 315.018 112.219C315.706 111.759 316.101 111.19 316.203 110.514C316.3 109.98 316.2 109.537 315.905 109.185C315.615 108.832 315.121 108.571 314.422 108.401L312.385 107.889C311.288 107.611 310.513 107.176 310.058 106.585C309.609 105.989 309.459 105.253 309.607 104.378C309.726 103.656 310.027 103.023 310.51 102.477C310.993 101.932 311.604 101.506 312.342 101.199C313.081 100.886 313.888 100.73 314.763 100.73C315.967 100.73 316.885 101.003 317.516 101.548C318.146 102.088 318.544 102.832 318.709 103.781ZM325.772 114.273C324.55 114.273 323.542 113.989 322.746 113.42C321.951 112.847 321.394 112.054 321.076 111.043C320.758 110.026 320.71 108.855 320.931 107.531C321.153 106.213 321.59 105.043 322.244 104.02C322.897 102.991 323.704 102.187 324.664 101.608C325.624 101.023 326.667 100.73 327.792 100.73C328.502 100.73 329.167 100.861 329.786 101.122C330.406 101.378 330.931 101.773 331.363 102.307C331.8 102.835 332.104 103.503 332.275 104.31C332.445 105.111 332.44 106.06 332.258 107.156L332.138 107.906H321.911L322.124 106.568H330.809C330.951 105.727 330.911 104.972 330.69 104.301C330.468 103.631 330.09 103.099 329.556 102.707C329.028 102.31 328.371 102.111 327.587 102.111C326.786 102.111 326.028 102.335 325.312 102.784C324.602 103.233 323.999 103.818 323.505 104.54C323.016 105.256 322.701 106.02 322.559 106.832L322.388 107.838C322.207 108.946 322.229 109.875 322.457 110.625C322.684 111.369 323.096 111.932 323.692 112.312C324.289 112.693 325.053 112.884 325.985 112.884C326.61 112.884 327.175 112.787 327.681 112.594C328.187 112.401 328.627 112.142 329.002 111.818C329.377 111.489 329.678 111.128 329.906 110.736L331.261 111.205C330.971 111.756 330.562 112.264 330.033 112.73C329.511 113.196 328.888 113.571 328.167 113.855C327.451 114.134 326.653 114.273 325.772 114.273ZM339.717 114.273C338.496 114.273 337.487 113.989 336.692 113.42C335.896 112.847 335.339 112.054 335.021 111.043C334.703 110.026 334.655 108.855 334.876 107.531C335.098 106.213 335.536 105.043 336.189 104.02C336.842 102.991 337.649 102.187 338.609 101.608C339.57 101.023 340.612 100.73 341.737 100.73C342.447 100.73 343.112 100.861 343.732 101.122C344.351 101.378 344.876 101.773 345.308 102.307C345.746 102.835 346.05 103.503 346.22 104.31C346.391 105.111 346.385 106.06 346.203 107.156L346.084 107.906H335.857L336.07 106.568H344.754C344.896 105.727 344.857 104.972 344.635 104.301C344.413 103.631 344.036 103.099 343.501 102.707C342.973 102.31 342.317 102.111 341.533 102.111C340.732 102.111 339.973 102.335 339.257 102.784C338.547 103.233 337.945 103.818 337.45 104.54C336.962 105.256 336.646 106.02 336.504 106.832L336.334 107.838C336.152 108.946 336.175 109.875 336.402 110.625C336.629 111.369 337.041 111.932 337.638 112.312C338.234 112.693 338.999 112.884 339.93 112.884C340.555 112.884 341.121 112.787 341.626 112.594C342.132 112.401 342.572 112.142 342.947 111.818C343.322 111.489 343.624 111.128 343.851 110.736L345.206 111.205C344.916 111.756 344.507 112.264 343.979 112.73C343.456 113.196 342.834 113.571 342.112 113.855C341.396 114.134 340.598 114.273 339.717 114.273ZM362.492 100.909L362.279 102.23H356.023L356.245 100.909H362.492ZM358.708 97.7727H360.234L358.103 110.582C358.012 111.128 358.035 111.557 358.171 111.869C358.308 112.176 358.518 112.395 358.802 112.526C359.086 112.651 359.398 112.713 359.739 112.713C359.938 112.713 360.109 112.702 360.251 112.679C360.398 112.651 360.529 112.622 360.643 112.594L360.754 113.966C360.589 114.023 360.393 114.074 360.165 114.119C359.938 114.17 359.665 114.196 359.347 114.196C358.79 114.196 358.276 114.074 357.805 113.83C357.333 113.585 356.975 113.222 356.731 112.739C356.487 112.256 356.421 111.656 356.535 110.94L358.708 97.7727ZM366.909 105.818L365.554 114H364.037L366.935 96.5455H368.452L367.395 102.963H367.531C367.94 102.281 368.503 101.741 369.219 101.344C369.935 100.94 370.79 100.739 371.784 100.739C372.665 100.739 373.409 100.92 374.017 101.284C374.631 101.648 375.065 102.185 375.321 102.895C375.582 103.605 375.628 104.48 375.457 105.52L374.034 114H372.509L373.906 105.614C374.082 104.534 373.923 103.685 373.429 103.065C372.94 102.44 372.19 102.128 371.179 102.128C370.486 102.128 369.838 102.276 369.236 102.571C368.639 102.866 368.134 103.293 367.719 103.849C367.31 104.401 367.04 105.057 366.909 105.818ZM383.288 114.273C382.066 114.273 381.058 113.989 380.262 113.42C379.467 112.847 378.91 112.054 378.592 111.043C378.273 110.026 378.225 108.855 378.447 107.531C378.668 106.213 379.106 105.043 379.759 104.02C380.413 102.991 381.219 102.187 382.18 101.608C383.14 101.023 384.183 100.73 385.308 100.73C386.018 100.73 386.683 100.861 387.302 101.122C387.921 101.378 388.447 101.773 388.879 102.307C389.316 102.835 389.62 103.503 389.79 104.31C389.961 105.111 389.955 106.06 389.773 107.156L389.654 107.906H379.427L379.64 106.568H388.325C388.467 105.727 388.427 104.972 388.205 104.301C387.984 103.631 387.606 103.099 387.072 102.707C386.543 102.31 385.887 102.111 385.103 102.111C384.302 102.111 383.543 102.335 382.827 102.784C382.117 103.233 381.515 103.818 381.021 104.54C380.532 105.256 380.217 106.02 380.075 106.832L379.904 107.838C379.722 108.946 379.745 109.875 379.972 110.625C380.2 111.369 380.612 111.932 381.208 112.312C381.805 112.693 382.569 112.884 383.501 112.884C384.126 112.884 384.691 112.787 385.197 112.594C385.702 112.401 386.143 112.142 386.518 111.818C386.893 111.489 387.194 111.128 387.421 110.736L388.776 111.205C388.487 111.756 388.077 112.264 387.549 112.73C387.026 113.196 386.404 113.571 385.683 113.855C384.967 114.134 384.168 114.273 383.288 114.273ZM403.139 96.5455L400.241 114H398.724L401.622 96.5455H403.139ZM409.403 114.273C408.256 114.273 407.29 113.983 406.506 113.403C405.722 112.818 405.168 112.009 404.844 110.974C404.52 109.94 404.466 108.747 404.682 107.395C404.898 106.077 405.327 104.918 405.969 103.918C406.616 102.912 407.412 102.131 408.355 101.574C409.298 101.011 410.324 100.73 411.432 100.73C412.585 100.73 413.551 101.023 414.33 101.608C415.114 102.193 415.668 103.003 415.991 104.037C416.321 105.071 416.378 106.267 416.162 107.625C415.946 108.938 415.514 110.094 414.866 111.094C414.219 112.088 413.423 112.866 412.48 113.429C411.543 113.991 410.517 114.273 409.403 114.273ZM409.42 112.884C410.352 112.884 411.182 112.636 411.909 112.142C412.642 111.642 413.247 110.977 413.724 110.148C414.202 109.312 414.523 108.395 414.688 107.395C414.841 106.44 414.824 105.562 414.636 104.761C414.449 103.96 414.088 103.318 413.554 102.835C413.02 102.352 412.31 102.111 411.423 102.111C410.497 102.111 409.668 102.364 408.935 102.869C408.202 103.369 407.597 104.04 407.119 104.881C406.642 105.716 406.324 106.631 406.165 107.625C406.006 108.585 406.017 109.463 406.199 110.259C406.386 111.054 406.747 111.69 407.281 112.168C407.821 112.645 408.534 112.884 409.42 112.884ZM423.583 114.273C422.435 114.273 421.469 113.983 420.685 113.403C419.901 112.818 419.347 112.009 419.023 110.974C418.7 109.94 418.646 108.747 418.862 107.395C419.077 106.077 419.506 104.918 420.148 103.918C420.796 102.912 421.592 102.131 422.535 101.574C423.478 101.011 424.504 100.73 425.612 100.73C426.765 100.73 427.731 101.023 428.509 101.608C429.293 102.193 429.847 103.003 430.171 104.037C430.501 105.071 430.558 106.267 430.342 107.625C430.126 108.938 429.694 110.094 429.046 111.094C428.398 112.088 427.603 112.866 426.66 113.429C425.722 113.991 424.697 114.273 423.583 114.273ZM423.6 112.884C424.532 112.884 425.362 112.636 426.089 112.142C426.822 111.642 427.427 110.977 427.904 110.148C428.381 109.312 428.702 108.395 428.867 107.395C429.021 106.44 429.004 105.562 428.816 104.761C428.629 103.96 428.268 103.318 427.734 102.835C427.2 102.352 426.489 102.111 425.603 102.111C424.677 102.111 423.847 102.364 423.114 102.869C422.381 103.369 421.776 104.04 421.299 104.881C420.822 105.716 420.504 106.631 420.344 107.625C420.185 108.585 420.197 109.463 420.379 110.259C420.566 111.054 420.927 111.69 421.461 112.168C422.001 112.645 422.714 112.884 423.6 112.884ZM434.814 109.057L435.121 107.054H435.462L442.612 100.909H444.555L437.49 106.977L437.354 107.003L434.814 109.057ZM432.615 114L435.513 96.5455H437.03L434.132 114H432.615ZM440.797 114L436.578 107.276L437.814 106.227L442.714 114H440.797ZM457.122 114.273C455.974 114.273 455.009 113.983 454.224 113.403C453.44 112.818 452.886 112.009 452.562 110.974C452.239 109.94 452.185 108.747 452.401 107.395C452.616 106.077 453.045 104.918 453.688 103.918C454.335 102.912 455.131 102.131 456.074 101.574C457.017 101.011 458.043 100.73 459.151 100.73C460.304 100.73 461.27 101.023 462.048 101.608C462.832 102.193 463.386 103.003 463.71 104.037C464.04 105.071 464.097 106.267 463.881 107.625C463.665 108.938 463.233 110.094 462.585 111.094C461.938 112.088 461.142 112.866 460.199 113.429C459.261 113.991 458.236 114.273 457.122 114.273ZM457.139 112.884C458.071 112.884 458.901 112.636 459.628 112.142C460.361 111.642 460.966 110.977 461.443 110.148C461.92 109.312 462.241 108.395 462.406 107.395C462.56 106.44 462.543 105.562 462.355 104.761C462.168 103.96 461.807 103.318 461.273 102.835C460.739 102.352 460.028 102.111 459.142 102.111C458.216 102.111 457.386 102.364 456.653 102.869C455.92 103.369 455.315 104.04 454.838 104.881C454.361 105.716 454.043 106.631 453.884 107.625C453.724 108.585 453.736 109.463 453.918 110.259C454.105 111.054 454.466 111.69 455 112.168C455.54 112.645 456.253 112.884 457.139 112.884ZM473.722 100.909L473.501 102.23H467.075L467.288 100.909H473.722ZM467.117 114L469.614 98.9915C469.728 98.2869 469.987 97.6932 470.39 97.2102C470.799 96.7273 471.288 96.3608 471.856 96.1108C472.424 95.8608 473.006 95.7358 473.603 95.7358C474.001 95.7358 474.325 95.7699 474.575 95.8381C474.825 95.9006 475.021 95.9631 475.163 96.0256L474.515 97.3551C474.401 97.321 474.265 97.2812 474.106 97.2358C473.952 97.1903 473.751 97.1676 473.501 97.1676C472.842 97.1676 472.302 97.3523 471.881 97.7216C471.461 98.0909 471.191 98.6193 471.072 99.3068L468.634 114H467.117ZM486.577 114.273C485.355 114.273 484.347 113.989 483.551 113.42C482.756 112.847 482.199 112.054 481.881 111.043C481.563 110.026 481.514 108.855 481.736 107.531C481.957 106.213 482.395 105.043 483.048 104.02C483.702 102.991 484.509 102.187 485.469 101.608C486.429 101.023 487.472 100.73 488.597 100.73C489.307 100.73 489.972 100.861 490.591 101.122C491.21 101.378 491.736 101.773 492.168 102.307C492.605 102.835 492.909 103.503 493.08 104.31C493.25 105.111 493.244 106.06 493.062 107.156L492.943 107.906H482.716L482.929 106.568H491.614C491.756 105.727 491.716 104.972 491.494 104.301C491.273 103.631 490.895 103.099 490.361 102.707C489.832 102.31 489.176 102.111 488.392 102.111C487.591 102.111 486.832 102.335 486.116 102.784C485.406 103.233 484.804 103.818 484.31 104.54C483.821 105.256 483.506 106.02 483.364 106.832L483.193 107.838C483.011 108.946 483.034 109.875 483.261 110.625C483.489 111.369 483.901 111.932 484.497 112.312C485.094 112.693 485.858 112.884 486.79 112.884C487.415 112.884 487.98 112.787 488.486 112.594C488.991 112.401 489.432 112.142 489.807 111.818C490.182 111.489 490.483 111.128 490.71 110.736L492.065 111.205C491.776 111.756 491.366 112.264 490.838 112.73C490.315 113.196 489.693 113.571 488.972 113.855C488.256 114.134 487.457 114.273 486.577 114.273ZM498.886 114.298C498.096 114.298 497.4 114.145 496.798 113.838C496.195 113.526 495.746 113.077 495.451 112.491C495.161 111.901 495.082 111.185 495.212 110.344C495.326 109.696 495.542 109.151 495.86 108.707C496.184 108.264 496.593 107.901 497.087 107.616C497.582 107.327 498.15 107.099 498.792 106.935C499.434 106.77 500.133 106.645 500.888 106.56C501.627 106.469 502.258 106.389 502.781 106.321C503.303 106.253 503.71 106.145 503.999 105.997C504.289 105.849 504.462 105.611 504.519 105.281L504.57 104.974C504.718 104.082 504.582 103.381 504.161 102.869C503.741 102.352 503.036 102.094 502.048 102.094C501.104 102.094 500.286 102.304 499.593 102.724C498.906 103.139 498.394 103.625 498.059 104.182L496.712 103.662C497.121 102.946 497.624 102.375 498.221 101.949C498.817 101.517 499.457 101.207 500.138 101.02C500.82 100.827 501.494 100.73 502.158 100.73C502.658 100.73 503.167 100.795 503.684 100.926C504.201 101.057 504.664 101.284 505.073 101.608C505.488 101.926 505.792 102.372 505.985 102.946C506.184 103.514 506.212 104.236 506.07 105.111L504.587 114H503.07L503.42 111.929H503.326C503.087 112.315 502.758 112.69 502.337 113.054C501.923 113.418 501.425 113.716 500.846 113.949C500.266 114.182 499.613 114.298 498.886 114.298ZM499.269 112.909C500.076 112.909 500.806 112.73 501.46 112.372C502.119 112.014 502.658 111.54 503.079 110.949C503.505 110.352 503.778 109.696 503.897 108.98L504.212 107.088C504.087 107.196 503.883 107.293 503.599 107.378C503.32 107.463 503.005 107.54 502.653 107.608C502.306 107.67 501.957 107.724 501.604 107.77C501.258 107.815 500.951 107.855 500.684 107.889C499.928 107.98 499.269 108.122 498.707 108.315C498.15 108.509 497.704 108.776 497.369 109.116C497.033 109.452 496.823 109.884 496.738 110.412C496.607 111.207 496.781 111.824 497.258 112.261C497.741 112.693 498.411 112.909 499.269 112.909ZM513.702 114.273C512.521 114.273 511.546 113.98 510.779 113.395C510.012 112.81 509.475 112.009 509.168 110.991C508.867 109.969 508.825 108.81 509.04 107.514C509.256 106.196 509.691 105.028 510.344 104.011C510.998 102.989 511.805 102.187 512.765 101.608C513.731 101.023 514.785 100.73 515.927 100.73C516.808 100.73 517.575 100.901 518.228 101.241C518.881 101.577 519.387 102.051 519.745 102.665C520.103 103.273 520.273 103.983 520.256 104.795H518.722C518.683 104.04 518.407 103.403 517.896 102.886C517.39 102.369 516.674 102.111 515.748 102.111C514.901 102.111 514.117 102.338 513.396 102.793C512.674 103.241 512.063 103.869 511.563 104.676C511.069 105.477 510.737 106.406 510.566 107.463C510.384 108.526 510.401 109.466 510.617 110.284C510.833 111.097 511.219 111.733 511.776 112.193C512.339 112.653 513.049 112.884 513.907 112.884C514.492 112.884 515.043 112.776 515.56 112.56C516.077 112.338 516.535 112.026 516.933 111.622C517.33 111.213 517.634 110.733 517.844 110.182H519.379C519.123 110.977 518.719 111.682 518.168 112.295C517.623 112.909 516.969 113.392 516.208 113.744C515.447 114.097 514.612 114.273 513.702 114.273ZM524.854 105.818L523.499 114H521.982L524.88 96.5455H526.397L525.34 102.963H525.477C525.886 102.281 526.448 101.741 527.164 101.344C527.88 100.94 528.735 100.739 529.729 100.739C530.61 100.739 531.354 100.92 531.962 101.284C532.576 101.648 533.011 102.185 533.266 102.895C533.528 103.605 533.573 104.48 533.403 105.52L531.979 114H530.454L531.852 105.614C532.028 104.534 531.869 103.685 531.374 103.065C530.886 102.44 530.136 102.128 529.124 102.128C528.431 102.128 527.783 102.276 527.181 102.571C526.585 102.866 526.079 103.293 525.664 103.849C525.255 104.401 524.985 105.057 524.854 105.818ZM543.04 114L545.938 96.5455H547.463L546.338 103.406H546.474C546.707 103.014 547.017 102.611 547.403 102.196C547.795 101.781 548.278 101.435 548.852 101.156C549.426 100.872 550.114 100.73 550.915 100.73C551.989 100.73 552.884 101.014 553.599 101.582C554.321 102.145 554.824 102.935 555.108 103.952C555.392 104.963 555.423 106.142 555.202 107.489C554.974 108.841 554.551 110.026 553.932 111.043C553.313 112.06 552.551 112.852 551.648 113.42C550.744 113.989 549.759 114.273 548.69 114.273C547.895 114.273 547.253 114.131 546.764 113.847C546.281 113.562 545.912 113.213 545.656 112.798C545.406 112.378 545.224 111.969 545.111 111.571H544.923L544.514 114H543.04ZM545.631 107.463C545.46 108.52 545.46 109.457 545.631 110.276C545.807 111.088 546.151 111.727 546.662 112.193C547.179 112.653 547.861 112.884 548.707 112.884C549.577 112.884 550.352 112.645 551.034 112.168C551.722 111.685 552.29 111.034 552.739 110.216C553.193 109.398 553.506 108.48 553.676 107.463C553.841 106.457 553.838 105.551 553.668 104.744C553.497 103.937 553.153 103.298 552.636 102.827C552.119 102.349 551.423 102.111 550.548 102.111C549.696 102.111 548.929 102.341 548.247 102.801C547.571 103.256 547.009 103.886 546.56 104.693C546.111 105.494 545.801 106.418 545.631 107.463ZM557.443 114L559.625 100.909H561.099L560.759 102.92H560.869C561.233 102.261 561.776 101.73 562.497 101.327C563.224 100.918 564 100.713 564.824 100.713C564.949 100.713 565.088 100.716 565.241 100.722C565.395 100.722 565.523 100.727 565.625 100.739L565.361 102.281C565.293 102.27 565.173 102.253 565.003 102.23C564.838 102.207 564.653 102.196 564.449 102.196C563.767 102.196 563.136 102.341 562.557 102.631C561.983 102.915 561.5 103.31 561.108 103.815C560.722 104.321 560.472 104.898 560.358 105.545L558.96 114H557.443ZM570.881 114.273C569.66 114.273 568.651 113.989 567.856 113.42C567.06 112.847 566.504 112.054 566.185 111.043C565.867 110.026 565.819 108.855 566.04 107.531C566.262 106.213 566.7 105.043 567.353 104.02C568.006 102.991 568.813 102.187 569.773 101.608C570.734 101.023 571.776 100.73 572.901 100.73C573.612 100.73 574.276 100.861 574.896 101.122C575.515 101.378 576.04 101.773 576.472 102.307C576.91 102.835 577.214 103.503 577.384 104.31C577.555 105.111 577.549 106.06 577.367 107.156L577.248 107.906H567.021L567.234 106.568H575.918C576.06 105.727 576.021 104.972 575.799 104.301C575.577 103.631 575.2 103.099 574.665 102.707C574.137 102.31 573.481 102.111 572.697 102.111C571.896 102.111 571.137 102.335 570.421 102.784C569.711 103.233 569.109 103.818 568.614 104.54C568.126 105.256 567.81 106.02 567.668 106.832L567.498 107.838C567.316 108.946 567.339 109.875 567.566 110.625C567.793 111.369 568.205 111.932 568.802 112.312C569.398 112.693 570.163 112.884 571.094 112.884C571.719 112.884 572.285 112.787 572.79 112.594C573.296 112.401 573.737 112.142 574.112 111.818C574.487 111.489 574.788 111.128 575.015 110.736L576.37 111.205C576.08 111.756 575.671 112.264 575.143 112.73C574.62 113.196 573.998 113.571 573.276 113.855C572.56 114.134 571.762 114.273 570.881 114.273ZM584.827 114.273C583.605 114.273 582.597 113.989 581.801 113.42C581.006 112.847 580.449 112.054 580.131 111.043C579.813 110.026 579.764 108.855 579.986 107.531C580.207 106.213 580.645 105.043 581.298 104.02C581.952 102.991 582.759 102.187 583.719 101.608C584.679 101.023 585.722 100.73 586.847 100.73C587.557 100.73 588.222 100.861 588.841 101.122C589.46 101.378 589.986 101.773 590.418 102.307C590.855 102.835 591.159 103.503 591.33 104.31C591.5 105.111 591.494 106.06 591.312 107.156L591.193 107.906H580.966L581.179 106.568H589.864C590.006 105.727 589.966 104.972 589.744 104.301C589.523 103.631 589.145 103.099 588.611 102.707C588.082 102.31 587.426 102.111 586.642 102.111C585.841 102.111 585.082 102.335 584.366 102.784C583.656 103.233 583.054 103.818 582.56 104.54C582.071 105.256 581.756 106.02 581.614 106.832L581.443 107.838C581.261 108.946 581.284 109.875 581.511 110.625C581.739 111.369 582.151 111.932 582.747 112.312C583.344 112.693 584.108 112.884 585.04 112.884C585.665 112.884 586.23 112.787 586.736 112.594C587.241 112.401 587.682 112.142 588.057 111.818C588.432 111.489 588.733 111.128 588.96 110.736L590.315 111.205C590.026 111.756 589.616 112.264 589.088 112.73C588.565 113.196 587.943 113.571 587.222 113.855C586.506 114.134 585.707 114.273 584.827 114.273ZM598.201 114.273C597.127 114.273 596.232 113.989 595.516 113.42C594.8 112.852 594.3 112.06 594.016 111.043C593.732 110.026 593.701 108.841 593.923 107.489C594.15 106.142 594.573 104.963 595.192 103.952C595.817 102.935 596.582 102.145 597.485 101.582C598.394 101.014 599.386 100.73 600.46 100.73C601.261 100.73 601.9 100.872 602.377 101.156C602.86 101.435 603.227 101.781 603.477 102.196C603.727 102.611 603.906 103.014 604.013 103.406H604.15L605.292 96.5455H606.817L603.92 114H602.445L602.854 111.571H602.667C602.423 111.969 602.102 112.378 601.704 112.798C601.312 113.213 600.829 113.562 600.255 113.847C599.681 114.131 598.996 114.273 598.201 114.273ZM598.533 112.884C599.38 112.884 600.144 112.653 600.826 112.193C601.513 111.727 602.087 111.088 602.548 110.276C603.013 109.457 603.332 108.52 603.502 107.463C603.678 106.418 603.675 105.494 603.494 104.693C603.312 103.886 602.96 103.256 602.437 102.801C601.914 102.341 601.224 102.111 600.366 102.111C599.496 102.111 598.724 102.349 598.048 102.827C597.371 103.298 596.812 103.937 596.369 104.744C595.931 105.551 595.627 106.457 595.457 107.463C595.292 108.48 595.292 109.398 595.457 110.216C595.621 111.034 595.957 111.685 596.462 112.168C596.974 112.645 597.664 112.884 598.533 112.884Z" fill="white" fill-opacity="0.9"/>
<path d="M25.0043 172V161.818H28.902C29.6378 161.818 30.2493 161.934 30.7365 162.166C31.227 162.395 31.5933 162.708 31.8352 163.106C32.0805 163.504 32.2031 163.954 32.2031 164.458C32.2031 164.872 32.1236 165.227 31.9645 165.522C31.8054 165.814 31.5916 166.051 31.3232 166.233C31.0547 166.415 30.7547 166.546 30.4233 166.626V166.725C30.7846 166.745 31.1309 166.856 31.4624 167.058C31.7971 167.257 32.0705 167.539 32.2827 167.903C32.4948 168.268 32.6009 168.709 32.6009 169.226C32.6009 169.753 32.4732 170.227 32.218 170.648C31.9628 171.065 31.5784 171.395 31.0646 171.637C30.5509 171.879 29.9046 172 29.1257 172H25.0043ZM26.8487 170.459H28.8324C29.5019 170.459 29.9841 170.331 30.2791 170.076C30.5774 169.817 30.7266 169.486 30.7266 169.082C30.7266 168.78 30.652 168.508 30.5028 168.266C30.3537 168.021 30.1416 167.829 29.8665 167.69C29.5914 167.547 29.2633 167.476 28.8821 167.476H26.8487V170.459ZM26.8487 166.148H28.6733C28.9915 166.148 29.2782 166.09 29.5334 165.974C29.7886 165.855 29.9891 165.688 30.1349 165.472C30.2841 165.254 30.3587 164.995 30.3587 164.697C30.3587 164.302 30.2195 163.978 29.9411 163.722C29.666 163.467 29.2566 163.339 28.7131 163.339H26.8487V166.148ZM37.5066 172.149C36.7409 172.149 36.0797 171.99 35.5229 171.672C34.9694 171.35 34.5435 170.896 34.2452 170.31C33.9469 169.72 33.7978 169.025 33.7978 168.227C33.7978 167.441 33.9469 166.752 34.2452 166.158C34.5468 165.562 34.9677 165.098 35.508 164.766C36.0482 164.432 36.6829 164.264 37.4121 164.264C37.8828 164.264 38.3269 164.34 38.7445 164.493C39.1654 164.642 39.5366 164.874 39.8581 165.189C40.1829 165.504 40.4382 165.905 40.6238 166.392C40.8094 166.876 40.9022 167.453 40.9022 168.122V168.674H34.6429V167.461H39.177C39.1737 167.116 39.0991 166.81 38.9533 166.541C38.8075 166.269 38.6036 166.056 38.3418 165.9C38.0833 165.744 37.7817 165.666 37.437 165.666C37.0691 165.666 36.7459 165.756 36.4675 165.935C36.1891 166.11 35.972 166.342 35.8162 166.631C35.6638 166.916 35.5859 167.229 35.5826 167.57V168.629C35.5826 169.073 35.6638 169.455 35.8262 169.773C35.9886 170.088 36.2156 170.33 36.5073 170.499C36.7989 170.664 37.1403 170.747 37.5314 170.747C37.7933 170.747 38.0302 170.711 38.2424 170.638C38.4545 170.562 38.6384 170.451 38.7942 170.305C38.95 170.159 39.0676 169.978 39.1472 169.763L40.8276 169.952C40.7215 170.396 40.5194 170.784 40.2211 171.115C39.9261 171.443 39.5482 171.698 39.0875 171.881C38.6268 172.06 38.0998 172.149 37.5066 172.149ZM44.2244 167.526V172H42.4247V164.364H44.1449V165.661H44.2344C44.41 165.234 44.6901 164.894 45.0746 164.642C45.4624 164.39 45.9413 164.264 46.5114 164.264C47.0384 164.264 47.4974 164.377 47.8885 164.602C48.2829 164.828 48.5878 165.154 48.8033 165.582C49.022 166.009 49.1297 166.528 49.1264 167.138V172H47.3267V167.416C47.3267 166.906 47.1941 166.506 46.929 166.218C46.6671 165.93 46.3042 165.786 45.8402 165.786C45.5253 165.786 45.2453 165.855 45 165.994C44.758 166.13 44.5675 166.327 44.4283 166.586C44.2924 166.844 44.2244 167.158 44.2244 167.526ZM54.3366 172.149C53.571 172.149 52.9098 171.99 52.353 171.672C51.7995 171.35 51.3736 170.896 51.0753 170.31C50.777 169.72 50.6278 169.025 50.6278 168.227C50.6278 167.441 50.777 166.752 51.0753 166.158C51.3769 165.562 51.7978 165.098 52.3381 164.766C52.8783 164.432 53.513 164.264 54.2422 164.264C54.7128 164.264 55.157 164.34 55.5746 164.493C55.9955 164.642 56.3667 164.874 56.6882 165.189C57.013 165.504 57.2682 165.905 57.4538 166.392C57.6394 166.876 57.7322 167.453 57.7322 168.122V168.674H51.473V167.461H56.0071C56.0038 167.116 55.9292 166.81 55.7834 166.541C55.6375 166.269 55.4337 166.056 55.1719 165.9C54.9134 165.744 54.6117 165.666 54.267 165.666C53.8991 165.666 53.576 165.756 53.2976 165.935C53.0192 166.11 52.8021 166.342 52.6463 166.631C52.4938 166.916 52.416 167.229 52.4126 167.57V168.629C52.4126 169.073 52.4938 169.455 52.6562 169.773C52.8187 170.088 53.0457 170.33 53.3374 170.499C53.629 170.664 53.9704 170.747 54.3615 170.747C54.6233 170.747 54.8603 170.711 55.0724 170.638C55.2846 170.562 55.4685 170.451 55.6243 170.305C55.7801 170.159 55.8977 169.978 55.9773 169.763L57.6577 169.952C57.5516 170.396 57.3494 170.784 57.0511 171.115C56.7562 171.443 56.3783 171.698 55.9176 171.881C55.4569 172.06 54.9299 172.149 54.3366 172.149ZM63.1227 164.364V165.756H58.6085V164.364H63.1227ZM59.737 172V163.643C59.737 163.129 59.8431 162.701 60.0552 162.36C60.2707 162.019 60.559 161.763 60.9203 161.594C61.2815 161.425 61.6826 161.341 62.1234 161.341C62.435 161.341 62.7117 161.366 62.9537 161.415C63.1956 161.465 63.3746 161.51 63.4906 161.55L63.1326 162.942C63.0564 162.919 62.9603 162.895 62.8443 162.872C62.7283 162.846 62.599 162.832 62.4565 162.832C62.1217 162.832 61.8848 162.914 61.7456 163.076C61.6097 163.235 61.5417 163.464 61.5417 163.762V172H59.737ZM64.5321 172V164.364H66.3319V172H64.5321ZM65.437 163.28C65.1519 163.28 64.9067 163.185 64.7012 162.996C64.4957 162.804 64.3929 162.574 64.3929 162.305C64.3929 162.034 64.4957 161.803 64.7012 161.614C64.9067 161.422 65.1519 161.326 65.437 161.326C65.7253 161.326 65.9706 161.422 66.1728 161.614C66.3783 161.803 66.481 162.034 66.481 162.305C66.481 162.574 66.3783 162.804 66.1728 162.996C65.9706 163.185 65.7253 163.28 65.437 163.28ZM71.9957 164.364V165.756H67.6058V164.364H71.9957ZM68.6896 162.534H70.4893V169.703C70.4893 169.945 70.5258 170.131 70.5987 170.26C70.675 170.386 70.7744 170.472 70.897 170.518C71.0196 170.565 71.1555 170.588 71.3047 170.588C71.4174 170.588 71.5201 170.58 71.6129 170.563C71.709 170.547 71.782 170.532 71.8317 170.518L72.1349 171.925C72.0388 171.959 71.9013 171.995 71.7223 172.035C71.5466 172.075 71.3312 172.098 71.076 172.104C70.6252 172.118 70.2192 172.05 69.858 171.901C69.4967 171.748 69.21 171.513 68.9979 171.195C68.7891 170.876 68.6863 170.479 68.6896 170.001V162.534Z" fill="#BB83CF"/>
<line x1="86" y1="166.5" x2="185" y2="166.5" stroke="#BB83CF"/>
<line x1="185" y1="147.5" x2="191" y2="147.5" stroke="#BB83CF"/>
<line x1="185.5" y1="148" x2="185.5" y2="186" stroke="#BB83CF"/>
<line x1="185" y1="185.5" x2="191" y2="185.5" stroke="#BB83CF"/>
<path d="M215.412 165.781L213.955 166.156C213.881 165.764 213.744 165.412 213.545 165.099C213.352 164.781 213.071 164.531 212.702 164.349C212.338 164.162 211.861 164.068 211.27 164.068C210.384 164.068 209.619 164.284 208.977 164.716C208.335 165.142 207.96 165.687 207.852 166.352C207.761 166.909 207.878 167.361 208.202 167.707C208.531 168.054 209.082 168.327 209.855 168.526L211.764 169.011C212.821 169.284 213.574 169.71 214.023 170.29C214.477 170.869 214.634 171.602 214.491 172.489C214.366 173.227 214.051 173.881 213.545 174.449C213.045 175.017 212.403 175.463 211.619 175.787C210.841 176.111 209.972 176.273 209.011 176.273C207.722 176.273 206.707 175.983 205.969 175.403C205.236 174.824 204.844 173.989 204.793 172.898L206.318 172.557C206.364 173.33 206.628 173.915 207.111 174.312C207.599 174.71 208.287 174.909 209.173 174.909C210.185 174.909 211.034 174.679 211.722 174.219C212.409 173.759 212.804 173.19 212.906 172.514C213.003 171.98 212.903 171.537 212.608 171.185C212.318 170.832 211.824 170.571 211.125 170.401L209.088 169.889C207.991 169.611 207.216 169.176 206.761 168.585C206.313 167.989 206.162 167.253 206.31 166.378C206.429 165.656 206.73 165.023 207.213 164.477C207.696 163.932 208.307 163.506 209.045 163.199C209.784 162.886 210.591 162.73 211.466 162.73C212.67 162.73 213.588 163.003 214.219 163.548C214.849 164.088 215.247 164.832 215.412 165.781ZM222.364 176.273C221.217 176.273 220.251 175.983 219.467 175.403C218.683 174.818 218.129 174.009 217.805 172.974C217.481 171.94 217.427 170.747 217.643 169.395C217.859 168.077 218.288 166.918 218.93 165.918C219.577 164.912 220.373 164.131 221.316 163.574C222.259 163.011 223.285 162.73 224.393 162.73C225.546 162.73 226.512 163.023 227.29 163.608C228.075 164.193 228.629 165.003 228.952 166.037C229.282 167.071 229.339 168.267 229.123 169.625C228.907 170.938 228.475 172.094 227.827 173.094C227.18 174.088 226.384 174.866 225.441 175.429C224.504 175.991 223.478 176.273 222.364 176.273ZM222.381 174.884C223.313 174.884 224.143 174.636 224.87 174.142C225.603 173.642 226.208 172.977 226.685 172.148C227.163 171.312 227.484 170.395 227.648 169.395C227.802 168.44 227.785 167.562 227.597 166.761C227.41 165.96 227.049 165.318 226.515 164.835C225.981 164.352 225.271 164.111 224.384 164.111C223.458 164.111 222.629 164.364 221.896 164.869C221.163 165.369 220.558 166.04 220.08 166.881C219.603 167.716 219.285 168.631 219.126 169.625C218.967 170.585 218.978 171.463 219.16 172.259C219.347 173.054 219.708 173.69 220.242 174.168C220.782 174.645 221.495 174.884 222.381 174.884ZM245.484 162.909L245.271 164.23H239.016L239.237 162.909H245.484ZM241.7 159.773H243.226L241.095 172.582C241.004 173.128 241.027 173.557 241.163 173.869C241.3 174.176 241.51 174.395 241.794 174.526C242.078 174.651 242.391 174.713 242.732 174.713C242.93 174.713 243.101 174.702 243.243 174.679C243.391 174.651 243.521 174.622 243.635 174.594L243.746 175.966C243.581 176.023 243.385 176.074 243.158 176.119C242.93 176.17 242.658 176.196 242.339 176.196C241.783 176.196 241.268 176.074 240.797 175.83C240.325 175.585 239.967 175.222 239.723 174.739C239.479 174.256 239.413 173.656 239.527 172.94L241.7 159.773ZM249.901 167.818L248.546 176H247.029L249.927 158.545H251.444L250.387 164.963H250.523C250.933 164.281 251.495 163.741 252.211 163.344C252.927 162.94 253.782 162.739 254.776 162.739C255.657 162.739 256.401 162.92 257.009 163.284C257.623 163.648 258.058 164.185 258.313 164.895C258.575 165.605 258.62 166.48 258.45 167.52L257.026 176H255.501L256.898 167.614C257.075 166.534 256.915 165.685 256.421 165.065C255.933 164.44 255.183 164.128 254.171 164.128C253.478 164.128 252.83 164.276 252.228 164.571C251.631 164.866 251.126 165.293 250.711 165.849C250.302 166.401 250.032 167.057 249.901 167.818ZM264.643 176.298C263.854 176.298 263.158 176.145 262.555 175.838C261.953 175.526 261.504 175.077 261.209 174.491C260.919 173.901 260.839 173.185 260.97 172.344C261.084 171.696 261.3 171.151 261.618 170.707C261.942 170.264 262.351 169.901 262.845 169.616C263.339 169.327 263.908 169.099 264.55 168.935C265.192 168.77 265.891 168.645 266.646 168.56C267.385 168.469 268.016 168.389 268.538 168.321C269.061 168.253 269.467 168.145 269.757 167.997C270.047 167.849 270.22 167.611 270.277 167.281L270.328 166.974C270.476 166.082 270.339 165.381 269.919 164.869C269.499 164.352 268.794 164.094 267.805 164.094C266.862 164.094 266.044 164.304 265.351 164.724C264.663 165.139 264.152 165.625 263.817 166.182L262.47 165.662C262.879 164.946 263.382 164.375 263.979 163.949C264.575 163.517 265.214 163.207 265.896 163.02C266.578 162.827 267.251 162.73 267.916 162.73C268.416 162.73 268.925 162.795 269.442 162.926C269.959 163.057 270.422 163.284 270.831 163.608C271.246 163.926 271.55 164.372 271.743 164.946C271.942 165.514 271.97 166.236 271.828 167.111L270.345 176H268.828L269.178 173.929H269.084C268.845 174.315 268.516 174.69 268.095 175.054C267.68 175.418 267.183 175.716 266.604 175.949C266.024 176.182 265.371 176.298 264.643 176.298ZM265.027 174.909C265.834 174.909 266.564 174.73 267.217 174.372C267.876 174.014 268.416 173.54 268.837 172.949C269.263 172.352 269.536 171.696 269.655 170.98L269.97 169.088C269.845 169.196 269.641 169.293 269.357 169.378C269.078 169.463 268.763 169.54 268.411 169.608C268.064 169.67 267.714 169.724 267.362 169.77C267.016 169.815 266.709 169.855 266.442 169.889C265.686 169.98 265.027 170.122 264.464 170.315C263.908 170.509 263.462 170.776 263.126 171.116C262.791 171.452 262.581 171.884 262.496 172.412C262.365 173.207 262.538 173.824 263.016 174.261C263.499 174.693 264.169 174.909 265.027 174.909ZM281.719 162.909L281.506 164.23H275.25L275.472 162.909H281.719ZM277.935 159.773H279.46L277.33 172.582C277.239 173.128 277.261 173.557 277.398 173.869C277.534 174.176 277.744 174.395 278.028 174.526C278.313 174.651 278.625 174.713 278.966 174.713C279.165 174.713 279.335 174.702 279.477 174.679C279.625 174.651 279.756 174.622 279.869 174.594L279.98 175.966C279.815 176.023 279.619 176.074 279.392 176.119C279.165 176.17 278.892 176.196 278.574 176.196C278.017 176.196 277.503 176.074 277.031 175.83C276.56 175.585 276.202 175.222 275.957 174.739C275.713 174.256 275.648 173.656 275.761 172.94L277.935 159.773ZM294.539 158.545L291.641 176H290.048L292.945 158.545H294.539ZM304.915 171.057L305.222 169.054H305.563L312.714 162.909H314.657L307.592 168.977L307.455 169.003L304.915 171.057ZM302.717 176L305.614 158.545H307.131L304.234 176H302.717ZM310.898 176L306.68 169.276L307.915 168.227L312.816 176H310.898ZM318.198 167.818L316.843 176H315.326L317.508 162.909H318.982L318.641 164.963H318.778C319.187 164.293 319.752 163.756 320.474 163.352C321.201 162.943 322.045 162.739 323.005 162.739C323.88 162.739 324.619 162.923 325.221 163.293C325.829 163.656 326.261 164.193 326.516 164.903C326.778 165.614 326.823 166.486 326.653 167.52L325.229 176H323.712L325.11 167.614C325.286 166.545 325.13 165.699 324.641 165.074C324.158 164.443 323.411 164.128 322.4 164.128C321.712 164.128 321.073 164.276 320.482 164.571C319.897 164.866 319.403 165.293 318.999 165.849C318.596 166.401 318.329 167.057 318.198 167.818ZM334.372 176.273C333.224 176.273 332.259 175.983 331.474 175.403C330.69 174.818 330.136 174.009 329.812 172.974C329.489 171.94 329.435 170.747 329.651 169.395C329.866 168.077 330.295 166.918 330.938 165.918C331.585 164.912 332.381 164.131 333.324 163.574C334.267 163.011 335.293 162.73 336.401 162.73C337.554 162.73 338.52 163.023 339.298 163.608C340.082 164.193 340.636 165.003 340.96 166.037C341.29 167.071 341.347 168.267 341.131 169.625C340.915 170.938 340.483 172.094 339.835 173.094C339.188 174.088 338.392 174.866 337.449 175.429C336.511 175.991 335.486 176.273 334.372 176.273ZM334.389 174.884C335.321 174.884 336.151 174.636 336.878 174.142C337.611 173.642 338.216 172.977 338.693 172.148C339.17 171.312 339.491 170.395 339.656 169.395C339.81 168.44 339.793 167.562 339.605 166.761C339.418 165.96 339.057 165.318 338.523 164.835C337.989 164.352 337.278 164.111 336.392 164.111C335.466 164.111 334.636 164.364 333.903 164.869C333.17 165.369 332.565 166.04 332.088 166.881C331.611 167.716 331.293 168.631 331.134 169.625C330.974 170.585 330.986 171.463 331.168 172.259C331.355 173.054 331.716 173.69 332.25 174.168C332.79 174.645 333.503 174.884 334.389 174.884ZM345.865 176L344.092 162.909H345.686L346.99 173.707H347.101L351.993 162.909H353.604L354.874 173.682H354.993L359.885 162.909H361.504L355.368 176H353.8L352.47 165.287H352.308L347.433 176H345.865ZM371.928 176L370.155 162.909H371.749L373.053 173.707H373.163L378.055 162.909H379.666L380.936 173.682H381.055L385.947 162.909H387.567L381.43 176H379.862L378.533 165.287H378.371L373.496 176H371.928ZM391.206 167.818L389.851 176H388.334L391.232 158.545H392.749L391.692 164.963H391.828C392.237 164.281 392.8 163.741 393.516 163.344C394.232 162.94 395.087 162.739 396.081 162.739C396.962 162.739 397.706 162.92 398.314 163.284C398.928 163.648 399.362 164.185 399.618 164.895C399.879 165.605 399.925 166.48 399.754 167.52L398.331 176H396.805L398.203 167.614C398.379 166.534 398.22 165.685 397.726 165.065C397.237 164.44 396.487 164.128 395.476 164.128C394.783 164.128 394.135 164.276 393.533 164.571C392.936 164.866 392.43 165.293 392.016 165.849C391.607 166.401 391.337 167.057 391.206 167.818ZM402.343 176L404.525 162.909H406.05L403.869 176H402.343ZM405.837 160.634C405.519 160.634 405.249 160.526 405.028 160.31C404.812 160.094 404.707 159.832 404.712 159.526C404.724 159.236 404.84 158.986 405.062 158.776C405.289 158.56 405.556 158.452 405.863 158.452C406.181 158.452 406.451 158.562 406.673 158.784C406.894 159 406.999 159.261 406.988 159.568C406.982 159.858 406.866 160.108 406.638 160.318C406.411 160.528 406.144 160.634 405.837 160.634ZM412.96 176.273C411.778 176.273 410.804 175.98 410.037 175.395C409.27 174.81 408.733 174.009 408.426 172.991C408.125 171.969 408.082 170.81 408.298 169.514C408.514 168.196 408.949 167.028 409.602 166.011C410.256 164.989 411.063 164.187 412.023 163.608C412.989 163.023 414.043 162.73 415.185 162.73C416.065 162.73 416.832 162.901 417.486 163.241C418.139 163.577 418.645 164.051 419.003 164.665C419.361 165.273 419.531 165.983 419.514 166.795H417.98C417.94 166.04 417.665 165.403 417.153 164.886C416.648 164.369 415.932 164.111 415.006 164.111C414.159 164.111 413.375 164.338 412.653 164.793C411.932 165.241 411.321 165.869 410.821 166.676C410.327 167.477 409.994 168.406 409.824 169.463C409.642 170.526 409.659 171.466 409.875 172.284C410.091 173.097 410.477 173.733 411.034 174.193C411.597 174.653 412.307 174.884 413.165 174.884C413.75 174.884 414.301 174.776 414.818 174.56C415.335 174.338 415.793 174.026 416.19 173.622C416.588 173.213 416.892 172.733 417.102 172.182H418.636C418.381 172.977 417.977 173.682 417.426 174.295C416.881 174.909 416.227 175.392 415.466 175.744C414.705 176.097 413.869 176.273 412.96 176.273ZM424.112 167.818L422.757 176H421.24L424.138 158.545H425.655L424.598 164.963H424.734C425.143 164.281 425.706 163.741 426.422 163.344C427.138 162.94 427.993 162.739 428.987 162.739C429.868 162.739 430.612 162.92 431.22 163.284C431.834 163.648 432.268 164.185 432.524 164.895C432.786 165.605 432.831 166.48 432.661 167.52L431.237 176H429.712L431.109 167.614C431.286 166.534 431.126 165.685 430.632 165.065C430.143 164.44 429.393 164.128 428.382 164.128C427.689 164.128 427.041 164.276 426.439 164.571C425.842 164.866 425.337 165.293 424.922 165.849C424.513 166.401 424.243 167.057 424.112 167.818ZM447.13 176.273C445.982 176.273 445.016 175.983 444.232 175.403C443.448 174.818 442.894 174.009 442.57 172.974C442.246 171.94 442.192 170.747 442.408 169.395C442.624 168.077 443.053 166.918 443.695 165.918C444.343 164.912 445.138 164.131 446.082 163.574C447.025 163.011 448.05 162.73 449.158 162.73C450.312 162.73 451.278 163.023 452.056 163.608C452.84 164.193 453.394 165.003 453.718 166.037C454.048 167.071 454.104 168.267 453.888 169.625C453.673 170.938 453.241 172.094 452.593 173.094C451.945 174.088 451.15 174.866 450.207 175.429C449.269 175.991 448.244 176.273 447.13 176.273ZM447.147 174.884C448.079 174.884 448.908 174.636 449.636 174.142C450.369 173.642 450.974 172.977 451.451 172.148C451.928 171.312 452.249 170.395 452.414 169.395C452.567 168.44 452.55 167.562 452.363 166.761C452.175 165.96 451.815 165.318 451.281 164.835C450.746 164.352 450.036 164.111 449.15 164.111C448.224 164.111 447.394 164.364 446.661 164.869C445.928 165.369 445.323 166.04 444.846 166.881C444.369 167.716 444.05 168.631 443.891 169.625C443.732 170.585 443.744 171.463 443.925 172.259C444.113 173.054 444.474 173.69 445.008 174.168C445.548 174.645 446.261 174.884 447.147 174.884ZM459.034 167.818L457.679 176H456.162L458.344 162.909H459.818L459.477 164.963H459.614C460.023 164.293 460.588 163.756 461.31 163.352C462.037 162.943 462.881 162.739 463.841 162.739C464.716 162.739 465.455 162.923 466.057 163.293C466.665 163.656 467.097 164.193 467.352 164.903C467.614 165.614 467.659 166.486 467.489 167.52L466.065 176H464.548L465.946 167.614C466.122 166.545 465.966 165.699 465.477 165.074C464.994 164.443 464.247 164.128 463.236 164.128C462.548 164.128 461.909 164.276 461.318 164.571C460.733 164.866 460.239 165.293 459.835 165.849C459.432 166.401 459.165 167.057 459.034 167.818ZM475.319 176.273C474.097 176.273 473.089 175.989 472.293 175.42C471.498 174.847 470.941 174.054 470.623 173.043C470.305 172.026 470.256 170.855 470.478 169.531C470.7 168.213 471.137 167.043 471.79 166.02C472.444 164.991 473.251 164.187 474.211 163.608C475.171 163.023 476.214 162.73 477.339 162.73C478.049 162.73 478.714 162.861 479.333 163.122C479.952 163.378 480.478 163.773 480.91 164.307C481.347 164.835 481.651 165.503 481.822 166.31C481.992 167.111 481.987 168.06 481.805 169.156L481.685 169.906H471.458L471.671 168.568H480.356C480.498 167.727 480.458 166.972 480.237 166.301C480.015 165.631 479.637 165.099 479.103 164.707C478.575 164.31 477.918 164.111 477.134 164.111C476.333 164.111 475.575 164.335 474.859 164.784C474.148 165.233 473.546 165.818 473.052 166.54C472.563 167.256 472.248 168.02 472.106 168.832L471.935 169.838C471.754 170.946 471.776 171.875 472.004 172.625C472.231 173.369 472.643 173.932 473.239 174.312C473.836 174.693 474.6 174.884 475.532 174.884C476.157 174.884 476.722 174.787 477.228 174.594C477.734 174.401 478.174 174.142 478.549 173.818C478.924 173.489 479.225 173.128 479.452 172.736L480.808 173.205C480.518 173.756 480.109 174.264 479.58 174.73C479.058 175.196 478.435 175.571 477.714 175.855C476.998 176.134 476.2 176.273 475.319 176.273ZM494.506 165.781L493.048 166.156C492.974 165.764 492.838 165.412 492.639 165.099C492.446 164.781 492.165 164.531 491.795 164.349C491.432 164.162 490.955 164.068 490.364 164.068C489.477 164.068 488.713 164.284 488.071 164.716C487.429 165.142 487.054 165.687 486.946 166.352C486.855 166.909 486.972 167.361 487.295 167.707C487.625 168.054 488.176 168.327 488.949 168.526L490.858 169.011C491.915 169.284 492.668 169.71 493.116 170.29C493.571 170.869 493.727 171.602 493.585 172.489C493.46 173.227 493.145 173.881 492.639 174.449C492.139 175.017 491.497 175.463 490.713 175.787C489.935 176.111 489.065 176.273 488.105 176.273C486.815 176.273 485.801 175.983 485.062 175.403C484.33 174.824 483.938 173.989 483.886 172.898L485.412 172.557C485.457 173.33 485.722 173.915 486.205 174.312C486.693 174.71 487.381 174.909 488.267 174.909C489.278 174.909 490.128 174.679 490.815 174.219C491.503 173.759 491.898 173.19 492 172.514C492.097 171.98 491.997 171.537 491.702 171.185C491.412 170.832 490.918 170.571 490.219 170.401L488.182 169.889C487.085 169.611 486.31 169.176 485.855 168.585C485.406 167.989 485.256 167.253 485.403 166.378C485.523 165.656 485.824 165.023 486.307 164.477C486.79 163.932 487.401 163.506 488.139 163.199C488.878 162.886 489.685 162.73 490.56 162.73C491.764 162.73 492.682 163.003 493.312 163.548C493.943 164.088 494.341 164.832 494.506 165.781ZM510.629 162.909L510.407 164.23H503.981L504.194 162.909H510.629ZM504.023 176L506.521 160.991C506.634 160.287 506.893 159.693 507.296 159.21C507.705 158.727 508.194 158.361 508.762 158.111C509.33 157.861 509.913 157.736 510.509 157.736C510.907 157.736 511.231 157.77 511.481 157.838C511.731 157.901 511.927 157.963 512.069 158.026L511.421 159.355C511.308 159.321 511.171 159.281 511.012 159.236C510.859 159.19 510.657 159.168 510.407 159.168C509.748 159.168 509.208 159.352 508.788 159.722C508.367 160.091 508.097 160.619 507.978 161.307L505.54 176H504.023ZM511.491 176L513.673 162.909H515.199L513.017 176H511.491ZM514.986 160.634C514.668 160.634 514.398 160.526 514.176 160.31C513.96 160.094 513.855 159.832 513.861 159.526C513.872 159.236 513.989 158.986 514.21 158.776C514.438 158.56 514.705 158.452 515.011 158.452C515.33 158.452 515.599 158.562 515.821 158.784C516.043 159 516.148 159.261 516.136 159.568C516.131 159.858 516.014 160.108 515.787 160.318C515.56 160.528 515.293 160.634 514.986 160.634ZM524.367 162.909L524.154 164.23H517.898L518.12 162.909H524.367ZM520.583 159.773H522.109L519.978 172.582C519.887 173.128 519.91 173.557 520.046 173.869C520.183 174.176 520.393 174.395 520.677 174.526C520.961 174.651 521.273 174.713 521.614 174.713C521.813 174.713 521.984 174.702 522.126 174.679C522.273 174.651 522.404 174.622 522.518 174.594L522.629 175.966C522.464 176.023 522.268 176.074 522.04 176.119C521.813 176.17 521.54 176.196 521.222 176.196C520.665 176.196 520.151 176.074 519.68 175.83C519.208 175.585 518.85 175.222 518.606 174.739C518.362 174.256 518.296 173.656 518.41 172.94L520.583 159.773ZM532.381 176L534.562 162.909H536.037L535.696 164.92H535.832C536.213 164.244 536.741 163.713 537.418 163.327C538.094 162.935 538.861 162.739 539.719 162.739C540.616 162.739 541.321 162.952 541.832 163.378C542.344 163.798 542.685 164.378 542.855 165.116H542.966C543.375 164.389 543.952 163.812 544.696 163.386C545.44 162.955 546.29 162.739 547.244 162.739C548.455 162.739 549.349 163.122 549.929 163.889C550.509 164.656 550.676 165.77 550.432 167.23L548.966 176H547.449L548.915 167.23C549.08 166.196 548.946 165.42 548.514 164.903C548.082 164.386 547.435 164.128 546.571 164.128C545.571 164.128 544.744 164.435 544.091 165.048C543.443 165.656 543.043 166.435 542.889 167.384L541.449 176H539.898L541.389 167.094C541.531 166.207 541.403 165.491 541.006 164.946C540.614 164.401 539.969 164.128 539.071 164.128C538.463 164.128 537.892 164.278 537.358 164.58C536.83 164.875 536.381 165.287 536.011 165.815C535.648 166.338 535.409 166.937 535.295 167.614L533.898 176H532.381ZM552.769 180.909C552.468 180.909 552.19 180.881 551.934 180.824C551.684 180.767 551.488 180.705 551.346 180.636L551.985 179.298C552.462 179.463 552.9 179.514 553.298 179.452C553.701 179.395 554.085 179.202 554.448 178.872C554.812 178.543 555.17 178.051 555.522 177.398L556.238 176.068L553.647 162.909H555.224L557.269 174.023H557.38L563.116 162.909H564.829L556.775 178.054C556.428 178.707 556.045 179.244 555.624 179.665C555.21 180.085 554.761 180.398 554.278 180.602C553.8 180.807 553.298 180.909 552.769 180.909ZM576.78 158.545L573.882 176H572.365L575.263 158.545H576.78ZM577.913 176L580.095 162.909H581.621L579.439 176H577.913ZM581.408 160.634C581.089 160.634 580.82 160.526 580.598 160.31C580.382 160.094 580.277 159.832 580.283 159.526C580.294 159.236 580.411 158.986 580.632 158.776C580.859 158.56 581.126 158.452 581.433 158.452C581.751 158.452 582.021 158.562 582.243 158.784C582.464 159 582.57 159.261 582.558 159.568C582.553 159.858 582.436 160.108 582.209 160.318C581.982 160.528 581.714 160.634 581.408 160.634ZM585.65 171.057L585.957 169.054H586.298L593.448 162.909H595.391L588.326 168.977L588.19 169.003L585.65 171.057ZM583.451 176L586.349 158.545H587.866L584.968 176H583.451ZM591.633 176L587.414 169.276L588.65 168.227L593.55 176H591.633ZM596.077 176L598.259 162.909H599.785L597.603 176H596.077ZM599.572 160.634C599.254 160.634 598.984 160.526 598.762 160.31C598.546 160.094 598.441 159.832 598.447 159.526C598.458 159.236 598.575 158.986 598.796 158.776C599.023 158.56 599.29 158.452 599.597 158.452C599.915 158.452 600.185 158.562 600.407 158.784C600.629 159 600.734 159.261 600.722 159.568C600.717 159.858 600.6 160.108 600.373 160.318C600.146 160.528 599.879 160.634 599.572 160.634ZM604.487 167.818L603.132 176H601.615L603.797 162.909H605.271L604.93 164.963H605.067C605.476 164.293 606.041 163.756 606.763 163.352C607.49 162.943 608.334 162.739 609.294 162.739C610.169 162.739 610.908 162.923 611.51 163.293C612.118 163.656 612.55 164.193 612.805 164.903C613.067 165.614 613.112 166.486 612.942 167.52L611.518 176H610.001L611.399 167.614C611.575 166.545 611.419 165.699 610.93 165.074C610.447 164.443 609.7 164.128 608.689 164.128C608.001 164.128 607.362 164.276 606.771 164.571C606.186 164.866 605.692 165.293 605.288 165.849C604.885 166.401 604.618 167.057 604.487 167.818ZM619.69 181.182C618.798 181.182 618.033 181.065 617.397 180.832C616.761 180.605 616.244 180.293 615.846 179.895C615.454 179.497 615.167 179.051 614.985 178.557L616.366 177.747C616.491 178.077 616.681 178.401 616.937 178.719C617.192 179.037 617.553 179.298 618.019 179.503C618.485 179.713 619.096 179.818 619.852 179.818C621.005 179.818 621.996 179.526 622.826 178.94C623.656 178.361 624.173 177.463 624.377 176.247L624.837 173.298H624.701C624.468 173.696 624.156 174.094 623.763 174.491C623.371 174.884 622.886 175.21 622.306 175.472C621.732 175.733 621.053 175.864 620.269 175.864C619.224 175.864 618.337 175.605 617.61 175.088C616.883 174.571 616.369 173.832 616.067 172.872C615.766 171.906 615.729 170.756 615.957 169.42C616.173 168.097 616.587 166.932 617.201 165.926C617.82 164.92 618.582 164.136 619.485 163.574C620.394 163.011 621.388 162.73 622.468 162.73C623.269 162.73 623.911 162.872 624.394 163.156C624.877 163.435 625.244 163.781 625.494 164.196C625.749 164.611 625.934 165.014 626.048 165.406H626.201L626.61 162.909H628.093L625.877 176.341C625.69 177.449 625.303 178.361 624.718 179.077C624.133 179.793 623.406 180.321 622.536 180.662C621.673 181.009 620.724 181.182 619.69 181.182ZM620.61 174.474C621.451 174.474 622.207 174.273 622.877 173.869C623.553 173.46 624.119 172.878 624.573 172.122C625.033 171.361 625.349 170.452 625.519 169.395C625.69 168.372 625.681 167.466 625.494 166.676C625.312 165.881 624.957 165.256 624.428 164.801C623.906 164.341 623.218 164.111 622.366 164.111C621.485 164.111 620.707 164.347 620.031 164.818C619.36 165.29 618.806 165.926 618.369 166.727C617.937 167.523 617.638 168.412 617.474 169.395C617.315 170.395 617.32 171.278 617.491 172.045C617.667 172.807 618.013 173.403 618.531 173.835C619.048 174.261 619.741 174.474 620.61 174.474ZM631.308 176.128C630.967 176.128 630.68 176.009 630.447 175.77C630.22 175.531 630.107 175.241 630.107 174.901C630.107 174.56 630.232 174.273 630.482 174.04C630.732 173.807 631.024 173.69 631.359 173.69C631.695 173.69 631.982 173.81 632.22 174.048C632.459 174.287 632.572 174.571 632.561 174.901C632.555 175.128 632.493 175.335 632.374 175.523C632.26 175.705 632.109 175.852 631.922 175.966C631.74 176.074 631.536 176.128 631.308 176.128ZM639.283 158.545L639.045 160.08C638.971 160.545 638.803 161.043 638.542 161.571C638.286 162.094 637.957 162.602 637.553 163.097C637.15 163.585 636.692 164.011 636.181 164.375L635.465 163.651C635.971 163.156 636.42 162.605 636.812 161.997C637.21 161.384 637.462 160.753 637.57 160.105L637.826 158.545H639.283ZM643.281 158.545L643.042 160.08C642.968 160.545 642.8 161.043 642.539 161.571C642.283 162.094 641.954 162.602 641.55 163.097C641.147 163.585 640.69 164.011 640.178 164.375L639.462 163.651C639.968 163.156 640.417 162.605 640.809 161.997C641.207 161.384 641.46 160.753 641.567 160.105L641.832 158.545H643.281Z" fill="white" fill-opacity="0.9"/>
</svg>
