<svg width="60" height="61" viewBox="0 0 60 61" fill="none" xmlns="http://www.w3.org/2000/svg">
<g clip-path="url(#clip0_1382_4029)">
<path d="M56.087 20.0653V12.2391H52.1739V8.32613H48.2609V4.41301H40.4347V0.5H19.5653V4.41301H11.7391V8.32613H7.82613V12.2391H3.91301V20.0653H0V40.9347H3.91301V48.7609H7.82613V52.6739H11.7391V56.587H19.5653V60.5H40.4347V56.587H48.2609V52.6739H52.1739V48.7609H56.087V40.9347H60V20.0653H56.087Z" fill="#FFDE46"/>
<path d="M23.4783 38.3262H19.5652V42.2392H23.4783V38.3262Z" fill="black"/>
<path d="M40.4347 31.8047H36.5217V42.2394H40.4347V31.8047Z" fill="black"/>
<path d="M23.4783 18.7617H19.5652V27.8921H23.4783V18.7617Z" fill="black"/>
<path d="M36.5217 27.8906H23.4783V31.8036H36.5217V27.8906Z" fill="black"/>
<path d="M31.3043 14.8483V9.63086H27.3913V14.8483H23.4783V18.7613H36.5217V14.8483H31.3043Z" fill="black"/>
<path d="M40.4347 18.7617H36.5217V22.6747H40.4347V18.7617Z" fill="black"/>
<path d="M23.4783 42.2383V46.1513H27.3913V51.3687H31.3043V46.1513H36.5217V42.2383H23.4783Z" fill="black"/>
<path d="M11.7391 8.32617H7.82611V12.2392H11.7391V8.32617Z" fill="black"/>
<path d="M48.2609 4.41301H40.4347V0.5H19.5653V4.41301H11.7391V8.32613H19.5653V4.41301H40.4347V8.32613H48.2609V12.2391H52.1739V8.32613H48.2609V4.41301Z" fill="black"/>
<path d="M56.0869 12.2383H52.1739V20.0644H56.0869V12.2383Z" fill="black"/>
<path d="M60 20.0645H56.087V40.934H60V20.0645Z" fill="black"/>
<path d="M56.0869 40.9355H52.1739V48.7617H56.0869V40.9355Z" fill="black"/>
<path d="M3.91301 20.0644H0V40.9339H3.91301V48.76H7.82613V52.673H11.7391V48.76H7.82613V40.9339H3.91301V20.0644H7.82613V12.2383H3.91301V20.0644Z" fill="black"/>
<path d="M19.5653 56.587V60.5H40.4347V56.587H48.2609V52.6738H40.4347V56.587H19.5653V52.6738H11.7391V56.587H19.5653Z" fill="black"/>
<path d="M52.1739 48.7617H48.2609V52.6747H52.1739V48.7617Z" fill="black"/>
</g>
<defs>
<clipPath id="clip0_1382_4029">
<rect width="60" height="60" fill="white" transform="translate(0 0.5)"/>
</clipPath>
</defs>
</svg>
