<svg width="1360" height="482" viewBox="0 0 1360 482" fill="none" xmlns="http://www.w3.org/2000/svg">
<path d="M326.535 247H324.671L328.859 235.364H330.887L335.075 247H333.211L329.921 237.477H329.83L326.535 247ZM326.847 242.443H332.893V243.92H326.847V242.443ZM336.619 250.273V238.273H338.278V239.688H338.42C338.518 239.506 338.66 239.295 338.846 239.057C339.031 238.818 339.289 238.61 339.619 238.432C339.948 238.25 340.384 238.159 340.925 238.159C341.63 238.159 342.259 238.337 342.812 238.693C343.365 239.049 343.799 239.562 344.113 240.233C344.431 240.903 344.59 241.71 344.59 242.653C344.59 243.597 344.433 244.405 344.119 245.08C343.804 245.75 343.372 246.267 342.823 246.631C342.274 246.991 341.647 247.17 340.942 247.17C340.412 247.17 339.978 247.081 339.641 246.903C339.308 246.725 339.047 246.517 338.857 246.278C338.668 246.04 338.522 245.828 338.42 245.642H338.317V250.273H336.619ZM338.283 242.636C338.283 243.25 338.372 243.788 338.55 244.25C338.728 244.712 338.986 245.074 339.323 245.335C339.66 245.593 340.073 245.722 340.562 245.722C341.069 245.722 341.494 245.587 341.835 245.318C342.175 245.045 342.433 244.676 342.607 244.21C342.785 243.744 342.874 243.22 342.874 242.636C342.874 242.061 342.787 241.544 342.613 241.085C342.442 240.627 342.185 240.265 341.84 240C341.499 239.735 341.073 239.602 340.562 239.602C340.069 239.602 339.653 239.729 339.312 239.983C338.975 240.237 338.719 240.591 338.545 241.045C338.371 241.5 338.283 242.03 338.283 242.636ZM346.494 250.273V238.273H348.153V239.688H348.295C348.393 239.506 348.535 239.295 348.721 239.057C348.906 238.818 349.164 238.61 349.494 238.432C349.823 238.25 350.259 238.159 350.8 238.159C351.505 238.159 352.134 238.337 352.687 238.693C353.24 239.049 353.674 239.562 353.988 240.233C354.306 240.903 354.465 241.71 354.465 242.653C354.465 243.597 354.308 244.405 353.994 245.08C353.679 245.75 353.247 246.267 352.698 246.631C352.149 246.991 351.522 247.17 350.817 247.17C350.287 247.17 349.853 247.081 349.516 246.903C349.183 246.725 348.922 246.517 348.732 246.278C348.543 246.04 348.397 245.828 348.295 245.642H348.192V250.273H346.494ZM348.158 242.636C348.158 243.25 348.247 243.788 348.425 244.25C348.603 244.712 348.861 245.074 349.198 245.335C349.535 245.593 349.948 245.722 350.437 245.722C350.944 245.722 351.369 245.587 351.71 245.318C352.05 245.045 352.308 244.676 352.482 244.21C352.66 243.744 352.749 243.22 352.749 242.636C352.749 242.061 352.662 241.544 352.488 241.085C352.317 240.627 352.06 240.265 351.715 240C351.374 239.735 350.948 239.602 350.437 239.602C349.944 239.602 349.528 239.729 349.187 239.983C348.85 240.237 348.594 240.591 348.42 241.045C348.246 241.5 348.158 242.03 348.158 242.636ZM358.067 235.364V247H356.369V235.364H358.067ZM360.353 247V238.273H362.052V247H360.353ZM361.211 236.926C360.915 236.926 360.662 236.828 360.45 236.631C360.241 236.43 360.137 236.191 360.137 235.915C360.137 235.634 360.241 235.396 360.45 235.199C360.662 234.998 360.915 234.898 361.211 234.898C361.506 234.898 361.758 234.998 361.967 235.199C362.179 235.396 362.285 235.634 362.285 235.915C362.285 236.191 362.179 236.43 361.967 236.631C361.758 236.828 361.506 236.926 361.211 236.926ZM368.013 247.176C367.169 247.176 366.442 246.985 365.832 246.602C365.226 246.216 364.76 245.684 364.434 245.006C364.108 244.328 363.945 243.551 363.945 242.676C363.945 241.79 364.112 241.008 364.445 240.33C364.779 239.648 365.248 239.116 365.854 238.733C366.46 238.35 367.174 238.159 367.996 238.159C368.659 238.159 369.25 238.282 369.769 238.528C370.288 238.771 370.707 239.112 371.025 239.551C371.347 239.991 371.538 240.504 371.599 241.091H369.945C369.854 240.682 369.646 240.33 369.32 240.034C368.998 239.739 368.567 239.591 368.025 239.591C367.551 239.591 367.137 239.716 366.781 239.966C366.428 240.212 366.154 240.564 365.957 241.023C365.76 241.477 365.661 242.015 365.661 242.636C365.661 243.273 365.758 243.822 365.951 244.284C366.144 244.746 366.417 245.104 366.769 245.358C367.125 245.612 367.544 245.739 368.025 245.739C368.347 245.739 368.638 245.68 368.9 245.562C369.165 245.441 369.387 245.269 369.565 245.045C369.746 244.822 369.873 244.553 369.945 244.239H371.599C371.538 244.803 371.354 245.307 371.048 245.75C370.741 246.193 370.33 246.542 369.815 246.795C369.303 247.049 368.703 247.176 368.013 247.176ZM375.955 247.193C375.402 247.193 374.902 247.091 374.455 246.886C374.008 246.678 373.654 246.377 373.393 245.983C373.135 245.589 373.006 245.106 373.006 244.534C373.006 244.042 373.101 243.636 373.29 243.318C373.48 243 373.736 242.748 374.058 242.562C374.379 242.377 374.739 242.237 375.137 242.142C375.535 242.047 375.94 241.975 376.353 241.926C376.876 241.866 377.3 241.816 377.626 241.778C377.951 241.737 378.188 241.67 378.336 241.58C378.484 241.489 378.558 241.341 378.558 241.136V241.097C378.558 240.6 378.417 240.216 378.137 239.943C377.861 239.67 377.448 239.534 376.898 239.534C376.326 239.534 375.876 239.661 375.546 239.915C375.22 240.165 374.995 240.443 374.87 240.75L373.273 240.386C373.463 239.856 373.739 239.428 374.103 239.102C374.47 238.773 374.893 238.534 375.37 238.386C375.847 238.235 376.349 238.159 376.876 238.159C377.224 238.159 377.594 238.201 377.984 238.284C378.378 238.364 378.745 238.511 379.086 238.727C379.431 238.943 379.713 239.252 379.933 239.653C380.152 240.051 380.262 240.568 380.262 241.205V247H378.603V245.807H378.535C378.425 246.027 378.26 246.242 378.04 246.455C377.821 246.667 377.539 246.843 377.194 246.983C376.849 247.123 376.436 247.193 375.955 247.193ZM376.325 245.83C376.794 245.83 377.196 245.737 377.529 245.551C377.866 245.366 378.122 245.123 378.296 244.824C378.474 244.521 378.563 244.197 378.563 243.852V242.727C378.503 242.788 378.385 242.845 378.211 242.898C378.04 242.947 377.845 242.991 377.626 243.028C377.406 243.062 377.192 243.095 376.984 243.125C376.775 243.152 376.601 243.174 376.461 243.193C376.131 243.235 375.83 243.305 375.558 243.403C375.289 243.502 375.073 243.644 374.91 243.83C374.751 244.011 374.671 244.254 374.671 244.557C374.671 244.977 374.826 245.295 375.137 245.511C375.448 245.723 375.844 245.83 376.325 245.83ZM386.599 238.273V239.636H381.832V238.273H386.599ZM383.11 236.182H384.809V244.438C384.809 244.767 384.858 245.015 384.957 245.182C385.055 245.345 385.182 245.456 385.337 245.517C385.496 245.574 385.669 245.602 385.854 245.602C385.991 245.602 386.11 245.593 386.212 245.574C386.315 245.555 386.394 245.54 386.451 245.528L386.758 246.932C386.659 246.97 386.519 247.008 386.337 247.045C386.156 247.087 385.928 247.11 385.656 247.114C385.209 247.121 384.792 247.042 384.406 246.875C384.019 246.708 383.707 246.451 383.468 246.102C383.229 245.754 383.11 245.316 383.11 244.79V236.182ZM388.478 247V238.273H390.177V247H388.478ZM389.336 236.926C389.04 236.926 388.787 236.828 388.575 236.631C388.366 236.43 388.262 236.191 388.262 235.915C388.262 235.634 388.366 235.396 388.575 235.199C388.787 234.998 389.04 234.898 389.336 234.898C389.631 234.898 389.883 234.998 390.092 235.199C390.304 235.396 390.41 235.634 390.41 235.915C390.41 236.191 390.304 236.43 390.092 236.631C389.883 236.828 389.631 236.926 389.336 236.926ZM396.138 247.176C395.32 247.176 394.606 246.989 393.996 246.614C393.387 246.239 392.913 245.714 392.576 245.04C392.239 244.366 392.07 243.578 392.07 242.676C392.07 241.771 392.239 240.979 392.576 240.301C392.913 239.623 393.387 239.097 393.996 238.722C394.606 238.347 395.32 238.159 396.138 238.159C396.957 238.159 397.671 238.347 398.281 238.722C398.89 239.097 399.364 239.623 399.701 240.301C400.038 240.979 400.207 241.771 400.207 242.676C400.207 243.578 400.038 244.366 399.701 245.04C399.364 245.714 398.89 246.239 398.281 246.614C397.671 246.989 396.957 247.176 396.138 247.176ZM396.144 245.75C396.674 245.75 397.114 245.61 397.462 245.33C397.811 245.049 398.068 244.676 398.235 244.21C398.406 243.744 398.491 243.231 398.491 242.67C398.491 242.114 398.406 241.602 398.235 241.136C398.068 240.667 397.811 240.29 397.462 240.006C397.114 239.722 396.674 239.58 396.144 239.58C395.61 239.58 395.167 239.722 394.815 240.006C394.466 240.29 394.207 240.667 394.036 241.136C393.87 241.602 393.786 242.114 393.786 242.67C393.786 243.231 393.87 243.744 394.036 244.21C394.207 244.676 394.466 245.049 394.815 245.33C395.167 245.61 395.61 245.75 396.144 245.75ZM403.802 241.818V247H402.103V238.273H403.734V239.693H403.842C404.042 239.231 404.357 238.86 404.785 238.58C405.217 238.299 405.76 238.159 406.415 238.159C407.01 238.159 407.531 238.284 407.978 238.534C408.425 238.78 408.772 239.148 409.018 239.636C409.264 240.125 409.387 240.729 409.387 241.449V247H407.688V241.653C407.688 241.021 407.523 240.527 407.194 240.17C406.864 239.811 406.412 239.631 405.836 239.631C405.442 239.631 405.092 239.716 404.785 239.886C404.482 240.057 404.241 240.307 404.063 240.636C403.889 240.962 403.802 241.356 403.802 241.818ZM417.792 247L415.224 238.273H416.979L418.69 244.682H418.775L420.491 238.273H422.246L423.951 244.653H424.036L425.735 238.273H427.491L424.928 247H423.195L421.423 240.699H421.292L419.519 247H417.792ZM429.103 247V238.273H430.802V247H429.103ZM429.961 236.926C429.665 236.926 429.412 236.828 429.2 236.631C428.991 236.43 428.887 236.191 428.887 235.915C428.887 235.634 428.991 235.396 429.2 235.199C429.412 234.998 429.665 234.898 429.961 234.898C430.256 234.898 430.508 234.998 430.717 235.199C430.929 235.396 431.035 235.634 431.035 235.915C431.035 236.191 430.929 236.43 430.717 236.631C430.508 236.828 430.256 236.926 429.961 236.926ZM432.906 247V245.835L437.633 239.83V239.75H433.059V238.273H439.752V239.511L435.207 245.443V245.523H439.911V247H432.906ZM444.455 247.193C443.902 247.193 443.402 247.091 442.955 246.886C442.508 246.678 442.154 246.377 441.893 245.983C441.635 245.589 441.506 245.106 441.506 244.534C441.506 244.042 441.601 243.636 441.79 243.318C441.98 243 442.236 242.748 442.558 242.562C442.879 242.377 443.239 242.237 443.637 242.142C444.035 242.047 444.44 241.975 444.853 241.926C445.376 241.866 445.8 241.816 446.126 241.778C446.451 241.737 446.688 241.67 446.836 241.58C446.984 241.489 447.058 241.341 447.058 241.136V241.097C447.058 240.6 446.917 240.216 446.637 239.943C446.361 239.67 445.948 239.534 445.398 239.534C444.826 239.534 444.376 239.661 444.046 239.915C443.72 240.165 443.495 240.443 443.37 240.75L441.773 240.386C441.963 239.856 442.239 239.428 442.603 239.102C442.97 238.773 443.393 238.534 443.87 238.386C444.347 238.235 444.849 238.159 445.376 238.159C445.724 238.159 446.094 238.201 446.484 238.284C446.878 238.364 447.245 238.511 447.586 238.727C447.931 238.943 448.213 239.252 448.433 239.653C448.652 240.051 448.762 240.568 448.762 241.205V247H447.103V245.807H447.035C446.925 246.027 446.76 246.242 446.54 246.455C446.321 246.667 446.039 246.843 445.694 246.983C445.349 247.123 444.936 247.193 444.455 247.193ZM444.825 245.83C445.294 245.83 445.696 245.737 446.029 245.551C446.366 245.366 446.622 245.123 446.796 244.824C446.974 244.521 447.063 244.197 447.063 243.852V242.727C447.003 242.788 446.885 242.845 446.711 242.898C446.54 242.947 446.345 242.991 446.126 243.028C445.906 243.062 445.692 243.095 445.484 243.125C445.275 243.152 445.101 243.174 444.961 243.193C444.631 243.235 444.33 243.305 444.058 243.403C443.789 243.502 443.573 243.644 443.41 243.83C443.251 244.011 443.171 244.254 443.171 244.557C443.171 244.977 443.326 245.295 443.637 245.511C443.948 245.723 444.344 245.83 444.825 245.83ZM451.025 247V238.273H452.667V239.659H452.758C452.917 239.189 453.197 238.82 453.599 238.551C454.004 238.278 454.462 238.142 454.974 238.142C455.08 238.142 455.205 238.146 455.349 238.153C455.496 238.161 455.612 238.17 455.695 238.182V239.807C455.627 239.788 455.506 239.767 455.332 239.744C455.157 239.718 454.983 239.705 454.809 239.705C454.407 239.705 454.049 239.79 453.735 239.96C453.424 240.127 453.178 240.36 452.996 240.659C452.815 240.955 452.724 241.292 452.724 241.67V247H451.025ZM460.12 247.17C459.415 247.17 458.787 246.991 458.234 246.631C457.684 246.267 457.253 245.75 456.938 245.08C456.628 244.405 456.472 243.597 456.472 242.653C456.472 241.71 456.629 240.903 456.944 240.233C457.262 239.562 457.698 239.049 458.251 238.693C458.804 238.337 459.431 238.159 460.131 238.159C460.673 238.159 461.109 238.25 461.438 238.432C461.772 238.61 462.029 238.818 462.211 239.057C462.397 239.295 462.54 239.506 462.643 239.688H462.745V235.364H464.444V247H462.785V245.642H462.643C462.54 245.828 462.393 246.04 462.2 246.278C462.01 246.517 461.749 246.725 461.415 246.903C461.082 247.081 460.65 247.17 460.12 247.17ZM460.495 245.722C460.984 245.722 461.397 245.593 461.734 245.335C462.075 245.074 462.332 244.712 462.506 244.25C462.684 243.788 462.773 243.25 462.773 242.636C462.773 242.03 462.686 241.5 462.512 241.045C462.338 240.591 462.082 240.237 461.745 239.983C461.408 239.729 460.991 239.602 460.495 239.602C459.984 239.602 459.558 239.735 459.217 240C458.876 240.265 458.618 240.627 458.444 241.085C458.273 241.544 458.188 242.061 458.188 242.636C458.188 243.22 458.275 243.744 458.45 244.21C458.624 244.676 458.881 245.045 459.222 245.318C459.567 245.587 459.991 245.722 460.495 245.722Z" fill="#87FFDB"/>
<rect x="285.5" y="176.5" width="219" height="129" rx="1.5" stroke="#87FFDB"/>
<path d="M57.4737 247V235.364H61.6214C62.5268 235.364 63.2768 235.528 63.8714 235.858C64.4661 236.187 64.9112 236.638 65.2067 237.21C65.5021 237.778 65.6499 238.419 65.6499 239.131C65.6499 239.847 65.5002 240.491 65.201 241.062C64.9055 241.631 64.4586 242.081 63.8601 242.415C63.2654 242.744 62.5173 242.909 61.6158 242.909H58.7635V241.42H61.4567C62.0286 241.42 62.4927 241.322 62.8487 241.125C63.2048 240.924 63.4661 240.652 63.6328 240.307C63.7995 239.962 63.8828 239.57 63.8828 239.131C63.8828 238.691 63.7995 238.301 63.6328 237.96C63.4661 237.619 63.2029 237.352 62.843 237.159C62.487 236.966 62.0173 236.869 61.4339 236.869H59.2294V247H57.4737ZM73.1001 243.381V238.273H74.8047V247H73.1342V245.489H73.0433C72.8426 245.955 72.5206 246.343 72.0774 246.653C71.638 246.96 71.0907 247.114 70.4354 247.114C69.8748 247.114 69.3786 246.991 68.9467 246.744C68.5187 246.494 68.1816 246.125 67.9354 245.636C67.6929 245.148 67.5717 244.544 67.5717 243.824V238.273H69.2706V243.619C69.2706 244.214 69.4354 244.687 69.7649 245.04C70.0945 245.392 70.5225 245.568 71.049 245.568C71.3672 245.568 71.6835 245.489 71.9979 245.33C72.3161 245.17 72.5793 244.93 72.7876 244.608C72.9998 244.286 73.1039 243.877 73.1001 243.381ZM77.0874 247V238.273H78.7294V239.659H78.8203C78.9794 239.189 79.2597 238.82 79.6612 238.551C80.0665 238.278 80.5249 238.142 81.0362 238.142C81.1423 238.142 81.2673 238.146 81.4112 238.153C81.5589 238.161 81.6745 238.17 81.7578 238.182V239.807C81.6896 239.788 81.5684 239.767 81.3942 239.744C81.2199 239.718 81.0457 239.705 80.8714 239.705C80.4699 239.705 80.112 239.79 79.7976 239.96C79.487 240.127 79.2408 240.36 79.0589 240.659C78.8771 240.955 78.7862 241.292 78.7862 241.67V247H77.0874ZM86.5916 247.176C85.7469 247.176 85.0196 246.985 84.4098 246.602C83.8037 246.216 83.3378 245.684 83.0121 245.006C82.6863 244.328 82.5234 243.551 82.5234 242.676C82.5234 241.79 82.6901 241.008 83.0234 240.33C83.3568 239.648 83.8265 239.116 84.4325 238.733C85.0386 238.35 85.7526 238.159 86.5746 238.159C87.2375 238.159 87.8284 238.282 88.3473 238.528C88.8662 238.771 89.2848 239.112 89.603 239.551C89.925 239.991 90.1162 240.504 90.1768 241.091H88.5234C88.4325 240.682 88.2242 240.33 87.8984 240.034C87.5765 239.739 87.1446 239.591 86.603 239.591C86.1295 239.591 85.7147 239.716 85.3587 239.966C85.0064 240.212 84.7318 240.564 84.5348 241.023C84.3378 241.477 84.2393 242.015 84.2393 242.636C84.2393 243.273 84.3359 243.822 84.5291 244.284C84.7223 244.746 84.995 245.104 85.3473 245.358C85.7034 245.612 86.1219 245.739 86.603 245.739C86.925 245.739 87.2166 245.68 87.478 245.562C87.7431 245.441 87.9647 245.269 88.1428 245.045C88.3246 244.822 88.4515 244.553 88.5234 244.239H90.1768C90.1162 244.803 89.9325 245.307 89.6257 245.75C89.3189 246.193 88.9079 246.542 88.3928 246.795C87.8814 247.049 87.281 247.176 86.5916 247.176ZM93.6925 241.818V247H91.9936V235.364H93.6697V239.693H93.7777C93.9822 239.223 94.2947 238.85 94.7152 238.574C95.1357 238.297 95.6849 238.159 96.3629 238.159C96.9614 238.159 97.4841 238.282 97.9311 238.528C98.3819 238.775 98.7304 239.142 98.9766 239.631C99.2266 240.116 99.3516 240.722 99.3516 241.449V247H97.6527V241.653C97.6527 241.013 97.4879 240.517 97.1584 240.165C96.8288 239.809 96.3705 239.631 95.7834 239.631C95.3819 239.631 95.022 239.716 94.7038 239.886C94.3894 240.057 94.1413 240.307 93.9595 240.636C93.7815 240.962 93.6925 241.356 93.6925 241.818ZM104.158 247.193C103.605 247.193 103.105 247.091 102.658 246.886C102.211 246.678 101.857 246.377 101.596 245.983C101.338 245.589 101.21 245.106 101.21 244.534C101.21 244.042 101.304 243.636 101.494 243.318C101.683 243 101.939 242.748 102.261 242.562C102.583 242.377 102.942 242.237 103.34 242.142C103.738 242.047 104.143 241.975 104.556 241.926C105.079 241.866 105.503 241.816 105.829 241.778C106.155 241.737 106.391 241.67 106.539 241.58C106.687 241.489 106.761 241.341 106.761 241.136V241.097C106.761 240.6 106.621 240.216 106.34 239.943C106.064 239.67 105.651 239.534 105.102 239.534C104.53 239.534 104.079 239.661 103.749 239.915C103.424 240.165 103.198 240.443 103.073 240.75L101.477 240.386C101.666 239.856 101.942 239.428 102.306 239.102C102.674 238.773 103.096 238.534 103.573 238.386C104.05 238.235 104.552 238.159 105.079 238.159C105.427 238.159 105.797 238.201 106.187 238.284C106.581 238.364 106.948 238.511 107.289 238.727C107.634 238.943 107.916 239.252 108.136 239.653C108.355 240.051 108.465 240.568 108.465 241.205V247H106.806V245.807H106.738C106.628 246.027 106.463 246.242 106.244 246.455C106.024 246.667 105.742 246.843 105.397 246.983C105.052 247.123 104.639 247.193 104.158 247.193ZM104.528 245.83C104.997 245.83 105.399 245.737 105.732 245.551C106.069 245.366 106.325 245.123 106.499 244.824C106.677 244.521 106.766 244.197 106.766 243.852V242.727C106.706 242.788 106.588 242.845 106.414 242.898C106.244 242.947 106.049 242.991 105.829 243.028C105.609 243.062 105.395 243.095 105.187 243.125C104.978 243.152 104.804 243.174 104.664 243.193C104.335 243.235 104.033 243.305 103.761 243.403C103.492 243.502 103.276 243.644 103.113 243.83C102.954 244.011 102.874 244.254 102.874 244.557C102.874 244.977 103.03 245.295 103.34 245.511C103.651 245.723 104.047 245.83 104.528 245.83ZM117.268 240.403L115.728 240.676C115.664 240.479 115.561 240.292 115.421 240.114C115.285 239.936 115.099 239.79 114.864 239.676C114.629 239.562 114.336 239.506 113.984 239.506C113.503 239.506 113.101 239.614 112.779 239.83C112.457 240.042 112.296 240.316 112.296 240.653C112.296 240.945 112.404 241.18 112.62 241.358C112.836 241.536 113.184 241.682 113.665 241.795L115.052 242.114C115.855 242.299 116.453 242.585 116.847 242.972C117.241 243.358 117.438 243.86 117.438 244.477C117.438 245 117.287 245.466 116.984 245.875C116.684 246.28 116.266 246.598 115.728 246.83C115.194 247.061 114.575 247.176 113.87 247.176C112.893 247.176 112.095 246.968 111.478 246.551C110.861 246.131 110.482 245.534 110.342 244.761L111.984 244.511C112.086 244.939 112.296 245.263 112.614 245.483C112.933 245.699 113.347 245.807 113.859 245.807C114.415 245.807 114.861 245.691 115.194 245.46C115.527 245.225 115.694 244.939 115.694 244.602C115.694 244.33 115.592 244.1 115.387 243.915C115.186 243.729 114.878 243.589 114.461 243.494L112.984 243.17C112.169 242.985 111.567 242.689 111.177 242.284C110.79 241.879 110.597 241.366 110.597 240.744C110.597 240.229 110.741 239.778 111.029 239.392C111.317 239.006 111.715 238.705 112.222 238.489C112.73 238.269 113.311 238.159 113.967 238.159C114.91 238.159 115.652 238.364 116.194 238.773C116.736 239.178 117.094 239.722 117.268 240.403ZM123.067 247.176C122.208 247.176 121.467 246.992 120.846 246.625C120.228 246.254 119.751 245.733 119.414 245.062C119.081 244.388 118.914 243.598 118.914 242.693C118.914 241.799 119.081 241.011 119.414 240.33C119.751 239.648 120.221 239.116 120.823 238.733C121.429 238.35 122.138 238.159 122.948 238.159C123.441 238.159 123.918 238.241 124.38 238.403C124.842 238.566 125.257 238.822 125.624 239.17C125.992 239.519 126.281 239.972 126.494 240.528C126.706 241.081 126.812 241.754 126.812 242.545V243.148H119.874V241.875H125.147C125.147 241.428 125.056 241.032 124.874 240.688C124.692 240.339 124.437 240.064 124.107 239.864C123.781 239.663 123.399 239.562 122.96 239.562C122.482 239.562 122.066 239.68 121.71 239.915C121.357 240.146 121.085 240.449 120.891 240.824C120.702 241.195 120.607 241.598 120.607 242.034V243.028C120.607 243.612 120.71 244.108 120.914 244.517C121.122 244.926 121.412 245.239 121.783 245.455C122.155 245.667 122.588 245.773 123.085 245.773C123.406 245.773 123.7 245.727 123.965 245.636C124.23 245.542 124.46 245.402 124.653 245.216C124.846 245.03 124.994 244.801 125.096 244.528L126.704 244.818C126.575 245.292 126.344 245.706 126.011 246.062C125.681 246.415 125.266 246.689 124.766 246.886C124.27 247.08 123.704 247.176 123.067 247.176ZM142.732 239.148H140.96C140.891 238.769 140.764 238.436 140.579 238.148C140.393 237.86 140.166 237.616 139.897 237.415C139.628 237.214 139.327 237.062 138.994 236.96C138.664 236.858 138.314 236.807 137.942 236.807C137.272 236.807 136.672 236.975 136.141 237.312C135.615 237.65 135.198 238.144 134.891 238.795C134.588 239.447 134.437 240.242 134.437 241.182C134.437 242.129 134.588 242.928 134.891 243.58C135.198 244.231 135.617 244.723 136.147 245.057C136.677 245.39 137.274 245.557 137.937 245.557C138.304 245.557 138.653 245.508 138.982 245.409C139.316 245.307 139.617 245.157 139.886 244.96C140.155 244.763 140.382 244.523 140.567 244.239C140.757 243.951 140.888 243.621 140.96 243.25L142.732 243.256C142.638 243.828 142.454 244.354 142.181 244.835C141.912 245.312 141.566 245.725 141.141 246.074C140.721 246.419 140.24 246.686 139.698 246.875C139.156 247.064 138.566 247.159 137.925 247.159C136.918 247.159 136.02 246.92 135.232 246.443C134.444 245.962 133.823 245.275 133.369 244.381C132.918 243.487 132.692 242.42 132.692 241.182C132.692 239.939 132.92 238.873 133.374 237.983C133.829 237.089 134.45 236.403 135.238 235.926C136.026 235.445 136.922 235.205 137.925 235.205C138.543 235.205 139.119 235.294 139.653 235.472C140.191 235.646 140.674 235.903 141.102 236.244C141.53 236.581 141.884 236.994 142.164 237.483C142.444 237.968 142.634 238.523 142.732 239.148ZM144.259 236.875V235.364H153.265V236.875H149.634V247H147.884V236.875H144.259ZM154.863 247H152.999L157.187 235.364H159.215L163.403 247H161.539L158.249 237.477H158.158L154.863 247ZM155.175 242.443H161.221V243.92H155.175V242.443Z" fill="#94A3B8"/>
<rect x="0.5" y="176.5" width="219" height="129" rx="1.5" stroke="#94A3B8"/>
<path d="M350.989 423V411.364H355.251C356.076 411.364 356.76 411.5 357.302 411.773C357.844 412.042 358.249 412.407 358.518 412.869C358.787 413.328 358.921 413.845 358.921 414.42C358.921 414.905 358.832 415.314 358.654 415.648C358.476 415.977 358.237 416.242 357.938 416.443C357.643 416.64 357.317 416.784 356.961 416.875V416.989C357.347 417.008 357.724 417.133 358.092 417.364C358.463 417.591 358.77 417.915 359.012 418.335C359.254 418.756 359.376 419.267 359.376 419.869C359.376 420.464 359.236 420.998 358.955 421.472C358.679 421.941 358.251 422.314 357.671 422.591C357.092 422.864 356.351 423 355.45 423H350.989ZM352.745 421.494H355.279C356.12 421.494 356.722 421.331 357.086 421.006C357.45 420.68 357.631 420.273 357.631 419.784C357.631 419.417 357.539 419.08 357.353 418.773C357.167 418.466 356.902 418.222 356.558 418.04C356.217 417.858 355.811 417.767 355.342 417.767H352.745V421.494ZM352.745 416.398H355.097C355.491 416.398 355.845 416.322 356.16 416.17C356.478 416.019 356.73 415.807 356.915 415.534C357.105 415.258 357.2 414.932 357.2 414.557C357.2 414.076 357.031 413.672 356.694 413.347C356.357 413.021 355.84 412.858 355.143 412.858H352.745V416.398ZM361.322 423V414.273H363.021V423H361.322ZM362.18 412.926C361.884 412.926 361.63 412.828 361.418 412.631C361.21 412.43 361.106 412.191 361.106 411.915C361.106 411.634 361.21 411.396 361.418 411.199C361.63 410.998 361.884 410.898 362.18 410.898C362.475 410.898 362.727 410.998 362.935 411.199C363.147 411.396 363.254 411.634 363.254 411.915C363.254 412.191 363.147 412.43 362.935 412.631C362.727 412.828 362.475 412.926 362.18 412.926ZM368.573 423.17C367.869 423.17 367.24 422.991 366.687 422.631C366.138 422.267 365.706 421.75 365.391 421.08C365.081 420.405 364.925 419.597 364.925 418.653C364.925 417.71 365.083 416.903 365.397 416.233C365.715 415.562 366.151 415.049 366.704 414.693C367.257 414.337 367.884 414.159 368.585 414.159C369.126 414.159 369.562 414.25 369.891 414.432C370.225 414.61 370.482 414.818 370.664 415.057C370.85 415.295 370.994 415.506 371.096 415.688H371.198V411.364H372.897V423H371.238V421.642H371.096C370.994 421.828 370.846 422.04 370.653 422.278C370.463 422.517 370.202 422.725 369.869 422.903C369.535 423.081 369.103 423.17 368.573 423.17ZM368.948 421.722C369.437 421.722 369.85 421.593 370.187 421.335C370.528 421.074 370.785 420.712 370.96 420.25C371.138 419.788 371.227 419.25 371.227 418.636C371.227 418.03 371.139 417.5 370.965 417.045C370.791 416.591 370.535 416.237 370.198 415.983C369.861 415.729 369.444 415.602 368.948 415.602C368.437 415.602 368.011 415.735 367.67 416C367.329 416.265 367.071 416.627 366.897 417.085C366.727 417.544 366.641 418.061 366.641 418.636C366.641 419.22 366.728 419.744 366.903 420.21C367.077 420.676 367.335 421.045 367.675 421.318C368.02 421.587 368.444 421.722 368.948 421.722ZM386.096 416.403L384.556 416.676C384.492 416.479 384.389 416.292 384.249 416.114C384.113 415.936 383.927 415.79 383.692 415.676C383.458 415.562 383.164 415.506 382.812 415.506C382.331 415.506 381.929 415.614 381.607 415.83C381.285 416.042 381.124 416.316 381.124 416.653C381.124 416.945 381.232 417.18 381.448 417.358C381.664 417.536 382.013 417.682 382.494 417.795L383.88 418.114C384.683 418.299 385.281 418.585 385.675 418.972C386.069 419.358 386.266 419.86 386.266 420.477C386.266 421 386.115 421.466 385.812 421.875C385.513 422.28 385.094 422.598 384.556 422.83C384.022 423.061 383.403 423.176 382.698 423.176C381.721 423.176 380.924 422.968 380.306 422.551C379.689 422.131 379.31 421.534 379.17 420.761L380.812 420.511C380.914 420.939 381.124 421.263 381.442 421.483C381.761 421.699 382.175 421.807 382.687 421.807C383.244 421.807 383.689 421.691 384.022 421.46C384.355 421.225 384.522 420.939 384.522 420.602C384.522 420.33 384.42 420.1 384.215 419.915C384.014 419.729 383.706 419.589 383.289 419.494L381.812 419.17C380.997 418.985 380.395 418.689 380.005 418.284C379.619 417.879 379.425 417.366 379.425 416.744C379.425 416.229 379.569 415.778 379.857 415.392C380.145 415.006 380.543 414.705 381.05 414.489C381.558 414.269 382.139 414.159 382.795 414.159C383.738 414.159 384.48 414.364 385.022 414.773C385.564 415.178 385.922 415.722 386.096 416.403ZM391.896 423.176C391.036 423.176 390.295 422.992 389.674 422.625C389.057 422.254 388.579 421.733 388.242 421.062C387.909 420.388 387.742 419.598 387.742 418.693C387.742 417.799 387.909 417.011 388.242 416.33C388.579 415.648 389.049 415.116 389.651 414.733C390.257 414.35 390.966 414.159 391.776 414.159C392.269 414.159 392.746 414.241 393.208 414.403C393.67 414.566 394.085 414.822 394.452 415.17C394.82 415.519 395.11 415.972 395.322 416.528C395.534 417.081 395.64 417.754 395.64 418.545V419.148H388.702V417.875H393.975C393.975 417.428 393.884 417.032 393.702 416.688C393.521 416.339 393.265 416.064 392.935 415.864C392.61 415.663 392.227 415.562 391.788 415.562C391.31 415.562 390.894 415.68 390.538 415.915C390.185 416.146 389.913 416.449 389.719 416.824C389.53 417.195 389.435 417.598 389.435 418.034V419.028C389.435 419.612 389.538 420.108 389.742 420.517C389.951 420.926 390.24 421.239 390.612 421.455C390.983 421.667 391.416 421.773 391.913 421.773C392.235 421.773 392.528 421.727 392.793 421.636C393.058 421.542 393.288 421.402 393.481 421.216C393.674 421.03 393.822 420.801 393.924 420.528L395.532 420.818C395.403 421.292 395.172 421.706 394.839 422.062C394.509 422.415 394.094 422.689 393.594 422.886C393.098 423.08 392.532 423.176 391.896 423.176ZM401.599 414.273V415.636H396.832V414.273H401.599ZM398.11 412.182H399.809V420.438C399.809 420.767 399.858 421.015 399.957 421.182C400.055 421.345 400.182 421.456 400.337 421.517C400.496 421.574 400.669 421.602 400.854 421.602C400.991 421.602 401.11 421.593 401.212 421.574C401.315 421.555 401.394 421.54 401.451 421.528L401.758 422.932C401.659 422.97 401.519 423.008 401.337 423.045C401.156 423.087 400.928 423.11 400.656 423.114C400.209 423.121 399.792 423.042 399.406 422.875C399.019 422.708 398.707 422.451 398.468 422.102C398.229 421.754 398.11 421.316 398.11 420.79V412.182ZM407.552 414.273V415.636H402.785V414.273H407.552ZM404.063 412.182H405.762V420.438C405.762 420.767 405.811 421.015 405.91 421.182C406.008 421.345 406.135 421.456 406.29 421.517C406.45 421.574 406.622 421.602 406.808 421.602C406.944 421.602 407.063 421.593 407.165 421.574C407.268 421.555 407.347 421.54 407.404 421.528L407.711 422.932C407.612 422.97 407.472 423.008 407.29 423.045C407.109 423.087 406.881 423.11 406.609 423.114C406.162 423.121 405.745 423.042 405.359 422.875C404.972 422.708 404.66 422.451 404.421 422.102C404.183 421.754 404.063 421.316 404.063 420.79V412.182ZM409.431 423V414.273H411.13V423H409.431ZM410.289 412.926C409.994 412.926 409.74 412.828 409.528 412.631C409.319 412.43 409.215 412.191 409.215 411.915C409.215 411.634 409.319 411.396 409.528 411.199C409.74 410.998 409.994 410.898 410.289 410.898C410.585 410.898 410.836 410.998 411.045 411.199C411.257 411.396 411.363 411.634 411.363 411.915C411.363 412.191 411.257 412.43 411.045 412.631C410.836 412.828 410.585 412.926 410.289 412.926ZM415.114 417.818V423H413.415V414.273H415.046V415.693H415.154C415.355 415.231 415.669 414.86 416.097 414.58C416.529 414.299 417.073 414.159 417.728 414.159C418.323 414.159 418.844 414.284 419.29 414.534C419.737 414.78 420.084 415.148 420.33 415.636C420.576 416.125 420.7 416.729 420.7 417.449V423H419.001V417.653C419.001 417.021 418.836 416.527 418.506 416.17C418.177 415.811 417.724 415.631 417.148 415.631C416.754 415.631 416.404 415.716 416.097 415.886C415.794 416.057 415.554 416.307 415.376 416.636C415.201 416.962 415.114 417.356 415.114 417.818ZM426.637 426.455C425.944 426.455 425.347 426.364 424.847 426.182C424.351 426 423.946 425.759 423.631 425.46C423.317 425.161 423.082 424.833 422.927 424.477L424.387 423.875C424.489 424.042 424.626 424.218 424.796 424.403C424.97 424.593 425.205 424.754 425.501 424.886C425.8 425.019 426.184 425.085 426.654 425.085C427.298 425.085 427.83 424.928 428.251 424.614C428.671 424.303 428.881 423.807 428.881 423.125V421.409H428.773C428.671 421.595 428.523 421.801 428.33 422.028C428.141 422.256 427.879 422.453 427.546 422.619C427.213 422.786 426.779 422.869 426.245 422.869C425.556 422.869 424.934 422.708 424.381 422.386C423.832 422.061 423.397 421.581 423.075 420.949C422.756 420.312 422.597 419.53 422.597 418.602C422.597 417.674 422.754 416.879 423.069 416.216C423.387 415.553 423.823 415.045 424.376 414.693C424.929 414.337 425.556 414.159 426.256 414.159C426.798 414.159 427.236 414.25 427.569 414.432C427.902 414.61 428.162 414.818 428.347 415.057C428.537 415.295 428.683 415.506 428.785 415.688H428.91V414.273H430.575V423.193C430.575 423.943 430.4 424.559 430.052 425.04C429.703 425.521 429.232 425.877 428.637 426.108C428.046 426.339 427.379 426.455 426.637 426.455ZM426.62 421.46C427.109 421.46 427.522 421.347 427.859 421.119C428.2 420.888 428.457 420.559 428.631 420.131C428.809 419.699 428.898 419.182 428.898 418.58C428.898 417.992 428.811 417.475 428.637 417.028C428.463 416.581 428.207 416.233 427.87 415.983C427.533 415.729 427.116 415.602 426.62 415.602C426.109 415.602 425.683 415.735 425.342 416C425.001 416.261 424.743 416.617 424.569 417.068C424.398 417.519 424.313 418.023 424.313 418.58C424.313 419.152 424.4 419.653 424.575 420.085C424.749 420.517 425.006 420.854 425.347 421.097C425.692 421.339 426.116 421.46 426.62 421.46ZM439.393 416.403L437.853 416.676C437.789 416.479 437.686 416.292 437.546 416.114C437.41 415.936 437.224 415.79 436.989 415.676C436.754 415.562 436.461 415.506 436.109 415.506C435.628 415.506 435.226 415.614 434.904 415.83C434.582 416.042 434.421 416.316 434.421 416.653C434.421 416.945 434.529 417.18 434.745 417.358C434.961 417.536 435.309 417.682 435.79 417.795L437.177 418.114C437.98 418.299 438.578 418.585 438.972 418.972C439.366 419.358 439.563 419.86 439.563 420.477C439.563 421 439.412 421.466 439.109 421.875C438.809 422.28 438.391 422.598 437.853 422.83C437.319 423.061 436.7 423.176 435.995 423.176C435.018 423.176 434.22 422.968 433.603 422.551C432.986 422.131 432.607 421.534 432.467 420.761L434.109 420.511C434.211 420.939 434.421 421.263 434.739 421.483C435.058 421.699 435.472 421.807 435.984 421.807C436.54 421.807 436.986 421.691 437.319 421.46C437.652 421.225 437.819 420.939 437.819 420.602C437.819 420.33 437.717 420.1 437.512 419.915C437.311 419.729 437.003 419.589 436.586 419.494L435.109 419.17C434.294 418.985 433.692 418.689 433.302 418.284C432.915 417.879 432.722 417.366 432.722 416.744C432.722 416.229 432.866 415.778 433.154 415.392C433.442 415.006 433.84 414.705 434.347 414.489C434.855 414.269 435.436 414.159 436.092 414.159C437.035 414.159 437.777 414.364 438.319 414.773C438.861 415.178 439.219 415.722 439.393 416.403Z" fill="#94A3B8"/>
<rect x="285.5" y="352.5" width="219" height="129" rx="1.5" stroke="#94A3B8"/>
<path d="M347.158 67.2273H348.886L350.102 68.8125L350.675 69.517L352.613 72.0455H350.817L349.522 70.358L349.079 69.7443L347.158 67.2273ZM352.988 65.1818C352.988 66.4242 352.761 67.4924 352.306 68.3864C351.852 69.2765 351.228 69.9621 350.437 70.4432C349.649 70.9205 348.753 71.1591 347.749 71.1591C346.742 71.1591 345.842 70.9205 345.05 70.4432C344.263 69.9621 343.641 69.2746 343.187 68.3807C342.732 67.4867 342.505 66.4205 342.505 65.1818C342.505 63.9394 342.732 62.8731 343.187 61.983C343.641 61.089 344.263 60.4034 345.05 59.9261C345.842 59.4451 346.742 59.2045 347.749 59.2045C348.753 59.2045 349.649 59.4451 350.437 59.9261C351.228 60.4034 351.852 61.089 352.306 61.983C352.761 62.8731 352.988 63.9394 352.988 65.1818ZM351.249 65.1818C351.249 64.2348 351.096 63.4375 350.789 62.7898C350.486 62.1383 350.069 61.6458 349.539 61.3125C349.013 60.9754 348.416 60.8068 347.749 60.8068C347.079 60.8068 346.48 60.9754 345.954 61.3125C345.427 61.6458 345.011 62.1383 344.704 62.7898C344.401 63.4375 344.249 64.2348 344.249 65.1818C344.249 66.1288 344.401 66.928 344.704 67.5795C345.011 68.2273 345.427 68.7197 345.954 69.0568C346.48 69.3902 347.079 69.5568 347.749 69.5568C348.416 69.5568 349.013 69.3902 349.539 69.0568C350.069 68.7197 350.486 68.2273 350.789 67.5795C351.096 66.928 351.249 66.1288 351.249 65.1818ZM360.569 67.3807V62.2727H362.273V71H360.603V69.4886H360.512C360.311 69.9545 359.989 70.3428 359.546 70.6534C359.107 70.9602 358.559 71.1136 357.904 71.1136C357.344 71.1136 356.847 70.9905 356.415 70.7443C355.987 70.4943 355.65 70.125 355.404 69.6364C355.162 69.1477 355.04 68.5436 355.04 67.8239V62.2727H356.739V67.6193C356.739 68.214 356.904 68.6875 357.234 69.0398C357.563 69.392 357.991 69.5682 358.518 69.5682C358.836 69.5682 359.152 69.4886 359.467 69.3295C359.785 69.1705 360.048 68.9299 360.256 68.608C360.469 68.286 360.573 67.8769 360.569 67.3807ZM368.317 71.1761C367.458 71.1761 366.717 70.9924 366.096 70.625C365.478 70.2538 365.001 69.733 364.664 69.0625C364.331 68.3883 364.164 67.5985 364.164 66.6932C364.164 65.7992 364.331 65.0114 364.664 64.3295C365.001 63.6477 365.471 63.1155 366.073 62.733C366.679 62.3504 367.388 62.1591 368.198 62.1591C368.691 62.1591 369.168 62.2405 369.63 62.4034C370.092 62.5663 370.507 62.822 370.874 63.1705C371.242 63.5189 371.531 63.9716 371.744 64.5284C371.956 65.0814 372.062 65.7538 372.062 66.5455V67.1477H365.124V65.875H370.397C370.397 65.428 370.306 65.0322 370.124 64.6875C369.942 64.339 369.687 64.0644 369.357 63.8636C369.031 63.6629 368.649 63.5625 368.21 63.5625C367.732 63.5625 367.316 63.6799 366.96 63.9148C366.607 64.1458 366.335 64.4489 366.141 64.8239C365.952 65.1951 365.857 65.5985 365.857 66.0341V67.0284C365.857 67.6117 365.96 68.108 366.164 68.517C366.372 68.9261 366.662 69.2386 367.033 69.4545C367.405 69.6667 367.838 69.7727 368.335 69.7727C368.656 69.7727 368.95 69.7273 369.215 69.6364C369.48 69.5417 369.71 69.4015 369.903 69.2159C370.096 69.0303 370.244 68.8011 370.346 68.5284L371.954 68.8182C371.825 69.2917 371.594 69.7064 371.261 70.0625C370.931 70.4148 370.516 70.6894 370.016 70.8864C369.52 71.0795 368.954 71.1761 368.317 71.1761ZM380.487 64.4034L378.947 64.6761C378.882 64.4792 378.78 64.2917 378.64 64.1136C378.504 63.9356 378.318 63.7898 378.083 63.6761C377.848 63.5625 377.555 63.5057 377.202 63.5057C376.721 63.5057 376.32 63.6136 375.998 63.8295C375.676 64.0417 375.515 64.3163 375.515 64.6534C375.515 64.9451 375.623 65.1799 375.839 65.358C376.055 65.536 376.403 65.6818 376.884 65.7955L378.271 66.1136C379.074 66.2992 379.672 66.5852 380.066 66.9716C380.46 67.358 380.657 67.8598 380.657 68.4773C380.657 69 380.505 69.4659 380.202 69.875C379.903 70.2803 379.485 70.5985 378.947 70.8295C378.413 71.0606 377.793 71.1761 377.089 71.1761C376.112 71.1761 375.314 70.9678 374.697 70.5511C374.079 70.1307 373.701 69.5341 373.56 68.7614L375.202 68.5114C375.305 68.9394 375.515 69.2633 375.833 69.483C376.151 69.6989 376.566 69.8068 377.077 69.8068C377.634 69.8068 378.079 69.6913 378.413 69.4602C378.746 69.2254 378.913 68.9394 378.913 68.6023C378.913 68.3295 378.81 68.1004 378.606 67.9148C378.405 67.7292 378.096 67.589 377.68 67.4943L376.202 67.1705C375.388 66.9848 374.786 66.6894 374.396 66.2841C374.009 65.8788 373.816 65.3655 373.816 64.7443C373.816 64.2292 373.96 63.7784 374.248 63.392C374.536 63.0057 374.933 62.7045 375.441 62.4886C375.949 62.2689 376.53 62.1591 377.185 62.1591C378.129 62.1591 378.871 62.3636 379.413 62.7727C379.954 63.178 380.312 63.7216 380.487 64.4034ZM386.599 62.2727V63.6364H381.832V62.2727H386.599ZM383.11 60.1818H384.809V68.4375C384.809 68.767 384.858 69.0152 384.957 69.1818C385.055 69.3447 385.182 69.4564 385.337 69.517C385.496 69.5739 385.669 69.6023 385.854 69.6023C385.991 69.6023 386.11 69.5928 386.212 69.5739C386.315 69.5549 386.394 69.5398 386.451 69.5284L386.758 70.9318C386.659 70.9697 386.519 71.0076 386.337 71.0455C386.156 71.0871 385.928 71.1098 385.656 71.1136C385.209 71.1212 384.792 71.0417 384.406 70.875C384.019 70.7083 383.707 70.4508 383.468 70.1023C383.229 69.7538 383.11 69.3163 383.11 68.7898V60.1818ZM388.478 71V62.2727H390.177V71H388.478ZM389.336 60.9261C389.04 60.9261 388.787 60.8277 388.575 60.6307C388.366 60.4299 388.262 60.1913 388.262 59.9148C388.262 59.6345 388.366 59.3958 388.575 59.1989C388.787 58.9981 389.04 58.8977 389.336 58.8977C389.631 58.8977 389.883 58.9981 390.092 59.1989C390.304 59.3958 390.41 59.6345 390.41 59.9148C390.41 60.1913 390.304 60.4299 390.092 60.6307C389.883 60.8277 389.631 60.9261 389.336 60.9261ZM396.138 71.1761C395.32 71.1761 394.606 70.9886 393.996 70.6136C393.387 70.2386 392.913 69.714 392.576 69.0398C392.239 68.3655 392.07 67.5777 392.07 66.6761C392.07 65.7708 392.239 64.9792 392.576 64.3011C392.913 63.6231 393.387 63.0966 393.996 62.7216C394.606 62.3466 395.32 62.1591 396.138 62.1591C396.957 62.1591 397.671 62.3466 398.281 62.7216C398.89 63.0966 399.364 63.6231 399.701 64.3011C400.038 64.9792 400.207 65.7708 400.207 66.6761C400.207 67.5777 400.038 68.3655 399.701 69.0398C399.364 69.714 398.89 70.2386 398.281 70.6136C397.671 70.9886 396.957 71.1761 396.138 71.1761ZM396.144 69.75C396.674 69.75 397.114 69.6098 397.462 69.3295C397.811 69.0492 398.068 68.6761 398.235 68.2102C398.406 67.7443 398.491 67.2311 398.491 66.6705C398.491 66.1136 398.406 65.6023 398.235 65.1364C398.068 64.6667 397.811 64.2898 397.462 64.0057C397.114 63.7216 396.674 63.5795 396.144 63.5795C395.61 63.5795 395.167 63.7216 394.815 64.0057C394.466 64.2898 394.207 64.6667 394.036 65.1364C393.87 65.6023 393.786 66.1136 393.786 66.6705C393.786 67.2311 393.87 67.7443 394.036 68.2102C394.207 68.6761 394.466 69.0492 394.815 69.3295C395.167 69.6098 395.61 69.75 396.144 69.75ZM403.802 65.8182V71H402.103V62.2727H403.734V63.6932H403.842C404.042 63.2311 404.357 62.8598 404.785 62.5795C405.217 62.2992 405.76 62.1591 406.415 62.1591C407.01 62.1591 407.531 62.2841 407.978 62.5341C408.425 62.7803 408.772 63.1477 409.018 63.6364C409.264 64.125 409.387 64.7292 409.387 65.4489V71H407.688V65.6534C407.688 65.0208 407.523 64.5265 407.194 64.1705C406.864 63.8106 406.412 63.6307 405.836 63.6307C405.442 63.6307 405.092 63.7159 404.785 63.8864C404.482 64.0568 404.241 64.3068 404.063 64.6364C403.889 64.9621 403.802 65.3561 403.802 65.8182ZM413.364 65.8182V71H411.665V62.2727H413.296V63.6932H413.404C413.605 63.2311 413.919 62.8598 414.347 62.5795C414.779 62.2992 415.323 62.1591 415.978 62.1591C416.573 62.1591 417.094 62.2841 417.54 62.5341C417.987 62.7803 418.334 63.1477 418.58 63.6364C418.826 64.125 418.95 64.7292 418.95 65.4489V71H417.251V65.6534C417.251 65.0208 417.086 64.5265 416.756 64.1705C416.427 63.8106 415.974 63.6307 415.398 63.6307C415.004 63.6307 414.654 63.7159 414.347 63.8864C414.044 64.0568 413.804 64.3068 413.626 64.6364C413.451 64.9621 413.364 65.3561 413.364 65.8182ZM423.768 71.1932C423.215 71.1932 422.715 71.0909 422.268 70.8864C421.821 70.678 421.467 70.3769 421.205 69.983C420.948 69.589 420.819 69.1061 420.819 68.5341C420.819 68.0417 420.914 67.6364 421.103 67.3182C421.292 67 421.548 66.7481 421.87 66.5625C422.192 66.3769 422.552 66.2367 422.95 66.142C423.347 66.0473 423.753 65.9754 424.165 65.9261C424.688 65.8655 425.112 65.8163 425.438 65.7784C425.764 65.7367 426.001 65.6705 426.148 65.5795C426.296 65.4886 426.37 65.3409 426.37 65.1364V65.0966C426.37 64.6004 426.23 64.2159 425.95 63.9432C425.673 63.6705 425.26 63.5341 424.711 63.5341C424.139 63.5341 423.688 63.661 423.359 63.9148C423.033 64.1648 422.808 64.4432 422.683 64.75L421.086 64.3864C421.275 63.8561 421.552 63.428 421.915 63.1023C422.283 62.7727 422.705 62.5341 423.183 62.3864C423.66 62.2348 424.162 62.1591 424.688 62.1591C425.037 62.1591 425.406 62.2008 425.796 62.2841C426.19 62.3636 426.558 62.5114 426.898 62.7273C427.243 62.9432 427.525 63.2519 427.745 63.6534C427.965 64.0511 428.075 64.5682 428.075 65.2045V71H426.415V69.8068H426.347C426.237 70.0265 426.073 70.2424 425.853 70.4545C425.633 70.6667 425.351 70.8428 425.006 70.983C424.662 71.1231 424.249 71.1932 423.768 71.1932ZM424.137 69.8295C424.607 69.8295 425.008 69.7367 425.342 69.5511C425.679 69.3655 425.934 69.1231 426.109 68.8239C426.287 68.5208 426.376 68.197 426.376 67.8523V66.7273C426.315 66.7879 426.198 66.8447 426.023 66.8977C425.853 66.947 425.658 66.9905 425.438 67.0284C425.219 67.0625 425.004 67.0947 424.796 67.125C424.588 67.1515 424.414 67.1742 424.273 67.1932C423.944 67.2348 423.643 67.3049 423.37 67.4034C423.101 67.5019 422.885 67.6439 422.722 67.8295C422.563 68.0114 422.484 68.2538 422.484 68.5568C422.484 68.9773 422.639 69.2955 422.95 69.5114C423.26 69.7235 423.656 69.8295 424.137 69.8295ZM430.337 71V62.2727H432.036V71H430.337ZM431.195 60.9261C430.9 60.9261 430.646 60.8277 430.434 60.6307C430.226 60.4299 430.121 60.1913 430.121 59.9148C430.121 59.6345 430.226 59.3958 430.434 59.1989C430.646 58.9981 430.9 58.8977 431.195 58.8977C431.491 58.8977 431.743 58.9981 431.951 59.1989C432.163 59.3958 432.269 59.6345 432.269 59.9148C432.269 60.1913 432.163 60.4299 431.951 60.6307C431.743 60.8277 431.491 60.9261 431.195 60.9261ZM434.322 71V62.2727H435.964V63.6591H436.055C436.214 63.1894 436.494 62.8201 436.896 62.5511C437.301 62.2784 437.759 62.142 438.271 62.142C438.377 62.142 438.502 62.1458 438.646 62.1534C438.793 62.161 438.909 62.1705 438.992 62.1818V63.8068C438.924 63.7879 438.803 63.767 438.629 63.7443C438.454 63.7178 438.28 63.7045 438.106 63.7045C437.704 63.7045 437.346 63.7898 437.032 63.9602C436.721 64.1269 436.475 64.3598 436.293 64.6591C436.112 64.9545 436.021 65.2917 436.021 65.6705V71H434.322ZM443.911 71.1761C443.051 71.1761 442.311 70.9924 441.69 70.625C441.072 70.2538 440.595 69.733 440.258 69.0625C439.924 68.3883 439.758 67.5985 439.758 66.6932C439.758 65.7992 439.924 65.0114 440.258 64.3295C440.595 63.6477 441.065 63.1155 441.667 62.733C442.273 62.3504 442.981 62.1591 443.792 62.1591C444.284 62.1591 444.762 62.2405 445.224 62.4034C445.686 62.5663 446.101 62.822 446.468 63.1705C446.835 63.5189 447.125 63.9716 447.337 64.5284C447.549 65.0814 447.656 65.7538 447.656 66.5455V67.1477H440.718V65.875H445.991C445.991 65.428 445.9 65.0322 445.718 64.6875C445.536 64.339 445.281 64.0644 444.951 63.8636C444.625 63.6629 444.243 63.5625 443.803 63.5625C443.326 63.5625 442.909 63.6799 442.553 63.9148C442.201 64.1458 441.928 64.4489 441.735 64.8239C441.546 65.1951 441.451 65.5985 441.451 66.0341V67.0284C441.451 67.6117 441.553 68.108 441.758 68.517C441.966 68.9261 442.256 69.2386 442.627 69.4545C442.998 69.6667 443.432 69.7727 443.928 69.7727C444.25 69.7727 444.544 69.7273 444.809 69.6364C445.074 69.5417 445.303 69.4015 445.496 69.2159C445.69 69.0303 445.837 68.8011 445.94 68.5284L447.548 68.8182C447.419 69.2917 447.188 69.7064 446.854 70.0625C446.525 70.4148 446.11 70.6894 445.61 70.8864C445.114 71.0795 444.548 71.1761 443.911 71.1761Z" fill="#94A3B8"/>
<rect x="285.5" y="0.5" width="219" height="129" rx="1.5" stroke="#94A3B8"/>
<path d="M611.396 247V235.364H615.543C616.449 235.364 617.199 235.528 617.793 235.858C618.388 236.187 618.833 236.638 619.129 237.21C619.424 237.778 619.572 238.419 619.572 239.131C619.572 239.847 619.422 240.491 619.123 241.062C618.827 241.631 618.38 242.081 617.782 242.415C617.187 242.744 616.439 242.909 615.538 242.909H612.685V241.42H615.379C615.951 241.42 616.415 241.322 616.771 241.125C617.127 240.924 617.388 240.652 617.555 240.307C617.721 239.962 617.805 239.57 617.805 239.131C617.805 238.691 617.721 238.301 617.555 237.96C617.388 237.619 617.125 237.352 616.765 237.159C616.409 236.966 615.939 236.869 615.356 236.869H613.151V247H611.396ZM621.494 247V238.273H623.136V239.659H623.227C623.386 239.189 623.666 238.82 624.067 238.551C624.473 238.278 624.931 238.142 625.442 238.142C625.549 238.142 625.674 238.146 625.817 238.153C625.965 238.161 626.081 238.17 626.164 238.182V239.807C626.096 239.788 625.975 239.767 625.8 239.744C625.626 239.718 625.452 239.705 625.278 239.705C624.876 239.705 624.518 239.79 624.204 239.96C623.893 240.127 623.647 240.36 623.465 240.659C623.283 240.955 623.192 241.292 623.192 241.67V247H621.494ZM627.634 247V238.273H629.333V247H627.634ZM628.492 236.926C628.197 236.926 627.943 236.828 627.731 236.631C627.522 236.43 627.418 236.191 627.418 235.915C627.418 235.634 627.522 235.396 627.731 235.199C627.943 234.998 628.197 234.898 628.492 234.898C628.788 234.898 629.04 234.998 629.248 235.199C629.46 235.396 629.566 235.634 629.566 235.915C629.566 236.191 629.46 236.43 629.248 236.631C629.04 236.828 628.788 236.926 628.492 236.926ZM635.295 247.176C634.45 247.176 633.723 246.985 633.113 246.602C632.507 246.216 632.041 245.684 631.715 245.006C631.389 244.328 631.227 243.551 631.227 242.676C631.227 241.79 631.393 241.008 631.727 240.33C632.06 239.648 632.53 239.116 633.136 238.733C633.742 238.35 634.456 238.159 635.278 238.159C635.941 238.159 636.531 238.282 637.05 238.528C637.569 238.771 637.988 239.112 638.306 239.551C638.628 239.991 638.819 240.504 638.88 241.091H637.227C637.136 240.682 636.927 240.33 636.602 240.034C636.28 239.739 635.848 239.591 635.306 239.591C634.833 239.591 634.418 239.716 634.062 239.966C633.71 240.212 633.435 240.564 633.238 241.023C633.041 241.477 632.942 242.015 632.942 242.636C632.942 243.273 633.039 243.822 633.232 244.284C633.425 244.746 633.698 245.104 634.05 245.358C634.406 245.612 634.825 245.739 635.306 245.739C635.628 245.739 635.92 245.68 636.181 245.562C636.446 245.441 636.668 245.269 636.846 245.045C637.028 244.822 637.155 244.553 637.227 244.239H638.88C638.819 244.803 638.636 245.307 638.329 245.75C638.022 246.193 637.611 246.542 637.096 246.795C636.585 247.049 635.984 247.176 635.295 247.176ZM644.458 247.176C643.598 247.176 642.858 246.992 642.237 246.625C641.619 246.254 641.142 245.733 640.805 245.062C640.471 244.388 640.305 243.598 640.305 242.693C640.305 241.799 640.471 241.011 640.805 240.33C641.142 239.648 641.612 239.116 642.214 238.733C642.82 238.35 643.528 238.159 644.339 238.159C644.831 238.159 645.308 238.241 645.771 238.403C646.233 238.566 646.647 238.822 647.015 239.17C647.382 239.519 647.672 239.972 647.884 240.528C648.096 241.081 648.202 241.754 648.202 242.545V243.148H641.265V241.875H646.538C646.538 241.428 646.447 241.032 646.265 240.688C646.083 240.339 645.827 240.064 645.498 239.864C645.172 239.663 644.79 239.562 644.35 239.562C643.873 239.562 643.456 239.68 643.1 239.915C642.748 240.146 642.475 240.449 642.282 240.824C642.093 241.195 641.998 241.598 641.998 242.034V243.028C641.998 243.612 642.1 244.108 642.305 244.517C642.513 244.926 642.803 245.239 643.174 245.455C643.545 245.667 643.979 245.773 644.475 245.773C644.797 245.773 645.091 245.727 645.356 245.636C645.621 245.542 645.85 245.402 646.043 245.216C646.237 245.03 646.384 244.801 646.487 244.528L648.094 244.818C647.966 245.292 647.735 245.706 647.401 246.062C647.072 246.415 646.657 246.689 646.157 246.886C645.661 247.08 645.094 247.176 644.458 247.176ZM657.998 247.176C657.153 247.176 656.426 246.985 655.816 246.602C655.21 246.216 654.744 245.684 654.418 245.006C654.093 244.328 653.93 243.551 653.93 242.676C653.93 241.79 654.096 241.008 654.43 240.33C654.763 239.648 655.233 239.116 655.839 238.733C656.445 238.35 657.159 238.159 657.981 238.159C658.644 238.159 659.235 238.282 659.754 238.528C660.272 238.771 660.691 239.112 661.009 239.551C661.331 239.991 661.522 240.504 661.583 241.091H659.93C659.839 240.682 659.63 240.33 659.305 240.034C658.983 239.739 658.551 239.591 658.009 239.591C657.536 239.591 657.121 239.716 656.765 239.966C656.413 240.212 656.138 240.564 655.941 241.023C655.744 241.477 655.646 242.015 655.646 242.636C655.646 243.273 655.742 243.822 655.935 244.284C656.129 244.746 656.401 245.104 656.754 245.358C657.11 245.612 657.528 245.739 658.009 245.739C658.331 245.739 658.623 245.68 658.884 245.562C659.149 245.441 659.371 245.269 659.549 245.045C659.731 244.822 659.858 244.553 659.93 244.239H661.583C661.522 244.803 661.339 245.307 661.032 245.75C660.725 246.193 660.314 246.542 659.799 246.795C659.288 247.049 658.687 247.176 657.998 247.176ZM667.076 247.176C666.258 247.176 665.544 246.989 664.934 246.614C664.324 246.239 663.851 245.714 663.513 245.04C663.176 244.366 663.008 243.578 663.008 242.676C663.008 241.771 663.176 240.979 663.513 240.301C663.851 239.623 664.324 239.097 664.934 238.722C665.544 238.347 666.258 238.159 667.076 238.159C667.894 238.159 668.608 238.347 669.218 238.722C669.828 239.097 670.301 239.623 670.638 240.301C670.976 240.979 671.144 241.771 671.144 242.676C671.144 243.578 670.976 244.366 670.638 245.04C670.301 245.714 669.828 246.239 669.218 246.614C668.608 246.989 667.894 247.176 667.076 247.176ZM667.082 245.75C667.612 245.75 668.051 245.61 668.4 245.33C668.748 245.049 669.006 244.676 669.173 244.21C669.343 243.744 669.428 243.231 669.428 242.67C669.428 242.114 669.343 241.602 669.173 241.136C669.006 240.667 668.748 240.29 668.4 240.006C668.051 239.722 667.612 239.58 667.082 239.58C666.548 239.58 666.104 239.722 665.752 240.006C665.404 240.29 665.144 240.667 664.974 241.136C664.807 241.602 664.724 242.114 664.724 242.67C664.724 243.231 664.807 243.744 664.974 244.21C665.144 244.676 665.404 245.049 665.752 245.33C666.104 245.61 666.548 245.75 667.082 245.75ZM674.739 241.818V247H673.04V238.273H674.671V239.693H674.779C674.98 239.231 675.294 238.86 675.722 238.58C676.154 238.299 676.698 238.159 677.353 238.159C677.948 238.159 678.469 238.284 678.915 238.534C679.362 238.78 679.709 239.148 679.955 239.636C680.201 240.125 680.325 240.729 680.325 241.449V247H678.626V241.653C678.626 241.021 678.461 240.527 678.131 240.17C677.802 239.811 677.349 239.631 676.773 239.631C676.379 239.631 676.029 239.716 675.722 239.886C675.419 240.057 675.179 240.307 675.001 240.636C674.826 240.962 674.739 241.356 674.739 241.818ZM686.756 238.273V239.636H681.825V238.273H686.756ZM683.177 247V237.261C683.177 236.716 683.296 236.263 683.535 235.903C683.773 235.54 684.09 235.269 684.484 235.091C684.878 234.909 685.306 234.818 685.768 234.818C686.109 234.818 686.4 234.847 686.643 234.903C686.885 234.956 687.065 235.006 687.183 235.051L686.785 236.426C686.705 236.403 686.603 236.377 686.478 236.347C686.353 236.312 686.201 236.295 686.023 236.295C685.611 236.295 685.315 236.398 685.137 236.602C684.963 236.807 684.876 237.102 684.876 237.489V247H683.177ZM688.509 247V238.273H690.208V247H688.509ZM689.367 236.926C689.072 236.926 688.818 236.828 688.606 236.631C688.397 236.43 688.293 236.191 688.293 235.915C688.293 235.634 688.397 235.396 688.606 235.199C688.818 234.998 689.072 234.898 689.367 234.898C689.663 234.898 689.915 234.998 690.123 235.199C690.335 235.396 690.441 235.634 690.441 235.915C690.441 236.191 690.335 236.43 690.123 236.631C689.915 236.828 689.663 236.926 689.367 236.926ZM692.494 247V238.273H694.136V239.659H694.227C694.386 239.189 694.666 238.82 695.067 238.551C695.473 238.278 695.931 238.142 696.442 238.142C696.549 238.142 696.674 238.146 696.817 238.153C696.965 238.161 697.081 238.17 697.164 238.182V239.807C697.096 239.788 696.975 239.767 696.8 239.744C696.626 239.718 696.452 239.705 696.278 239.705C695.876 239.705 695.518 239.79 695.204 239.96C694.893 240.127 694.647 240.36 694.465 240.659C694.283 240.955 694.192 241.292 694.192 241.67V247H692.494ZM698.634 247V238.273H700.265V239.693H700.373C700.555 239.212 700.852 238.837 701.265 238.568C701.678 238.295 702.172 238.159 702.748 238.159C703.331 238.159 703.82 238.295 704.214 238.568C704.612 238.841 704.905 239.216 705.094 239.693H705.185C705.394 239.227 705.725 238.856 706.18 238.58C706.634 238.299 707.176 238.159 707.805 238.159C708.596 238.159 709.242 238.407 709.742 238.903C710.246 239.4 710.498 240.148 710.498 241.148V247H708.799V241.307C708.799 240.716 708.638 240.288 708.316 240.023C707.994 239.758 707.61 239.625 707.163 239.625C706.61 239.625 706.18 239.795 705.873 240.136C705.566 240.473 705.413 240.907 705.413 241.438V247H703.719V241.199C703.719 240.725 703.572 240.345 703.276 240.057C702.981 239.769 702.596 239.625 702.123 239.625C701.801 239.625 701.504 239.71 701.231 239.881C700.962 240.047 700.744 240.28 700.577 240.58C700.415 240.879 700.333 241.225 700.333 241.619V247H698.634ZM715.315 247.193C714.762 247.193 714.262 247.091 713.815 246.886C713.368 246.678 713.013 246.377 712.752 245.983C712.495 245.589 712.366 245.106 712.366 244.534C712.366 244.042 712.46 243.636 712.65 243.318C712.839 243 713.095 242.748 713.417 242.562C713.739 242.377 714.099 242.237 714.496 242.142C714.894 242.047 715.299 241.975 715.712 241.926C716.235 241.866 716.659 241.816 716.985 241.778C717.311 241.737 717.548 241.67 717.695 241.58C717.843 241.489 717.917 241.341 717.917 241.136V241.097C717.917 240.6 717.777 240.216 717.496 239.943C717.22 239.67 716.807 239.534 716.258 239.534C715.686 239.534 715.235 239.661 714.906 239.915C714.58 240.165 714.354 240.443 714.229 240.75L712.633 240.386C712.822 239.856 713.099 239.428 713.462 239.102C713.83 238.773 714.252 238.534 714.729 238.386C715.207 238.235 715.709 238.159 716.235 238.159C716.584 238.159 716.953 238.201 717.343 238.284C717.737 238.364 718.104 238.511 718.445 238.727C718.79 238.943 719.072 239.252 719.292 239.653C719.512 240.051 719.621 240.568 719.621 241.205V247H717.962V245.807H717.894C717.784 246.027 717.62 246.242 717.4 246.455C717.18 246.667 716.898 246.843 716.553 246.983C716.209 247.123 715.796 247.193 715.315 247.193ZM715.684 245.83C716.154 245.83 716.555 245.737 716.888 245.551C717.226 245.366 717.481 245.123 717.656 244.824C717.834 244.521 717.923 244.197 717.923 243.852V242.727C717.862 242.788 717.745 242.845 717.57 242.898C717.4 242.947 717.205 242.991 716.985 243.028C716.765 243.062 716.551 243.095 716.343 243.125C716.135 243.152 715.96 243.174 715.82 243.193C715.491 243.235 715.19 243.305 714.917 243.403C714.648 243.502 714.432 243.644 714.269 243.83C714.11 244.011 714.031 244.254 714.031 244.557C714.031 244.977 714.186 245.295 714.496 245.511C714.807 245.723 715.203 245.83 715.684 245.83ZM725.958 238.273V239.636H721.191V238.273H725.958ZM722.469 236.182H724.168V244.438C724.168 244.767 724.218 245.015 724.316 245.182C724.415 245.345 724.541 245.456 724.697 245.517C724.856 245.574 725.028 245.602 725.214 245.602C725.35 245.602 725.469 245.593 725.572 245.574C725.674 245.555 725.754 245.54 725.81 245.528L726.117 246.932C726.019 246.97 725.879 247.008 725.697 247.045C725.515 247.087 725.288 247.11 725.015 247.114C724.568 247.121 724.151 247.042 723.765 246.875C723.379 246.708 723.066 246.451 722.827 246.102C722.589 245.754 722.469 245.316 722.469 244.79V236.182ZM727.837 247V238.273H729.536V247H727.837ZM728.695 236.926C728.4 236.926 728.146 236.828 727.934 236.631C727.726 236.43 727.621 236.191 727.621 235.915C727.621 235.634 727.726 235.396 727.934 235.199C728.146 234.998 728.4 234.898 728.695 234.898C728.991 234.898 729.243 234.998 729.451 235.199C729.663 235.396 729.769 235.634 729.769 235.915C729.769 236.191 729.663 236.43 729.451 236.631C729.243 236.828 728.991 236.926 728.695 236.926ZM735.498 247.176C734.68 247.176 733.966 246.989 733.356 246.614C732.746 246.239 732.272 245.714 731.935 245.04C731.598 244.366 731.43 243.578 731.43 242.676C731.43 241.771 731.598 240.979 731.935 240.301C732.272 239.623 732.746 239.097 733.356 238.722C733.966 238.347 734.68 238.159 735.498 238.159C736.316 238.159 737.03 238.347 737.64 238.722C738.25 239.097 738.723 239.623 739.06 240.301C739.397 240.979 739.566 241.771 739.566 242.676C739.566 243.578 739.397 244.366 739.06 245.04C738.723 245.714 738.25 246.239 737.64 246.614C737.03 246.989 736.316 247.176 735.498 247.176ZM735.504 245.75C736.034 245.75 736.473 245.61 736.822 245.33C737.17 245.049 737.428 244.676 737.594 244.21C737.765 243.744 737.85 243.231 737.85 242.67C737.85 242.114 737.765 241.602 737.594 241.136C737.428 240.667 737.17 240.29 736.822 240.006C736.473 239.722 736.034 239.58 735.504 239.58C734.969 239.58 734.526 239.722 734.174 240.006C733.826 240.29 733.566 240.667 733.396 241.136C733.229 241.602 733.146 242.114 733.146 242.67C733.146 243.231 733.229 243.744 733.396 244.21C733.566 244.676 733.826 245.049 734.174 245.33C734.526 245.61 734.969 245.75 735.504 245.75ZM743.161 241.818V247H741.462V238.273H743.093V239.693H743.201C743.402 239.231 743.716 238.86 744.144 238.58C744.576 238.299 745.12 238.159 745.775 238.159C746.37 238.159 746.89 238.284 747.337 238.534C747.784 238.78 748.131 239.148 748.377 239.636C748.623 240.125 748.746 240.729 748.746 241.449V247H747.048V241.653C747.048 241.021 746.883 240.527 746.553 240.17C746.224 239.811 745.771 239.631 745.195 239.631C744.801 239.631 744.451 239.716 744.144 239.886C743.841 240.057 743.601 240.307 743.423 240.636C743.248 240.962 743.161 241.356 743.161 241.818Z" fill="#94A3B8"/>
<rect x="570.5" y="176.5" width="219" height="129" rx="1.5" stroke="#94A3B8"/>
<path d="M914.297 238.42C914.236 237.883 913.986 237.466 913.547 237.17C913.107 236.871 912.554 236.722 911.888 236.722C911.411 236.722 910.998 236.797 910.649 236.949C910.301 237.097 910.03 237.301 909.837 237.562C909.647 237.82 909.553 238.114 909.553 238.443C909.553 238.72 909.617 238.958 909.746 239.159C909.878 239.36 910.051 239.528 910.263 239.665C910.479 239.797 910.71 239.909 910.956 240C911.202 240.087 911.439 240.159 911.666 240.216L912.803 240.511C913.174 240.602 913.554 240.725 913.945 240.881C914.335 241.036 914.696 241.241 915.03 241.494C915.363 241.748 915.632 242.062 915.837 242.438C916.045 242.812 916.149 243.261 916.149 243.784C916.149 244.443 915.979 245.028 915.638 245.54C915.301 246.051 914.81 246.455 914.166 246.75C913.526 247.045 912.751 247.193 911.842 247.193C910.971 247.193 910.217 247.055 909.581 246.778C908.945 246.502 908.446 246.11 908.087 245.602C907.727 245.091 907.528 244.485 907.49 243.784H909.251C909.286 244.205 909.422 244.555 909.661 244.835C909.903 245.112 910.212 245.318 910.587 245.455C910.965 245.587 911.38 245.653 911.831 245.653C912.327 245.653 912.768 245.576 913.155 245.42C913.545 245.261 913.852 245.042 914.075 244.761C914.299 244.477 914.411 244.146 914.411 243.767C914.411 243.422 914.312 243.14 914.115 242.92C913.922 242.701 913.659 242.519 913.325 242.375C912.996 242.231 912.623 242.104 912.206 241.994L910.831 241.619C909.899 241.366 909.161 240.992 908.615 240.5C908.073 240.008 907.803 239.356 907.803 238.545C907.803 237.875 907.984 237.29 908.348 236.79C908.712 236.29 909.204 235.902 909.825 235.625C910.446 235.345 911.147 235.205 911.928 235.205C912.715 235.205 913.411 235.343 914.013 235.619C914.619 235.896 915.096 236.277 915.445 236.761C915.793 237.242 915.975 237.795 915.99 238.42H914.297ZM922.185 238.273V239.636H917.418V238.273H922.185ZM918.696 236.182H920.395V244.438C920.395 244.767 920.444 245.015 920.543 245.182C920.641 245.345 920.768 245.456 920.923 245.517C921.082 245.574 921.255 245.602 921.44 245.602C921.577 245.602 921.696 245.593 921.798 245.574C921.901 245.555 921.98 245.54 922.037 245.528L922.344 246.932C922.245 246.97 922.105 247.008 921.923 247.045C921.741 247.087 921.514 247.11 921.241 247.114C920.795 247.121 920.378 247.042 919.991 246.875C919.605 246.708 919.293 246.451 919.054 246.102C918.815 245.754 918.696 245.316 918.696 244.79V236.182ZM924.064 247V238.273H925.706V239.659H925.797C925.956 239.189 926.236 238.82 926.638 238.551C927.043 238.278 927.501 238.142 928.013 238.142C928.119 238.142 928.244 238.146 928.388 238.153C928.536 238.161 928.651 238.17 928.734 238.182V239.807C928.666 239.788 928.545 239.767 928.371 239.744C928.196 239.718 928.022 239.705 927.848 239.705C927.446 239.705 927.089 239.79 926.774 239.96C926.464 240.127 926.217 240.36 926.036 240.659C925.854 240.955 925.763 241.292 925.763 241.67V247H924.064ZM930.205 247V238.273H931.903V247H930.205ZM931.062 236.926C930.767 236.926 930.513 236.828 930.301 236.631C930.093 236.43 929.989 236.191 929.989 235.915C929.989 235.634 930.093 235.396 930.301 235.199C930.513 234.998 930.767 234.898 931.062 234.898C931.358 234.898 931.61 234.998 931.818 235.199C932.03 235.396 932.136 235.634 932.136 235.915C932.136 236.191 932.03 236.43 931.818 236.631C931.61 236.828 931.358 236.926 931.062 236.926ZM934.189 250.273V238.273H935.848V239.688H935.99C936.089 239.506 936.231 239.295 936.416 239.057C936.602 238.818 936.859 238.61 937.189 238.432C937.518 238.25 937.954 238.159 938.496 238.159C939.2 238.159 939.829 238.337 940.382 238.693C940.935 239.049 941.369 239.562 941.683 240.233C942.001 240.903 942.161 241.71 942.161 242.653C942.161 243.597 942.003 244.405 941.689 245.08C941.375 245.75 940.943 246.267 940.393 246.631C939.844 246.991 939.217 247.17 938.513 247.17C937.982 247.17 937.549 247.081 937.212 246.903C936.878 246.725 936.617 246.517 936.428 246.278C936.238 246.04 936.092 245.828 935.99 245.642H935.888V250.273H934.189ZM935.854 242.636C935.854 243.25 935.943 243.788 936.121 244.25C936.299 244.712 936.556 245.074 936.893 245.335C937.231 245.593 937.643 245.722 938.132 245.722C938.64 245.722 939.064 245.587 939.405 245.318C939.746 245.045 940.003 244.676 940.178 244.21C940.356 243.744 940.445 243.22 940.445 242.636C940.445 242.061 940.357 241.544 940.183 241.085C940.013 240.627 939.755 240.265 939.411 240C939.07 239.735 938.643 239.602 938.132 239.602C937.64 239.602 937.223 239.729 936.882 239.983C936.545 240.237 936.289 240.591 936.115 241.045C935.941 241.5 935.854 242.03 935.854 242.636ZM947.825 247.176C946.965 247.176 946.225 246.992 945.604 246.625C944.986 246.254 944.509 245.733 944.172 245.062C943.839 244.388 943.672 243.598 943.672 242.693C943.672 241.799 943.839 241.011 944.172 240.33C944.509 239.648 944.979 239.116 945.581 238.733C946.187 238.35 946.895 238.159 947.706 238.159C948.198 238.159 948.676 238.241 949.138 238.403C949.6 238.566 950.015 238.822 950.382 239.17C950.75 239.519 951.039 239.972 951.251 240.528C951.464 241.081 951.57 241.754 951.57 242.545V243.148H944.632V241.875H949.905C949.905 241.428 949.814 241.032 949.632 240.688C949.45 240.339 949.195 240.064 948.865 239.864C948.539 239.663 948.157 239.562 947.717 239.562C947.24 239.562 946.823 239.68 946.467 239.915C946.115 240.146 945.842 240.449 945.649 240.824C945.46 241.195 945.365 241.598 945.365 242.034V243.028C945.365 243.612 945.467 244.108 945.672 244.517C945.88 244.926 946.17 245.239 946.541 245.455C946.912 245.667 947.346 245.773 947.842 245.773C948.164 245.773 948.458 245.727 948.723 245.636C948.988 245.542 949.217 245.402 949.411 245.216C949.604 245.03 949.751 244.801 949.854 244.528L951.462 244.818C951.333 245.292 951.102 245.706 950.768 246.062C950.439 246.415 950.024 246.689 949.524 246.886C949.028 247.08 948.462 247.176 947.825 247.176ZM957.689 250.273V238.273H959.348V239.688H959.49C959.589 239.506 959.731 239.295 959.916 239.057C960.102 238.818 960.359 238.61 960.689 238.432C961.018 238.25 961.454 238.159 961.996 238.159C962.7 238.159 963.329 238.337 963.882 238.693C964.435 239.049 964.869 239.562 965.183 240.233C965.501 240.903 965.661 241.71 965.661 242.653C965.661 243.597 965.503 244.405 965.189 245.08C964.875 245.75 964.443 246.267 963.893 246.631C963.344 246.991 962.717 247.17 962.013 247.17C961.482 247.17 961.049 247.081 960.712 246.903C960.378 246.725 960.117 246.517 959.928 246.278C959.738 246.04 959.592 245.828 959.49 245.642H959.388V250.273H957.689ZM959.354 242.636C959.354 243.25 959.443 243.788 959.621 244.25C959.799 244.712 960.056 245.074 960.393 245.335C960.731 245.593 961.143 245.722 961.632 245.722C962.14 245.722 962.564 245.587 962.905 245.318C963.246 245.045 963.503 244.676 963.678 244.21C963.856 243.744 963.945 243.22 963.945 242.636C963.945 242.061 963.857 241.544 963.683 241.085C963.513 240.627 963.255 240.265 962.911 240C962.57 239.735 962.143 239.602 961.632 239.602C961.14 239.602 960.723 239.729 960.382 239.983C960.045 240.237 959.789 240.591 959.615 241.045C959.441 241.5 959.354 242.03 959.354 242.636ZM970.104 247.193C969.551 247.193 969.051 247.091 968.604 246.886C968.157 246.678 967.803 246.377 967.541 245.983C967.284 245.589 967.155 245.106 967.155 244.534C967.155 244.042 967.25 243.636 967.439 243.318C967.628 243 967.884 242.748 968.206 242.562C968.528 242.377 968.888 242.237 969.286 242.142C969.683 242.047 970.089 241.975 970.501 241.926C971.024 241.866 971.448 241.816 971.774 241.778C972.1 241.737 972.337 241.67 972.484 241.58C972.632 241.489 972.706 241.341 972.706 241.136V241.097C972.706 240.6 972.566 240.216 972.286 239.943C972.009 239.67 971.596 239.534 971.047 239.534C970.475 239.534 970.024 239.661 969.695 239.915C969.369 240.165 969.143 240.443 969.018 240.75L967.422 240.386C967.611 239.856 967.888 239.428 968.251 239.102C968.619 238.773 969.041 238.534 969.518 238.386C969.996 238.235 970.498 238.159 971.024 238.159C971.373 238.159 971.742 238.201 972.132 238.284C972.526 238.364 972.893 238.511 973.234 238.727C973.579 238.943 973.861 239.252 974.081 239.653C974.301 240.051 974.411 240.568 974.411 241.205V247H972.751V245.807H972.683C972.573 246.027 972.409 246.242 972.189 246.455C971.969 246.667 971.687 246.843 971.342 246.983C970.998 247.123 970.585 247.193 970.104 247.193ZM970.473 245.83C970.943 245.83 971.344 245.737 971.678 245.551C972.015 245.366 972.27 245.123 972.445 244.824C972.623 244.521 972.712 244.197 972.712 243.852V242.727C972.651 242.788 972.534 242.845 972.359 242.898C972.189 242.947 971.994 242.991 971.774 243.028C971.554 243.062 971.34 243.095 971.132 243.125C970.924 243.152 970.75 243.174 970.609 243.193C970.28 243.235 969.979 243.305 969.706 243.403C969.437 243.502 969.221 243.644 969.058 243.83C968.899 244.011 968.82 244.254 968.82 244.557C968.82 244.977 968.975 245.295 969.286 245.511C969.596 245.723 969.992 245.83 970.473 245.83ZM977.435 250.273C977.181 250.273 976.95 250.252 976.741 250.21C976.533 250.172 976.378 250.131 976.276 250.085L976.685 248.693C976.995 248.777 977.272 248.813 977.514 248.801C977.757 248.79 977.971 248.699 978.156 248.528C978.346 248.358 978.512 248.08 978.656 247.693L978.866 247.114L975.673 238.273H977.491L979.702 245.045H979.793L982.003 238.273H983.827L980.23 248.165C980.063 248.619 979.851 249.004 979.594 249.318C979.336 249.636 979.029 249.875 978.673 250.034C978.317 250.193 977.904 250.273 977.435 250.273ZM985.423 247V238.273H987.054V239.693H987.162C987.344 239.212 987.641 238.837 988.054 238.568C988.467 238.295 988.961 238.159 989.537 238.159C990.12 238.159 990.609 238.295 991.003 238.568C991.401 238.841 991.694 239.216 991.884 239.693H991.974C992.183 239.227 992.514 238.856 992.969 238.58C993.423 238.299 993.965 238.159 994.594 238.159C995.385 238.159 996.031 238.407 996.531 238.903C997.035 239.4 997.287 240.148 997.287 241.148V247H995.588V241.307C995.588 240.716 995.427 240.288 995.105 240.023C994.783 239.758 994.399 239.625 993.952 239.625C993.399 239.625 992.969 239.795 992.662 240.136C992.355 240.473 992.202 240.907 992.202 241.438V247H990.509V241.199C990.509 240.725 990.361 240.345 990.065 240.057C989.77 239.769 989.385 239.625 988.912 239.625C988.59 239.625 988.293 239.71 988.02 239.881C987.751 240.047 987.533 240.28 987.366 240.58C987.204 240.879 987.122 241.225 987.122 241.619V247H985.423ZM1003.33 247.176C1002.47 247.176 1001.72 246.992 1001.1 246.625C1000.49 246.254 1000.01 245.733 999.672 245.062C999.339 244.388 999.172 243.598 999.172 242.693C999.172 241.799 999.339 241.011 999.672 240.33C1000.01 239.648 1000.48 239.116 1001.08 238.733C1001.69 238.35 1002.4 238.159 1003.21 238.159C1003.7 238.159 1004.18 238.241 1004.64 238.403C1005.1 238.566 1005.51 238.822 1005.88 239.17C1006.25 239.519 1006.54 239.972 1006.75 240.528C1006.96 241.081 1007.07 241.754 1007.07 242.545V243.148H1000.13V241.875H1005.4C1005.4 241.428 1005.31 241.032 1005.13 240.688C1004.95 240.339 1004.69 240.064 1004.37 239.864C1004.04 239.663 1003.66 239.562 1003.22 239.562C1002.74 239.562 1002.32 239.68 1001.97 239.915C1001.62 240.146 1001.34 240.449 1001.15 240.824C1000.96 241.195 1000.87 241.598 1000.87 242.034V243.028C1000.87 243.612 1000.97 244.108 1001.17 244.517C1001.38 244.926 1001.67 245.239 1002.04 245.455C1002.41 245.667 1002.85 245.773 1003.34 245.773C1003.66 245.773 1003.96 245.727 1004.22 245.636C1004.49 245.542 1004.72 245.402 1004.91 245.216C1005.1 245.03 1005.25 244.801 1005.35 244.528L1006.96 244.818C1006.83 245.292 1006.6 245.706 1006.27 246.062C1005.94 246.415 1005.52 246.689 1005.02 246.886C1004.53 247.08 1003.96 247.176 1003.33 247.176ZM1010.65 241.818V247H1008.95V238.273H1010.59V239.693H1010.69C1010.89 239.231 1011.21 238.86 1011.64 238.58C1012.07 238.299 1012.61 238.159 1013.27 238.159C1013.86 238.159 1014.38 238.284 1014.83 238.534C1015.28 238.78 1015.62 239.148 1015.87 239.636C1016.12 240.125 1016.24 240.729 1016.24 241.449V247H1014.54V241.653C1014.54 241.021 1014.38 240.527 1014.05 240.17C1013.72 239.811 1013.26 239.631 1012.69 239.631C1012.29 239.631 1011.94 239.716 1011.64 239.886C1011.33 240.057 1011.09 240.307 1010.91 240.636C1010.74 240.962 1010.65 241.356 1010.65 241.818ZM1022.59 238.273V239.636H1017.82V238.273H1022.59ZM1019.1 236.182H1020.8V244.438C1020.8 244.767 1020.85 245.015 1020.95 245.182C1021.05 245.345 1021.17 245.456 1021.33 245.517C1021.49 245.574 1021.66 245.602 1021.85 245.602C1021.98 245.602 1022.1 245.593 1022.2 245.574C1022.31 245.555 1022.39 245.54 1022.44 245.528L1022.75 246.932C1022.65 246.97 1022.51 247.008 1022.33 247.045C1022.15 247.087 1021.92 247.11 1021.65 247.114C1021.2 247.121 1020.78 247.042 1020.4 246.875C1020.01 246.708 1019.7 246.451 1019.46 246.102C1019.22 245.754 1019.1 245.316 1019.1 244.79V236.182Z" fill="#94A3B8"/>
<rect x="855.5" y="176.5" width="219" height="129" rx="1.5" stroke="#94A3B8"/>
<path d="M1188.72 238.42C1188.66 237.883 1188.41 237.466 1187.97 237.17C1187.53 236.871 1186.98 236.722 1186.31 236.722C1185.83 236.722 1185.42 236.797 1185.07 236.949C1184.72 237.097 1184.45 237.301 1184.26 237.562C1184.07 237.82 1183.97 238.114 1183.97 238.443C1183.97 238.72 1184.04 238.958 1184.17 239.159C1184.3 239.36 1184.47 239.528 1184.68 239.665C1184.9 239.797 1185.13 239.909 1185.38 240C1185.62 240.087 1185.86 240.159 1186.09 240.216L1187.22 240.511C1187.6 240.602 1187.98 240.725 1188.37 240.881C1188.76 241.036 1189.12 241.241 1189.45 241.494C1189.79 241.748 1190.05 242.062 1190.26 242.438C1190.47 242.812 1190.57 243.261 1190.57 243.784C1190.57 244.443 1190.4 245.028 1190.06 245.54C1189.72 246.051 1189.23 246.455 1188.59 246.75C1187.95 247.045 1187.17 247.193 1186.26 247.193C1185.39 247.193 1184.64 247.055 1184 246.778C1183.37 246.502 1182.87 246.11 1182.51 245.602C1182.15 245.091 1181.95 244.485 1181.91 243.784H1183.67C1183.71 244.205 1183.84 244.555 1184.08 244.835C1184.32 245.112 1184.63 245.318 1185.01 245.455C1185.39 245.587 1185.8 245.653 1186.25 245.653C1186.75 245.653 1187.19 245.576 1187.58 245.42C1187.97 245.261 1188.27 245.042 1188.5 244.761C1188.72 244.477 1188.83 244.146 1188.83 243.767C1188.83 243.422 1188.73 243.14 1188.54 242.92C1188.34 242.701 1188.08 242.519 1187.75 242.375C1187.42 242.231 1187.04 242.104 1186.63 241.994L1185.25 241.619C1184.32 241.366 1183.58 240.992 1183.04 240.5C1182.5 240.008 1182.22 239.356 1182.22 238.545C1182.22 237.875 1182.41 237.29 1182.77 236.79C1183.13 236.29 1183.63 235.902 1184.25 235.625C1184.87 235.345 1185.57 235.205 1186.35 235.205C1187.14 235.205 1187.83 235.343 1188.43 235.619C1189.04 235.896 1189.52 236.277 1189.87 236.761C1190.21 237.242 1190.4 237.795 1190.41 238.42H1188.72ZM1198.06 243.381V238.273H1199.77V247H1198.1V245.489H1198C1197.8 245.955 1197.48 246.343 1197.04 246.653C1196.6 246.96 1196.05 247.114 1195.4 247.114C1194.84 247.114 1194.34 246.991 1193.91 246.744C1193.48 246.494 1193.14 246.125 1192.9 245.636C1192.65 245.148 1192.53 244.544 1192.53 243.824V238.273H1194.23V243.619C1194.23 244.214 1194.4 244.687 1194.73 245.04C1195.06 245.392 1195.48 245.568 1196.01 245.568C1196.33 245.568 1196.64 245.489 1196.96 245.33C1197.28 245.17 1197.54 244.93 1197.75 244.608C1197.96 244.286 1198.06 243.877 1198.06 243.381ZM1205.72 247.176C1204.88 247.176 1204.15 246.985 1203.54 246.602C1202.94 246.216 1202.47 245.684 1202.14 245.006C1201.82 244.328 1201.66 243.551 1201.66 242.676C1201.66 241.79 1201.82 241.008 1202.16 240.33C1202.49 239.648 1202.96 239.116 1203.57 238.733C1204.17 238.35 1204.89 238.159 1205.71 238.159C1206.37 238.159 1206.96 238.282 1207.48 238.528C1208 238.771 1208.42 239.112 1208.74 239.551C1209.06 239.991 1209.25 240.504 1209.31 241.091H1207.66C1207.57 240.682 1207.36 240.33 1207.03 240.034C1206.71 239.739 1206.28 239.591 1205.74 239.591C1205.26 239.591 1204.85 239.716 1204.49 239.966C1204.14 240.212 1203.86 240.564 1203.67 241.023C1203.47 241.477 1203.37 242.015 1203.37 242.636C1203.37 243.273 1203.47 243.822 1203.66 244.284C1203.86 244.746 1204.13 245.104 1204.48 245.358C1204.84 245.612 1205.25 245.739 1205.74 245.739C1206.06 245.739 1206.35 245.68 1206.61 245.562C1206.88 245.441 1207.1 245.269 1207.28 245.045C1207.46 244.822 1207.58 244.553 1207.66 244.239H1209.31C1209.25 244.803 1209.07 245.307 1208.76 245.75C1208.45 246.193 1208.04 246.542 1207.53 246.795C1207.01 247.049 1206.41 247.176 1205.72 247.176ZM1214.8 247.176C1213.96 247.176 1213.23 246.985 1212.62 246.602C1212.01 246.216 1211.55 245.684 1211.22 245.006C1210.9 244.328 1210.73 243.551 1210.73 242.676C1210.73 241.79 1210.9 241.008 1211.23 240.33C1211.57 239.648 1212.04 239.116 1212.64 238.733C1213.25 238.35 1213.96 238.159 1214.79 238.159C1215.45 238.159 1216.04 238.282 1216.56 238.528C1217.08 238.771 1217.5 239.112 1217.81 239.551C1218.14 239.991 1218.33 240.504 1218.39 241.091H1216.73C1216.64 240.682 1216.44 240.33 1216.11 240.034C1215.79 239.739 1215.36 239.591 1214.81 239.591C1214.34 239.591 1213.93 239.716 1213.57 239.966C1213.22 240.212 1212.94 240.564 1212.75 241.023C1212.55 241.477 1212.45 242.015 1212.45 242.636C1212.45 243.273 1212.55 243.822 1212.74 244.284C1212.93 244.746 1213.21 245.104 1213.56 245.358C1213.91 245.612 1214.33 245.739 1214.81 245.739C1215.14 245.739 1215.43 245.68 1215.69 245.562C1215.95 245.441 1216.18 245.269 1216.35 245.045C1216.54 244.822 1216.66 244.553 1216.73 244.239H1218.39C1218.33 244.803 1218.14 245.307 1217.84 245.75C1217.53 246.193 1217.12 246.542 1216.6 246.795C1216.09 247.049 1215.49 247.176 1214.8 247.176ZM1223.97 247.176C1223.11 247.176 1222.37 246.992 1221.74 246.625C1221.13 246.254 1220.65 245.733 1220.31 245.062C1219.98 244.388 1219.81 243.598 1219.81 242.693C1219.81 241.799 1219.98 241.011 1220.31 240.33C1220.65 239.648 1221.12 239.116 1221.72 238.733C1222.33 238.35 1223.04 238.159 1223.85 238.159C1224.34 238.159 1224.82 238.241 1225.28 238.403C1225.74 238.566 1226.16 238.822 1226.52 239.17C1226.89 239.519 1227.18 239.972 1227.39 240.528C1227.6 241.081 1227.71 241.754 1227.71 242.545V243.148H1220.77V241.875H1226.05C1226.05 241.428 1225.95 241.032 1225.77 240.688C1225.59 240.339 1225.34 240.064 1225.01 239.864C1224.68 239.663 1224.3 239.562 1223.86 239.562C1223.38 239.562 1222.96 239.68 1222.61 239.915C1222.26 240.146 1221.98 240.449 1221.79 240.824C1221.6 241.195 1221.51 241.598 1221.51 242.034V243.028C1221.51 243.612 1221.61 244.108 1221.81 244.517C1222.02 244.926 1222.31 245.239 1222.68 245.455C1223.05 245.667 1223.49 245.773 1223.98 245.773C1224.3 245.773 1224.6 245.727 1224.86 245.636C1225.13 245.542 1225.36 245.402 1225.55 245.216C1225.74 245.03 1225.89 244.801 1225.99 244.528L1227.6 244.818C1227.47 245.292 1227.24 245.706 1226.91 246.062C1226.58 246.415 1226.16 246.689 1225.66 246.886C1225.17 247.08 1224.6 247.176 1223.97 247.176ZM1236.13 240.403L1234.6 240.676C1234.53 240.479 1234.43 240.292 1234.29 240.114C1234.15 239.936 1233.97 239.79 1233.73 239.676C1233.5 239.562 1233.2 239.506 1232.85 239.506C1232.37 239.506 1231.97 239.614 1231.65 239.83C1231.32 240.042 1231.16 240.316 1231.16 240.653C1231.16 240.945 1231.27 241.18 1231.49 241.358C1231.7 241.536 1232.05 241.682 1232.53 241.795L1233.92 242.114C1234.72 242.299 1235.32 242.585 1235.71 242.972C1236.11 243.358 1236.31 243.86 1236.31 244.477C1236.31 245 1236.15 245.466 1235.85 245.875C1235.55 246.28 1235.13 246.598 1234.6 246.83C1234.06 247.061 1233.44 247.176 1232.74 247.176C1231.76 247.176 1230.96 246.968 1230.35 246.551C1229.73 246.131 1229.35 245.534 1229.21 244.761L1230.85 244.511C1230.95 244.939 1231.16 245.263 1231.48 245.483C1231.8 245.699 1232.21 245.807 1232.73 245.807C1233.28 245.807 1233.73 245.691 1234.06 245.46C1234.39 245.225 1234.56 244.939 1234.56 244.602C1234.56 244.33 1234.46 244.1 1234.25 243.915C1234.05 243.729 1233.74 243.589 1233.33 243.494L1231.85 243.17C1231.04 242.985 1230.43 242.689 1230.04 242.284C1229.66 241.879 1229.46 241.366 1229.46 240.744C1229.46 240.229 1229.61 239.778 1229.9 239.392C1230.18 239.006 1230.58 238.705 1231.09 238.489C1231.6 238.269 1232.18 238.159 1232.83 238.159C1233.78 238.159 1234.52 238.364 1235.06 238.773C1235.6 239.178 1235.96 239.722 1236.13 240.403ZM1244.71 240.403L1243.17 240.676C1243.11 240.479 1243.01 240.292 1242.87 240.114C1242.73 239.936 1242.54 239.79 1242.31 239.676C1242.07 239.562 1241.78 239.506 1241.43 239.506C1240.95 239.506 1240.55 239.614 1240.22 239.83C1239.9 240.042 1239.74 240.316 1239.74 240.653C1239.74 240.945 1239.85 241.18 1240.07 241.358C1240.28 241.536 1240.63 241.682 1241.11 241.795L1242.5 242.114C1243.3 242.299 1243.9 242.585 1244.29 242.972C1244.69 243.358 1244.88 243.86 1244.88 244.477C1244.88 245 1244.73 245.466 1244.43 245.875C1244.13 246.28 1243.71 246.598 1243.17 246.83C1242.64 247.061 1242.02 247.176 1241.32 247.176C1240.34 247.176 1239.54 246.968 1238.92 246.551C1238.31 246.131 1237.93 245.534 1237.79 244.761L1239.43 244.511C1239.53 244.939 1239.74 245.263 1240.06 245.483C1240.38 245.699 1240.79 245.807 1241.3 245.807C1241.86 245.807 1242.31 245.691 1242.64 245.46C1242.97 245.225 1243.14 244.939 1243.14 244.602C1243.14 244.33 1243.04 244.1 1242.83 243.915C1242.63 243.729 1242.32 243.589 1241.91 243.494L1240.43 243.17C1239.61 242.985 1239.01 242.689 1238.62 242.284C1238.24 241.879 1238.04 241.366 1238.04 240.744C1238.04 240.229 1238.19 239.778 1238.47 239.392C1238.76 239.006 1239.16 238.705 1239.67 238.489C1240.18 238.269 1240.76 238.159 1241.41 238.159C1242.36 238.159 1243.1 238.364 1243.64 238.773C1244.18 239.178 1244.54 239.722 1244.71 240.403ZM1250.99 247V238.273H1252.62V239.693H1252.72C1252.91 239.212 1253.2 238.837 1253.62 238.568C1254.03 238.295 1254.52 238.159 1255.1 238.159C1255.68 238.159 1256.17 238.295 1256.57 238.568C1256.96 238.841 1257.26 239.216 1257.45 239.693H1257.54C1257.75 239.227 1258.08 238.856 1258.53 238.58C1258.99 238.299 1259.53 238.159 1260.16 238.159C1260.95 238.159 1261.59 238.407 1262.09 238.903C1262.6 239.4 1262.85 240.148 1262.85 241.148V247H1261.15V241.307C1261.15 240.716 1260.99 240.288 1260.67 240.023C1260.35 239.758 1259.96 239.625 1259.51 239.625C1258.96 239.625 1258.53 239.795 1258.22 240.136C1257.92 240.473 1257.76 240.907 1257.76 241.438V247H1256.07V241.199C1256.07 240.725 1255.92 240.345 1255.63 240.057C1255.33 239.769 1254.95 239.625 1254.47 239.625C1254.15 239.625 1253.86 239.71 1253.58 239.881C1253.31 240.047 1253.1 240.28 1252.93 240.58C1252.77 240.879 1252.68 241.225 1252.68 241.619V247H1250.99ZM1268.89 247.176C1268.03 247.176 1267.29 246.992 1266.67 246.625C1266.05 246.254 1265.57 245.733 1265.23 245.062C1264.9 244.388 1264.73 243.598 1264.73 242.693C1264.73 241.799 1264.9 241.011 1265.23 240.33C1265.57 239.648 1266.04 239.116 1266.64 238.733C1267.25 238.35 1267.96 238.159 1268.77 238.159C1269.26 238.159 1269.74 238.241 1270.2 238.403C1270.66 238.566 1271.08 238.822 1271.44 239.17C1271.81 239.519 1272.1 239.972 1272.31 240.528C1272.53 241.081 1272.63 241.754 1272.63 242.545V243.148H1265.69V241.875H1270.97C1270.97 241.428 1270.88 241.032 1270.69 240.688C1270.51 240.339 1270.26 240.064 1269.93 239.864C1269.6 239.663 1269.22 239.562 1268.78 239.562C1268.3 239.562 1267.89 239.68 1267.53 239.915C1267.18 240.146 1266.9 240.449 1266.71 240.824C1266.52 241.195 1266.43 241.598 1266.43 242.034V243.028C1266.43 243.612 1266.53 244.108 1266.73 244.517C1266.94 244.926 1267.23 245.239 1267.6 245.455C1267.97 245.667 1268.41 245.773 1268.9 245.773C1269.23 245.773 1269.52 245.727 1269.79 245.636C1270.05 245.542 1270.28 245.402 1270.47 245.216C1270.67 245.03 1270.81 244.801 1270.92 244.528L1272.52 244.818C1272.4 245.292 1272.16 245.706 1271.83 246.062C1271.5 246.415 1271.09 246.689 1270.59 246.886C1270.09 247.08 1269.52 247.176 1268.89 247.176ZM1281.06 240.403L1279.52 240.676C1279.45 240.479 1279.35 240.292 1279.21 240.114C1279.07 239.936 1278.89 239.79 1278.65 239.676C1278.42 239.562 1278.13 239.506 1277.77 239.506C1277.29 239.506 1276.89 239.614 1276.57 239.83C1276.25 240.042 1276.09 240.316 1276.09 240.653C1276.09 240.945 1276.19 241.18 1276.41 241.358C1276.63 241.536 1276.97 241.682 1277.45 241.795L1278.84 242.114C1279.64 242.299 1280.24 242.585 1280.64 242.972C1281.03 243.358 1281.23 243.86 1281.23 244.477C1281.23 245 1281.08 245.466 1280.77 245.875C1280.47 246.28 1280.05 246.598 1279.52 246.83C1278.98 247.061 1278.36 247.176 1277.66 247.176C1276.68 247.176 1275.88 246.968 1275.27 246.551C1274.65 246.131 1274.27 245.534 1274.13 244.761L1275.77 244.511C1275.88 244.939 1276.09 245.263 1276.4 245.483C1276.72 245.699 1277.14 245.807 1277.65 245.807C1278.2 245.807 1278.65 245.691 1278.98 245.46C1279.32 245.225 1279.48 244.939 1279.48 244.602C1279.48 244.33 1279.38 244.1 1279.18 243.915C1278.98 243.729 1278.67 243.589 1278.25 243.494L1276.77 243.17C1275.96 242.985 1275.36 242.689 1274.97 242.284C1274.58 241.879 1274.39 241.366 1274.39 240.744C1274.39 240.229 1274.53 239.778 1274.82 239.392C1275.11 239.006 1275.5 238.705 1276.01 238.489C1276.52 238.269 1277.1 238.159 1277.76 238.159C1278.7 238.159 1279.44 238.364 1279.98 238.773C1280.52 239.178 1280.88 239.722 1281.06 240.403ZM1289.63 240.403L1288.1 240.676C1288.03 240.479 1287.93 240.292 1287.79 240.114C1287.65 239.936 1287.47 239.79 1287.23 239.676C1287 239.562 1286.7 239.506 1286.35 239.506C1285.87 239.506 1285.47 239.614 1285.15 239.83C1284.82 240.042 1284.66 240.316 1284.66 240.653C1284.66 240.945 1284.77 241.18 1284.99 241.358C1285.2 241.536 1285.55 241.682 1286.03 241.795L1287.42 242.114C1288.22 242.299 1288.82 242.585 1289.21 242.972C1289.61 243.358 1289.81 243.86 1289.81 244.477C1289.81 245 1289.65 245.466 1289.35 245.875C1289.05 246.28 1288.63 246.598 1288.1 246.83C1287.56 247.061 1286.94 247.176 1286.24 247.176C1285.26 247.176 1284.46 246.968 1283.85 246.551C1283.23 246.131 1282.85 245.534 1282.71 244.761L1284.35 244.511C1284.45 244.939 1284.66 245.263 1284.98 245.483C1285.3 245.699 1285.71 245.807 1286.23 245.807C1286.78 245.807 1287.23 245.691 1287.56 245.46C1287.89 245.225 1288.06 244.939 1288.06 244.602C1288.06 244.33 1287.96 244.1 1287.75 243.915C1287.55 243.729 1287.24 243.589 1286.83 243.494L1285.35 243.17C1284.54 242.985 1283.93 242.689 1283.54 242.284C1283.16 241.879 1282.96 241.366 1282.96 240.744C1282.96 240.229 1283.11 239.778 1283.4 239.392C1283.68 239.006 1284.08 238.705 1284.59 238.489C1285.1 238.269 1285.68 238.159 1286.33 238.159C1287.28 238.159 1288.02 238.364 1288.56 238.773C1289.1 239.178 1289.46 239.722 1289.63 240.403ZM1294.21 247.193C1293.66 247.193 1293.16 247.091 1292.71 246.886C1292.27 246.678 1291.91 246.377 1291.65 245.983C1291.39 245.589 1291.26 245.106 1291.26 244.534C1291.26 244.042 1291.36 243.636 1291.55 243.318C1291.74 243 1291.99 242.748 1292.32 242.562C1292.64 242.377 1293 242.237 1293.39 242.142C1293.79 242.047 1294.2 241.975 1294.61 241.926C1295.13 241.866 1295.56 241.816 1295.88 241.778C1296.21 241.737 1296.45 241.67 1296.59 241.58C1296.74 241.489 1296.82 241.341 1296.82 241.136V241.097C1296.82 240.6 1296.68 240.216 1296.39 239.943C1296.12 239.67 1295.71 239.534 1295.16 239.534C1294.58 239.534 1294.13 239.661 1293.8 239.915C1293.48 240.165 1293.25 240.443 1293.13 240.75L1291.53 240.386C1291.72 239.856 1292 239.428 1292.36 239.102C1292.73 238.773 1293.15 238.534 1293.63 238.386C1294.11 238.235 1294.61 238.159 1295.13 238.159C1295.48 238.159 1295.85 238.201 1296.24 238.284C1296.64 238.364 1297 238.511 1297.34 238.727C1297.69 238.943 1297.97 239.252 1298.19 239.653C1298.41 240.051 1298.52 240.568 1298.52 241.205V247H1296.86V245.807H1296.79C1296.68 246.027 1296.52 246.242 1296.3 246.455C1296.08 246.667 1295.8 246.843 1295.45 246.983C1295.11 247.123 1294.69 247.193 1294.21 247.193ZM1294.58 245.83C1295.05 245.83 1295.45 245.737 1295.79 245.551C1296.12 245.366 1296.38 245.123 1296.55 244.824C1296.73 244.521 1296.82 244.197 1296.82 243.852V242.727C1296.76 242.788 1296.64 242.845 1296.47 242.898C1296.3 242.947 1296.1 242.991 1295.88 243.028C1295.66 243.062 1295.45 243.095 1295.24 243.125C1295.03 243.152 1294.86 243.174 1294.72 243.193C1294.39 243.235 1294.09 243.305 1293.82 243.403C1293.55 243.502 1293.33 243.644 1293.17 243.83C1293.01 244.011 1292.93 244.254 1292.93 244.557C1292.93 244.977 1293.08 245.295 1293.39 245.511C1293.71 245.723 1294.1 245.83 1294.58 245.83ZM1304.44 250.455C1303.75 250.455 1303.15 250.364 1302.65 250.182C1302.16 250 1301.75 249.759 1301.44 249.46C1301.12 249.161 1300.89 248.833 1300.73 248.477L1302.19 247.875C1302.29 248.042 1302.43 248.218 1302.6 248.403C1302.78 248.593 1303.01 248.754 1303.31 248.886C1303.6 249.019 1303.99 249.085 1304.46 249.085C1305.1 249.085 1305.63 248.928 1306.06 248.614C1306.48 248.303 1306.69 247.807 1306.69 247.125V245.409H1306.58C1306.48 245.595 1306.33 245.801 1306.13 246.028C1305.95 246.256 1305.68 246.453 1305.35 246.619C1305.02 246.786 1304.58 246.869 1304.05 246.869C1303.36 246.869 1302.74 246.708 1302.19 246.386C1301.64 246.061 1301.2 245.581 1300.88 244.949C1300.56 244.312 1300.4 243.53 1300.4 242.602C1300.4 241.674 1300.56 240.879 1300.87 240.216C1301.19 239.553 1301.63 239.045 1302.18 238.693C1302.73 238.337 1303.36 238.159 1304.06 238.159C1304.6 238.159 1305.04 238.25 1305.37 238.432C1305.71 238.61 1305.97 238.818 1306.15 239.057C1306.34 239.295 1306.49 239.506 1306.59 239.688H1306.71V238.273H1308.38V247.193C1308.38 247.943 1308.21 248.559 1307.86 249.04C1307.51 249.521 1307.04 249.877 1306.44 250.108C1305.85 250.339 1305.18 250.455 1304.44 250.455ZM1304.42 245.46C1304.91 245.46 1305.33 245.347 1305.66 245.119C1306 244.888 1306.26 244.559 1306.44 244.131C1306.61 243.699 1306.7 243.182 1306.7 242.58C1306.7 241.992 1306.62 241.475 1306.44 241.028C1306.27 240.581 1306.01 240.233 1305.67 239.983C1305.34 239.729 1304.92 239.602 1304.42 239.602C1303.91 239.602 1303.49 239.735 1303.15 240C1302.81 240.261 1302.55 240.617 1302.37 241.068C1302.2 241.519 1302.12 242.023 1302.12 242.58C1302.12 243.152 1302.21 243.653 1302.38 244.085C1302.55 244.517 1302.81 244.854 1303.15 245.097C1303.5 245.339 1303.92 245.46 1304.42 245.46ZM1314.42 247.176C1313.56 247.176 1312.82 246.992 1312.2 246.625C1311.58 246.254 1311.1 245.733 1310.77 245.062C1310.43 244.388 1310.27 243.598 1310.27 242.693C1310.27 241.799 1310.43 241.011 1310.77 240.33C1311.1 239.648 1311.57 239.116 1312.17 238.733C1312.78 238.35 1313.49 238.159 1314.3 238.159C1314.79 238.159 1315.27 238.241 1315.73 238.403C1316.19 238.566 1316.61 238.822 1316.98 239.17C1317.34 239.519 1317.63 239.972 1317.85 240.528C1318.06 241.081 1318.16 241.754 1318.16 242.545V243.148H1311.23V241.875H1316.5C1316.5 241.428 1316.41 241.032 1316.23 240.688C1316.04 240.339 1315.79 240.064 1315.46 239.864C1315.13 239.663 1314.75 239.562 1314.31 239.562C1313.83 239.562 1313.42 239.68 1313.06 239.915C1312.71 240.146 1312.44 240.449 1312.24 240.824C1312.05 241.195 1311.96 241.598 1311.96 242.034V243.028C1311.96 243.612 1312.06 244.108 1312.27 244.517C1312.47 244.926 1312.76 245.239 1313.13 245.455C1313.51 245.667 1313.94 245.773 1314.44 245.773C1314.76 245.773 1315.05 245.727 1315.32 245.636C1315.58 245.542 1315.81 245.402 1316 245.216C1316.2 245.03 1316.35 244.801 1316.45 244.528L1318.06 244.818C1317.93 245.292 1317.7 245.706 1317.36 246.062C1317.03 246.415 1316.62 246.689 1316.12 246.886C1315.62 247.08 1315.06 247.176 1314.42 247.176Z" fill="#94A3B8"/>
<rect x="1140.5" y="176.5" width="219" height="129" rx="1.5" stroke="#94A3B8"/>
<path d="M284 240.5L274 234.726V246.274L284 240.5ZM220 241.5H275V239.5H220V241.5Z" fill="#475569"/>
<path d="M570 240L560 234.226V245.774L570 240ZM506 241H561V239H506V241Z" fill="#475569"/>
<path d="M856 239.5L846 233.726V245.274L856 239.5ZM792 240.5H847V238.5H792V240.5Z" fill="#475569"/>
<path d="M1142 239L1132 233.226V244.774L1142 239ZM1078 240H1133V238H1078V240Z" fill="#475569"/>
<path d="M395 130L389.226 140H400.774L395 130ZM395 176L400.774 166H389.226L395 176ZM394 139V167H396V139H394Z" fill="#475569"/>
<path d="M395 306L389.226 316H400.774L395 306ZM395 352L400.774 342H389.226L395 352ZM394 315V343H396V315H394Z" fill="#475569"/>
<rect width="1360" height="482" fill="url(#paint0_radial_1339_2710)"/>
<defs>
<radialGradient id="paint0_radial_1339_2710" cx="0" cy="0" r="1" gradientUnits="userSpaceOnUse" gradientTransform="translate(507.5 241) scale(1063.5 300.649)">
<stop stop-color="#1E293B" stop-opacity="0"/>
<stop offset="1" stop-color="#1E293B"/>
</radialGradient>
</defs>
</svg>
