<svg width="766" height="70" viewBox="0 0 766 70" fill="none" xmlns="http://www.w3.org/2000/svg">
<mask id="mask0_1382_2864" style="mask-type:alpha" maskUnits="userSpaceOnUse" x="-1" y="0" width="767" height="70">
<path d="M711.968 0H702.706L756.737 70H766L711.968 0Z" fill="#EAEC7F"/>
<path d="M690.674 0H681.412L735.443 70H744.706L690.674 0Z" fill="#EAEC7F"/>
<path d="M669.38 0H660.118L714.149 70H723.412L669.38 0Z" fill="#EAEC7F"/>
<path d="M648.086 0H638.824L692.855 70H702.118L648.086 0Z" fill="#EAEC7F"/>
<path d="M626.792 0H617.529L671.561 70H680.823L626.792 0Z" fill="#EAEC7F"/>
<path d="M605.498 0H596.235L650.267 70H659.529L605.498 0Z" fill="#EAEC7F"/>
<path d="M584.204 0H574.941L628.973 70H638.235L584.204 0Z" fill="#EAEC7F"/>
<path d="M562.91 0H553.647L607.679 70H616.941L562.91 0Z" fill="#EAEC7F"/>
<path d="M541.616 0H532.353L586.385 70H595.647L541.616 0Z" fill="#EAEC7F"/>
<path d="M520.321 0H511.059L565.09 70H574.353L520.321 0Z" fill="#EAEC7F"/>
<path d="M499.027 0H489.765L543.796 70H553.059L499.027 0Z" fill="#EAEC7F"/>
<path d="M477.733 0H468.471L522.502 70H531.765L477.733 0Z" fill="#EAEC7F"/>
<path d="M456.439 0H447.176L501.208 70H510.471L456.439 0Z" fill="#EAEC7F"/>
<path d="M435.145 0H425.882L479.914 70H489.177L435.145 0Z" fill="#EAEC7F"/>
<path d="M413.851 0H404.588L458.62 70H467.882L413.851 0Z" fill="#EAEC7F"/>
<path d="M392.557 0H383.294L437.326 70H446.588L392.557 0Z" fill="#EAEC7F"/>
<path d="M371.263 0H362L416.032 70H425.294L371.263 0Z" fill="#EAEC7F"/>
<path d="M349.968 0H340.706L394.737 70H404L349.968 0Z" fill="#EAEC7F"/>
<path d="M328.674 0H319.412L373.443 70H382.706L328.674 0Z" fill="#EAEC7F"/>
<path d="M307.38 0H298.118L352.149 70H361.412L307.38 0Z" fill="#EAEC7F"/>
<path d="M286.086 0H276.824L330.855 70H340.118L286.086 0Z" fill="#EAEC7F"/>
<path d="M264.792 0H255.529L309.561 70H318.823L264.792 0Z" fill="#EAEC7F"/>
<path d="M243.498 0H234.235L288.267 70H297.529L243.498 0Z" fill="#EAEC7F"/>
<path d="M222.204 0H212.941L266.973 70H276.235L222.204 0Z" fill="#EAEC7F"/>
<path d="M200.91 0H191.647L245.679 70H254.941L200.91 0Z" fill="#EAEC7F"/>
<path d="M179.615 0H170.353L224.384 70H233.647L179.615 0Z" fill="#EAEC7F"/>
<path d="M158.321 0H149.059L203.09 70H212.353L158.321 0Z" fill="#EAEC7F"/>
<path d="M137.027 0H127.765L181.796 70H191.059L137.027 0Z" fill="#EAEC7F"/>
<path d="M115.733 0H106.471L160.502 70H169.765L115.733 0Z" fill="#EAEC7F"/>
<path d="M94.4389 0H85.1763L139.208 70H148.47L94.4389 0Z" fill="#EAEC7F"/>
<path d="M73.1447 0H63.8822L117.914 70H127.176L73.1447 0Z" fill="#EAEC7F"/>
<path d="M51.8506 0H42.5881L96.6196 70H105.882L51.8506 0Z" fill="#EAEC7F"/>
<path d="M30.5566 0H21.294L75.3256 70H84.5881L30.5566 0Z" fill="#EAEC7F"/>
<path d="M9.26238 0H-0.000171661L54.0314 70H63.2939L9.26238 0Z" fill="#EAEC7F"/>
</mask>
<g mask="url(#mask0_1382_2864)">
<rect width="807" height="70" transform="matrix(-1 0 0 1 785 0)" fill="url(#paint0_linear_1382_2864)"/>
</g>
<defs>
<linearGradient id="paint0_linear_1382_2864" x1="8.77154e-07" y1="34.3381" x2="709.461" y2="34.3381" gradientUnits="userSpaceOnUse">
<stop stop-color="#74B0E7" stop-opacity="0.2"/>
<stop offset="1" stop-color="#87FFDB" stop-opacity="0"/>
</linearGradient>
</defs>
</svg>
