<svg width="86" height="106" viewBox="0 0 86 106" fill="none" xmlns="http://www.w3.org/2000/svg">
<g filter="url(#filter0_dd_1382_2704)">
<path d="M30.0327 51.448C30.1487 51.6413 30.3774 51.8186 30.7942 51.5253L35.2536 45.7244C35.473 45.2184 35.6453 45.1733 35.567 44.3128C35.3318 43.3404 35.3033 42.3273 35.4835 41.3425C35.6637 40.3578 36.0483 39.4246 36.6111 38.6066C37.1739 37.7886 37.9016 37.1051 38.7446 36.6027C39.5877 36.1002 40.5261 35.7907 41.4961 35.6952C41.9696 35.4696 42.389 35.1395 42.7245 34.7283L46.3879 29.949C46.8705 29.1369 46.4725 28.6599 46.2062 28.4794C44.9521 28.1133 43.6552 27.9257 42.3516 27.9219H34.4576C29.9888 19.3365 22.051 20.3646 22.051 20.3646C21.2425 25.0988 24.9748 28.0669 27.6918 29.5687C24.9936 29.1304 20.9291 28.8984 17.4694 30.5065C17.4694 30.5065 12.5462 32.3919 18.2246 34.8959C18.2246 34.8959 24.1976 37.6127 30.0358 34.7412L30.0327 51.448ZM50.8567 30.8385C50.6343 30.7127 50.3811 30.6561 50.1279 30.6756C49.8748 30.695 49.6326 30.7897 49.4308 30.9481L45.7549 35.7403C45.6797 36.0626 45.5387 36.5524 46.0683 36.9263C46.5325 37.2601 46.9537 37.6532 47.3218 38.0961L47.3531 38.1316C47.444 38.2444 47.5317 38.3572 47.6164 38.4764L47.632 38.499C47.7135 38.6118 47.7918 38.7278 47.8639 38.8438C47.8712 38.8574 47.8796 38.8704 47.889 38.8825C48.7495 40.2689 49.107 41.9229 48.8987 43.5536C48.6905 45.1843 47.9298 46.6872 46.7504 47.7981C45.571 48.909 44.0485 49.5566 42.4506 49.627C40.8528 49.6975 39.282 49.1863 38.0145 48.1833C37.1997 47.9577 36.902 48.309 36.5917 48.5539L36.131 49.1921L30.6501 56.3047C30.3196 56.9742 30.1074 57.6987 30.0233 58.4446V68.6736L37.5788 65.1511V56.2821C39.1228 56.7711 40.7268 57.0305 42.3422 57.0523C45.315 57.0539 48.2129 56.0934 50.6253 54.3068C53.0376 52.5202 54.8421 49.9983 55.783 47.0982C56.7239 44.1982 56.7536 41.0672 55.8677 38.1489C54.9818 35.2306 53.2254 32.673 50.8473 30.8385H50.8567Z" fill="#6366F1"/>
</g>
<defs>
<filter id="filter0_dd_1382_2704" x="-7.68355" y="-4.07806" width="102.051" height="114.287" filterUnits="userSpaceOnUse" color-interpolation-filters="sRGB">
<feFlood flood-opacity="0" result="BackgroundImageFix"/>
<feColorMatrix in="SourceAlpha" type="matrix" values="0 0 0 0 0 0 0 0 0 0 0 0 0 0 0 0 0 0 127 0" result="hardAlpha"/>
<feOffset dx="7.34177" dy="14.6835"/>
<feGaussianBlur stdDeviation="11.0127"/>
<feComposite in2="hardAlpha" operator="out"/>
<feColorMatrix type="matrix" values="0 0 0 0 0.388235 0 0 0 0 0.4 0 0 0 0 0.945098 0 0 0 0.5 0"/>
<feBlend mode="normal" in2="BackgroundImageFix" result="effect1_dropShadow_1382_2704"/>
<feColorMatrix in="SourceAlpha" type="matrix" values="0 0 0 0 0 0 0 0 0 0 0 0 0 0 0 0 0 0 127 0" result="hardAlpha"/>
<feOffset dx="4.89451" dy="-4.89451"/>
<feGaussianBlur stdDeviation="7.34177"/>
<feComposite in2="hardAlpha" operator="out"/>
<feColorMatrix type="matrix" values="0 0 0 0 1 0 0 0 0 0.154167 0 0 0 0 0.560167 0 0 0 0.1 0"/>
<feBlend mode="normal" in2="effect1_dropShadow_1382_2704" result="effect2_dropShadow_1382_2704"/>
<feBlend mode="normal" in="SourceGraphic" in2="effect2_dropShadow_1382_2704" result="shape"/>
</filter>
</defs>
</svg>
