<svg width="618" height="610" viewBox="0 0 618 610" fill="none" xmlns="http://www.w3.org/2000/svg">
<g clip-path="url(#clip0_1404_4248)">
<rect width="618" height="610" fill="url(#paint0_linear_1404_4248)"/>
<path opacity="0.05" d="M475.123 150.588C509.389 209.938 509.389 283.062 475.123 342.412V342.412C440.857 401.763 377.53 438.325 308.998 438.325V438.325C240.466 438.325 177.139 401.763 142.873 342.412V342.412C108.607 283.062 108.607 209.938 142.873 150.588V150.588C177.139 91.2369 240.466 54.6754 308.998 54.6754V54.6754C377.53 54.6754 440.857 91.2369 475.123 150.588V150.588Z" fill="#200065"/>
<path opacity="0.05" d="M442.127 169.462C469.501 216.876 469.501 275.292 442.127 322.706V322.706C414.753 370.119 364.163 399.327 309.414 399.327V399.327C254.666 399.327 204.076 370.119 176.702 322.706V322.706C149.327 275.292 149.327 216.876 176.702 169.462V169.462C204.076 122.049 254.666 92.8406 309.414 92.8406V92.8406C364.163 92.8406 414.753 122.049 442.127 169.462V169.462Z" fill="#200065"/>
<path opacity="0.15" d="M409.547 188.448C430.287 224.371 430.287 268.63 409.547 304.553V304.553C388.807 340.475 350.478 362.605 308.998 362.605V362.605C267.518 362.605 229.189 340.475 208.449 304.553V304.553C187.709 268.63 187.709 224.371 208.449 188.448V188.448C229.189 152.525 267.518 130.396 308.998 130.396V130.396C350.478 130.396 388.807 152.525 409.547 188.448V188.448Z" fill="#200065"/>
<path opacity="0.15" d="M376.447 207.558C390.36 231.655 390.36 261.344 376.447 285.442V285.442C362.535 309.539 336.823 324.383 308.998 324.383V324.383C281.173 324.383 255.461 309.539 241.549 285.442V285.442C227.636 261.344 227.636 231.655 241.549 207.558V207.558C255.461 183.461 281.173 168.616 308.998 168.616V168.616C336.823 168.616 362.535 183.461 376.447 207.558V207.558Z" fill="#200065"/>
<path opacity="0.2" d="M342.723 227.029C349.679 239.078 349.679 253.923 342.723 265.971V265.971C335.766 278.02 322.911 285.442 308.998 285.442V285.442C295.085 285.442 282.23 278.02 275.273 265.971V265.971C268.317 253.923 268.317 239.078 275.273 227.029V227.029C282.23 214.981 295.085 207.558 308.998 207.559V207.559C322.911 207.559 335.766 214.981 342.723 227.029V227.029Z" fill="#200065"/>
<path opacity="0.3" d="M181.824 253.253C179.899 249.118 180.486 244.249 183.337 240.689L251.453 155.638C253.13 153.543 255.461 152.072 258.073 151.458L369.965 125.152C375.64 123.818 381.453 126.755 383.745 132.115L430.73 241.995C431.965 244.883 432.019 248.141 430.879 251.068L386.505 365.011C384.71 369.621 380.27 372.656 375.323 372.656H245.039C240.372 372.656 236.128 369.95 234.159 365.719L181.824 253.253Z" fill="#1E3A8A"/>
<path opacity="0.7" d="M180.969 251.214C180.037 248.195 180.333 244.93 181.793 242.128L237.695 134.858C239.802 130.815 244.018 128.315 248.576 128.406L369.386 130.811C373.521 130.893 377.323 133.099 379.446 136.649L441.804 240.911C443.889 244.398 444.069 248.703 442.28 252.352L385.951 367.278C384.178 370.897 380.707 373.383 376.711 373.899L234.916 392.183C229.126 392.929 223.639 389.4 221.916 383.822L180.969 251.214Z" fill="url(#paint1_linear_1404_4248)"/>
<path d="M543.33 255.08C543.483 255.236 543.655 255.373 543.84 255.49C541.144 257.128 537.918 257.658 534.84 256.97C534.702 256.941 534.571 256.884 534.457 256.802C534.343 256.72 534.247 256.614 534.176 256.493C534.105 256.371 534.061 256.235 534.046 256.095C534.031 255.955 534.046 255.814 534.09 255.68C534.137 255.521 534.223 255.377 534.34 255.26C534.457 255.146 534.601 255.063 534.758 255.018C534.914 254.972 535.08 254.966 535.24 255C537.752 255.574 540.388 255.178 542.62 253.89C542.757 254.338 543.001 254.746 543.33 255.08Z" fill="#64748B"/>
<path d="M547.94 238.59C549.633 241.294 550.193 244.556 549.5 247.67C549.47 247.806 549.413 247.934 549.331 248.046C549.248 248.159 549.144 248.253 549.023 248.323C548.903 248.392 548.769 248.436 548.631 248.451C548.493 248.466 548.353 248.452 548.22 248.41C547.977 248.344 547.769 248.189 547.635 247.976C547.502 247.763 547.453 247.507 547.5 247.26C548.058 244.792 547.681 242.205 546.44 240C546.815 239.859 547.155 239.641 547.44 239.36C547.649 239.133 547.818 238.873 547.94 238.59V238.59Z" fill="#64748B"/>
<path d="M540.91 234.32C540.863 234.478 540.777 234.623 540.66 234.74C540.542 234.853 540.399 234.936 540.242 234.982C540.085 235.027 539.92 235.033 539.76 235C537.292 234.441 534.705 234.819 532.5 236.06C532.359 235.685 532.141 235.345 531.86 235.06C531.643 234.838 531.389 234.656 531.11 234.52C533.813 232.852 537.06 232.306 540.16 233C540.301 233.027 540.435 233.085 540.552 233.169C540.67 233.254 540.767 233.362 540.838 233.487C540.91 233.613 540.953 233.752 540.965 233.896C540.978 234.04 540.959 234.184 540.91 234.32V234.32Z" fill="#64748B"/>
<path d="M527.24 241.839C527.353 241.957 527.436 242.1 527.482 242.257C527.527 242.414 527.533 242.58 527.5 242.739C526.941 245.207 527.319 247.794 528.56 249.999C528.185 250.14 527.845 250.358 527.56 250.639C527.338 250.857 527.156 251.11 527.02 251.389C525.352 248.687 524.806 245.439 525.5 242.339C525.528 242.201 525.585 242.071 525.667 241.956C525.75 241.842 525.855 241.746 525.977 241.676C526.099 241.605 526.234 241.56 526.374 241.546C526.514 241.531 526.656 241.546 526.79 241.589C526.959 241.632 527.114 241.718 527.24 241.839Z" fill="#64748B"/>
<path d="M545.45 257C544.691 256.997 543.949 256.779 543.31 256.37C543.067 256.216 542.842 256.035 542.64 255.83C542.181 255.386 541.838 254.837 541.64 254.23C541.38 253.427 541.381 252.562 541.643 251.759C541.905 250.956 542.414 250.257 543.098 249.762C543.782 249.266 544.604 248.999 545.449 249C546.293 249.001 547.115 249.268 547.798 249.765C548.481 250.261 548.989 250.961 549.25 251.764C549.511 252.567 549.511 253.432 549.251 254.235C548.99 255.038 548.482 255.738 547.799 256.235C547.117 256.731 546.294 256.999 545.45 257V257ZM545.45 251C545.135 251.001 544.825 251.076 544.545 251.219C544.265 251.362 544.023 251.569 543.838 251.823C543.653 252.077 543.53 252.372 543.48 252.682C543.43 252.993 543.454 253.31 543.55 253.61C543.641 253.915 543.806 254.194 544.03 254.42C544.129 254.522 544.24 254.613 544.36 254.69C544.62 254.854 544.913 254.956 545.219 254.988C545.524 255.02 545.833 254.981 546.121 254.875C546.409 254.768 546.668 254.597 546.879 254.374C547.091 254.151 547.248 253.882 547.338 253.589C547.429 253.296 547.451 252.985 547.402 252.682C547.354 252.379 547.236 252.091 547.058 251.841C546.88 251.59 546.647 251.384 546.377 251.239C546.107 251.093 545.807 251.011 545.5 251H545.45Z" fill="#64748B"/>
<path d="M529.72 241.22C529.114 241.22 528.515 241.083 527.97 240.818C527.425 240.554 526.947 240.168 526.572 239.692C526.197 239.215 525.936 238.66 525.807 238.068C525.679 237.475 525.687 236.862 525.83 236.273C525.974 235.684 526.249 235.135 526.636 234.668C527.023 234.201 527.51 233.829 528.062 233.578C528.614 233.327 529.216 233.205 529.822 233.221C530.427 233.237 531.022 233.39 531.56 233.67C531.932 233.851 532.27 234.094 532.56 234.39C532.932 234.76 533.225 235.202 533.42 235.69C533.733 236.418 533.819 237.225 533.665 238.003C533.512 238.781 533.126 239.495 532.56 240.05C532.187 240.422 531.744 240.717 531.257 240.918C530.769 241.119 530.247 241.221 529.72 241.22V241.22ZM529.72 235.22C529.195 235.222 528.692 235.43 528.32 235.8C528.134 235.985 527.986 236.206 527.886 236.449C527.785 236.692 527.733 236.952 527.733 237.215C527.733 237.478 527.785 237.738 527.886 237.981C527.986 238.223 528.134 238.444 528.32 238.63C528.506 238.816 528.726 238.963 528.969 239.064C529.212 239.164 529.472 239.216 529.735 239.216C529.998 239.216 530.258 239.164 530.501 239.064C530.743 238.963 530.964 238.816 531.15 238.63C531.427 238.35 531.616 237.996 531.692 237.61C531.769 237.224 531.73 236.824 531.58 236.46C531.484 236.212 531.337 235.987 531.15 235.8C531.013 235.661 530.854 235.546 530.68 235.46C530.377 235.304 530.04 235.225 529.7 235.23L529.72 235.22Z" fill="#64748B"/>
<path d="M529.72 256.78C529.034 256.778 528.36 256.599 527.763 256.262C527.166 255.925 526.666 255.439 526.311 254.853C525.955 254.267 525.757 253.599 525.734 252.913C525.711 252.228 525.864 251.548 526.18 250.94C526.361 250.567 526.604 250.229 526.9 249.94C527.27 249.567 527.712 249.275 528.2 249.08C528.928 248.766 529.735 248.681 530.513 248.834C531.291 248.988 532.005 249.373 532.56 249.94C533.12 250.499 533.501 251.212 533.656 251.988C533.81 252.765 533.731 253.569 533.428 254.301C533.125 255.032 532.612 255.657 531.954 256.096C531.295 256.536 530.521 256.77 529.73 256.77L529.72 256.78ZM529.72 250.78C529.186 250.79 528.676 251.001 528.29 251.37C528.151 251.506 528.036 251.665 527.95 251.84C527.746 252.217 527.668 252.651 527.73 253.076C527.791 253.501 527.987 253.895 528.29 254.2C528.476 254.385 528.696 254.533 528.939 254.634C529.182 254.734 529.442 254.786 529.705 254.786C529.968 254.786 530.228 254.734 530.471 254.634C530.713 254.533 530.934 254.385 531.12 254.2C531.306 254.014 531.453 253.793 531.554 253.55C531.655 253.308 531.706 253.047 531.706 252.785C531.706 252.522 531.655 252.261 531.554 252.019C531.453 251.776 531.306 251.555 531.12 251.37C530.755 250.997 530.26 250.782 529.74 250.77L529.72 250.78Z" fill="#64748B"/>
<path d="M545.27 241.229C544.614 241.226 543.969 241.06 543.392 240.749C542.814 240.437 542.323 239.987 541.96 239.441C541.597 238.894 541.375 238.266 541.312 237.613C541.249 236.96 541.347 236.302 541.599 235.696C541.851 235.09 542.247 234.555 542.754 234.138C543.261 233.722 543.863 233.437 544.506 233.308C545.15 233.179 545.815 233.21 546.443 233.398C547.072 233.587 547.644 233.927 548.11 234.389C548.71 234.99 549.104 235.767 549.233 236.607C549.363 237.446 549.221 238.305 548.83 239.059C548.649 239.431 548.405 239.77 548.11 240.059C547.348 240.8 546.332 241.222 545.27 241.239V241.229ZM545.27 235.229C544.876 235.231 544.491 235.349 544.163 235.569C543.836 235.789 543.581 236.101 543.43 236.465C543.279 236.83 543.24 237.23 543.316 237.617C543.393 238.004 543.582 238.36 543.86 238.639C544.139 238.917 544.494 239.105 544.88 239.182C545.266 239.258 545.666 239.219 546.03 239.069C546.274 238.973 546.496 238.826 546.68 238.639C546.819 238.503 546.934 238.344 547.02 238.169C547.224 237.792 547.301 237.358 547.24 236.933C547.179 236.508 546.982 236.114 546.68 235.809C546.309 235.436 545.806 235.224 545.28 235.219L545.27 235.229Z" fill="#64748B"/>
<path fill-rule="evenodd" clip-rule="evenodd" d="M432.008 434.157C432.399 433.767 433.032 433.767 433.423 434.157C434.876 435.611 434.842 437.896 434.122 440.056C433.381 442.28 431.82 444.716 429.651 446.885C427.483 449.054 425.046 450.614 422.823 451.355C420.663 452.075 418.377 452.11 416.924 450.656C416.533 450.266 416.533 449.633 416.924 449.242C417.314 448.852 417.947 448.852 418.338 449.242C418.967 449.871 420.256 450.103 422.19 449.458C424.061 448.834 426.24 447.468 428.237 445.471C430.234 443.474 431.601 441.295 432.224 439.424C432.869 437.489 432.638 436.201 432.008 435.571C431.618 435.181 431.618 434.548 432.008 434.157V434.157Z" fill="#64748B"/>
<path fill-rule="evenodd" clip-rule="evenodd" d="M423.052 432.743C423.443 432.353 424.076 432.353 424.467 432.743L425.409 433.686C425.8 434.076 425.8 434.71 425.409 435.1C425.019 435.491 424.386 435.491 423.995 435.1L423.052 434.157C422.662 433.767 422.662 433.134 423.052 432.743V432.743Z" fill="#64748B"/>
<path fill-rule="evenodd" clip-rule="evenodd" d="M419.752 436.043C420.143 435.652 420.776 435.652 421.167 436.043L422.109 436.986C422.5 437.376 422.5 438.009 422.109 438.4C421.719 438.79 421.086 438.79 420.695 438.4L419.752 437.457C419.362 437.067 419.362 436.433 419.752 436.043Z" fill="#64748B"/>
<path fill-rule="evenodd" clip-rule="evenodd" d="M416.924 439.814C417.315 439.424 417.948 439.424 418.338 439.814L419.281 440.757C419.672 441.148 419.672 441.781 419.281 442.171C418.891 442.562 418.258 442.562 417.867 442.171L416.924 441.229C416.534 440.838 416.534 440.205 416.924 439.814V439.814Z" fill="#64748B"/>
<path fill-rule="evenodd" clip-rule="evenodd" d="M415.981 444.528C416.371 444.138 417.005 444.138 417.395 444.528L418.338 445.471C418.728 445.862 418.728 446.495 418.338 446.885C417.947 447.276 417.314 447.276 416.924 446.885L415.981 445.942C415.59 445.552 415.59 444.919 415.981 444.528V444.528Z" fill="#64748B"/>
<path fill-rule="evenodd" clip-rule="evenodd" d="M428.237 431.329C428.628 430.939 429.261 430.939 429.651 431.329L430.594 432.272C430.985 432.662 430.985 433.296 430.594 433.686C430.204 434.077 429.571 434.077 429.18 433.686L428.237 432.743C427.847 432.353 427.847 431.72 428.237 431.329Z" fill="#64748B"/>
<path fill-rule="evenodd" clip-rule="evenodd" d="M427.294 436.986C427.685 436.596 428.318 436.596 428.709 436.986L430.594 438.872C430.985 439.262 430.985 439.896 430.594 440.286C430.204 440.677 429.571 440.677 429.18 440.286L427.295 438.4C426.904 438.01 426.904 437.377 427.294 436.986Z" fill="#64748B"/>
<path fill-rule="evenodd" clip-rule="evenodd" d="M423.995 440.286C424.385 439.896 425.018 439.896 425.409 440.286L427.294 442.172C427.685 442.562 427.685 443.195 427.294 443.586C426.904 443.976 426.271 443.976 425.88 443.586L423.994 441.7C423.604 441.31 423.604 440.677 423.995 440.286Z" fill="#64748B"/>
<path fill-rule="evenodd" clip-rule="evenodd" d="M420.224 443.114C420.614 442.724 421.247 442.724 421.638 443.114L423.523 445C423.914 445.39 423.914 446.024 423.523 446.414C423.133 446.805 422.5 446.805 422.109 446.414L420.224 444.528C419.833 444.138 419.833 443.505 420.224 443.114Z" fill="#64748B"/>
<path fill-rule="evenodd" clip-rule="evenodd" d="M416.924 450.656C416.533 450.266 415.9 450.266 415.509 450.656L411.738 454.427C411.348 454.818 411.348 455.451 411.738 455.842C412.129 456.232 412.762 456.232 413.152 455.842L416.924 452.07C417.314 451.68 417.314 451.047 416.924 450.656V450.656ZM414.095 449.242C415.267 448.07 417.166 448.07 418.338 449.242C419.509 450.414 419.509 452.313 418.338 453.485L414.567 457.256C413.395 458.427 411.496 458.427 410.324 457.256C409.152 456.084 409.152 454.185 410.324 453.013L414.095 449.242Z" fill="#64748B"/>
<path d="M78.417 251.5C78.417 252.098 78.9023 252.584 79.5003 252.584C80.0983 252.584 80.5837 252.098 80.5837 251.5V238.5C80.5837 237.902 80.0983 237.417 79.5003 237.417C78.9023 237.417 78.417 237.902 78.417 238.5V251.5Z" fill="#64748B"/>
<path d="M67.5833 238.5C66.9853 238.5 66.5 238.985 66.5 239.583V250.417C66.5 251.015 66.9853 251.5 67.5833 251.5C68.1814 251.5 68.6667 251.015 68.6667 250.417V239.583C68.6667 238.985 68.1814 238.5 67.5833 238.5Z" fill="#64748B"/>
<path d="M76.7917 249.333V240.666C76.7917 240.068 76.3064 239.583 75.7083 239.583C75.1103 239.583 74.625 240.068 74.625 240.666V249.333C74.625 249.931 75.1103 250.416 75.7083 250.416C76.3064 250.416 76.7917 249.931 76.7917 249.333Z" fill="#64748B"/>
<path d="M71.9166 248.25C72.5146 248.25 72.9999 247.765 72.9999 247.167V242.833C72.9999 242.235 72.5146 241.75 71.9166 241.75C71.3186 241.75 70.8333 242.235 70.8333 242.833V247.167C70.8333 247.765 71.3186 248.25 71.9166 248.25Z" fill="#64748B"/>
<path d="M84.3749 249.333V240.666C84.3749 240.068 83.8896 239.583 83.2916 239.583C82.6936 239.583 82.2083 240.068 82.2083 240.666V249.333C82.2083 249.931 82.6936 250.416 83.2916 250.416C83.8896 250.416 84.3749 249.931 84.3749 249.333Z" fill="#64748B"/>
<path d="M91.4168 238.5C90.8188 238.5 90.3335 238.985 90.3335 239.583V250.417C90.3335 251.015 90.8188 251.5 91.4168 251.5C92.0148 251.5 92.5002 251.015 92.5002 250.417V239.583C92.5002 238.985 92.0148 238.5 91.4168 238.5Z" fill="#64748B"/>
<path d="M87.0836 241.75C86.4856 241.75 86.0002 242.235 86.0002 242.833V247.167C86.0002 247.765 86.4856 248.25 87.0836 248.25C87.6816 248.25 88.1669 247.765 88.1669 247.167V242.833C88.1669 242.235 87.6816 241.75 87.0836 241.75Z" fill="#64748B"/>
<path d="M78.417 256.917C78.417 257.515 78.9023 258 79.5003 258C80.0983 258 80.5837 257.515 80.5837 256.917V255.833C80.5837 255.235 80.0983 254.75 79.5003 254.75C78.9023 254.75 78.417 255.235 78.417 255.833V256.917Z" fill="#64748B"/>
<path d="M79.5003 235.25C80.0983 235.25 80.5837 234.765 80.5837 234.167V233.083C80.5837 232.485 80.0983 232 79.5003 232C78.9023 232 78.417 232.485 78.417 233.083V234.167C78.417 234.765 78.9023 235.25 79.5003 235.25Z" fill="#64748B"/>
<path fill-rule="evenodd" clip-rule="evenodd" d="M425.371 35.7161C426.099 34.7376 427.654 35.2525 427.654 36.4722V45.8953H432.506C433.877 45.8953 434.662 47.4574 433.843 48.5569L423.629 62.2849C422.901 63.2634 421.346 62.7485 421.346 61.5287V52.1057H416.494C415.123 52.1057 414.338 50.5435 415.157 49.4441L425.371 35.7161ZM425.654 38.6863L417.157 50.1057H422.08C422.779 50.1057 423.346 50.6727 423.346 51.3723V59.3146L431.843 47.8953H426.92C426.221 47.8953 425.654 47.3282 425.654 46.6286V38.6863Z" fill="#64748B"/>
<path d="M198.392 438.854C197.152 438.854 195.973 439.251 195 439.985C194.027 439.251 192.848 438.854 191.608 438.854C190.099 438.854 188.681 439.441 187.614 440.508C185.412 442.71 185.412 446.292 187.614 448.494L194.399 455.279C194.565 455.445 194.783 455.528 195 455.528C195.217 455.528 195.435 455.445 195.601 455.279L202.386 448.494C203.453 447.428 204.04 446.009 204.04 444.501C204.04 442.992 203.453 441.574 202.386 440.508C201.319 439.441 199.901 438.854 198.392 438.854V438.854ZM201.184 447.293L195 453.477L188.816 447.293C187.277 445.753 187.277 443.249 188.816 441.709C189.562 440.963 190.553 440.553 191.608 440.553C192.662 440.553 193.653 440.963 194.399 441.709C194.559 441.869 194.775 441.958 195 441.958C195.225 441.958 195.441 441.869 195.601 441.709C196.347 440.963 197.338 440.553 198.393 440.553C199.447 440.553 200.439 440.963 201.184 441.709C201.93 442.455 202.341 443.446 202.341 444.501C202.341 445.555 201.93 446.547 201.184 447.293Z" fill="#334155"/>
<path d="M191.057 437.979C192.045 437.979 192.997 437.467 193.667 436.573C194.292 435.74 194.636 434.645 194.636 433.49C194.636 432.335 194.292 431.24 193.667 430.406C192.997 429.512 192.045 429 191.057 429C190.068 429 189.117 429.512 188.447 430.406C187.821 431.24 187.477 432.335 187.477 433.49C187.477 434.645 187.821 435.74 188.447 436.573C189.117 437.467 190.068 437.979 191.057 437.979ZM191.057 430.699C192.076 430.699 192.937 431.977 192.937 433.49C192.937 435.002 192.076 436.28 191.057 436.28C190.037 436.28 189.176 435.002 189.176 433.49C189.176 431.977 190.037 430.699 191.057 430.699Z" fill="#334155"/>
<path d="M198.943 437.979C199.932 437.979 200.884 437.467 201.554 436.573C202.179 435.74 202.523 434.645 202.523 433.49C202.523 432.335 202.179 431.24 201.554 430.406C200.884 429.512 199.932 429 198.943 429C197.955 429 197.003 429.512 196.333 430.406C195.708 431.24 195.364 432.335 195.364 433.49C195.364 434.645 195.708 435.74 196.333 436.573C197.003 437.467 197.955 437.979 198.943 437.979V437.979ZM198.943 430.699C199.963 430.699 200.824 431.977 200.824 433.49C200.824 435.002 199.963 436.28 198.943 436.28C197.924 436.28 197.063 435.002 197.063 433.49C197.063 431.977 197.924 430.699 198.943 430.699Z" fill="#334155"/>
<path d="M208.664 434.172C208.078 433.391 207.244 432.943 206.375 432.943C205.507 432.943 204.673 433.391 204.087 434.172C203.548 434.891 203.251 435.834 203.251 436.826C203.251 437.819 203.548 438.762 204.087 439.481C204.673 440.262 205.507 440.71 206.375 440.71C207.244 440.71 208.078 440.262 208.664 439.481C209.203 438.762 209.5 437.819 209.5 436.826C209.5 435.834 209.203 434.891 208.664 434.172V434.172ZM206.375 439.01C205.603 439.01 204.95 438.01 204.95 436.826C204.95 435.643 205.603 434.643 206.375 434.643C207.148 434.643 207.801 435.643 207.801 436.826C207.801 438.01 207.148 439.01 206.375 439.01Z" fill="#334155"/>
<path d="M185.913 434.172C185.328 433.391 184.494 432.943 183.625 432.943C182.756 432.943 181.922 433.391 181.336 434.172C180.797 434.891 180.5 435.834 180.5 436.826C180.5 437.819 180.797 438.762 181.336 439.481C181.922 440.262 182.756 440.709 183.625 440.709C184.494 440.709 185.328 440.262 185.913 439.481C186.452 438.762 186.749 437.819 186.749 436.826C186.749 435.834 186.452 434.891 185.913 434.172ZM183.625 439.01C182.852 439.01 182.199 438.01 182.199 436.826C182.199 435.643 182.852 434.643 183.625 434.643C184.397 434.643 185.05 435.643 185.05 436.826C185.05 438.01 184.397 439.01 183.625 439.01Z" fill="#334155"/>
<path d="M205.936 44.116C206.454 41.4909 204.64 39.0226 202.108 38.7434C200.785 35.5375 196.515 34.9993 194.501 37.8855C192.487 35.0004 188.217 35.536 186.893 38.7434C184.361 39.0229 182.548 41.4927 183.065 44.116C181.179 45.7389 180.984 48.6313 182.57 50.5068C179.942 54.1397 182.44 59.4348 186.973 59.4348C188.421 62.535 192.554 62.9026 194.501 60.1135C196.449 62.9049 200.582 62.532 202.028 59.4348C206.551 59.4451 209.061 54.1407 206.432 50.5068C208.02 48.6289 207.821 45.7369 205.936 44.116V44.116ZM190.829 60.2914C188.539 60.2914 187.217 57.5288 188.709 55.6749C188.998 55.3167 188.949 54.7864 188.6 54.4903C188.251 54.1944 187.734 54.2448 187.446 54.603C186.757 55.4589 186.39 56.5674 186.448 57.703C183.34 57.3639 181.956 53.5494 184.01 51.1979C184.033 51.2239 184.803 50.0932 186.447 49.9134C186.42 50.4584 186.49 51.0094 186.66 51.5437C186.773 51.8985 187.094 52.1238 187.439 52.1238C187.994 52.1238 188.392 51.5657 188.218 51.0208C187.747 49.5423 188.536 47.9462 189.976 47.463C190.406 47.3186 190.641 46.8435 190.5 46.4018C190.36 45.9601 189.897 45.7189 189.467 45.8635C189.279 45.9264 189.098 46.0024 188.923 46.0886C188.596 45.2302 188.822 44.2162 189.55 43.5968C189.898 43.3003 189.947 42.7699 189.658 42.4121C189.369 42.0543 188.853 42.0047 188.504 42.3011C187.084 43.5086 186.756 45.5385 187.581 47.1165C187.028 47.7435 186.9 48.2083 186.854 48.2083C185.651 48.2083 184.538 48.6103 183.635 49.2901C182.629 47.9973 182.915 46.049 184.335 45.1402C184.662 44.9309 184.803 44.5159 184.673 44.1433C184.071 42.4124 185.207 40.3766 187.381 40.3766C187.751 40.3766 188.077 40.1205 188.173 39.7507C188.491 38.5162 189.583 37.6541 190.829 37.6541C192.344 37.6541 193.577 38.9196 193.577 40.4751V57.4704C193.577 59.0259 192.344 60.2914 190.829 60.2914V60.2914ZM205.159 49.2901C204.181 48.5542 202.996 48.1886 201.924 48.2091C201.738 47.8095 201.509 47.4528 201.212 47.1165C202.037 45.5397 201.71 43.5097 200.289 42.3011C199.941 42.0046 199.424 42.0543 199.135 42.4121C198.846 42.77 198.895 43.3003 199.243 43.5968C199.972 44.2161 200.197 45.2302 199.87 46.0886C199.695 46.0024 199.514 45.9264 199.327 45.8635C198.896 45.719 198.434 45.9601 198.293 46.4018C198.152 46.8434 198.387 47.3186 198.817 47.463C200.258 47.9462 201.046 49.5423 200.575 51.0208C200.435 51.4624 200.669 51.9375 201.1 52.0819C201.528 52.2256 201.992 51.9876 202.134 51.5437C202.304 51.0094 202.373 50.4584 202.346 49.9134C204.272 50.124 205.755 51.8051 205.755 53.8081C205.755 55.8273 204.259 57.4941 202.345 57.7028C202.403 56.5717 202.039 55.4621 201.348 54.6029C201.059 54.2446 200.543 54.1943 200.194 54.4902C199.845 54.7863 199.796 55.3166 200.084 55.6748C201.574 57.5254 200.256 60.2913 197.964 60.2913C196.449 60.2913 195.216 59.0258 195.216 57.4703V40.4751C195.216 38.9196 196.449 37.6541 197.964 37.6541C199.21 37.6541 200.302 38.5163 200.621 39.7507C200.718 40.1296 201.057 40.3899 201.44 40.3762C203.36 40.3037 204.775 42.2621 204.12 44.1433C203.991 44.516 204.131 44.9309 204.459 45.1403C205.88 46.05 206.163 47.9989 205.159 49.2901V49.2901Z" fill="#64748B"/>
<rect x="155" y="528" width="307" height="56" rx="28" fill="#E5E7EB"/>
<rect x="167" y="536" width="131.5" height="40" rx="20" fill="url(#paint2_linear_1404_4248)" fill-opacity="0.9"/>
<path d="M217.369 561V550.818H218.905V559.678H223.518V561H217.369ZM229.989 557.833V553.364H231.48V561H230.019V559.678H229.939C229.764 560.085 229.482 560.425 229.094 560.697C228.71 560.965 228.231 561.099 227.657 561.099C227.167 561.099 226.733 560.992 226.355 560.776C225.98 560.558 225.685 560.234 225.47 559.807C225.258 559.379 225.152 558.851 225.152 558.221V553.364H226.638V558.042C226.638 558.562 226.782 558.977 227.071 559.285C227.359 559.593 227.734 559.747 228.194 559.747C228.473 559.747 228.749 559.678 229.025 559.538C229.303 559.399 229.533 559.189 229.716 558.907C229.901 558.625 229.992 558.267 229.989 557.833ZM236.694 561.154C235.955 561.154 235.319 560.987 234.785 560.652C234.255 560.314 233.847 559.848 233.562 559.255C233.277 558.662 233.135 557.982 233.135 557.217C233.135 556.441 233.281 555.757 233.572 555.163C233.864 554.567 234.275 554.101 234.805 553.766C235.336 553.432 235.96 553.264 236.68 553.264C237.26 553.264 237.777 553.372 238.231 553.587C238.685 553.799 239.051 554.098 239.329 554.482C239.611 554.867 239.778 555.316 239.831 555.83H238.385C238.305 555.472 238.123 555.163 237.838 554.905C237.556 554.646 237.178 554.517 236.704 554.517C236.29 554.517 235.927 554.626 235.616 554.845C235.307 555.061 235.067 555.369 234.895 555.77C234.722 556.168 234.636 556.638 234.636 557.182C234.636 557.739 234.721 558.219 234.89 558.624C235.059 559.028 235.297 559.341 235.606 559.563C235.917 559.785 236.283 559.896 236.704 559.896C236.986 559.896 237.241 559.845 237.47 559.742C237.702 559.636 237.896 559.485 238.052 559.29C238.211 559.094 238.322 558.859 238.385 558.584H239.831C239.778 559.078 239.618 559.518 239.349 559.906C239.081 560.294 238.721 560.599 238.27 560.821C237.823 561.043 237.298 561.154 236.694 561.154ZM242.361 563.864C242.139 563.864 241.937 563.845 241.754 563.809C241.572 563.776 241.436 563.739 241.347 563.7L241.705 562.482C241.976 562.554 242.218 562.586 242.43 562.576C242.643 562.566 242.83 562.487 242.992 562.337C243.158 562.188 243.304 561.945 243.43 561.607L243.614 561.099L240.82 553.364H242.411L244.344 559.29H244.424L246.358 553.364H247.954L244.807 562.019C244.661 562.417 244.475 562.753 244.25 563.028C244.025 563.307 243.756 563.516 243.445 563.655C243.133 563.794 242.772 563.864 242.361 563.864Z" fill="white"/>
<path d="M360.369 561V550.818H363.998C364.787 550.818 365.441 550.954 365.962 551.226C366.485 551.498 366.876 551.874 367.135 552.354C367.393 552.832 367.523 553.384 367.523 554.01C367.523 554.633 367.392 555.182 367.13 555.656C366.871 556.126 366.48 556.492 365.957 556.754C365.436 557.016 364.782 557.147 363.993 557.147H361.244V555.825H363.854C364.351 555.825 364.755 555.753 365.067 555.611C365.382 555.468 365.612 555.261 365.758 554.989C365.904 554.718 365.977 554.391 365.977 554.01C365.977 553.625 365.902 553.292 365.753 553.011C365.607 552.729 365.377 552.513 365.062 552.364C364.75 552.212 364.341 552.136 363.834 552.136H361.905V561H360.369ZM365.395 556.406L367.911 561H366.161L363.695 556.406H365.395ZM371.495 561.169C371.011 561.169 370.574 561.08 370.183 560.901C369.791 560.718 369.482 560.455 369.253 560.11C369.027 559.765 368.915 559.343 368.915 558.842C368.915 558.411 368.998 558.057 369.163 557.778C369.329 557.5 369.553 557.28 369.835 557.117C370.116 556.955 370.431 556.832 370.779 556.749C371.127 556.666 371.482 556.603 371.843 556.56C372.3 556.507 372.672 556.464 372.957 556.431C373.242 556.395 373.449 556.337 373.578 556.257C373.707 556.178 373.772 556.048 373.772 555.869V555.835C373.772 555.4 373.649 555.064 373.404 554.825C373.162 554.587 372.801 554.467 372.32 554.467C371.82 554.467 371.425 554.578 371.137 554.8C370.852 555.019 370.655 555.263 370.545 555.531L369.148 555.213C369.314 554.749 369.556 554.375 369.874 554.089C370.196 553.801 370.565 553.592 370.983 553.463C371.401 553.33 371.84 553.264 372.3 553.264C372.605 553.264 372.929 553.301 373.27 553.374C373.615 553.443 373.936 553.572 374.234 553.761C374.536 553.95 374.783 554.22 374.975 554.572C375.167 554.92 375.263 555.372 375.263 555.929V561H373.812V559.956H373.752C373.656 560.148 373.512 560.337 373.32 560.523C373.127 560.708 372.88 560.862 372.579 560.985C372.277 561.108 371.916 561.169 371.495 561.169ZM371.818 559.976C372.229 559.976 372.58 559.895 372.872 559.732C373.167 559.57 373.391 559.358 373.543 559.096C373.699 558.831 373.777 558.547 373.777 558.246V557.261C373.724 557.314 373.621 557.364 373.469 557.411C373.32 557.454 373.149 557.492 372.957 557.525C372.764 557.555 372.577 557.583 372.395 557.609C372.213 557.633 372.06 557.652 371.938 557.669C371.649 557.705 371.386 557.767 371.147 557.853C370.912 557.939 370.723 558.063 370.58 558.226C370.441 558.385 370.371 558.597 370.371 558.862C370.371 559.23 370.507 559.509 370.779 559.697C371.051 559.883 371.397 559.976 371.818 559.976ZM380.445 564.023C379.839 564.023 379.317 563.943 378.879 563.784C378.445 563.625 378.09 563.415 377.815 563.153C377.54 562.891 377.335 562.604 377.199 562.293L378.476 561.766C378.566 561.911 378.685 562.066 378.834 562.228C378.987 562.394 379.192 562.535 379.451 562.651C379.713 562.767 380.049 562.825 380.46 562.825C381.023 562.825 381.489 562.687 381.857 562.412C382.225 562.14 382.409 561.706 382.409 561.109V559.608H382.314C382.225 559.77 382.096 559.951 381.927 560.15C381.761 560.349 381.532 560.521 381.241 560.667C380.949 560.813 380.569 560.886 380.102 560.886C379.499 560.886 378.955 560.745 378.471 560.463C377.991 560.178 377.61 559.759 377.328 559.205C377.05 558.648 376.91 557.964 376.91 557.152C376.91 556.34 377.048 555.644 377.323 555.064C377.601 554.484 377.983 554.04 378.466 553.732C378.95 553.42 379.499 553.264 380.112 553.264C380.586 553.264 380.969 553.344 381.26 553.503C381.552 553.659 381.779 553.841 381.942 554.05C382.107 554.259 382.235 554.442 382.324 554.602H382.434V553.364H383.89V561.169C383.89 561.825 383.738 562.364 383.433 562.785C383.128 563.206 382.715 563.517 382.195 563.719C381.678 563.922 381.095 564.023 380.445 564.023ZM380.43 559.653C380.858 559.653 381.219 559.553 381.514 559.354C381.812 559.152 382.038 558.864 382.19 558.489C382.346 558.112 382.424 557.659 382.424 557.132C382.424 556.618 382.348 556.166 382.195 555.775C382.043 555.384 381.819 555.079 381.524 554.86C381.229 554.638 380.864 554.527 380.43 554.527C379.983 554.527 379.61 554.643 379.312 554.875C379.013 555.104 378.788 555.415 378.635 555.81C378.486 556.204 378.412 556.645 378.412 557.132C378.412 557.633 378.488 558.072 378.64 558.45C378.793 558.827 379.018 559.122 379.317 559.335C379.618 559.547 379.989 559.653 380.43 559.653ZM388.743 561.149C388.126 561.149 387.576 560.992 387.092 560.677C386.612 560.359 386.234 559.906 385.959 559.32C385.687 558.73 385.551 558.022 385.551 557.197C385.551 556.371 385.689 555.665 385.964 555.079C386.242 554.492 386.623 554.043 387.107 553.732C387.591 553.42 388.14 553.264 388.753 553.264C389.227 553.264 389.608 553.344 389.896 553.503C390.188 553.659 390.413 553.841 390.572 554.05C390.735 554.259 390.861 554.442 390.95 554.602H391.04V550.818H392.526V561H391.074V559.812H390.95C390.861 559.974 390.731 560.16 390.562 560.369C390.397 560.577 390.168 560.76 389.876 560.915C389.585 561.071 389.207 561.149 388.743 561.149ZM389.071 559.881C389.498 559.881 389.86 559.769 390.155 559.543C390.453 559.315 390.678 558.998 390.831 558.594C390.987 558.189 391.064 557.719 391.064 557.182C391.064 556.652 390.988 556.187 390.836 555.79C390.683 555.392 390.46 555.082 390.165 554.86C389.87 554.638 389.505 554.527 389.071 554.527C388.623 554.527 388.251 554.643 387.952 554.875C387.654 555.107 387.429 555.424 387.276 555.825C387.127 556.226 387.052 556.678 387.052 557.182C387.052 557.692 387.129 558.151 387.281 558.559C387.434 558.967 387.659 559.29 387.957 559.528C388.259 559.764 388.63 559.881 389.071 559.881ZM397.864 561.154C397.148 561.154 396.524 560.99 395.99 560.662C395.456 560.334 395.042 559.875 394.747 559.285C394.452 558.695 394.305 558.005 394.305 557.217C394.305 556.424 394.452 555.732 394.747 555.138C395.042 554.545 395.456 554.085 395.99 553.756C396.524 553.428 397.148 553.264 397.864 553.264C398.58 553.264 399.205 553.428 399.739 553.756C400.272 554.085 400.687 554.545 400.982 555.138C401.277 555.732 401.424 556.424 401.424 557.217C401.424 558.005 401.277 558.695 400.982 559.285C400.687 559.875 400.272 560.334 399.739 560.662C399.205 560.99 398.58 561.154 397.864 561.154ZM397.869 559.906C398.333 559.906 398.718 559.784 399.023 559.538C399.328 559.293 399.553 558.967 399.699 558.559C399.848 558.151 399.923 557.702 399.923 557.212C399.923 556.724 399.848 556.277 399.699 555.869C399.553 555.458 399.328 555.129 399.023 554.88C398.718 554.631 398.333 554.507 397.869 554.507C397.402 554.507 397.014 554.631 396.706 554.88C396.401 555.129 396.174 555.458 396.025 555.869C395.879 556.277 395.806 556.724 395.806 557.212C395.806 557.702 395.879 558.151 396.025 558.559C396.174 558.967 396.401 559.293 396.706 559.538C397.014 559.784 397.402 559.906 397.869 559.906ZM404.57 550.818V561H403.083V550.818H404.57ZM408.056 550.818V561H406.57V550.818H408.056Z" fill="#6B7280"/>
<g filter="url(#filter0_d_1404_4248)">
<rect x="148.001" y="370" width="94" height="36" rx="4" fill="#1E293B"/>
<path d="M165.98 393H164.349L168.013 382.818H169.788L173.452 393H171.822L168.943 384.668H168.863L165.98 393ZM166.253 389.013H171.543V390.305H166.253V389.013ZM178.396 385.364V386.557H174.081V385.364H178.396ZM175.264 393V384.479C175.264 384.001 175.369 383.605 175.578 383.29C175.786 382.972 176.063 382.735 176.408 382.58C176.753 382.42 177.127 382.341 177.531 382.341C177.83 382.341 178.085 382.366 178.297 382.415C178.509 382.462 178.667 382.505 178.769 382.545L178.421 383.748C178.352 383.728 178.262 383.705 178.153 383.678C178.043 383.648 177.911 383.634 177.755 383.634C177.394 383.634 177.135 383.723 176.98 383.902C176.827 384.081 176.751 384.339 176.751 384.678V393H175.264ZM183.564 385.364V386.557H179.249V385.364H183.564ZM180.432 393V384.479C180.432 384.001 180.537 383.605 180.746 383.29C180.954 382.972 181.231 382.735 181.576 382.58C181.92 382.42 182.295 382.341 182.699 382.341C182.998 382.341 183.253 382.366 183.465 382.415C183.677 382.462 183.835 382.505 183.937 382.545L183.589 383.748C183.52 383.728 183.43 383.705 183.321 383.678C183.211 383.648 183.079 383.634 182.923 383.634C182.562 383.634 182.303 383.723 182.148 383.902C181.995 384.081 181.919 384.339 181.919 384.678V393H180.432ZM188.089 393.154C187.336 393.154 186.688 392.993 186.145 392.672C185.604 392.347 185.187 391.891 184.892 391.305C184.6 390.715 184.454 390.024 184.454 389.232C184.454 388.449 184.6 387.76 184.892 387.163C185.187 386.567 185.598 386.101 186.125 385.766C186.655 385.432 187.275 385.264 187.984 385.264C188.415 385.264 188.833 385.335 189.237 385.478C189.641 385.621 190.004 385.844 190.326 386.149C190.647 386.454 190.901 386.85 191.086 387.337C191.272 387.821 191.365 388.41 191.365 389.102V389.629H185.295V388.516H189.908C189.908 388.125 189.829 387.778 189.67 387.477C189.51 387.172 189.287 386.931 188.998 386.756C188.713 386.58 188.379 386.492 187.994 386.492C187.577 386.492 187.212 386.595 186.9 386.8C186.592 387.003 186.353 387.268 186.184 387.596C186.019 387.921 185.936 388.274 185.936 388.655V389.525C185.936 390.035 186.025 390.469 186.204 390.827C186.387 391.185 186.64 391.459 186.965 391.648C187.29 391.833 187.669 391.926 188.103 391.926C188.385 391.926 188.642 391.886 188.874 391.807C189.106 391.724 189.307 391.601 189.476 391.439C189.645 391.277 189.774 391.076 189.863 390.837L191.27 391.091C191.158 391.505 190.956 391.868 190.664 392.18C190.376 392.488 190.013 392.728 189.575 392.901C189.141 393.07 188.645 393.154 188.089 393.154ZM196.231 393.154C195.492 393.154 194.855 392.987 194.322 392.652C193.791 392.314 193.384 391.848 193.099 391.255C192.814 390.662 192.671 389.982 192.671 389.217C192.671 388.441 192.817 387.757 193.109 387.163C193.4 386.567 193.811 386.101 194.342 385.766C194.872 385.432 195.497 385.264 196.216 385.264C196.796 385.264 197.313 385.372 197.767 385.587C198.221 385.799 198.587 386.098 198.866 386.482C199.147 386.867 199.315 387.316 199.368 387.83H197.921C197.842 387.472 197.659 387.163 197.374 386.905C197.093 386.646 196.715 386.517 196.241 386.517C195.826 386.517 195.464 386.626 195.152 386.845C194.844 387.061 194.603 387.369 194.431 387.77C194.259 388.168 194.173 388.638 194.173 389.182C194.173 389.739 194.257 390.219 194.426 390.624C194.595 391.028 194.834 391.341 195.142 391.563C195.454 391.785 195.82 391.896 196.241 391.896C196.522 391.896 196.778 391.845 197.006 391.742C197.238 391.636 197.432 391.485 197.588 391.29C197.747 391.094 197.858 390.859 197.921 390.584H199.368C199.315 391.078 199.154 391.518 198.886 391.906C198.617 392.294 198.258 392.599 197.807 392.821C197.359 393.043 196.834 393.154 196.231 393.154ZM204.522 385.364V386.557H200.351V385.364H204.522ZM201.47 383.534H202.956V390.758C202.956 391.046 202.999 391.263 203.085 391.409C203.172 391.552 203.283 391.649 203.418 391.702C203.558 391.752 203.708 391.777 203.871 391.777C203.99 391.777 204.095 391.769 204.184 391.752C204.274 391.736 204.343 391.722 204.393 391.712L204.661 392.94C204.575 392.973 204.453 393.007 204.293 393.04C204.134 393.076 203.936 393.096 203.697 393.099C203.306 393.106 202.941 393.036 202.603 392.891C202.265 392.745 201.992 392.519 201.783 392.214C201.574 391.91 201.47 391.527 201.47 391.066V383.534ZM206.167 393V385.364H207.653V393H206.167ZM206.917 384.185C206.659 384.185 206.437 384.099 206.251 383.927C206.069 383.751 205.978 383.542 205.978 383.3C205.978 383.055 206.069 382.846 206.251 382.674C206.437 382.498 206.659 382.411 206.917 382.411C207.176 382.411 207.396 382.498 207.578 382.674C207.764 382.846 207.857 383.055 207.857 383.3C207.857 383.542 207.764 383.751 207.578 383.927C207.396 384.099 207.176 384.185 206.917 384.185ZM212.869 393.154C212.154 393.154 211.529 392.99 210.995 392.662C210.462 392.334 210.047 391.875 209.752 391.285C209.457 390.695 209.31 390.005 209.31 389.217C209.31 388.424 209.457 387.732 209.752 387.138C210.047 386.545 210.462 386.085 210.995 385.756C211.529 385.428 212.154 385.264 212.869 385.264C213.585 385.264 214.21 385.428 214.744 385.756C215.277 386.085 215.692 386.545 215.987 387.138C216.282 387.732 216.429 388.424 216.429 389.217C216.429 390.005 216.282 390.695 215.987 391.285C215.692 391.875 215.277 392.334 214.744 392.662C214.21 392.99 213.585 393.154 212.869 393.154ZM212.874 391.906C213.338 391.906 213.723 391.784 214.028 391.538C214.333 391.293 214.558 390.967 214.704 390.559C214.853 390.151 214.928 389.702 214.928 389.212C214.928 388.724 214.853 388.277 214.704 387.869C214.558 387.458 214.333 387.129 214.028 386.88C213.723 386.631 213.338 386.507 212.874 386.507C212.407 386.507 212.019 386.631 211.711 386.88C211.406 387.129 211.179 387.458 211.03 387.869C210.884 388.277 210.811 388.724 210.811 389.212C210.811 389.702 210.884 390.151 211.03 390.559C211.179 390.967 211.406 391.293 211.711 391.538C212.019 391.784 212.407 391.906 212.874 391.906ZM219.575 388.466V393H218.088V385.364H219.515V386.607H219.61C219.785 386.202 220.06 385.877 220.435 385.632C220.813 385.387 221.288 385.264 221.862 385.264C222.382 385.264 222.838 385.374 223.229 385.592C223.62 385.808 223.923 386.129 224.139 386.557C224.354 386.984 224.462 387.513 224.462 388.143V393H222.975V388.322C222.975 387.768 222.831 387.336 222.543 387.024C222.255 386.709 221.859 386.552 221.355 386.552C221.01 386.552 220.703 386.626 220.435 386.776C220.17 386.925 219.959 387.143 219.804 387.432C219.651 387.717 219.575 388.062 219.575 388.466Z" fill="white"/>
<path d="M226.001 397H164.001V399H226.001V397Z" fill="white" mask="url(#path-47-inside-1_1404_4248)"/>
<path d="M193.007 412.227C194.144 413.238 195.858 413.238 196.995 412.227L205.129 404.992C207.19 403.159 205.894 399.75 203.136 399.75H186.867C184.109 399.75 182.812 403.159 184.873 404.992L193.007 412.227Z" fill="#1E293B"/>
</g>
<g filter="url(#filter1_d_1404_4248)">
<rect x="35.5" y="170" width="86" height="36" rx="4" fill="#1E293B"/>
<path d="M53.5085 182.818L56.3423 191.111H56.4567L59.2905 182.818H60.951L57.2869 193H55.5121L51.848 182.818H53.5085ZM64.753 193.154C64.0371 193.154 63.4123 192.99 62.8787 192.662C62.3451 192.334 61.9308 191.875 61.6358 191.285C61.3408 190.695 61.1934 190.005 61.1934 189.217C61.1934 188.424 61.3408 187.732 61.6358 187.138C61.9308 186.545 62.3451 186.085 62.8787 185.756C63.4123 185.428 64.0371 185.264 64.753 185.264C65.4689 185.264 66.0937 185.428 66.6273 185.756C67.1609 186.085 67.5752 186.545 67.8702 187.138C68.1652 187.732 68.3127 188.424 68.3127 189.217C68.3127 190.005 68.1652 190.695 67.8702 191.285C67.5752 191.875 67.1609 192.334 66.6273 192.662C66.0937 192.99 65.4689 193.154 64.753 193.154ZM64.758 191.906C65.222 191.906 65.6065 191.784 65.9114 191.538C66.2163 191.293 66.4417 190.967 66.5875 190.559C66.7367 190.151 66.8113 189.702 66.8113 189.212C66.8113 188.724 66.7367 188.277 66.5875 187.869C66.4417 187.458 66.2163 187.129 65.9114 186.88C65.6065 186.631 65.222 186.507 64.758 186.507C64.2907 186.507 63.9029 186.631 63.5946 186.88C63.2897 187.129 63.0627 187.458 62.9135 187.869C62.7677 188.277 62.6948 188.724 62.6948 189.212C62.6948 189.702 62.7677 190.151 62.9135 190.559C63.0627 190.967 63.2897 191.293 63.5946 191.538C63.9029 191.784 64.2907 191.906 64.758 191.906ZM73.1886 193.154C72.4495 193.154 71.8131 192.987 71.2795 192.652C70.7492 192.314 70.3415 191.848 70.0565 191.255C69.7714 190.662 69.6289 189.982 69.6289 189.217C69.6289 188.441 69.7747 187.757 70.0664 187.163C70.3581 186.567 70.7691 186.101 71.2994 185.766C71.8297 185.432 72.4544 185.264 73.1737 185.264C73.7537 185.264 74.2707 185.372 74.7248 185.587C75.1789 185.799 75.5451 186.098 75.8235 186.482C76.1052 186.867 76.2726 187.316 76.3256 187.83H74.8789C74.7994 187.472 74.6171 187.163 74.332 186.905C74.0503 186.646 73.6725 186.517 73.1985 186.517C72.7842 186.517 72.4213 186.626 72.1097 186.845C71.8015 187.061 71.5612 187.369 71.3888 187.77C71.2165 188.168 71.1303 188.638 71.1303 189.182C71.1303 189.739 71.2148 190.219 71.3839 190.624C71.5529 191.028 71.7915 191.341 72.0998 191.563C72.4113 191.785 72.7776 191.896 73.1985 191.896C73.4802 191.896 73.7354 191.845 73.9641 191.742C74.1961 191.636 74.39 191.485 74.5458 191.29C74.7049 191.094 74.8159 190.859 74.8789 190.584H76.3256C76.2726 191.078 76.1119 191.518 75.8434 191.906C75.5749 192.294 75.2153 192.599 74.7646 192.821C74.3171 193.043 73.7918 193.154 73.1886 193.154ZM80.1376 193.169C79.6537 193.169 79.2162 193.08 78.8251 192.901C78.434 192.718 78.1241 192.455 77.8954 192.11C77.67 191.765 77.5574 191.343 77.5574 190.842C77.5574 190.411 77.6402 190.057 77.8059 189.778C77.9717 189.5 78.1954 189.28 78.4771 189.117C78.7588 188.955 79.0737 188.832 79.4217 188.749C79.7697 188.666 80.1243 188.603 80.4856 188.56C80.943 188.507 81.3142 188.464 81.5993 188.431C81.8843 188.395 82.0914 188.337 82.2207 188.257C82.35 188.178 82.4146 188.048 82.4146 187.869V187.835C82.4146 187.4 82.292 187.064 82.0467 186.825C81.8047 186.587 81.4435 186.467 80.9629 186.467C80.4624 186.467 80.068 186.578 79.7797 186.8C79.4946 187.019 79.2974 187.263 79.188 187.531L77.791 187.213C77.9567 186.749 78.1987 186.375 78.5169 186.089C78.8384 185.801 79.2079 185.592 79.6255 185.463C80.0431 185.33 80.4823 185.264 80.943 185.264C81.2479 185.264 81.5711 185.301 81.9125 185.374C82.2572 185.443 82.5787 185.572 82.877 185.761C83.1786 185.95 83.4255 186.22 83.6177 186.572C83.81 186.92 83.9061 187.372 83.9061 187.929V193H82.4544V191.956H82.3947C82.2986 192.148 82.1544 192.337 81.9622 192.523C81.7699 192.708 81.523 192.862 81.2214 192.985C80.9198 193.108 80.5585 193.169 80.1376 193.169ZM80.4608 191.976C80.8717 191.976 81.2231 191.895 81.5147 191.732C81.8097 191.57 82.0334 191.358 82.1859 191.096C82.3417 190.831 82.4196 190.547 82.4196 190.246V189.261C82.3665 189.314 82.2638 189.364 82.1113 189.411C81.9622 189.454 81.7915 189.492 81.5993 189.525C81.407 189.555 81.2198 189.583 81.0375 189.609C80.8552 189.633 80.7027 189.652 80.5801 189.669C80.2917 189.705 80.0282 189.767 79.7896 189.853C79.5543 189.939 79.3654 190.063 79.2228 190.226C79.0836 190.385 79.014 190.597 79.014 190.862C79.014 191.23 79.1499 191.509 79.4217 191.697C79.6935 191.883 80.0398 191.976 80.4608 191.976ZM87.3725 182.818V193H85.886V182.818H87.3725ZM89.3723 193V185.364H90.8588V193H89.3723ZM90.123 184.185C89.8645 184.185 89.6425 184.099 89.4569 183.927C89.2746 183.751 89.1834 183.542 89.1834 183.3C89.1834 183.055 89.2746 182.846 89.4569 182.674C89.6425 182.498 89.8645 182.411 90.123 182.411C90.3816 182.411 90.602 182.498 90.7843 182.674C90.9699 182.846 91.0627 183.055 91.0627 183.3C91.0627 183.542 90.9699 183.751 90.7843 183.927C90.602 184.099 90.3816 184.185 90.123 184.185ZM96.4233 185.364V186.557H92.2521V185.364H96.4233ZM93.3707 183.534H94.8572V190.758C94.8572 191.046 94.9003 191.263 94.9865 191.409C95.0727 191.552 95.1837 191.649 95.3196 191.702C95.4588 191.752 95.6096 191.777 95.772 191.777C95.8913 191.777 95.9957 191.769 96.0852 191.752C96.1747 191.736 96.2443 191.722 96.294 191.712L96.5625 192.94C96.4763 192.973 96.3537 193.007 96.1946 193.04C96.0355 193.076 95.8366 193.096 95.598 193.099C95.2069 193.106 94.8423 193.036 94.5043 192.891C94.1662 192.745 93.8928 192.519 93.6839 192.214C93.4751 191.91 93.3707 191.527 93.3707 191.066V183.534ZM99.0073 195.864C98.7852 195.864 98.583 195.845 98.4007 195.809C98.2185 195.776 98.0826 195.739 97.9931 195.7L98.351 194.482C98.6228 194.554 98.8648 194.586 99.0769 194.576C99.289 194.566 99.4763 194.487 99.6387 194.337C99.8044 194.188 99.9502 193.945 100.076 193.607L100.26 193.099L97.4661 185.364H99.057L100.991 191.29H101.07L103.004 185.364H104.6L101.453 194.019C101.307 194.417 101.122 194.753 100.896 195.028C100.671 195.307 100.403 195.516 100.091 195.655C99.7795 195.794 99.4183 195.864 99.0073 195.864Z" fill="white"/>
<path d="M105.5 197H51.5V199H105.5V197Z" fill="white" mask="url(#path-52-inside-2_1404_4248)"/>
<path d="M76.5062 212.227C77.6431 213.238 79.3569 213.238 80.4938 212.227L88.6282 204.992C90.6891 203.159 89.3926 199.75 86.6345 199.75H70.3655C67.6074 199.75 66.3109 203.159 68.3718 204.992L76.5062 212.227Z" fill="#1E293B"/>
</g>
<g filter="url(#filter2_d_1404_4248)">
<rect x="481" y="170" width="113" height="36" rx="4" fill="#1E293B"/>
<path d="M503.672 185.493C503.619 185.022 503.4 184.658 503.016 184.399C502.631 184.137 502.147 184.006 501.564 184.006C501.146 184.006 500.785 184.073 500.48 184.205C500.175 184.335 499.938 184.513 499.769 184.742C499.603 184.968 499.521 185.224 499.521 185.513C499.521 185.755 499.577 185.964 499.69 186.139C499.806 186.315 499.956 186.462 500.142 186.582C500.331 186.698 500.533 186.795 500.749 186.875C500.964 186.951 501.171 187.014 501.37 187.064L502.364 187.322C502.689 187.402 503.022 187.51 503.364 187.646C503.705 187.781 504.022 187.96 504.313 188.183C504.605 188.405 504.84 188.68 505.019 189.008C505.201 189.336 505.293 189.729 505.293 190.186C505.293 190.763 505.143 191.275 504.845 191.722C504.55 192.17 504.121 192.523 503.558 192.781C502.997 193.04 502.32 193.169 501.524 193.169C500.762 193.169 500.102 193.048 499.545 192.806C498.989 192.564 498.553 192.221 498.238 191.777C497.923 191.33 497.749 190.799 497.716 190.186H499.257C499.287 190.554 499.406 190.861 499.615 191.106C499.827 191.348 500.097 191.528 500.425 191.648C500.757 191.764 501.12 191.822 501.514 191.822C501.948 191.822 502.335 191.754 502.673 191.618C503.014 191.479 503.282 191.286 503.478 191.041C503.674 190.793 503.771 190.503 503.771 190.171C503.771 189.87 503.685 189.623 503.513 189.43C503.344 189.238 503.113 189.079 502.822 188.953C502.533 188.827 502.207 188.716 501.842 188.62L500.639 188.292C499.824 188.07 499.178 187.743 498.7 187.312C498.226 186.882 497.989 186.312 497.989 185.602C497.989 185.016 498.148 184.504 498.467 184.066C498.785 183.629 499.216 183.289 499.759 183.047C500.303 182.802 500.916 182.679 501.599 182.679C502.288 182.679 502.896 182.8 503.423 183.042C503.954 183.284 504.371 183.617 504.676 184.041C504.981 184.462 505.14 184.946 505.153 185.493H503.672ZM510.226 193.154C509.51 193.154 508.885 192.99 508.351 192.662C507.818 192.334 507.403 191.875 507.108 191.285C506.814 190.695 506.666 190.005 506.666 189.217C506.666 188.424 506.814 187.732 507.108 187.138C507.403 186.545 507.818 186.085 508.351 185.756C508.885 185.428 509.51 185.264 510.226 185.264C510.942 185.264 511.566 185.428 512.1 185.756C512.634 186.085 513.048 186.545 513.343 187.138C513.638 187.732 513.785 188.424 513.785 189.217C513.785 190.005 513.638 190.695 513.343 191.285C513.048 191.875 512.634 192.334 512.1 192.662C511.566 192.99 510.942 193.154 510.226 193.154ZM510.231 191.906C510.695 191.906 511.079 191.784 511.384 191.538C511.689 191.293 511.914 190.967 512.06 190.559C512.209 190.151 512.284 189.702 512.284 189.212C512.284 188.724 512.209 188.277 512.06 187.869C511.914 187.458 511.689 187.129 511.384 186.88C511.079 186.631 510.695 186.507 510.231 186.507C509.763 186.507 509.376 186.631 509.067 186.88C508.762 187.129 508.535 187.458 508.386 187.869C508.24 188.277 508.167 188.724 508.167 189.212C508.167 189.702 508.24 190.151 508.386 190.559C508.535 190.967 508.762 191.293 509.067 191.538C509.376 191.784 509.763 191.906 510.231 191.906ZM518.661 193.154C517.922 193.154 517.286 192.987 516.752 192.652C516.222 192.314 515.814 191.848 515.529 191.255C515.244 190.662 515.102 189.982 515.102 189.217C515.102 188.441 515.247 187.757 515.539 187.163C515.831 186.567 516.242 186.101 516.772 185.766C517.302 185.432 517.927 185.264 518.646 185.264C519.226 185.264 519.743 185.372 520.197 185.587C520.652 185.799 521.018 186.098 521.296 186.482C521.578 186.867 521.745 187.316 521.798 187.83H520.352C520.272 187.472 520.09 187.163 519.805 186.905C519.523 186.646 519.145 186.517 518.671 186.517C518.257 186.517 517.894 186.626 517.582 186.845C517.274 187.061 517.034 187.369 516.862 187.77C516.689 188.168 516.603 188.638 516.603 189.182C516.603 189.739 516.688 190.219 516.857 190.624C517.026 191.028 517.264 191.341 517.572 191.563C517.884 191.785 518.25 191.896 518.671 191.896C518.953 191.896 519.208 191.845 519.437 191.742C519.669 191.636 519.863 191.485 520.018 191.29C520.178 191.094 520.289 190.859 520.352 190.584H521.798C521.745 191.078 521.585 191.518 521.316 191.906C521.048 192.294 520.688 192.599 520.237 192.821C519.79 193.043 519.264 193.154 518.661 193.154ZM523.388 193V185.364H524.874V193H523.388ZM524.139 184.185C523.88 184.185 523.658 184.099 523.472 183.927C523.29 183.751 523.199 183.542 523.199 183.3C523.199 183.055 523.29 182.846 523.472 182.674C523.658 182.498 523.88 182.411 524.139 182.411C524.397 182.411 524.618 182.498 524.8 182.674C524.985 182.846 525.078 183.055 525.078 183.3C525.078 183.542 524.985 183.751 524.8 183.927C524.618 184.099 524.397 184.185 524.139 184.185ZM529.097 193.169C528.613 193.169 528.175 193.08 527.784 192.901C527.393 192.718 527.083 192.455 526.854 192.11C526.629 191.765 526.516 191.343 526.516 190.842C526.516 190.411 526.599 190.057 526.765 189.778C526.931 189.5 527.154 189.28 527.436 189.117C527.718 188.955 528.033 188.832 528.381 188.749C528.729 188.666 529.083 188.603 529.445 188.56C529.902 188.507 530.273 188.464 530.558 188.431C530.843 188.395 531.05 188.337 531.18 188.257C531.309 188.178 531.374 188.048 531.374 187.869V187.835C531.374 187.4 531.251 187.064 531.006 186.825C530.764 186.587 530.402 186.467 529.922 186.467C529.421 186.467 529.027 186.578 528.739 186.8C528.454 187.019 528.256 187.263 528.147 187.531L526.75 187.213C526.916 186.749 527.158 186.375 527.476 186.089C527.797 185.801 528.167 185.592 528.585 185.463C529.002 185.33 529.441 185.264 529.902 185.264C530.207 185.264 530.53 185.301 530.871 185.374C531.216 185.443 531.538 185.572 531.836 185.761C532.138 185.95 532.384 186.22 532.577 186.572C532.769 186.92 532.865 187.372 532.865 187.929V193H531.413V191.956H531.354C531.258 192.148 531.113 192.337 530.921 192.523C530.729 192.708 530.482 192.862 530.18 192.985C529.879 193.108 529.518 193.169 529.097 193.169ZM529.42 191.976C529.831 191.976 530.182 191.895 530.474 191.732C530.769 191.57 530.992 191.358 531.145 191.096C531.301 190.831 531.379 190.547 531.379 190.246V189.261C531.326 189.314 531.223 189.364 531.07 189.411C530.921 189.454 530.75 189.492 530.558 189.525C530.366 189.555 530.179 189.583 529.996 189.609C529.814 189.633 529.662 189.652 529.539 189.669C529.251 189.705 528.987 189.767 528.749 189.853C528.513 189.939 528.324 190.063 528.182 190.226C528.043 190.385 527.973 190.597 527.973 190.862C527.973 191.23 528.109 191.509 528.381 191.697C528.652 191.883 528.999 191.976 529.42 191.976ZM536.331 182.818V193H534.845V182.818H536.331ZM540.554 193.169C540.07 193.169 539.632 193.08 539.241 192.901C538.85 192.718 538.54 192.455 538.311 192.11C538.086 191.765 537.973 191.343 537.973 190.842C537.973 190.411 538.056 190.057 538.222 189.778C538.388 189.5 538.611 189.28 538.893 189.117C539.175 188.955 539.49 188.832 539.838 188.749C540.186 188.666 540.54 188.603 540.902 188.56C541.359 188.507 541.73 188.464 542.015 188.431C542.3 188.395 542.507 188.337 542.637 188.257C542.766 188.178 542.831 188.048 542.831 187.869V187.835C542.831 187.4 542.708 187.064 542.463 186.825C542.221 186.587 541.859 186.467 541.379 186.467C540.878 186.467 540.484 186.578 540.196 186.8C539.911 187.019 539.713 187.263 539.604 187.531L538.207 187.213C538.373 186.749 538.615 186.375 538.933 186.089C539.254 185.801 539.624 185.592 540.042 185.463C540.459 185.33 540.898 185.264 541.359 185.264C541.664 185.264 541.987 185.301 542.328 185.374C542.673 185.443 542.995 185.572 543.293 185.761C543.595 185.95 543.842 186.22 544.034 186.572C544.226 186.92 544.322 187.372 544.322 187.929V193H542.87V191.956H542.811C542.715 192.148 542.57 192.337 542.378 192.523C542.186 192.708 541.939 192.862 541.637 192.985C541.336 193.108 540.975 193.169 540.554 193.169ZM540.877 191.976C541.288 191.976 541.639 191.895 541.931 191.732C542.226 191.57 542.449 191.358 542.602 191.096C542.758 190.831 542.836 190.547 542.836 190.246V189.261C542.783 189.314 542.68 189.364 542.527 189.411C542.378 189.454 542.208 189.492 542.015 189.525C541.823 189.555 541.636 189.583 541.453 189.609C541.271 189.633 541.119 189.652 540.996 189.669C540.708 189.705 540.444 189.767 540.206 189.853C539.97 189.939 539.781 190.063 539.639 190.226C539.5 190.385 539.43 190.597 539.43 190.862C539.43 191.23 539.566 191.509 539.838 191.697C540.109 191.883 540.456 191.976 540.877 191.976ZM546.421 193V182.818H547.908V186.602H547.997C548.084 186.442 548.208 186.259 548.37 186.05C548.533 185.841 548.758 185.659 549.046 185.503C549.335 185.344 549.716 185.264 550.19 185.264C550.806 185.264 551.356 185.42 551.84 185.732C552.324 186.043 552.704 186.492 552.979 187.079C553.257 187.665 553.396 188.371 553.396 189.197C553.396 190.022 553.259 190.73 552.984 191.32C552.709 191.906 552.331 192.359 551.85 192.677C551.37 192.992 550.821 193.149 550.205 193.149C549.741 193.149 549.361 193.071 549.066 192.915C548.775 192.76 548.546 192.577 548.38 192.369C548.214 192.16 548.087 191.974 547.997 191.812H547.873V193H546.421ZM547.878 189.182C547.878 189.719 547.956 190.189 548.112 190.594C548.267 190.998 548.493 191.315 548.788 191.543C549.083 191.769 549.444 191.881 549.872 191.881C550.316 191.881 550.687 191.764 550.985 191.528C551.284 191.29 551.509 190.967 551.661 190.559C551.817 190.151 551.895 189.692 551.895 189.182C551.895 188.678 551.819 188.226 551.666 187.825C551.517 187.424 551.292 187.107 550.99 186.875C550.692 186.643 550.319 186.527 549.872 186.527C549.441 186.527 549.076 186.638 548.778 186.86C548.483 187.082 548.259 187.392 548.107 187.79C547.954 188.187 547.878 188.652 547.878 189.182ZM555.066 193V185.364H556.552V193H555.066ZM555.816 184.185C555.558 184.185 555.336 184.099 555.15 183.927C554.968 183.751 554.877 183.542 554.877 183.3C554.877 183.055 554.968 182.846 555.15 182.674C555.336 182.498 555.558 182.411 555.816 182.411C556.075 182.411 556.295 182.498 556.478 182.674C556.663 182.846 556.756 183.055 556.756 183.3C556.756 183.542 556.663 183.751 556.478 183.927C556.295 184.099 556.075 184.185 555.816 184.185ZM560.039 182.818V193H558.552V182.818H560.039ZM562.038 193V185.364H563.525V193H562.038ZM562.789 184.185C562.531 184.185 562.308 184.099 562.123 183.927C561.941 183.751 561.849 183.542 561.849 183.3C561.849 183.055 561.941 182.846 562.123 182.674C562.308 182.498 562.531 182.411 562.789 182.411C563.048 182.411 563.268 182.498 563.45 182.674C563.636 182.846 563.729 183.055 563.729 183.3C563.729 183.542 563.636 183.751 563.45 183.927C563.268 184.099 563.048 184.185 562.789 184.185ZM569.089 185.364V186.557H564.918V185.364H569.089ZM566.037 183.534H567.523V190.758C567.523 191.046 567.566 191.263 567.653 191.409C567.739 191.552 567.85 191.649 567.986 191.702C568.125 191.752 568.276 191.777 568.438 191.777C568.557 191.777 568.662 191.769 568.751 191.752C568.841 191.736 568.91 191.722 568.96 191.712L569.229 192.94C569.142 192.973 569.02 193.007 568.861 193.04C568.702 193.076 568.503 193.096 568.264 193.099C567.873 193.106 567.508 193.036 567.17 192.891C566.832 192.745 566.559 192.519 566.35 192.214C566.141 191.91 566.037 191.527 566.037 191.066V183.534ZM571.673 195.864C571.451 195.864 571.249 195.845 571.067 195.809C570.884 195.776 570.749 195.739 570.659 195.7L571.017 194.482C571.289 194.554 571.531 194.586 571.743 194.576C571.955 194.566 572.142 194.487 572.305 194.337C572.47 194.188 572.616 193.945 572.742 193.607L572.926 193.099L570.132 185.364H571.723L573.657 191.29H573.737L575.67 185.364H577.266L574.119 194.019C573.973 194.417 573.788 194.753 573.562 195.028C573.337 195.307 573.069 195.516 572.757 195.655C572.446 195.794 572.084 195.864 571.673 195.864Z" fill="white"/>
<path d="M578 197H497V199H578V197Z" fill="white" mask="url(#path-57-inside-3_1404_4248)"/>
<path d="M535.506 212.227C536.643 213.238 538.357 213.238 539.494 212.227L547.628 204.992C549.689 203.159 548.393 199.75 545.634 199.75H529.366C526.607 199.75 525.311 203.159 527.372 204.992L535.506 212.227Z" fill="#1E293B"/>
</g>
</g>
<defs>
<filter id="filter0_d_1404_4248" x="116.001" y="354" width="158" height="108" filterUnits="userSpaceOnUse" color-interpolation-filters="sRGB">
<feFlood flood-opacity="0" result="BackgroundImageFix"/>
<feColorMatrix in="SourceAlpha" type="matrix" values="0 0 0 0 0 0 0 0 0 0 0 0 0 0 0 0 0 0 127 0" result="hardAlpha"/>
<feOffset dy="16"/>
<feGaussianBlur stdDeviation="16"/>
<feComposite in2="hardAlpha" operator="out"/>
<feColorMatrix type="matrix" values="0 0 0 0 0.422066 0 0 0 0 0.484973 0 0 0 0 0.670833 0 0 0 0.3 0"/>
<feBlend mode="normal" in2="BackgroundImageFix" result="effect1_dropShadow_1404_4248"/>
<feBlend mode="normal" in="SourceGraphic" in2="effect1_dropShadow_1404_4248" result="shape"/>
</filter>
<filter id="filter1_d_1404_4248" x="-13" y="154" width="183" height="109" filterUnits="userSpaceOnUse" color-interpolation-filters="sRGB">
<feFlood flood-opacity="0" result="BackgroundImageFix"/>
<feColorMatrix in="SourceAlpha" type="matrix" values="0 0 0 0 0 0 0 0 0 0 0 0 0 0 0 0 0 0 127 0" result="hardAlpha"/>
<feOffset dy="16"/>
<feGaussianBlur stdDeviation="16"/>
<feComposite in2="hardAlpha" operator="out"/>
<feColorMatrix type="matrix" values="0 0 0 0 0.422066 0 0 0 0 0.484973 0 0 0 0 0.670833 0 0 0 0.3 0"/>
<feBlend mode="normal" in2="BackgroundImageFix" result="effect1_dropShadow_1404_4248"/>
<feBlend mode="normal" in="SourceGraphic" in2="effect1_dropShadow_1404_4248" result="shape"/>
</filter>
<filter id="filter2_d_1404_4248" x="446" y="154" width="183" height="109" filterUnits="userSpaceOnUse" color-interpolation-filters="sRGB">
<feFlood flood-opacity="0" result="BackgroundImageFix"/>
<feColorMatrix in="SourceAlpha" type="matrix" values="0 0 0 0 0 0 0 0 0 0 0 0 0 0 0 0 0 0 127 0" result="hardAlpha"/>
<feOffset dy="16"/>
<feGaussianBlur stdDeviation="16"/>
<feComposite in2="hardAlpha" operator="out"/>
<feColorMatrix type="matrix" values="0 0 0 0 0.422066 0 0 0 0 0.484973 0 0 0 0 0.670833 0 0 0 0.3 0"/>
<feBlend mode="normal" in2="BackgroundImageFix" result="effect1_dropShadow_1404_4248"/>
<feBlend mode="normal" in="SourceGraphic" in2="effect1_dropShadow_1404_4248" result="shape"/>
</filter>
<linearGradient id="paint0_linear_1404_4248" x1="309" y1="0" x2="309" y2="610" gradientUnits="userSpaceOnUse">
<stop stop-color="#EEF2FF"/>
<stop offset="0.3125" stop-color="#F3F4F6"/>
</linearGradient>
<linearGradient id="paint1_linear_1404_4248" x1="179.514" y1="260.866" x2="445.148" y2="260.866" gradientUnits="userSpaceOnUse">
<stop stop-color="#60A5FA"/>
<stop offset="1" stop-color="#3730A3"/>
</linearGradient>
<linearGradient id="paint2_linear_1404_4248" x1="167" y1="556" x2="298" y2="556" gradientUnits="userSpaceOnUse">
<stop stop-color="#60A5FA"/>
<stop offset="1" stop-color="#3730A3"/>
</linearGradient>
<clipPath id="clip0_1404_4248">
<rect width="618" height="610" fill="white"/>
</clipPath>
</defs>
</svg>
