<svg width="392" height="355" viewBox="0 0 392 355" fill="none" xmlns="http://www.w3.org/2000/svg">
<path opacity="0.05" d="M329.217 100.445C356.623 147.914 356.623 206.398 329.217 253.867C301.811 301.336 251.162 330.578 196.35 330.578C141.537 330.578 90.8888 301.336 63.4827 253.867C36.0765 206.398 36.0765 147.914 63.4827 100.445C90.8888 52.9764 141.537 23.7344 196.35 23.7344C251.162 23.7344 301.811 52.9764 329.217 100.445Z" fill="#200065"/>
<path opacity="0.05" d="M302.826 115.541C324.72 153.462 324.72 200.184 302.826 238.105C280.932 276.027 240.471 299.387 196.683 299.387C152.895 299.387 112.433 276.027 90.5388 238.105C68.6448 200.184 68.6448 153.462 90.5388 115.541C112.433 77.6192 152.895 54.2586 196.683 54.2586C240.471 54.2586 280.932 77.6193 302.826 115.541Z" fill="#200065"/>
<path opacity="0.15" d="M276.769 130.726C293.357 159.458 293.357 194.856 276.769 223.587C260.181 252.318 229.525 270.017 196.35 270.017C163.174 270.017 132.518 252.318 115.93 223.587C99.3421 194.856 99.3421 159.458 115.93 130.726C132.518 101.995 163.174 84.2962 196.35 84.2962C229.525 84.2962 260.181 101.995 276.769 130.726Z" fill="#200065"/>
<path opacity="0.15" d="M250.296 146.01C261.423 165.283 261.423 189.028 250.296 208.301C239.169 227.574 218.605 239.447 196.35 239.447C174.095 239.447 153.531 227.574 142.404 208.301C131.277 189.028 131.277 165.283 142.404 146.01C153.531 126.737 174.095 114.864 196.35 114.864C218.605 114.864 239.169 126.737 250.296 146.01Z" fill="#200065"/>
<path opacity="0.2" d="M223.323 161.584C228.886 171.22 228.886 183.093 223.323 192.729C217.759 202.366 207.477 208.302 196.35 208.302C185.223 208.302 174.94 202.366 169.377 192.729C163.813 183.093 163.813 171.22 169.377 161.584C174.94 151.947 185.223 146.011 196.35 146.011C207.477 146.011 217.759 151.947 223.323 161.584Z" fill="#200065"/>
<path opacity="0.3" d="M93.9521 180.927C93.2065 178.512 93.4434 175.901 94.6113 173.66L139.321 87.8647C141.007 84.6312 144.378 82.6318 148.024 82.7044L244.648 84.6281C247.955 84.694 250.996 86.4585 252.694 89.2975L302.568 172.686C304.236 175.475 304.38 178.919 302.949 181.837L257.897 273.755C256.479 276.649 253.703 278.638 250.506 279.05L137.099 293.674C132.468 294.271 128.079 291.448 126.701 286.987L93.9521 180.927Z" fill="#6366F1"/>
<path opacity="0.7" d="M94.6352 182.558C93.0961 179.25 93.5651 175.356 95.8455 172.509L150.325 104.485C151.666 102.81 153.531 101.633 155.62 101.141L245.111 80.1021C249.65 79.035 254.299 81.3844 256.132 85.6715L293.711 173.554C294.699 175.864 294.742 178.469 293.83 180.81L258.34 271.942C256.904 275.629 253.353 278.057 249.396 278.057H145.195C141.462 278.057 138.068 275.892 136.493 272.508L94.6352 182.558Z" fill="url(#paint0_linear_1382_3097)"/>
<path d="M383.769 184.019C383.892 184.144 384.029 184.254 384.177 184.347C382.021 185.657 379.441 186.082 376.979 185.531C376.868 185.508 376.764 185.462 376.672 185.397C376.581 185.331 376.504 185.247 376.448 185.149C376.391 185.052 376.356 184.944 376.344 184.831C376.332 184.719 376.344 184.606 376.379 184.499C376.417 184.372 376.485 184.257 376.579 184.163C376.673 184.072 376.787 184.006 376.913 183.97C377.038 183.933 377.171 183.928 377.299 183.955C379.308 184.415 381.416 184.098 383.201 183.067C383.311 183.426 383.506 183.752 383.769 184.019Z" fill="#64748B"/>
<path d="M387.456 170.831C388.81 172.994 389.258 175.603 388.704 178.093C388.68 178.202 388.634 178.305 388.568 178.395C388.503 178.484 388.419 178.56 388.323 178.615C388.226 178.671 388.119 178.706 388.009 178.718C387.898 178.73 387.786 178.719 387.68 178.685C387.486 178.632 387.319 178.508 387.212 178.338C387.106 178.167 387.067 177.963 387.104 177.765C387.551 175.792 387.249 173.722 386.256 171.959C386.556 171.846 386.829 171.672 387.056 171.447C387.224 171.266 387.359 171.058 387.456 170.831Z" fill="#64748B"/>
<path d="M381.833 167.416C381.795 167.543 381.727 167.658 381.633 167.752C381.539 167.842 381.425 167.909 381.299 167.945C381.174 167.981 381.041 167.986 380.914 167.96C378.94 167.513 376.871 167.815 375.107 168.807C374.994 168.508 374.82 168.235 374.595 168.008C374.421 167.83 374.218 167.684 373.995 167.576C376.157 166.241 378.755 165.805 381.233 166.36C381.347 166.382 381.454 166.428 381.547 166.496C381.641 166.563 381.719 166.65 381.776 166.75C381.833 166.85 381.868 166.962 381.878 167.077C381.887 167.192 381.872 167.307 381.833 167.416Z" fill="#64748B"/>
<path d="M370.9 173.429C370.991 173.523 371.057 173.637 371.094 173.763C371.13 173.888 371.135 174.021 371.108 174.149C370.661 176.122 370.964 178.192 371.956 179.955C371.656 180.068 371.384 180.242 371.156 180.467C370.979 180.641 370.833 180.844 370.724 181.067C369.39 178.905 368.954 176.308 369.508 173.829C369.531 173.718 369.577 173.614 369.642 173.523C369.708 173.431 369.793 173.354 369.89 173.298C369.987 173.241 370.096 173.206 370.208 173.194C370.32 173.182 370.433 173.194 370.54 173.229C370.676 173.263 370.8 173.332 370.9 173.429Z" fill="#64748B"/>
<path d="M385.464 185.556C384.858 185.553 384.264 185.379 383.753 185.052C383.558 184.929 383.379 184.784 383.217 184.62C382.85 184.265 382.576 183.826 382.417 183.34C382.21 182.698 382.211 182.006 382.42 181.364C382.63 180.722 383.037 180.163 383.583 179.766C384.13 179.37 384.788 179.157 385.463 179.157C386.139 179.158 386.797 179.372 387.343 179.769C387.889 180.166 388.295 180.726 388.504 181.368C388.713 182.01 388.713 182.702 388.504 183.344C388.296 183.986 387.89 184.546 387.344 184.943C386.797 185.341 386.14 185.555 385.464 185.556ZM385.464 180.757C385.213 180.757 384.965 180.817 384.741 180.932C384.517 181.046 384.323 181.212 384.175 181.415C384.027 181.618 383.929 181.854 383.889 182.102C383.849 182.35 383.868 182.605 383.945 182.844C384.018 183.089 384.15 183.311 384.329 183.492C384.408 183.574 384.497 183.647 384.593 183.708C384.8 183.839 385.035 183.921 385.28 183.946C385.524 183.972 385.771 183.941 386.001 183.856C386.231 183.771 386.439 183.634 386.608 183.455C386.777 183.277 386.902 183.062 386.975 182.828C387.047 182.593 387.065 182.345 387.026 182.102C386.987 181.86 386.893 181.63 386.751 181.429C386.609 181.229 386.422 181.064 386.206 180.948C385.99 180.831 385.75 180.766 385.504 180.757H385.464Z" fill="#64748B"/>
<path d="M372.883 172.934C372.399 172.934 371.92 172.824 371.484 172.612C371.048 172.401 370.665 172.093 370.366 171.712C370.066 171.331 369.857 170.886 369.754 170.413C369.652 169.939 369.658 169.448 369.773 168.977C369.887 168.506 370.108 168.067 370.417 167.694C370.726 167.32 371.116 167.022 371.558 166.822C371.999 166.621 372.48 166.524 372.965 166.536C373.449 166.549 373.925 166.672 374.355 166.895C374.653 167.04 374.923 167.235 375.155 167.471C375.453 167.767 375.687 168.121 375.843 168.511C376.093 169.093 376.162 169.738 376.039 170.361C375.916 170.983 375.608 171.554 375.155 171.998C374.857 172.296 374.502 172.532 374.113 172.692C373.723 172.853 373.305 172.935 372.883 172.934ZM372.883 168.135C372.464 168.137 372.062 168.303 371.764 168.599C371.615 168.747 371.497 168.924 371.416 169.118C371.336 169.312 371.295 169.52 371.295 169.73C371.295 169.941 371.336 170.149 371.416 170.343C371.497 170.537 371.615 170.714 371.764 170.862C371.912 171.011 372.089 171.129 372.283 171.209C372.477 171.29 372.685 171.331 372.895 171.331C373.106 171.331 373.314 171.29 373.508 171.209C373.702 171.129 373.879 171.011 374.027 170.862C374.249 170.639 374.4 170.355 374.461 170.046C374.522 169.737 374.491 169.418 374.371 169.127C374.294 168.929 374.177 168.749 374.027 168.599C373.918 168.487 373.791 168.396 373.651 168.327C373.409 168.202 373.14 168.139 372.867 168.143L372.883 168.135Z" fill="#64748B"/>
<path d="M372.884 185.378C372.335 185.376 371.796 185.234 371.319 184.964C370.842 184.694 370.442 184.306 370.157 183.837C369.873 183.368 369.714 182.834 369.696 182.286C369.677 181.738 369.8 181.194 370.052 180.707C370.197 180.41 370.392 180.139 370.628 179.907C370.924 179.61 371.278 179.376 371.668 179.22C372.251 178.969 372.896 178.901 373.518 179.023C374.141 179.146 374.711 179.454 375.155 179.907C375.603 180.355 375.908 180.925 376.032 181.546C376.155 182.167 376.092 182.811 375.85 183.395C375.607 183.98 375.197 184.48 374.67 184.832C374.144 185.183 373.525 185.371 372.892 185.37L372.884 185.378ZM372.884 180.579C372.457 180.588 372.049 180.756 371.74 181.051C371.629 181.16 371.537 181.287 371.468 181.427C371.305 181.729 371.243 182.076 371.292 182.416C371.341 182.756 371.498 183.071 371.74 183.315C371.889 183.463 372.065 183.581 372.259 183.662C372.453 183.742 372.662 183.784 372.872 183.784C373.082 183.784 373.29 183.742 373.484 183.662C373.678 183.581 373.855 183.463 374.003 183.315C374.152 183.166 374.27 182.99 374.351 182.795C374.431 182.601 374.473 182.393 374.473 182.183C374.473 181.973 374.431 181.764 374.351 181.57C374.27 181.376 374.152 181.2 374.003 181.051C373.712 180.754 373.316 180.581 372.9 180.571L372.884 180.579Z" fill="#64748B"/>
<path d="M385.32 172.941C384.796 172.938 384.28 172.806 383.818 172.557C383.356 172.307 382.963 171.948 382.673 171.511C382.383 171.073 382.205 170.571 382.155 170.049C382.104 169.527 382.183 169 382.384 168.515C382.586 168.031 382.903 167.603 383.309 167.27C383.714 166.937 384.195 166.709 384.71 166.605C385.224 166.502 385.756 166.527 386.259 166.678C386.762 166.829 387.219 167.101 387.592 167.471C388.072 167.951 388.387 168.573 388.49 169.244C388.594 169.916 388.481 170.603 388.168 171.206C388.023 171.503 387.828 171.774 387.592 172.006C386.983 172.598 386.17 172.936 385.32 172.949V172.941ZM385.32 168.143C385.005 168.144 384.697 168.238 384.435 168.414C384.174 168.59 383.97 168.839 383.849 169.131C383.728 169.422 383.697 169.743 383.758 170.052C383.819 170.362 383.97 170.646 384.193 170.87C384.416 171.092 384.7 171.242 385.009 171.304C385.317 171.365 385.637 171.334 385.928 171.214C386.124 171.136 386.301 171.019 386.448 170.87C386.559 170.761 386.651 170.634 386.72 170.494C386.883 170.192 386.945 169.845 386.896 169.505C386.847 169.165 386.69 168.85 386.448 168.606C386.152 168.308 385.749 168.138 385.328 168.135L385.32 168.143Z" fill="#64748B"/>
<path fill-rule="evenodd" clip-rule="evenodd" d="M294.734 327.244C295.046 326.932 295.553 326.932 295.865 327.244C297.028 328.407 297 330.234 296.424 331.962C295.831 333.741 294.583 335.689 292.849 337.424C291.114 339.158 289.165 340.406 287.387 340.999C285.659 341.575 283.831 341.603 282.669 340.44C282.357 340.128 282.357 339.621 282.669 339.309C282.981 338.997 283.488 338.997 283.8 339.309C284.303 339.812 285.334 339.997 286.881 339.482C288.378 338.983 290.121 337.89 291.718 336.293C293.315 334.696 294.408 332.953 294.907 331.456C295.422 329.909 295.237 328.878 294.734 328.375C294.422 328.063 294.422 327.556 294.734 327.244Z" fill="#64748B"/>
<path fill-rule="evenodd" clip-rule="evenodd" d="M287.571 326.113C287.883 325.801 288.389 325.801 288.702 326.113L289.456 326.867C289.768 327.18 289.768 327.686 289.456 327.998C289.143 328.311 288.637 328.311 288.325 327.998L287.571 327.244C287.258 326.932 287.258 326.425 287.571 326.113Z" fill="#64748B"/>
<path fill-rule="evenodd" clip-rule="evenodd" d="M284.931 328.753C285.244 328.44 285.75 328.44 286.063 328.753L286.817 329.507C287.129 329.819 287.129 330.326 286.817 330.638C286.504 330.95 285.998 330.95 285.685 330.638L284.931 329.884C284.619 329.572 284.619 329.065 284.931 328.753Z" fill="#64748B"/>
<path fill-rule="evenodd" clip-rule="evenodd" d="M282.669 331.768C282.982 331.456 283.488 331.456 283.8 331.768L284.554 332.522C284.867 332.835 284.867 333.341 284.554 333.654C284.242 333.966 283.736 333.966 283.423 333.654L282.669 332.9C282.357 332.587 282.357 332.081 282.669 331.768Z" fill="#64748B"/>
<path fill-rule="evenodd" clip-rule="evenodd" d="M281.915 335.539C282.227 335.227 282.733 335.227 283.046 335.539L283.8 336.293C284.112 336.605 284.112 337.112 283.8 337.424C283.487 337.736 282.981 337.736 282.669 337.424L281.915 336.67C281.602 336.358 281.602 335.851 281.915 335.539Z" fill="#64748B"/>
<path fill-rule="evenodd" clip-rule="evenodd" d="M291.717 324.982C292.03 324.67 292.536 324.67 292.848 324.982L293.602 325.736C293.915 326.049 293.915 326.555 293.602 326.867C293.29 327.18 292.784 327.18 292.471 326.867L291.717 326.113C291.405 325.801 291.405 325.295 291.717 324.982Z" fill="#64748B"/>
<path fill-rule="evenodd" clip-rule="evenodd" d="M290.964 329.507C291.276 329.194 291.782 329.194 292.095 329.507L293.603 331.015C293.915 331.327 293.915 331.834 293.603 332.146C293.291 332.458 292.784 332.458 292.472 332.146L290.964 330.638C290.651 330.325 290.651 329.819 290.964 329.507Z" fill="#64748B"/>
<path fill-rule="evenodd" clip-rule="evenodd" d="M288.324 332.145C288.636 331.833 289.143 331.833 289.455 332.145L290.963 333.654C291.276 333.966 291.276 334.472 290.963 334.785C290.651 335.097 290.144 335.097 289.832 334.785L288.324 333.276C288.012 332.964 288.012 332.458 288.324 332.145Z" fill="#64748B"/>
<path fill-rule="evenodd" clip-rule="evenodd" d="M285.308 334.408C285.62 334.096 286.127 334.096 286.439 334.408L287.947 335.916C288.26 336.229 288.26 336.735 287.947 337.047C287.635 337.36 287.129 337.36 286.816 337.047L285.308 335.539C284.996 335.227 284.996 334.72 285.308 334.408Z" fill="#64748B"/>
<path fill-rule="evenodd" clip-rule="evenodd" d="M282.669 340.44C282.356 340.128 281.85 340.128 281.538 340.44L278.522 343.457C278.209 343.769 278.209 344.275 278.522 344.588C278.834 344.9 279.34 344.9 279.653 344.588L282.669 341.571C282.981 341.259 282.981 340.753 282.669 340.44ZM280.407 339.309C281.344 338.372 282.863 338.372 283.8 339.309C284.737 340.246 284.737 341.765 283.8 342.703L280.784 345.719C279.847 346.656 278.328 346.656 277.391 345.719C276.453 344.782 276.453 343.262 277.391 342.325L280.407 339.309Z" fill="#64748B"/>
<path d="M11.9307 181.156C11.9307 181.634 12.3188 182.022 12.7971 182.022C13.2754 182.022 13.6636 181.634 13.6636 181.156V170.758C13.6636 170.28 13.2754 169.892 12.7971 169.892C12.3188 169.892 11.9307 170.28 11.9307 170.758V181.156Z" fill="#64748B"/>
<path d="M3.26587 170.759C2.78759 170.759 2.39941 171.147 2.39941 171.625V180.29C2.39941 180.768 2.78759 181.156 3.26587 181.156C3.74416 181.156 4.13233 180.768 4.13233 180.29V171.625C4.13233 171.147 3.74416 170.759 3.26587 170.759Z" fill="#64748B"/>
<path d="M10.6309 179.422V172.49C10.6309 172.012 10.2427 171.624 9.76441 171.624C9.28612 171.624 8.89795 172.012 8.89795 172.49V179.422C8.89795 179.9 9.28612 180.289 9.76441 180.289C10.2427 180.289 10.6309 179.9 10.6309 179.422Z" fill="#64748B"/>
<path d="M6.73145 178.555C7.20974 178.555 7.59791 178.167 7.59791 177.689V174.223C7.59791 173.745 7.20974 173.356 6.73145 173.356C6.25316 173.356 5.86499 173.745 5.86499 174.223V177.689C5.86499 178.167 6.25316 178.555 6.73145 178.555Z" fill="#64748B"/>
<path d="M16.6958 179.422V172.49C16.6958 172.012 16.3076 171.624 15.8294 171.624C15.3511 171.624 14.9629 172.012 14.9629 172.49V179.422C14.9629 179.9 15.3511 180.289 15.8294 180.289C16.3076 180.289 16.6958 179.9 16.6958 179.422Z" fill="#64748B"/>
<path d="M22.3279 170.759C21.8496 170.759 21.4614 171.147 21.4614 171.625V180.29C21.4614 180.768 21.8496 181.156 22.3279 181.156C22.8062 181.156 23.1943 180.768 23.1943 180.29V171.625C23.1943 171.147 22.8062 170.759 22.3279 170.759Z" fill="#64748B"/>
<path d="M18.8621 173.356C18.3838 173.356 17.9956 173.745 17.9956 174.223V177.689C17.9956 178.167 18.3838 178.555 18.8621 178.555C19.3404 178.555 19.7285 178.167 19.7285 177.689V174.223C19.7285 173.745 19.3404 173.356 18.8621 173.356Z" fill="#64748B"/>
<path d="M11.9307 185.487C11.9307 185.965 12.3188 186.353 12.7971 186.353C13.2754 186.353 13.6636 185.965 13.6636 185.487V184.62C13.6636 184.142 13.2754 183.754 12.7971 183.754C12.3188 183.754 11.9307 184.142 11.9307 184.62V185.487Z" fill="#64748B"/>
<path d="M12.7971 168.159C13.2754 168.159 13.6636 167.771 13.6636 167.292V166.426C13.6636 165.948 13.2754 165.56 12.7971 165.56C12.3188 165.56 11.9307 165.948 11.9307 166.426V167.292C11.9307 167.771 12.3188 168.159 12.7971 168.159Z" fill="#64748B"/>
<path fill-rule="evenodd" clip-rule="evenodd" d="M289.425 8.57044C290.007 7.78779 291.251 8.19964 291.251 9.1752V16.7118H295.132C296.228 16.7118 296.856 17.9611 296.201 18.8405L288.032 29.8202C287.449 30.6028 286.206 30.191 286.206 29.2154V21.6788H282.325C281.229 21.6788 280.601 20.4294 281.255 19.5501L289.425 8.57044ZM289.651 10.946L282.855 20.0792H286.792C287.352 20.0792 287.805 20.5328 287.805 21.0923V27.4446L294.601 18.3113H290.664C290.105 18.3113 289.651 17.8578 289.651 17.2983V10.946Z" fill="#64748B"/>
<path d="M107.887 331.001C106.895 331.001 105.952 331.319 105.174 331.906C104.396 331.319 103.453 331.001 102.461 331.001C101.254 331.001 100.12 331.471 99.2666 332.324C97.5057 334.085 97.5057 336.951 99.2666 338.712L104.693 344.138C104.826 344.271 105 344.337 105.174 344.337C105.348 344.337 105.522 344.271 105.654 344.138L111.081 338.712C111.934 337.859 112.404 336.724 112.404 335.518C112.404 334.311 111.934 333.177 111.081 332.324C110.228 331.471 109.094 331.001 107.887 331.001ZM110.12 337.751L105.174 342.697L100.228 337.751C98.9966 336.519 98.9966 334.516 100.228 333.285C100.824 332.688 101.617 332.36 102.461 332.36C103.304 332.36 104.097 332.688 104.693 333.285C104.821 333.412 104.994 333.484 105.174 333.484C105.354 333.484 105.527 333.412 105.654 333.285C106.251 332.688 107.044 332.36 107.887 332.36C108.731 332.36 109.524 332.688 110.12 333.285C110.717 333.881 111.045 334.674 111.045 335.518C111.045 336.361 110.717 337.154 110.12 337.751Z" fill="#64748B"/>
<path d="M102.02 330.302C102.811 330.302 103.572 329.892 104.108 329.177C104.608 328.511 104.883 327.635 104.883 326.711C104.883 325.787 104.608 324.911 104.108 324.245C103.572 323.53 102.811 323.12 102.02 323.12C101.229 323.12 100.468 323.53 99.9326 324.245C99.4325 324.911 99.157 325.787 99.157 326.711C99.157 327.635 99.4325 328.511 99.9326 329.177C100.468 329.892 101.229 330.302 102.02 330.302ZM102.02 324.479C102.835 324.479 103.524 325.501 103.524 326.711C103.524 327.921 102.835 328.943 102.02 328.943C101.205 328.943 100.516 327.921 100.516 326.711C100.516 325.501 101.205 324.479 102.02 324.479Z" fill="#64748B"/>
<path d="M108.328 330.302C109.119 330.302 109.88 329.892 110.416 329.177C110.916 328.511 111.191 327.635 111.191 326.711C111.191 325.787 110.916 324.911 110.416 324.245C109.88 323.53 109.119 323.12 108.328 323.12C107.537 323.12 106.776 323.53 106.24 324.245C105.74 324.911 105.465 325.787 105.465 326.711C105.465 327.635 105.74 328.511 106.24 329.177C106.776 329.892 107.537 330.302 108.328 330.302ZM108.328 324.479C109.143 324.479 109.832 325.501 109.832 326.711C109.832 327.921 109.143 328.943 108.328 328.943C107.513 328.943 106.824 327.921 106.824 326.711C106.824 325.501 107.513 324.479 108.328 324.479Z" fill="#64748B"/>
<path d="M116.102 327.257C115.634 326.633 114.967 326.274 114.272 326.274C113.577 326.274 112.91 326.632 112.442 327.257C112.01 327.832 111.773 328.586 111.773 329.38C111.773 330.174 112.01 330.928 112.442 331.503C112.91 332.128 113.577 332.486 114.272 332.486C114.967 332.486 115.634 332.128 116.102 331.503C116.534 330.928 116.771 330.174 116.771 329.38C116.771 328.586 116.534 327.832 116.102 327.257ZM114.272 331.127C113.654 331.127 113.132 330.327 113.132 329.38C113.132 328.433 113.654 327.633 114.272 327.633C114.89 327.633 115.412 328.433 115.412 329.38C115.412 330.327 114.89 331.127 114.272 331.127Z" fill="#64748B"/>
<path d="M97.9061 327.257C97.4379 326.632 96.7708 326.274 96.0758 326.274C95.3809 326.274 94.7138 326.632 94.2456 327.257C93.8141 327.832 93.5767 328.586 93.5767 329.38C93.5767 330.174 93.8141 330.928 94.2456 331.503C94.7138 332.128 95.3809 332.486 96.0758 332.486C96.7708 332.486 97.4379 332.128 97.9061 331.503C98.3374 330.928 98.575 330.174 98.575 329.38C98.575 328.586 98.3374 327.832 97.9061 327.257ZM96.0758 331.127C95.4577 331.127 94.9357 330.327 94.9357 329.38C94.9357 328.433 95.4577 327.633 96.0758 327.633C96.6938 327.633 97.216 328.433 97.216 329.38C97.216 330.327 96.6938 331.127 96.0758 331.127Z" fill="#64748B"/>
<path d="M113.921 15.2881C114.335 13.1885 112.884 11.2144 110.859 10.9911C109.801 8.42696 106.386 7.99649 104.775 10.3049C103.164 7.99737 99.7489 8.42574 98.6903 10.9911C96.6646 11.2146 95.2147 13.19 95.6286 15.2881C94.1196 16.5861 93.9636 18.8994 95.2323 20.3994C93.1304 23.305 95.1282 27.5401 98.7542 27.5401C99.9121 30.0196 103.218 30.3136 104.775 28.0829C106.333 30.3155 109.639 30.0172 110.795 27.5401C114.412 27.5483 116.42 23.3058 114.317 20.3994C115.588 18.8975 115.428 16.5845 113.921 15.2881ZM101.838 28.2252C100.006 28.2252 98.9492 26.0157 100.143 24.5329C100.374 24.2464 100.334 23.8223 100.055 23.5855C99.776 23.3488 99.3629 23.3891 99.1322 23.6756C98.5811 24.3602 98.2877 25.2467 98.334 26.1549C95.8484 25.8837 94.7412 22.8329 96.3844 20.9522C96.4024 20.973 97.0187 20.0686 98.3336 19.9249C98.312 20.3608 98.3675 20.8015 98.5035 21.2287C98.5939 21.5125 98.8506 21.6927 99.1265 21.6927C99.5707 21.6927 99.8886 21.2464 99.7498 20.8105C99.3732 19.628 100.004 18.3515 101.156 17.965C101.5 17.8495 101.688 17.4695 101.575 17.1162C101.463 16.7629 101.093 16.5701 100.748 16.6857C100.598 16.7361 100.454 16.7968 100.314 16.8658C100.052 16.1792 100.233 15.3682 100.815 14.8728C101.094 14.6357 101.133 14.2115 100.902 13.9253C100.671 13.6391 100.257 13.5994 99.9785 13.8365C98.8431 14.8023 98.5804 16.4258 99.2405 17.6879C98.7983 18.1893 98.6956 18.5611 98.6587 18.5611C97.6965 18.5611 96.8062 18.8826 96.084 19.4263C95.2795 18.3923 95.5086 16.8341 96.644 16.1072C96.9056 15.9398 97.0182 15.6079 96.9145 15.3099C96.4329 13.9255 97.3413 12.2973 99.0801 12.2973C99.3764 12.2973 99.6372 12.0925 99.7136 11.7967C99.9683 10.8094 100.842 10.1199 101.838 10.1199C103.05 10.1199 104.036 11.132 104.036 12.3761V25.969C104.036 27.2131 103.05 28.2252 101.838 28.2252ZM113.299 19.4264C112.517 18.8377 111.569 18.5453 110.712 18.5618C110.563 18.2421 110.38 17.9568 110.143 17.6879C110.802 16.4268 110.541 14.8031 109.404 13.8365C109.126 13.5994 108.712 13.6391 108.481 13.9253C108.25 14.2115 108.289 14.6357 108.568 14.8728C109.15 15.3682 109.331 16.1792 109.069 16.8658C108.929 16.7968 108.785 16.7361 108.635 16.6857C108.29 16.5701 107.92 16.763 107.808 17.1162C107.695 17.4695 107.883 17.8495 108.227 17.965C109.379 18.3515 110.01 19.628 109.633 20.8105C109.521 21.1638 109.709 21.5438 110.053 21.6592C110.395 21.7741 110.766 21.5838 110.879 21.2287C111.016 20.8014 111.071 20.3607 111.049 19.9248C112.59 20.0933 113.776 21.4378 113.776 23.0398C113.776 24.6547 112.58 25.9879 111.049 26.1549C111.095 25.2502 110.804 24.3627 110.251 23.6755C110.02 23.389 109.607 23.3487 109.328 23.5854C109.049 23.8222 109.01 24.2464 109.24 24.5328C110.432 26.0129 109.378 28.2251 107.545 28.2251C106.333 28.2251 105.347 27.213 105.347 25.9689V12.3761C105.347 11.132 106.333 10.1199 107.545 10.1199C108.541 10.1199 109.415 10.8094 109.669 11.7967C109.748 12.0997 110.018 12.3079 110.325 12.2969C111.86 12.239 112.992 13.8053 112.469 15.3099C112.365 15.608 112.477 15.9399 112.739 16.1073C113.876 16.8349 114.103 18.3936 113.299 19.4264Z" fill="#64748B"/>
<defs>
<linearGradient id="paint0_linear_1382_3097" x1="92.1223" y1="178.157" x2="295.252" y2="178.157" gradientUnits="userSpaceOnUse">
<stop stop-color="#818CF8"/>
<stop offset="1" stop-color="#5B21B6"/>
</linearGradient>
</defs>
</svg>
