<svg width="766" height="70" viewBox="0 0 766 70" fill="none" xmlns="http://www.w3.org/2000/svg">
<mask id="mask0_1382_2780" style="mask-type:alpha" maskUnits="userSpaceOnUse" x="0" y="0" width="767" height="70">
<path d="M54.0316 0H63.2941L9.26255 70H0L54.0316 0Z" fill="#EAEC7F"/>
<path d="M75.3258 0H84.5883L30.5567 70H21.2942L75.3258 0Z" fill="#EAEC7F"/>
<path d="M96.6197 0H105.882L51.8507 70H42.5881L96.6197 0Z" fill="#EAEC7F"/>
<path d="M117.914 0H127.176L73.1449 70H63.8823L117.914 0Z" fill="#EAEC7F"/>
<path d="M139.208 0H148.471L94.4391 70H85.1765L139.208 0Z" fill="#EAEC7F"/>
<path d="M160.502 0H169.765L115.733 70H106.471L160.502 0Z" fill="#EAEC7F"/>
<path d="M181.796 0H191.059L137.027 70H127.765L181.796 0Z" fill="#EAEC7F"/>
<path d="M203.09 0H212.353L158.321 70H149.059L203.09 0Z" fill="#EAEC7F"/>
<path d="M224.384 0H233.647L179.615 70H170.353L224.384 0Z" fill="#EAEC7F"/>
<path d="M245.679 0H254.941L200.91 70H191.647L245.679 0Z" fill="#EAEC7F"/>
<path d="M266.973 0H276.235L222.204 70H212.941L266.973 0Z" fill="#EAEC7F"/>
<path d="M288.267 0H297.529L243.498 70H234.235L288.267 0Z" fill="#EAEC7F"/>
<path d="M309.561 0H318.824L264.792 70H255.529L309.561 0Z" fill="#EAEC7F"/>
<path d="M330.855 0H340.118L286.086 70H276.823L330.855 0Z" fill="#EAEC7F"/>
<path d="M352.149 0H361.412L307.38 70H298.118L352.149 0Z" fill="#EAEC7F"/>
<path d="M373.443 0H382.706L328.674 70H319.412L373.443 0Z" fill="#EAEC7F"/>
<path d="M394.737 0H404L349.968 70H340.706L394.737 0Z" fill="#EAEC7F"/>
<path d="M416.032 0H425.294L371.263 70H362L416.032 0Z" fill="#EAEC7F"/>
<path d="M437.326 0H446.588L392.557 70H383.294L437.326 0Z" fill="#EAEC7F"/>
<path d="M458.62 0H467.882L413.851 70H404.588L458.62 0Z" fill="#EAEC7F"/>
<path d="M479.914 0H489.176L435.145 70H425.882L479.914 0Z" fill="#EAEC7F"/>
<path d="M501.208 0H510.471L456.439 70H447.177L501.208 0Z" fill="#EAEC7F"/>
<path d="M522.502 0H531.765L477.733 70H468.471L522.502 0Z" fill="#EAEC7F"/>
<path d="M543.796 0H553.059L499.027 70H489.765L543.796 0Z" fill="#EAEC7F"/>
<path d="M565.09 0H574.353L520.321 70H511.059L565.09 0Z" fill="#EAEC7F"/>
<path d="M586.385 0H595.647L541.616 70H532.353L586.385 0Z" fill="#EAEC7F"/>
<path d="M607.679 0H616.941L562.91 70H553.647L607.679 0Z" fill="#EAEC7F"/>
<path d="M628.973 0H638.235L584.204 70H574.941L628.973 0Z" fill="#EAEC7F"/>
<path d="M650.267 0H659.529L605.498 70H596.235L650.267 0Z" fill="#EAEC7F"/>
<path d="M671.561 0H680.824L626.792 70H617.53L671.561 0Z" fill="#EAEC7F"/>
<path d="M692.855 0H702.118L648.086 70H638.824L692.855 0Z" fill="#EAEC7F"/>
<path d="M714.149 0H723.412L669.38 70H660.118L714.149 0Z" fill="#EAEC7F"/>
<path d="M735.443 0H744.706L690.674 70H681.412L735.443 0Z" fill="#EAEC7F"/>
<path d="M756.738 0H766L711.969 70H702.706L756.738 0Z" fill="#EAEC7F"/>
</mask>
<g mask="url(#mask0_1382_2780)">
<rect x="-19" width="807" height="70" fill="url(#paint0_linear_1382_2780)"/>
</g>
<defs>
<linearGradient id="paint0_linear_1382_2780" x1="814.823" y1="35.0002" x2="10.5057" y2="35.0002" gradientUnits="userSpaceOnUse">
<stop stop-color="#FF49A1" stop-opacity="0"/>
<stop offset="1" stop-color="#BB83CF" stop-opacity="0.2"/>
</linearGradient>
</defs>
</svg>
