<svg width="40" height="40" viewBox="0 0 40 40" fill="none" xmlns="http://www.w3.org/2000/svg">
<g clip-path="url(#clip0_1382_4108)">
<path d="M39.9366 15.0124H37.4802V10.0154H34.9822V7.51648H32.4833V5.01758H29.9844V2.51867H24.9874V0.0339562C23.5067 -0.0261377 15.3573 -0.000263934 14.9926 0.0631685V2.51867H9.99478V5.01758H7.49588V7.51648H4.99781V10.0154H2.4989V15.0132H0V25.0071H2.4989V30.0041H4.99781V37.5008H7.49588V39.9997H24.9874V37.5008H29.9844V35.0019H32.4833V32.503H34.9822V30.0041H37.4802V25.0071H39.9649C40.025 23.5273 40.0008 15.3796 39.9366 15.0124Z" fill="#FFD541"/>
<path d="M12.4937 5.01758V7.51648H9.99478V5.01758H12.4937ZM4.9978 10.0154V12.5143H7.49587V10.0154H4.9978ZM9.99478 7.51732H7.49587V10.0154H9.99478V7.51732Z" fill="#FEFEFE"/>
<path d="M24.9874 32.5028H22.4885V30.0039H24.9874V32.5028Z" fill="#F96A0A"/>
<path d="M22.4885 37.5008H24.9874V39.9997H7.49588V37.5008H19.9896C19.9896 36.672 19.9896 35.067 19.9896 35.067L20.0021 35.0311L20.028 35.0019H22.4876L22.4885 37.5008ZM0 15.0124V25.0071H2.4989V15.0124H0ZM24.9874 0.0339562C23.5067 -0.0261377 15.3573 -0.000263934 14.9926 0.0631685V2.51867H24.9874V0.0339562ZM24.9557 5.00756L24.9198 5.02092H22.4885V7.51648H27.4854V5.01758H29.9844V2.51867H24.9874V4.97334L24.9557 5.00756ZM39.9366 15.0124H37.4802V25.0071H39.9649C40.025 23.5273 40.0008 15.3796 39.9366 15.0124ZM14.9926 5.01758V2.51867H9.99478V5.01758H14.9926ZM24.9874 37.5008H29.9844V35.0019H24.9874V37.5008ZM4.99781 12.5135V10.0154H2.4989V15.0132H4.99781V12.5135ZM37.4802 15.0124V10.0154H34.9822V15.0132L37.4802 15.0124ZM34.9822 30.0041H37.4802V25.0071H34.9822V30.0041ZM9.99478 5.01758H7.49588V7.51648H9.99478V5.01758ZM34.9822 10.0154V7.51648H32.4833V10.0154H34.9822ZM7.49588 7.51648H4.99781V10.0154H7.49588V7.51648ZM32.4833 7.51648V5.01758H29.9844V7.51648H32.4833ZM32.4833 32.503H34.9822V30.0041H32.4833V32.503ZM29.9844 35.0019H32.4833V32.503H29.9844V35.0019ZM4.99781 30.0041V37.5008H7.49588V30.0041H4.99781ZM2.4989 25.0071V30.0041H4.99781V25.0071H2.4989ZM22.4885 32.503V30.0041H12.4937V32.503H22.4885ZM12.4937 27.5202C11.2042 27.466 7.84559 27.4868 7.49588 27.5494V30.0041H12.4937V27.5202ZM24.9874 35.0019V32.503H22.4885V35.0019H24.9874ZM12.5012 24.993H22.4801V22.5233H12.5012V24.993ZM22.5168 12.5285L22.5035 12.5427V20.0027H24.974V12.5135H22.5536L22.5168 12.5285ZM10.0081 20.0093H12.4286L12.4645 19.9951L12.4795 19.9801V12.5193H10.0081V20.0093ZM14.9926 10.0154V7.51648H9.99478V10.0154H14.9926ZM22.4768 7.52817H20.0071V10.0062H22.4768V7.52817ZM17.4823 10.0271H15.0043V12.4959H17.4823V10.0271ZM27.4854 10.0154H29.9844V7.51648H27.4854V10.0154Z" fill="#141013"/>
</g>
<defs>
<clipPath id="clip0_1382_4108">
<rect width="40" height="40" fill="white"/>
</clipPath>
</defs>
</svg>
