<svg width="308" height="121" viewBox="0 0 308 121" fill="none" xmlns="http://www.w3.org/2000/svg">
<rect x="0.902954" y="0.15625" width="307" height="56" rx="28" fill="#E5E7EB"/>
<path d="M63.2716 33.1562V22.9744H64.8078V31.8338H69.4214V33.1562H63.2716ZM75.8919 29.9893V25.5199H77.3834V33.1562H75.9218V31.8338H75.8422C75.6666 32.2415 75.3848 32.5812 74.9971 32.853C74.6126 33.1214 74.1337 33.2557 73.5603 33.2557C73.0697 33.2557 72.6356 33.148 72.2577 32.9325C71.8832 32.7138 71.5882 32.3906 71.3728 31.9631C71.1606 31.5355 71.0546 31.0069 71.0546 30.3771V25.5199H72.5411V30.1982C72.5411 30.7185 72.6853 31.1328 72.9736 31.4411C73.262 31.7493 73.6365 31.9034 74.0972 31.9034C74.3756 31.9034 74.6524 31.8338 74.9275 31.6946C75.2059 31.5554 75.4362 31.3449 75.6185 31.0632C75.8041 30.7815 75.8953 30.4235 75.8919 29.9893ZM82.5974 33.3104C81.8583 33.3104 81.2219 33.143 80.6883 32.8082C80.158 32.4702 79.7503 32.0045 79.4653 31.4112C79.1802 30.8179 79.0377 30.1385 79.0377 29.3729C79.0377 28.5973 79.1836 27.9129 79.4752 27.3196C79.7669 26.723 80.1779 26.2573 80.7082 25.9226C81.2385 25.5878 81.8632 25.4205 82.5825 25.4205C83.1625 25.4205 83.6795 25.5282 84.1336 25.7436C84.5877 25.9557 84.9539 26.254 85.2323 26.6385C85.514 27.023 85.6814 27.4721 85.7345 27.9858H84.2877C84.2082 27.6278 84.0259 27.3196 83.7408 27.0611C83.4591 26.8026 83.0813 26.6733 82.6073 26.6733C82.193 26.6733 81.8301 26.7827 81.5185 27.0014C81.2103 27.2169 80.97 27.5251 80.7977 27.9261C80.6253 28.3239 80.5391 28.7945 80.5391 29.3381C80.5391 29.8949 80.6237 30.3755 80.7927 30.7798C80.9617 31.1842 81.2004 31.4974 81.5086 31.7195C81.8202 31.9415 82.1864 32.0526 82.6073 32.0526C82.889 32.0526 83.1443 32.0012 83.3729 31.8984C83.605 31.7924 83.7988 31.6416 83.9546 31.446C84.1137 31.2505 84.2247 31.0152 84.2877 30.7401H85.7345C85.6814 31.2339 85.5207 31.6747 85.2522 32.0625C84.9837 32.4503 84.6241 32.7552 84.1734 32.9773C83.7259 33.1993 83.2006 33.3104 82.5974 33.3104ZM88.2637 36.0199C88.0417 36.0199 87.8395 36.0017 87.6572 35.9652C87.4749 35.9321 87.339 35.8956 87.2495 35.8558L87.6075 34.6378C87.8793 34.7107 88.1212 34.7422 88.3334 34.7322C88.5455 34.7223 88.7327 34.6428 88.8951 34.4936C89.0609 34.3445 89.2067 34.1009 89.3326 33.7628L89.5166 33.2557L86.7226 25.5199H88.3135L90.2474 31.446H90.327L92.2609 25.5199H93.8568L90.7098 34.1754C90.5639 34.5732 90.3783 34.9096 90.153 35.1847C89.9276 35.4631 89.6591 35.6719 89.3476 35.8111C89.036 35.9503 88.6747 36.0199 88.2637 36.0199Z" fill="#64748B"/>
<rect x="164.403" y="8.15625" width="131.5" height="40" rx="20" fill="url(#paint0_linear_1382_3156)" fill-opacity="0.9"/>
<path d="M206.272 33.1562V22.9744H209.901C210.69 22.9744 211.344 23.1103 211.865 23.3821C212.388 23.6539 212.779 24.0301 213.038 24.5107C213.296 24.9879 213.426 25.5398 213.426 26.1662C213.426 26.7893 213.295 27.3378 213.033 27.8118C212.774 28.2824 212.383 28.6487 211.86 28.9105C211.339 29.1723 210.685 29.3033 209.896 29.3033H207.147V27.9808H209.757C210.254 27.9808 210.658 27.9096 210.97 27.767C211.285 27.6245 211.515 27.4174 211.661 27.1456C211.807 26.8738 211.88 26.5473 211.88 26.1662C211.88 25.7817 211.805 25.4486 211.656 25.1669C211.51 24.8852 211.28 24.6697 210.965 24.5206C210.653 24.3681 210.244 24.2919 209.737 24.2919H207.808V33.1562H206.272ZM211.298 28.5625L213.813 33.1562H212.063L209.598 28.5625H211.298ZM217.398 33.3253C216.914 33.3253 216.477 33.2358 216.085 33.0568C215.694 32.8745 215.384 32.611 215.156 32.2663C214.93 31.9216 214.818 31.4991 214.818 30.9986C214.818 30.5677 214.901 30.2131 215.066 29.9347C215.232 29.6562 215.456 29.4358 215.737 29.2734C216.019 29.111 216.334 28.9884 216.682 28.9055C217.03 28.8227 217.385 28.7597 217.746 28.7166C218.203 28.6636 218.575 28.6205 218.86 28.5874C219.145 28.5509 219.352 28.4929 219.481 28.4134C219.61 28.3338 219.675 28.2045 219.675 28.0256V27.9908C219.675 27.5566 219.552 27.2202 219.307 26.9815C219.065 26.7429 218.704 26.6236 218.223 26.6236C217.723 26.6236 217.328 26.7346 217.04 26.9567C216.755 27.1754 216.558 27.419 216.448 27.6875L215.051 27.3693C215.217 26.9053 215.459 26.5308 215.777 26.2457C216.099 25.9574 216.468 25.7486 216.886 25.6193C217.304 25.4867 217.743 25.4205 218.203 25.4205C218.508 25.4205 218.831 25.4569 219.173 25.5298C219.518 25.5994 219.839 25.7287 220.137 25.9176C220.439 26.1065 220.686 26.3767 220.878 26.728C221.07 27.076 221.166 27.5284 221.166 28.0852V33.1562H219.715V32.1122H219.655C219.559 32.3045 219.415 32.4934 219.223 32.679C219.03 32.8646 218.783 33.0187 218.482 33.1413C218.18 33.264 217.819 33.3253 217.398 33.3253ZM217.721 32.1321C218.132 32.1321 218.483 32.0509 218.775 31.8885C219.07 31.7261 219.294 31.514 219.446 31.2521C219.602 30.987 219.68 30.7036 219.68 30.402V29.4176C219.627 29.4706 219.524 29.5204 219.372 29.5668C219.223 29.6098 219.052 29.648 218.86 29.6811C218.667 29.7109 218.48 29.7391 218.298 29.7656C218.116 29.7888 217.963 29.8087 217.84 29.8253C217.552 29.8617 217.289 29.9231 217.05 30.0092C216.815 30.0954 216.626 30.2197 216.483 30.3821C216.344 30.5412 216.274 30.7533 216.274 31.0185C216.274 31.3864 216.41 31.6648 216.682 31.8537C216.954 32.0393 217.3 32.1321 217.721 32.1321ZM226.348 36.179C225.742 36.179 225.22 36.0994 224.782 35.9403C224.348 35.7813 223.993 35.5708 223.718 35.3089C223.443 35.0471 223.238 34.7604 223.102 34.4489L224.379 33.9219C224.469 34.0677 224.588 34.2218 224.737 34.3842C224.89 34.55 225.095 34.6908 225.354 34.8068C225.616 34.9228 225.952 34.9808 226.363 34.9808C226.926 34.9808 227.392 34.8433 227.76 34.5682C228.128 34.2964 228.312 33.8622 228.312 33.2656V31.7642H228.217C228.128 31.9266 227.999 32.1072 227.83 32.3061C227.664 32.505 227.435 32.6773 227.144 32.8232C226.852 32.969 226.472 33.0419 226.005 33.0419C225.402 33.0419 224.858 32.901 224.374 32.6193C223.894 32.3343 223.513 31.915 223.231 31.3615C222.952 30.8047 222.813 30.1203 222.813 29.3082C222.813 28.4962 222.951 27.8002 223.226 27.2202C223.504 26.6402 223.885 26.196 224.369 25.8878C224.853 25.5762 225.402 25.4205 226.015 25.4205C226.489 25.4205 226.872 25.5 227.163 25.6591C227.455 25.8149 227.682 25.9972 227.845 26.206C228.01 26.4148 228.138 26.5987 228.227 26.7578H228.337V25.5199H229.793V33.3253C229.793 33.9815 229.641 34.5201 229.336 34.9411C229.031 35.362 228.618 35.6735 228.098 35.8757C227.581 36.0779 226.998 36.179 226.348 36.179ZM226.333 31.8089C226.761 31.8089 227.122 31.7095 227.417 31.5107C227.715 31.3085 227.941 31.0201 228.093 30.6456C228.249 30.2678 228.327 29.8153 228.327 29.2884C228.327 28.7746 228.251 28.3222 228.098 27.9311C227.946 27.54 227.722 27.2351 227.427 27.0163C227.132 26.7943 226.767 26.6832 226.333 26.6832C225.886 26.6832 225.513 26.7992 225.215 27.0312C224.916 27.2599 224.691 27.5715 224.538 27.9659C224.389 28.3603 224.315 28.8011 224.315 29.2884C224.315 29.7888 224.391 30.228 224.543 30.6058C224.696 30.9837 224.921 31.2786 225.22 31.4908C225.521 31.7029 225.892 31.8089 226.333 31.8089ZM234.646 33.3054C234.029 33.3054 233.479 33.148 232.995 32.8331C232.515 32.5149 232.137 32.0625 231.862 31.4759C231.59 30.8859 231.454 30.1783 231.454 29.353C231.454 28.5277 231.591 27.8217 231.867 27.2351C232.145 26.6484 232.526 26.1993 233.01 25.8878C233.494 25.5762 234.042 25.4205 234.656 25.4205C235.13 25.4205 235.511 25.5 235.799 25.6591C236.091 25.8149 236.316 25.9972 236.475 26.206C236.638 26.4148 236.764 26.5987 236.853 26.7578H236.943V22.9744H238.429V33.1562H236.977V31.968H236.853C236.764 32.1304 236.634 32.3161 236.465 32.5249C236.3 32.7337 236.071 32.916 235.779 33.0717C235.488 33.2275 235.11 33.3054 234.646 33.3054ZM234.974 32.0376C235.401 32.0376 235.763 31.925 236.058 31.6996C236.356 31.4709 236.581 31.1544 236.734 30.75C236.89 30.3456 236.967 29.875 236.967 29.3381C236.967 28.8078 236.891 28.3437 236.739 27.946C236.586 27.5483 236.363 27.2384 236.068 27.0163C235.773 26.7943 235.408 26.6832 234.974 26.6832C234.526 26.6832 234.153 26.7992 233.855 27.0312C233.557 27.2633 233.332 27.5798 233.179 27.9808C233.03 28.3819 232.955 28.8343 232.955 29.3381C232.955 29.8485 233.032 30.3075 233.184 30.7152C233.336 31.1229 233.562 31.446 233.86 31.6847C234.162 31.92 234.533 32.0376 234.974 32.0376ZM243.767 33.3104C243.051 33.3104 242.427 33.1463 241.893 32.8182C241.359 32.4901 240.945 32.031 240.65 31.4411C240.355 30.8511 240.208 30.1617 240.208 29.3729C240.208 28.5807 240.355 27.888 240.65 27.2947C240.945 26.7015 241.359 26.2408 241.893 25.9126C242.427 25.5845 243.051 25.4205 243.767 25.4205C244.483 25.4205 245.108 25.5845 245.642 25.9126C246.175 26.2408 246.59 26.7015 246.884 27.2947C247.179 27.888 247.327 28.5807 247.327 29.3729C247.327 30.1617 247.179 30.8511 246.884 31.4411C246.59 32.031 246.175 32.4901 245.642 32.8182C245.108 33.1463 244.483 33.3104 243.767 33.3104ZM243.772 32.0625C244.236 32.0625 244.621 31.9399 244.926 31.6946C245.231 31.4493 245.456 31.1229 245.602 30.7152C245.751 30.3075 245.826 29.8584 245.826 29.3679C245.826 28.8807 245.751 28.4332 245.602 28.0256C245.456 27.6146 245.231 27.2848 244.926 27.0362C244.621 26.7876 244.236 26.6634 243.772 26.6634C243.305 26.6634 242.917 26.7876 242.609 27.0362C242.304 27.2848 242.077 27.6146 241.928 28.0256C241.782 28.4332 241.709 28.8807 241.709 29.3679C241.709 29.8584 241.782 30.3075 241.928 30.7152C242.077 31.1229 242.304 31.4493 242.609 31.6946C242.917 31.9399 243.305 32.0625 243.772 32.0625ZM250.473 22.9744V33.1562H248.986V22.9744H250.473ZM253.959 22.9744V33.1562H252.473V22.9744H253.959Z" fill="white"/>
<rect x="0.902954" y="64.1562" width="307" height="56" rx="28" fill="#E5E7EB"/>
<rect x="12.903" y="72.1562" width="131.5" height="40" rx="20" fill="url(#paint1_linear_1382_3156)" fill-opacity="0.9"/>
<path d="M63.2716 97.1562V86.9744H64.8078V95.8338H69.4214V97.1562H63.2716ZM75.8919 93.9893V89.5199H77.3834V97.1562H75.9218V95.8338H75.8422C75.6666 96.2415 75.3848 96.5812 74.9971 96.853C74.6126 97.1214 74.1337 97.2557 73.5603 97.2557C73.0697 97.2557 72.6356 97.148 72.2577 96.9325C71.8832 96.7138 71.5882 96.3906 71.3728 95.9631C71.1606 95.5355 71.0546 95.0069 71.0546 94.3771V89.5199H72.5411V94.1982C72.5411 94.7185 72.6853 95.1328 72.9736 95.4411C73.262 95.7493 73.6365 95.9034 74.0972 95.9034C74.3756 95.9034 74.6524 95.8338 74.9275 95.6946C75.2059 95.5554 75.4362 95.3449 75.6185 95.0632C75.8041 94.7815 75.8953 94.4235 75.8919 93.9893ZM82.5974 97.3104C81.8583 97.3104 81.2219 97.143 80.6883 96.8082C80.158 96.4702 79.7503 96.0045 79.4653 95.4112C79.1802 94.8179 79.0377 94.1385 79.0377 93.3729C79.0377 92.5973 79.1836 91.9129 79.4752 91.3196C79.7669 90.723 80.1779 90.2573 80.7082 89.9226C81.2385 89.5878 81.8632 89.4205 82.5825 89.4205C83.1625 89.4205 83.6795 89.5282 84.1336 89.7436C84.5877 89.9557 84.9539 90.254 85.2323 90.6385C85.514 91.023 85.6814 91.4721 85.7345 91.9858H84.2877C84.2082 91.6278 84.0259 91.3196 83.7408 91.0611C83.4591 90.8026 83.0813 90.6733 82.6073 90.6733C82.193 90.6733 81.8301 90.7827 81.5185 91.0014C81.2103 91.2169 80.97 91.5251 80.7977 91.9261C80.6253 92.3239 80.5391 92.7945 80.5391 93.3381C80.5391 93.8949 80.6237 94.3755 80.7927 94.7798C80.9617 95.1842 81.2004 95.4974 81.5086 95.7195C81.8202 95.9415 82.1864 96.0526 82.6073 96.0526C82.889 96.0526 83.1443 96.0012 83.3729 95.8984C83.605 95.7924 83.7988 95.6416 83.9546 95.446C84.1137 95.2505 84.2247 95.0152 84.2877 94.7401H85.7345C85.6814 95.2339 85.5207 95.6747 85.2522 96.0625C84.9837 96.4503 84.6241 96.7552 84.1734 96.9773C83.7259 97.1993 83.2006 97.3104 82.5974 97.3104ZM88.2637 100.02C88.0417 100.02 87.8395 100.002 87.6572 99.9652C87.4749 99.9321 87.339 99.8956 87.2495 99.8558L87.6075 98.6378C87.8793 98.7107 88.1212 98.7422 88.3334 98.7322C88.5455 98.7223 88.7327 98.6428 88.8951 98.4936C89.0609 98.3445 89.2067 98.1009 89.3326 97.7628L89.5166 97.2557L86.7226 89.5199H88.3135L90.2474 95.446H90.327L92.2609 89.5199H93.8568L90.7098 98.1754C90.5639 98.5732 90.3783 98.9096 90.153 99.1847C89.9276 99.4631 89.6591 99.6719 89.3476 99.8111C89.036 99.9503 88.6747 100.02 88.2637 100.02Z" fill="white"/>
<path d="M206.272 97.1562V86.9744H209.901C210.69 86.9744 211.344 87.1103 211.865 87.3821C212.388 87.6539 212.779 88.0301 213.038 88.5107C213.296 88.9879 213.426 89.5398 213.426 90.1662C213.426 90.7893 213.295 91.3378 213.033 91.8118C212.774 92.2824 212.383 92.6487 211.86 92.9105C211.339 93.1723 210.685 93.3033 209.896 93.3033H207.147V91.9808H209.757C210.254 91.9808 210.658 91.9096 210.97 91.767C211.285 91.6245 211.515 91.4174 211.661 91.1456C211.807 90.8738 211.88 90.5473 211.88 90.1662C211.88 89.7817 211.805 89.4486 211.656 89.1669C211.51 88.8852 211.28 88.6697 210.965 88.5206C210.653 88.3681 210.244 88.2919 209.737 88.2919H207.808V97.1562H206.272ZM211.298 92.5625L213.813 97.1562H212.063L209.598 92.5625H211.298ZM217.398 97.3253C216.914 97.3253 216.477 97.2358 216.085 97.0568C215.694 96.8745 215.384 96.611 215.156 96.2663C214.93 95.9216 214.818 95.4991 214.818 94.9986C214.818 94.5677 214.901 94.2131 215.066 93.9347C215.232 93.6562 215.456 93.4358 215.737 93.2734C216.019 93.111 216.334 92.9884 216.682 92.9055C217.03 92.8227 217.385 92.7597 217.746 92.7166C218.203 92.6636 218.575 92.6205 218.86 92.5874C219.145 92.5509 219.352 92.4929 219.481 92.4134C219.61 92.3338 219.675 92.2045 219.675 92.0256V91.9908C219.675 91.5566 219.552 91.2202 219.307 90.9815C219.065 90.7429 218.704 90.6236 218.223 90.6236C217.723 90.6236 217.328 90.7346 217.04 90.9567C216.755 91.1754 216.558 91.419 216.448 91.6875L215.051 91.3693C215.217 90.9053 215.459 90.5308 215.777 90.2457C216.099 89.9574 216.468 89.7486 216.886 89.6193C217.304 89.4867 217.743 89.4205 218.203 89.4205C218.508 89.4205 218.831 89.4569 219.173 89.5298C219.518 89.5994 219.839 89.7287 220.137 89.9176C220.439 90.1065 220.686 90.3767 220.878 90.728C221.07 91.076 221.166 91.5284 221.166 92.0852V97.1562H219.715V96.1122H219.655C219.559 96.3045 219.415 96.4934 219.223 96.679C219.03 96.8646 218.783 97.0187 218.482 97.1413C218.18 97.264 217.819 97.3253 217.398 97.3253ZM217.721 96.1321C218.132 96.1321 218.483 96.0509 218.775 95.8885C219.07 95.7261 219.294 95.514 219.446 95.2521C219.602 94.987 219.68 94.7036 219.68 94.402V93.4176C219.627 93.4706 219.524 93.5204 219.372 93.5668C219.223 93.6098 219.052 93.648 218.86 93.6811C218.667 93.7109 218.48 93.7391 218.298 93.7656C218.116 93.7888 217.963 93.8087 217.84 93.8253C217.552 93.8617 217.289 93.9231 217.05 94.0092C216.815 94.0954 216.626 94.2197 216.483 94.3821C216.344 94.5412 216.274 94.7533 216.274 95.0185C216.274 95.3864 216.41 95.6648 216.682 95.8537C216.954 96.0393 217.3 96.1321 217.721 96.1321ZM226.348 100.179C225.742 100.179 225.22 100.099 224.782 99.9403C224.348 99.7813 223.993 99.5708 223.718 99.3089C223.443 99.0471 223.238 98.7604 223.102 98.4489L224.379 97.9219C224.469 98.0677 224.588 98.2218 224.737 98.3842C224.89 98.55 225.095 98.6908 225.354 98.8068C225.616 98.9228 225.952 98.9808 226.363 98.9808C226.926 98.9808 227.392 98.8433 227.76 98.5682C228.128 98.2964 228.312 97.8622 228.312 97.2656V95.7642H228.217C228.128 95.9266 227.999 96.1072 227.83 96.3061C227.664 96.505 227.435 96.6773 227.144 96.8232C226.852 96.969 226.472 97.0419 226.005 97.0419C225.402 97.0419 224.858 96.901 224.374 96.6193C223.894 96.3343 223.513 95.915 223.231 95.3615C222.952 94.8047 222.813 94.1203 222.813 93.3082C222.813 92.4962 222.951 91.8002 223.226 91.2202C223.504 90.6402 223.885 90.196 224.369 89.8878C224.853 89.5762 225.402 89.4205 226.015 89.4205C226.489 89.4205 226.872 89.5 227.163 89.6591C227.455 89.8149 227.682 89.9972 227.845 90.206C228.01 90.4148 228.138 90.5987 228.227 90.7578H228.337V89.5199H229.793V97.3253C229.793 97.9815 229.641 98.5201 229.336 98.9411C229.031 99.362 228.618 99.6735 228.098 99.8757C227.581 100.078 226.998 100.179 226.348 100.179ZM226.333 95.8089C226.761 95.8089 227.122 95.7095 227.417 95.5107C227.715 95.3085 227.941 95.0201 228.093 94.6456C228.249 94.2678 228.327 93.8153 228.327 93.2884C228.327 92.7746 228.251 92.3222 228.098 91.9311C227.946 91.54 227.722 91.2351 227.427 91.0163C227.132 90.7943 226.767 90.6832 226.333 90.6832C225.886 90.6832 225.513 90.7992 225.215 91.0312C224.916 91.2599 224.691 91.5715 224.538 91.9659C224.389 92.3603 224.315 92.8011 224.315 93.2884C224.315 93.7888 224.391 94.228 224.543 94.6058C224.696 94.9837 224.921 95.2786 225.22 95.4908C225.521 95.7029 225.892 95.8089 226.333 95.8089ZM234.646 97.3054C234.029 97.3054 233.479 97.148 232.995 96.8331C232.515 96.5149 232.137 96.0625 231.862 95.4759C231.59 94.8859 231.454 94.1783 231.454 93.353C231.454 92.5277 231.591 91.8217 231.867 91.2351C232.145 90.6484 232.526 90.1993 233.01 89.8878C233.494 89.5762 234.042 89.4205 234.656 89.4205C235.13 89.4205 235.511 89.5 235.799 89.6591C236.091 89.8149 236.316 89.9972 236.475 90.206C236.638 90.4148 236.764 90.5987 236.853 90.7578H236.943V86.9744H238.429V97.1562H236.977V95.968H236.853C236.764 96.1304 236.634 96.3161 236.465 96.5249C236.3 96.7337 236.071 96.916 235.779 97.0717C235.488 97.2275 235.11 97.3054 234.646 97.3054ZM234.974 96.0376C235.401 96.0376 235.763 95.925 236.058 95.6996C236.356 95.4709 236.581 95.1544 236.734 94.75C236.89 94.3456 236.967 93.875 236.967 93.3381C236.967 92.8078 236.891 92.3437 236.739 91.946C236.586 91.5483 236.363 91.2384 236.068 91.0163C235.773 90.7943 235.408 90.6832 234.974 90.6832C234.526 90.6832 234.153 90.7992 233.855 91.0312C233.557 91.2633 233.332 91.5798 233.179 91.9808C233.03 92.3819 232.955 92.8343 232.955 93.3381C232.955 93.8485 233.032 94.3075 233.184 94.7152C233.336 95.1229 233.562 95.446 233.86 95.6847C234.162 95.92 234.533 96.0376 234.974 96.0376ZM243.767 97.3104C243.051 97.3104 242.427 97.1463 241.893 96.8182C241.359 96.4901 240.945 96.031 240.65 95.4411C240.355 94.8511 240.208 94.1617 240.208 93.3729C240.208 92.5807 240.355 91.888 240.65 91.2947C240.945 90.7015 241.359 90.2408 241.893 89.9126C242.427 89.5845 243.051 89.4205 243.767 89.4205C244.483 89.4205 245.108 89.5845 245.642 89.9126C246.175 90.2408 246.59 90.7015 246.884 91.2947C247.179 91.888 247.327 92.5807 247.327 93.3729C247.327 94.1617 247.179 94.8511 246.884 95.4411C246.59 96.031 246.175 96.4901 245.642 96.8182C245.108 97.1463 244.483 97.3104 243.767 97.3104ZM243.772 96.0625C244.236 96.0625 244.621 95.9399 244.926 95.6946C245.231 95.4493 245.456 95.1229 245.602 94.7152C245.751 94.3075 245.826 93.8584 245.826 93.3679C245.826 92.8807 245.751 92.4332 245.602 92.0256C245.456 91.6146 245.231 91.2848 244.926 91.0362C244.621 90.7876 244.236 90.6634 243.772 90.6634C243.305 90.6634 242.917 90.7876 242.609 91.0362C242.304 91.2848 242.077 91.6146 241.928 92.0256C241.782 92.4332 241.709 92.8807 241.709 93.3679C241.709 93.8584 241.782 94.3075 241.928 94.7152C242.077 95.1229 242.304 95.4493 242.609 95.6946C242.917 95.9399 243.305 96.0625 243.772 96.0625ZM250.473 86.9744V97.1562H248.986V86.9744H250.473ZM253.959 86.9744V97.1562H252.473V86.9744H253.959Z" fill="#6B7280"/>
<defs>
<linearGradient id="paint0_linear_1382_3156" x1="164.903" y1="28.1563" x2="295.903" y2="28.1563" gradientUnits="userSpaceOnUse">
<stop stop-color="#818CF8"/>
<stop offset="1" stop-color="#5B21B6"/>
</linearGradient>
<linearGradient id="paint1_linear_1382_3156" x1="12.903" y1="92.1562" x2="143.903" y2="92.1562" gradientUnits="userSpaceOnUse">
<stop stop-color="#60A5FA"/>
<stop offset="1" stop-color="#3730A3"/>
</linearGradient>
</defs>
</svg>
