<svg width="1060" height="978" viewBox="0 0 1060 978" fill="none" xmlns="http://www.w3.org/2000/svg">
<path opacity="0.4" d="M697.146 213.188L844.974 469.235L697.146 725.282L401.488 725.282L253.659 469.235L401.488 213.188L697.146 213.188Z" stroke="#CBD5E1"/>
<path opacity="0.4" d="M667.912 264.23L785.95 468.678L667.912 673.126L431.835 673.126L313.797 468.678L431.835 264.23L667.912 264.23Z" stroke="#CBD5E1"/>
<path opacity="0.6" d="M638.678 314.457L728.039 469.236L638.678 624.014L459.955 624.014L370.594 469.236L459.955 314.457L638.678 314.457Z" stroke="#CBD5E1"/>
<path opacity="0.65" d="M609.166 365.573L669.015 469.235L609.166 572.897L489.468 572.897L429.618 469.235L489.468 365.573L609.166 365.573Z" stroke="#CBD5E1"/>
<path opacity="0.7" d="M579.097 417.654L608.877 469.235L579.097 520.816L519.536 520.816L489.756 469.235L519.536 417.654L579.097 417.654Z" stroke="#CBD5E1"/>
<path d="M685.74 166V148.72H701.604V151.624H688.644V155.92H699.084V158.8H688.644V163.096H701.604V166H685.74ZM705.219 166V152.08H716.163C716.739 152.08 717.267 152.232 717.747 152.536C718.243 152.824 718.635 153.208 718.923 153.688C719.211 154.168 719.355 154.704 719.355 155.296V166H716.499V155.392C716.499 155.264 716.451 155.16 716.355 155.08C716.275 154.984 716.179 154.936 716.067 154.936H708.531C708.419 154.936 708.315 154.984 708.219 155.08C708.123 155.16 708.075 155.264 708.075 155.392V166H705.219ZM725.899 166C725.307 166 724.771 165.856 724.291 165.568C723.811 165.264 723.419 164.872 723.115 164.392C722.827 163.912 722.683 163.376 722.683 162.784V155.296C722.683 154.704 722.827 154.168 723.115 153.688C723.419 153.208 723.811 152.824 724.291 152.536C724.771 152.232 725.307 152.08 725.899 152.08H733.603C734.211 152.08 734.755 152.232 735.235 152.536C735.715 152.824 736.099 153.208 736.387 153.688C736.675 154.168 736.819 154.704 736.819 155.296V160.48H725.539V162.688C725.539 162.816 725.579 162.928 725.659 163.024C725.755 163.104 725.867 163.144 725.995 163.144H736.819V166H725.899ZM725.539 157.864H733.963V155.392C733.963 155.264 733.915 155.16 733.819 155.08C733.739 154.984 733.635 154.936 733.507 154.936H725.995C725.867 154.936 725.755 154.984 725.659 155.08C725.579 155.16 725.539 155.264 725.539 155.392V157.864ZM740.383 166V155.296C740.383 154.704 740.527 154.168 740.815 153.688C741.119 153.208 741.511 152.824 741.991 152.536C742.487 152.232 743.023 152.08 743.599 152.08H751.351V154.936H743.695C743.567 154.936 743.455 154.984 743.359 155.08C743.279 155.16 743.239 155.264 743.239 155.392V166H740.383ZM756.258 171.496V168.616H764.73C764.842 168.616 764.938 168.568 765.018 168.472C765.114 168.392 765.162 168.288 765.162 168.16V166H757.098C756.522 166 755.986 165.856 755.49 165.568C755.01 165.264 754.618 164.872 754.314 164.392C754.026 163.912 753.882 163.376 753.882 162.784V155.296C753.882 154.704 754.026 154.168 754.314 153.688C754.618 153.208 755.01 152.824 755.49 152.536C755.986 152.232 756.522 152.08 757.098 152.08H764.826C765.418 152.08 765.954 152.232 766.434 152.536C766.93 152.824 767.314 153.208 767.586 153.688C767.874 154.168 768.018 154.704 768.018 155.296V168.28C768.018 168.872 767.874 169.408 767.586 169.888C767.314 170.384 766.93 170.776 766.434 171.064C765.954 171.352 765.418 171.496 764.826 171.496H756.258ZM757.194 163.144H764.73C764.842 163.144 764.938 163.104 765.018 163.024C765.114 162.928 765.162 162.816 765.162 162.688V155.392C765.162 155.264 765.114 155.16 765.018 155.08C764.938 154.984 764.842 154.936 764.73 154.936H757.194C757.066 154.936 756.954 154.984 756.858 155.08C756.778 155.16 756.738 155.264 756.738 155.392V162.688C756.738 162.816 756.778 162.928 756.858 163.024C756.954 163.104 757.066 163.144 757.194 163.144ZM773.607 171.232V168.352H782.079C782.191 168.352 782.287 168.304 782.367 168.208C782.463 168.128 782.511 168.032 782.511 167.92V166H774.447C773.871 166 773.335 165.856 772.839 165.568C772.359 165.264 771.967 164.872 771.663 164.392C771.375 163.912 771.231 163.376 771.231 162.784V152.128H774.087V162.688C774.087 162.816 774.127 162.928 774.207 163.024C774.303 163.104 774.415 163.144 774.543 163.144H782.079C782.191 163.144 782.287 163.104 782.367 163.024C782.463 162.928 782.511 162.816 782.511 162.688V152.128H785.367V168.016C785.367 168.624 785.223 169.168 784.935 169.648C784.663 170.128 784.279 170.512 783.783 170.8C783.303 171.088 782.767 171.232 782.175 171.232H773.607Z" fill="#CBD5E1"/>
<path d="M892 386.784C892 386.192 892.144 385.648 892.432 385.152C892.72 384.672 893.112 384.288 893.608 384C894.104 383.712 894.648 383.568 895.24 383.568L896.392 383.568L896.392 386.448L895.336 386.448C895.208 386.448 895.104 386.488 895.024 386.568C894.944 386.648 894.904 386.752 894.904 386.88L894.904 397.488C894.904 397.616 894.944 397.72 895.024 397.8C895.104 397.896 895.208 397.944 895.336 397.944L898.768 397.944C898.88 397.944 898.976 397.896 899.056 397.8C899.152 397.72 899.2 397.616 899.2 397.488L899.2 386.784C899.2 386.192 899.344 385.648 899.632 385.152C899.92 384.672 900.304 384.288 900.784 384C901.28 383.712 901.824 383.568 902.416 383.568L906.04 383.568C906.632 383.568 907.176 383.712 907.672 384C908.168 384.288 908.56 384.672 908.848 385.152C909.136 385.648 909.28 386.192 909.28 386.784L909.28 397.608C909.28 398.2 909.136 398.736 908.848 399.216C908.56 399.712 908.168 400.104 907.672 400.392C907.176 400.696 906.632 400.848 906.04 400.848L904.888 400.848L904.888 397.944L905.944 397.944C906.072 397.944 906.176 397.896 906.256 397.8C906.336 397.72 906.376 397.616 906.376 397.488L906.376 386.88C906.376 386.752 906.336 386.648 906.256 386.568C906.176 386.488 906.072 386.448 905.944 386.448L902.512 386.448C902.4 386.448 902.296 386.488 902.2 386.568C902.12 386.648 902.08 386.752 902.08 386.88L902.08 397.608C902.08 398.2 901.936 398.736 901.648 399.216C901.36 399.712 900.968 400.104 900.472 400.392C899.992 400.696 899.456 400.848 898.864 400.848L895.24 400.848C894.648 400.848 894.104 400.696 893.608 400.392C893.112 400.104 892.72 399.712 892.432 399.216C892.144 398.736 892 398.2 892 397.608L892 386.784ZM892 407.741C892 407.149 892.144 406.613 892.432 406.133C892.736 405.653 893.128 405.261 893.608 404.957C894.088 404.669 894.624 404.525 895.216 404.525L902.704 404.525C903.296 404.525 903.832 404.669 904.312 404.957C904.792 405.261 905.176 405.653 905.464 406.133C905.768 406.613 905.92 407.149 905.92 407.741L905.92 415.445C905.92 416.053 905.768 416.597 905.464 417.077C905.176 417.557 904.792 417.941 904.312 418.229C903.832 418.517 903.296 418.661 902.704 418.661L895.216 418.661C894.624 418.661 894.088 418.517 893.608 418.229C893.128 417.941 892.736 417.557 892.432 417.077C892.144 416.597 892 416.053 892 415.445L892 407.741ZM894.856 407.837L894.856 415.349C894.856 415.477 894.896 415.581 894.976 415.661C895.072 415.757 895.184 415.805 895.312 415.805L902.608 415.805C902.736 415.805 902.84 415.757 902.92 415.661C903.016 415.581 903.064 415.477 903.064 415.349L903.064 407.837C903.064 407.709 903.016 407.597 902.92 407.501C902.84 407.421 902.736 407.381 902.608 407.381L895.312 407.381C895.184 407.381 895.072 407.421 894.976 407.501C894.896 407.597 894.856 407.709 894.856 407.837ZM892 425.558C892 424.966 892.144 424.43 892.432 423.95C892.736 423.47 893.128 423.078 893.608 422.774C894.088 422.486 894.624 422.342 895.216 422.342L902.704 422.342C903.296 422.342 903.832 422.486 904.312 422.774C904.792 423.078 905.176 423.47 905.464 423.95C905.768 424.43 905.92 424.966 905.92 425.558L905.92 436.454L903.064 436.454L903.064 425.654C903.064 425.526 903.016 425.414 902.92 425.318C902.84 425.238 902.736 425.198 902.608 425.198L895.312 425.198C895.184 425.198 895.072 425.238 894.976 425.318C894.896 425.414 894.856 425.526 894.856 425.654L894.856 436.478L892 436.478L892 425.558ZM892 440.253L905.92 440.253L905.92 443.109L892 443.109L892 440.253ZM907.6 440.253L910.48 440.253L910.48 443.109L907.6 443.109L907.6 440.253ZM892 449.521C892 448.929 892.144 448.385 892.432 447.889C892.736 447.409 893.128 447.025 893.608 446.737C894.088 446.449 894.624 446.305 895.216 446.305L900.4 446.305L900.4 457.585L902.608 457.585C902.736 457.585 902.84 457.537 902.92 457.441C903.016 457.361 903.064 457.257 903.064 457.129L903.064 446.305L905.92 446.305L905.92 457.225C905.92 457.833 905.768 458.377 905.464 458.857C905.176 459.337 904.792 459.721 904.312 460.009C903.832 460.297 903.296 460.441 902.704 460.441L892 460.441L892 449.521ZM894.856 449.617L894.856 457.585L897.784 457.585L897.784 449.161L895.312 449.161C895.184 449.161 895.072 449.201 894.976 449.281C894.896 449.377 894.856 449.489 894.856 449.617ZM892 466.94C892 466.348 892.144 465.812 892.432 465.332C892.736 464.852 893.128 464.46 893.608 464.156C894.088 463.868 894.624 463.724 895.216 463.724L910.504 463.724L910.504 466.604L895.312 466.604C895.184 466.604 895.072 466.644 894.976 466.724C894.896 466.82 894.856 466.924 894.856 467.036L894.856 469.628L892 469.628L892 466.94ZM892 475.851C892 475.259 892.144 474.715 892.432 474.219C892.736 473.739 893.128 473.355 893.608 473.067C894.088 472.779 894.624 472.635 895.216 472.635L900.4 472.635L900.4 483.915L902.608 483.915C902.736 483.915 902.84 483.867 902.92 483.771C903.016 483.691 903.064 483.587 903.064 483.459L903.064 472.635L905.92 472.635L905.92 483.555C905.92 484.163 905.768 484.707 905.464 485.187C905.176 485.667 904.792 486.051 904.312 486.339C903.832 486.627 903.296 486.771 902.704 486.771L892 486.771L892 475.851ZM894.856 475.947L894.856 483.915L897.784 483.915L897.784 475.491L895.312 475.491C895.184 475.491 895.072 475.531 894.976 475.611C894.896 475.707 894.856 475.819 894.856 475.947ZM892 489.891L910.48 489.891L910.48 492.747L905.92 492.747L905.92 500.835C905.92 501.411 905.768 501.939 905.464 502.419C905.176 502.915 904.792 503.307 904.312 503.595C903.832 503.883 903.296 504.027 902.704 504.027L895.216 504.027C894.624 504.027 894.088 503.883 893.608 503.595C893.128 503.307 892.736 502.915 892.432 502.419C892.144 501.939 892 501.411 892 500.835L892 489.891ZM894.856 493.203L894.856 500.739C894.856 500.851 894.896 500.947 894.976 501.027C895.072 501.123 895.184 501.171 895.312 501.171L902.608 501.171C902.736 501.171 902.84 501.123 902.92 501.027C903.016 500.947 903.064 500.851 903.064 500.739L903.064 493.203C903.064 493.091 903.016 492.987 902.92 492.891C902.84 492.795 902.736 492.747 902.608 492.747L895.312 492.747C895.184 492.747 895.072 492.795 894.976 492.891C894.896 492.987 894.856 493.091 894.856 493.203ZM892 507.05L905.92 507.05L905.92 509.906L892 509.906L892 507.05ZM907.6 507.05L910.48 507.05L910.48 509.906L907.6 509.906L907.6 507.05ZM892 517.091C892 516.499 892.144 515.963 892.432 515.483C892.736 515.003 893.128 514.611 893.608 514.307C894.088 514.019 894.624 513.875 895.216 513.875L910.504 513.875L910.504 516.755L895.312 516.755C895.184 516.755 895.072 516.795 894.976 516.875C894.896 516.971 894.856 517.075 894.856 517.187L894.856 519.779L892 519.779L892 517.091ZM892 523.138L905.92 523.138L905.92 525.994L892 525.994L892 523.138ZM907.6 523.138L910.48 523.138L910.48 525.994L907.6 525.994L907.6 523.138ZM892 533.086C892 532.494 892.144 531.95 892.432 531.454C892.736 530.974 893.128 530.59 893.608 530.302C894.088 530.014 894.624 529.87 895.216 529.87L910.264 529.87L910.264 532.726L905.92 532.726L905.92 538.294L903.064 538.294L903.064 532.726L895.312 532.726C895.184 532.726 895.072 532.766 894.976 532.846C894.896 532.942 894.856 533.054 894.856 533.182L894.856 538.294L892 538.294L892 533.086ZM886.768 543.658L889.648 543.658L889.648 552.13C889.648 552.242 889.696 552.338 889.792 552.418C889.872 552.514 889.968 552.562 890.08 552.562L892 552.562L892 544.498C892 543.922 892.144 543.386 892.432 542.89C892.736 542.41 893.128 542.018 893.608 541.714C894.088 541.426 894.624 541.282 895.216 541.282L905.872 541.282L905.872 544.138L895.312 544.138C895.184 544.138 895.072 544.178 894.976 544.258C894.896 544.354 894.856 544.466 894.856 544.594L894.856 552.13C894.856 552.242 894.896 552.338 894.976 552.418C895.072 552.514 895.184 552.562 895.312 552.562L905.872 552.562L905.872 555.418L889.984 555.418C889.376 555.418 888.832 555.274 888.352 554.986C887.872 554.714 887.488 554.33 887.2 553.834C886.912 553.354 886.768 552.818 886.768 552.226L886.768 543.658Z" fill="#CBD5E1"/>
<path d="M639.813 791V773.72H643.101L649.581 781.448L656.037 773.72H659.349V791H656.445V777.752L649.581 785.936L642.693 777.776V791H639.813ZM666.281 791C665.689 791 665.145 790.856 664.649 790.568C664.169 790.264 663.785 789.872 663.497 789.392C663.209 788.912 663.065 788.376 663.065 787.784V782.6H674.345V780.392C674.345 780.264 674.297 780.16 674.201 780.08C674.121 779.984 674.017 779.936 673.889 779.936H663.065V777.08H673.985C674.593 777.08 675.137 777.232 675.617 777.536C676.097 777.824 676.481 778.208 676.769 778.688C677.057 779.168 677.201 779.704 677.201 780.296V791H666.281ZM666.377 788.144H674.345V785.216H665.921V787.688C665.921 787.816 665.961 787.928 666.041 788.024C666.137 788.104 666.249 788.144 666.377 788.144ZM680.929 791V777.08H683.785V791H680.929ZM680.929 775.4V772.52H683.785V775.4H680.929ZM687.779 791V777.08H698.723C699.299 777.08 699.827 777.232 700.307 777.536C700.803 777.824 701.195 778.208 701.483 778.688C701.771 779.168 701.915 779.704 701.915 780.296V791H699.059V780.392C699.059 780.264 699.011 780.16 698.915 780.08C698.835 779.984 698.739 779.936 698.627 779.936H691.091C690.979 779.936 690.875 779.984 690.779 780.08C690.683 780.16 690.635 780.264 690.635 780.392V791H687.779ZM708.882 791C708.29 791 707.746 790.856 707.25 790.568C706.77 790.264 706.386 789.872 706.098 789.392C705.81 788.912 705.666 788.376 705.666 787.784V772.736H708.522V777.08H714.09V779.936H708.522V787.688C708.522 787.816 708.562 787.928 708.642 788.024C708.738 788.104 708.85 788.144 708.978 788.144H714.09V791H708.882ZM720.393 791C719.801 791 719.265 790.856 718.785 790.568C718.305 790.264 717.913 789.872 717.609 789.392C717.321 788.912 717.177 788.376 717.177 787.784V780.296C717.177 779.704 717.321 779.168 717.609 778.688C717.913 778.208 718.305 777.824 718.785 777.536C719.265 777.232 719.801 777.08 720.393 777.08H728.097C728.705 777.08 729.249 777.232 729.729 777.536C730.209 777.824 730.593 778.208 730.881 778.688C731.169 779.168 731.313 779.704 731.313 780.296V785.48H720.033V787.688C720.033 787.816 720.073 787.928 720.153 788.024C720.249 788.104 720.361 788.144 720.489 788.144H731.313V791H720.393ZM720.033 782.864H728.457V780.392C728.457 780.264 728.409 780.16 728.313 780.08C728.233 779.984 728.129 779.936 728.001 779.936H720.489C720.361 779.936 720.249 779.984 720.153 780.08C720.073 780.16 720.033 780.264 720.033 780.392V782.864ZM735.066 791V777.08H746.01C746.586 777.08 747.114 777.232 747.594 777.536C748.09 777.824 748.482 778.208 748.77 778.688C749.058 779.168 749.202 779.704 749.202 780.296V791H746.346V780.392C746.346 780.264 746.298 780.16 746.202 780.08C746.122 779.984 746.026 779.936 745.914 779.936H738.378C738.266 779.936 738.162 779.984 738.066 780.08C737.97 780.16 737.922 780.264 737.922 780.392V791H735.066ZM756.145 791C755.553 791 755.009 790.856 754.513 790.568C754.033 790.264 753.649 789.872 753.361 789.392C753.073 788.912 752.929 788.376 752.929 787.784V782.6H764.209V780.392C764.209 780.264 764.161 780.16 764.065 780.08C763.985 779.984 763.881 779.936 763.753 779.936H752.929V777.08H763.849C764.457 777.08 765.001 777.232 765.481 777.536C765.961 777.824 766.345 778.208 766.633 778.688C766.921 779.168 767.065 779.704 767.065 780.296V791H756.145ZM756.241 788.144H764.209V785.216H755.785V787.688C755.785 787.816 755.825 787.928 755.905 788.024C756.001 788.104 756.113 788.144 756.241 788.144ZM770.56 791V777.08H781.504C782.08 777.08 782.608 777.232 783.088 777.536C783.584 777.824 783.976 778.208 784.264 778.688C784.552 779.168 784.696 779.704 784.696 780.296V791H781.84V780.392C781.84 780.264 781.792 780.16 781.696 780.08C781.616 779.984 781.52 779.936 781.408 779.936H773.872C773.76 779.936 773.656 779.984 773.56 780.08C773.464 780.16 773.416 780.264 773.416 780.392V791H770.56ZM791.076 791C790.484 791 789.948 790.856 789.468 790.568C788.988 790.264 788.596 789.872 788.292 789.392C788.004 788.912 787.86 788.376 787.86 787.784V780.296C787.86 779.704 788.004 779.168 788.292 778.688C788.596 778.208 788.988 777.824 789.468 777.536C789.948 777.232 790.484 777.08 791.076 777.08H801.972V779.936H791.172C791.044 779.936 790.932 779.984 790.836 780.08C790.756 780.16 790.716 780.264 790.716 780.392V787.688C790.716 787.816 790.756 787.928 790.836 788.024C790.932 788.104 791.044 788.144 791.172 788.144H801.996V791H791.076ZM808.354 791C807.762 791 807.226 790.856 806.746 790.568C806.266 790.264 805.874 789.872 805.57 789.392C805.282 788.912 805.138 788.376 805.138 787.784V780.296C805.138 779.704 805.282 779.168 805.57 778.688C805.874 778.208 806.266 777.824 806.746 777.536C807.226 777.232 807.762 777.08 808.354 777.08H816.058C816.666 777.08 817.21 777.232 817.69 777.536C818.17 777.824 818.554 778.208 818.842 778.688C819.13 779.168 819.274 779.704 819.274 780.296V785.48H807.994V787.688C807.994 787.816 808.034 787.928 808.114 788.024C808.21 788.104 808.322 788.144 808.45 788.144H819.274V791H808.354ZM807.994 782.864H816.418V780.392C816.418 780.264 816.37 780.16 816.274 780.08C816.194 779.984 816.09 779.936 815.962 779.936H808.45C808.322 779.936 808.21 779.984 808.114 780.08C808.034 780.16 807.994 780.264 807.994 780.392V782.864Z" fill="#CBD5E1"/>
<path d="M289.6 791V776.96C289.6 776.368 289.744 775.824 290.032 775.328C290.32 774.832 290.712 774.44 291.208 774.152C291.704 773.864 292.248 773.72 292.84 773.72H303.64C304.232 773.72 304.768 773.864 305.248 774.152C305.744 774.44 306.136 774.832 306.424 775.328C306.728 775.824 306.88 776.368 306.88 776.96V791H303.976V785.072H292.48V791H289.6ZM292.48 782.192H303.976V777.056C303.976 776.928 303.928 776.824 303.832 776.744C303.752 776.664 303.656 776.624 303.544 776.624H292.912C292.8 776.624 292.696 776.664 292.6 776.744C292.52 776.824 292.48 776.928 292.48 777.056V782.192ZM310.742 791V775.736C310.742 775.144 310.886 774.608 311.174 774.128C311.462 773.632 311.846 773.24 312.326 772.952C312.822 772.664 313.366 772.52 313.958 772.52H319.166V775.4H314.054C313.926 775.4 313.814 775.448 313.718 775.544C313.638 775.624 313.598 775.72 313.598 775.832V777.08H319.166V779.936H313.598V791H310.742ZM322.114 791V775.736C322.114 775.144 322.258 774.608 322.546 774.128C322.834 773.632 323.218 773.24 323.698 772.952C324.194 772.664 324.738 772.52 325.33 772.52H330.538V775.4H325.426C325.298 775.4 325.186 775.448 325.09 775.544C325.01 775.624 324.97 775.72 324.97 775.832V777.08H330.538V779.936H324.97V791H322.114ZM336.654 791C336.062 791 335.526 790.856 335.046 790.568C334.566 790.264 334.174 789.872 333.87 789.392C333.582 788.912 333.438 788.376 333.438 787.784V780.296C333.438 779.704 333.582 779.168 333.87 778.688C334.174 778.208 334.566 777.824 335.046 777.536C335.526 777.232 336.062 777.08 336.654 777.08H344.358C344.966 777.08 345.51 777.232 345.99 777.536C346.47 777.824 346.854 778.208 347.142 778.688C347.43 779.168 347.574 779.704 347.574 780.296V785.48H336.294V787.688C336.294 787.816 336.334 787.928 336.414 788.024C336.51 788.104 336.622 788.144 336.75 788.144H347.574V791H336.654ZM336.294 782.864H344.718V780.392C344.718 780.264 344.67 780.16 344.574 780.08C344.494 779.984 344.39 779.936 344.262 779.936H336.75C336.622 779.936 336.51 779.984 336.414 780.08C336.334 780.16 336.294 780.264 336.294 780.392V782.864ZM353.932 791C353.34 791 352.804 790.856 352.324 790.568C351.844 790.264 351.452 789.872 351.148 789.392C350.86 788.912 350.716 788.376 350.716 787.784V780.296C350.716 779.704 350.86 779.168 351.148 778.688C351.452 778.208 351.844 777.824 352.324 777.536C352.804 777.232 353.34 777.08 353.932 777.08H364.828V779.936H354.028C353.9 779.936 353.788 779.984 353.692 780.08C353.612 780.16 353.572 780.264 353.572 780.392V787.688C353.572 787.816 353.612 787.928 353.692 788.024C353.788 788.104 353.9 788.144 354.028 788.144H364.852V791H353.932ZM371.235 791C370.643 791 370.099 790.856 369.603 790.568C369.123 790.264 368.739 789.872 368.451 789.392C368.163 788.912 368.019 788.376 368.019 787.784V772.736H370.875V777.08H376.443V779.936H370.875V787.688C370.875 787.816 370.915 787.928 370.995 788.024C371.091 788.104 371.203 788.144 371.331 788.144H376.443V791H371.235ZM379.601 791V777.08H382.457V791H379.601ZM379.601 775.4V772.52H382.457V775.4H379.601ZM389.243 791C388.651 791 388.115 790.856 387.635 790.568C387.155 790.264 386.763 789.872 386.459 789.392C386.171 788.912 386.027 788.376 386.027 787.784V780.296C386.027 779.704 386.171 779.168 386.459 778.688C386.763 778.208 387.155 777.824 387.635 777.536C388.115 777.232 388.651 777.08 389.243 777.08H396.947C397.555 777.08 398.099 777.232 398.579 777.536C399.059 777.824 399.443 778.208 399.731 778.688C400.019 779.168 400.163 779.704 400.163 780.296V787.784C400.163 788.376 400.019 788.912 399.731 789.392C399.443 789.872 399.059 790.264 398.579 790.568C398.099 790.856 397.555 791 396.947 791H389.243ZM389.339 788.144H396.851C396.979 788.144 397.083 788.104 397.163 788.024C397.259 787.928 397.307 787.816 397.307 787.688V780.392C397.307 780.264 397.259 780.16 397.163 780.08C397.083 779.984 396.979 779.936 396.851 779.936H389.339C389.211 779.936 389.099 779.984 389.003 780.08C388.923 780.16 388.883 780.264 388.883 780.392V787.688C388.883 787.816 388.923 787.928 389.003 788.024C389.099 788.104 389.211 788.144 389.339 788.144ZM403.377 791V777.08H414.321C414.897 777.08 415.425 777.232 415.905 777.536C416.401 777.824 416.793 778.208 417.081 778.688C417.369 779.168 417.513 779.704 417.513 780.296V791H414.657V780.392C414.657 780.264 414.609 780.16 414.513 780.08C414.433 779.984 414.337 779.936 414.225 779.936H406.689C406.577 779.936 406.473 779.984 406.377 780.08C406.281 780.16 406.233 780.264 406.233 780.392V791H403.377Z" fill="#CBD5E1"/>
<path d="M184 517.836L166.72 527.844L166.72 524.484L180.616 516.492L166.72 508.476L166.72 505.14L184 515.148L184 517.836ZM184 499.958C184 500.55 183.856 501.086 183.568 501.566C183.264 502.046 182.872 502.438 182.392 502.742C181.912 503.03 181.376 503.174 180.784 503.174L173.296 503.174C172.704 503.174 172.168 503.03 171.688 502.742C171.208 502.438 170.824 502.046 170.536 501.566C170.232 501.086 170.08 500.55 170.08 499.958L170.08 492.254C170.08 491.646 170.232 491.102 170.536 490.622C170.824 490.142 171.208 489.758 171.688 489.47C172.168 489.182 172.704 489.038 173.296 489.038L180.784 489.038C181.376 489.038 181.912 489.182 182.392 489.47C182.872 489.758 183.264 490.142 183.568 490.622C183.856 491.102 184 491.646 184 492.254L184 499.958ZM181.144 499.862L181.144 492.35C181.144 492.222 181.104 492.118 181.024 492.038C180.928 491.942 180.816 491.894 180.688 491.894L173.392 491.894C173.264 491.894 173.16 491.942 173.08 492.038C172.984 492.118 172.936 492.222 172.936 492.35L172.936 499.862C172.936 499.99 172.984 500.102 173.08 500.198C173.16 500.278 173.264 500.318 173.392 500.318L180.688 500.318C180.816 500.318 180.928 500.278 181.024 500.198C181.104 500.102 181.144 499.99 181.144 499.862ZM184 482.141C184 482.733 183.856 483.269 183.568 483.749C183.264 484.229 182.872 484.621 182.392 484.925C181.912 485.213 181.376 485.357 180.784 485.357L173.296 485.357C172.704 485.357 172.168 485.213 171.688 484.925C171.208 484.621 170.824 484.229 170.536 483.749C170.232 483.269 170.08 482.733 170.08 482.141L170.08 471.245L172.936 471.245L172.936 482.045C172.936 482.173 172.984 482.285 173.08 482.381C173.16 482.461 173.264 482.501 173.392 482.501L180.688 482.501C180.816 482.501 180.928 482.461 181.024 482.381C181.104 482.285 181.144 482.173 181.144 482.045L181.144 471.221L184 471.221L184 482.141ZM184 464.347C184 464.939 183.856 465.483 183.568 465.979C183.264 466.459 182.872 466.843 182.392 467.131C181.912 467.419 181.376 467.563 180.784 467.563L175.6 467.563L175.6 456.283L173.392 456.283C173.264 456.283 173.16 456.331 173.08 456.427C172.984 456.507 172.936 456.611 172.936 456.739L172.936 467.563L170.08 467.563L170.08 456.643C170.08 456.035 170.232 455.491 170.536 455.011C170.824 454.531 171.208 454.147 171.688 453.859C172.168 453.571 172.704 453.427 173.296 453.427L184 453.427L184 464.347ZM181.144 464.251L181.144 456.283L178.216 456.283L178.216 464.707L180.688 464.707C180.816 464.707 180.928 464.667 181.024 464.587C181.104 464.491 181.144 464.379 181.144 464.251ZM184 446.928C184 447.52 183.856 448.056 183.568 448.536C183.264 449.016 182.872 449.408 182.392 449.712C181.912 450 181.376 450.144 180.784 450.144L165.496 450.144L165.496 447.264L180.688 447.264C180.816 447.264 180.928 447.224 181.024 447.144C181.104 447.048 181.144 446.944 181.144 446.832L181.144 444.24L184 444.24L184 446.928ZM184 440.882L170.08 440.882L170.08 438.026L184 438.026L184 440.882ZM168.4 440.882L165.52 440.882L165.52 438.026L168.4 438.026L168.4 440.882ZM184 430.934C184 431.526 183.856 432.07 183.568 432.566C183.264 433.046 182.872 433.43 182.392 433.718C181.912 434.006 181.376 434.15 180.784 434.15L165.736 434.15L165.736 431.294L170.08 431.294L170.08 425.726L172.936 425.726L172.936 431.294L180.688 431.294C180.816 431.294 180.928 431.254 181.024 431.174C181.104 431.078 181.144 430.966 181.144 430.838L181.144 425.726L184 425.726L184 430.934ZM189.232 420.361L186.352 420.361L186.352 411.889C186.352 411.777 186.304 411.681 186.208 411.601C186.128 411.505 186.032 411.457 185.92 411.457L184 411.457L184 419.521C184 420.097 183.856 420.633 183.568 421.129C183.264 421.609 182.872 422.001 182.392 422.305C181.912 422.593 181.376 422.737 180.784 422.737L170.128 422.737L170.128 419.881L180.688 419.881C180.816 419.881 180.928 419.841 181.024 419.761C181.104 419.665 181.144 419.553 181.144 419.425L181.144 411.889C181.144 411.777 181.104 411.681 181.024 411.601C180.928 411.505 180.816 411.457 180.688 411.457L170.128 411.457L170.128 408.601L186.016 408.601C186.624 408.601 187.168 408.745 187.648 409.033C188.128 409.305 188.512 409.689 188.8 410.185C189.088 410.665 189.232 411.201 189.232 411.793L189.232 420.361Z" fill="#CBD5E1"/>
<path d="M304.513 167V149.72H307.369V167H304.513ZM311.248 167V153.08H322.192C322.768 153.08 323.296 153.232 323.776 153.536C324.272 153.824 324.664 154.208 324.952 154.688C325.24 155.168 325.384 155.704 325.384 156.296V167H322.528V156.392C322.528 156.264 322.48 156.16 322.384 156.08C322.304 155.984 322.208 155.936 322.096 155.936H314.56C314.448 155.936 314.344 155.984 314.248 156.08C314.152 156.16 314.104 156.264 314.104 156.392V167H311.248ZM332.351 167C331.759 167 331.215 166.856 330.719 166.568C330.239 166.264 329.855 165.872 329.567 165.392C329.279 164.912 329.135 164.376 329.135 163.784V148.736H331.991V153.08H337.559V155.936H331.991V163.688C331.991 163.816 332.031 163.928 332.111 164.024C332.207 164.104 332.319 164.144 332.447 164.144H337.559V167H332.351ZM343.862 167C343.27 167 342.734 166.856 342.254 166.568C341.774 166.264 341.382 165.872 341.078 165.392C340.79 164.912 340.646 164.376 340.646 163.784V156.296C340.646 155.704 340.79 155.168 341.078 154.688C341.382 154.208 341.774 153.824 342.254 153.536C342.734 153.232 343.27 153.08 343.862 153.08H351.566C352.174 153.08 352.718 153.232 353.198 153.536C353.678 153.824 354.062 154.208 354.35 154.688C354.638 155.168 354.782 155.704 354.782 156.296V161.48H343.502V163.688C343.502 163.816 343.542 163.928 343.622 164.024C343.718 164.104 343.83 164.144 343.958 164.144H354.782V167H343.862ZM343.502 158.864H351.926V156.392C351.926 156.264 351.878 156.16 351.782 156.08C351.702 155.984 351.598 155.936 351.47 155.936H343.958C343.83 155.936 343.718 155.984 343.622 156.08C343.542 156.16 343.502 156.264 343.502 156.392V158.864ZM361.164 167C360.572 167 360.036 166.856 359.556 166.568C359.076 166.264 358.684 165.872 358.38 165.392C358.092 164.912 357.948 164.376 357.948 163.784V148.496H360.828V163.688C360.828 163.816 360.868 163.928 360.948 164.024C361.044 164.104 361.148 164.144 361.26 164.144H363.852V167H361.164ZM370.169 167C369.577 167 369.041 166.856 368.561 166.568C368.081 166.264 367.689 165.872 367.385 165.392C367.097 164.912 366.953 164.376 366.953 163.784V148.496H369.833V163.688C369.833 163.816 369.873 163.928 369.953 164.024C370.049 164.104 370.153 164.144 370.265 164.144H372.857V167H370.169ZM376.215 167V153.08H379.071V167H376.215ZM376.215 151.4V148.52H379.071V151.4H376.215ZM384.777 172.496V169.616H393.249C393.361 169.616 393.457 169.568 393.537 169.472C393.633 169.392 393.681 169.288 393.681 169.16V167H385.617C385.041 167 384.505 166.856 384.009 166.568C383.529 166.264 383.137 165.872 382.833 165.392C382.545 164.912 382.401 164.376 382.401 163.784V156.296C382.401 155.704 382.545 155.168 382.833 154.688C383.137 154.208 383.529 153.824 384.009 153.536C384.505 153.232 385.041 153.08 385.617 153.08H393.345C393.937 153.08 394.473 153.232 394.953 153.536C395.449 153.824 395.833 154.208 396.105 154.688C396.393 155.168 396.537 155.704 396.537 156.296V169.28C396.537 169.872 396.393 170.408 396.105 170.888C395.833 171.384 395.449 171.776 394.953 172.064C394.473 172.352 393.937 172.496 393.345 172.496H384.777ZM385.713 164.144H393.249C393.361 164.144 393.457 164.104 393.537 164.024C393.633 163.928 393.681 163.816 393.681 163.688V156.392C393.681 156.264 393.633 156.16 393.537 156.08C393.457 155.984 393.361 155.936 393.249 155.936H385.713C385.585 155.936 385.473 155.984 385.377 156.08C385.297 156.16 385.257 156.264 385.257 156.392V163.688C385.257 163.816 385.297 163.928 385.377 164.024C385.473 164.104 385.585 164.144 385.713 164.144ZM402.995 167C402.403 167 401.867 166.856 401.387 166.568C400.907 166.264 400.515 165.872 400.211 165.392C399.923 164.912 399.779 164.376 399.779 163.784V156.296C399.779 155.704 399.923 155.168 400.211 154.688C400.515 154.208 400.907 153.824 401.387 153.536C401.867 153.232 402.403 153.08 402.995 153.08H410.699C411.307 153.08 411.851 153.232 412.331 153.536C412.811 153.824 413.195 154.208 413.483 154.688C413.771 155.168 413.915 155.704 413.915 156.296V161.48H402.635V163.688C402.635 163.816 402.675 163.928 402.755 164.024C402.851 164.104 402.963 164.144 403.091 164.144H413.915V167H402.995ZM402.635 158.864H411.059V156.392C411.059 156.264 411.011 156.16 410.915 156.08C410.835 155.984 410.731 155.936 410.603 155.936H403.091C402.963 155.936 402.851 155.984 402.755 156.08C402.675 156.16 402.635 156.264 402.635 156.392V158.864ZM417.668 167V153.08H428.612C429.188 153.08 429.716 153.232 430.196 153.536C430.692 153.824 431.084 154.208 431.372 154.688C431.66 155.168 431.804 155.704 431.804 156.296V167H428.948V156.392C428.948 156.264 428.9 156.16 428.804 156.08C428.724 155.984 428.628 155.936 428.516 155.936H420.98C420.868 155.936 420.764 155.984 420.668 156.08C420.572 156.16 420.524 156.264 420.524 156.392V167H417.668ZM438.184 167C437.592 167 437.056 166.856 436.576 166.568C436.096 166.264 435.704 165.872 435.4 165.392C435.112 164.912 434.968 164.376 434.968 163.784V156.296C434.968 155.704 435.112 155.168 435.4 154.688C435.704 154.208 436.096 153.824 436.576 153.536C437.056 153.232 437.592 153.08 438.184 153.08H449.08V155.936H438.28C438.152 155.936 438.04 155.984 437.944 156.08C437.864 156.16 437.824 156.264 437.824 156.392V163.688C437.824 163.816 437.864 163.928 437.944 164.024C438.04 164.104 438.152 164.144 438.28 164.144H449.104V167H438.184ZM455.462 167C454.87 167 454.334 166.856 453.854 166.568C453.374 166.264 452.982 165.872 452.678 165.392C452.39 164.912 452.246 164.376 452.246 163.784V156.296C452.246 155.704 452.39 155.168 452.678 154.688C452.982 154.208 453.374 153.824 453.854 153.536C454.334 153.232 454.87 153.08 455.462 153.08H463.166C463.774 153.08 464.318 153.232 464.798 153.536C465.278 153.824 465.662 154.208 465.95 154.688C466.238 155.168 466.382 155.704 466.382 156.296V161.48H455.102V163.688C455.102 163.816 455.142 163.928 455.222 164.024C455.318 164.104 455.43 164.144 455.558 164.144H466.382V167H455.462ZM455.102 158.864H463.526V156.392C463.526 156.264 463.478 156.16 463.382 156.08C463.302 155.984 463.198 155.936 463.07 155.936H455.558C455.43 155.936 455.318 155.984 455.222 156.08C455.142 156.16 455.102 156.264 455.102 156.392V158.864Z" fill="#CBD5E1"/>
<line x1="277.433" y1="0.749181" x2="836.433" y2="964.749" stroke="#CBD5E1"/>
<line x1="818.432" y1="6.25146" x2="253.432" y2="977.251" stroke="#CBD5E1"/>
<line y1="468.5" x2="1057" y2="468.5" stroke="#CBD5E1"/>
<rect width="1060" height="964" transform="translate(0 1)" fill="url(#paint0_radial_1324_2563)"/>
<defs>
<radialGradient id="paint0_radial_1324_2563" cx="0" cy="0" r="1" gradientUnits="userSpaceOnUse" gradientTransform="translate(530 460.5) rotate(90) scale(503.5 530)">
<stop offset="0.515625" stop-color="#F1F5F9" stop-opacity="0"/>
<stop offset="1" stop-color="#F1F5F9" stop-opacity="0.9"/>
</radialGradient>
</defs>
</svg>
