<svg width="60" height="60" viewBox="0 0 60 60" fill="none" xmlns="http://www.w3.org/2000/svg">
<g clip-path="url(#clip0_1382_3909)">
<path d="M56.087 11.7391V7.82613H52.1739V3.91301H48.2609V0H23.4783V3.91301H19.5653V7.82613H15.6521V11.7391H11.7391V40.4347H7.82613V44.3479H3.91301V48.2609H0V56.087H3.91301V60H11.7391V56.087H15.6521V52.1739H19.5653V48.2609H48.2609V44.3479H52.1739V40.4347H56.087V36.5217H60V11.7391H56.087Z" fill="#FF52A0"/>
<path d="M23.4783 0V3.91301H19.5653V7.82613H15.6522V11.7391H11.7391V15.6521H15.6522H19.5653V11.7391H23.4783V7.82613H27.3913V3.91301V0H23.4783Z" fill="white"/>
<path d="M11.7391 36.5215V40.4345H7.82613V44.3476H3.91301V48.2606H0V52.1736H3.91301H7.82613V48.2606H11.7391V44.3476H15.6521V40.4345V36.5215H11.7391Z" fill="white"/>
<path d="M3.91301 48.2617H0V56.0879H3.91301V48.2617Z" fill="black"/>
<path d="M15.6522 36.5209V11.7383H11.7391V36.5209V40.4339H15.6522V36.5209Z" fill="black"/>
<path d="M11.7391 40.4355H7.82613V44.3486H11.7391V40.4355Z" fill="black"/>
<path d="M7.82602 44.3477H3.91301V48.2607H7.82602V44.3477Z" fill="black"/>
<path d="M11.7391 56.0879H3.91301V60.0009H11.7391V56.0879Z" fill="black"/>
<path d="M19.5653 44.3477V48.2607H23.4783H48.2609V44.3477H23.4783H19.5653Z" fill="black"/>
<path d="M19.5652 48.2617H15.6521V52.1747H19.5652V48.2617Z" fill="black"/>
<path d="M15.6522 52.1738H11.7391V56.0868H15.6522V52.1738Z" fill="black"/>
<path d="M60 11.7383H56.087V36.5209H60V11.7383Z" fill="black"/>
<path d="M48.2609 0H23.4783V3.91301H48.2609V0Z" fill="black"/>
<path d="M19.5652 7.82617H15.6521V11.7392H19.5652V7.82617Z" fill="black"/>
<path d="M23.4783 3.91211H19.5653V7.82512H23.4783V3.91211Z" fill="black"/>
<path d="M52.1739 3.91211H48.2609V7.82512H52.1739V3.91211Z" fill="black"/>
<path d="M56.0869 7.82617H52.1739V11.7392H56.0869V7.82617Z" fill="black"/>
<path d="M56.0869 36.5215H52.1739V40.4345H56.0869V36.5215Z" fill="black"/>
<path d="M52.1739 40.4355H48.2609V44.3486H52.1739V40.4355Z" fill="black"/>
<path d="M52.1739 15.6522H48.2609V11.7392H44.3479V7.82617H27.3913V11.7392H23.4783V15.6522H19.5653V32.6088H23.4783V36.5218H27.3913V40.4348H44.3479V36.5218H48.2609V32.6088H52.1739V15.6522Z" fill="#83C9FF"/>
<path d="M27.3913 7.82617V11.7392H23.4783V15.6522H19.5653V19.5653H23.4783H27.3913V15.6522H31.3043V11.7392V7.82617H27.3913Z" fill="white"/>
<path d="M23.4783 15.6523H19.5653V32.6089H23.4783V15.6523Z" fill="black"/>
<path d="M44.3479 7.82617H27.3913V11.7392H44.3479V7.82617Z" fill="black"/>
<path d="M44.3479 36.5215H27.3913V40.4345H44.3479V36.5215Z" fill="black"/>
<path d="M52.1739 15.6523H48.2609V32.6089H52.1739V15.6523Z" fill="black"/>
<path d="M27.3913 11.7383H23.4783V15.6513H27.3913V11.7383Z" fill="black"/>
<path d="M27.3913 32.6094H23.4783V36.5224H27.3913V32.6094Z" fill="black"/>
<path d="M48.2609 11.7383H44.3479V15.6513H48.2609V11.7383Z" fill="black"/>
<path d="M48.2609 32.6094H44.3479V36.5224H48.2609V32.6094Z" fill="black"/>
</g>
<defs>
<clipPath id="clip0_1382_3909">
<rect width="60" height="60" fill="white"/>
</clipPath>
</defs>
</svg>
