<svg width="537" height="1078" viewBox="0 0 537 1078" fill="none" xmlns="http://www.w3.org/2000/svg">
<path d="M246.341 0H244.594V222.638L61.1485 383.785V477.403L246.341 314.722V0Z" fill="black"/>
<path d="M240.226 333.397L360.776 227.5V316.602L240.226 422.499V333.397Z" fill="black"/>
<path d="M0.873551 547.004L221.882 352.86V441.962L0 636.873V347.969H0.873551V547.004Z" fill="black"/>
<path d="M119 548.746L154 518V594.872L119 625.618V548.746Z" fill="black"/>
<path d="M352.63 339.897L248 430.943V520.045L441 355.569L352.63 339.897Z" fill="black"/>
<path d="M41.9304 711.785L210.526 563.684V643.177L41.9304 791.279V711.785Z" fill="black"/>
<path d="M450.595 360L249 537.091V616.584L450.595 439.493V360Z" fill="black"/>
<path d="M114.435 743.532L289.145 590.058V679.161L114.435 832.634V743.532Z" fill="black"/>
<path d="M339.811 651.912L180 792.298V881.4L339.811 741.014V651.912Z" fill="black"/>
<path d="M75 988.692L343.305 753.001V830.501L532.685 664.141L533 532L537 532.01L536 951.503L532 951.494L532.472 753.43L323.214 937.253V859.752L75 1077.79V988.692Z" fill="black"/>
<path d="M390.128 509.058L301.375 587.023V676.125L390.128 598.16V509.058Z" fill="black"/>
<path d="M425.873 472.681L532.866 378.693V467.795L425.873 561.783V472.681Z" fill="black"/>
<path d="M479 528.767L350.294 641.828V732.35L479 619.288V528.767Z" fill="black"/>
</svg>
