<svg width="619" height="912" viewBox="0 0 619 912" fill="none" xmlns="http://www.w3.org/2000/svg">
<rect width="327.007" height="100.544" transform="matrix(0.751292 -0.65997 0 1 28.3223 331.316)" fill="#E01C7A"/>
<rect width="327.007" height="100.544" transform="matrix(0.751292 -0.65997 0 1 28.3223 331.316)" stroke="#FE4B4B"/>
<rect width="359.381" height="100.544" transform="matrix(0.751292 -0.65997 0 1 0 243.674)" fill="#E01C7A"/>
<rect width="359.381" height="100.544" transform="matrix(0.751292 -0.65997 0 1 0 243.674)" stroke="#FE4B4B"/>
<rect width="206.311" height="86.85" transform="matrix(0.751292 -0.65997 0 1 5 468.046)" fill="#E01C7A"/>
<rect width="206.311" height="86.85" transform="matrix(0.751292 -0.65997 0 1 5 468.046)" stroke="#FE4B4B"/>
<rect width="395.499" height="100.544" transform="matrix(0.751292 -0.65997 0 1 240 261.017)" fill="#E01C7A"/>
<rect width="395.499" height="100.544" transform="matrix(0.751292 -0.65997 0 1 240 261.017)" stroke="#FE4B4B"/>
<rect width="244.911" height="100.544" transform="matrix(0.751292 -0.65997 0 1 297 323.469)" fill="#E01C7A"/>
<rect width="244.911" height="100.544" transform="matrix(0.751292 -0.65997 0 1 297 323.469)" stroke="#FE4B4B"/>
<rect width="114.469" height="89.985" transform="matrix(0.751292 -0.65997 0 1 194 417.117)" fill="#E01C7A"/>
<rect width="114.469" height="89.985" transform="matrix(0.751292 -0.65997 0 1 194 417.117)" stroke="#FE4B4B"/>
<rect width="358.05" height="100.544" transform="matrix(0.751292 -0.65997 0 1 28 670.774)" fill="#E01C7A"/>
<rect width="358.05" height="100.544" transform="matrix(0.751292 -0.65997 0 1 28 670.774)" stroke="#FE4B4B"/>
<rect width="322.112" height="100.544" transform="matrix(0.751292 -0.65997 0 1 117 810.863)" fill="#E01C7A"/>
<rect width="322.112" height="100.544" transform="matrix(0.751292 -0.65997 0 1 117 810.863)" stroke="#FE4B4B"/>
<rect width="135.235" height="100.544" transform="matrix(0.751292 -0.65997 0 1 311 430.996)" fill="#E01C7A"/>
<rect width="135.235" height="100.544" transform="matrix(0.751292 -0.65997 0 1 311 430.996)" stroke="#FE4B4B"/>
<rect width="220.261" height="100.544" transform="matrix(0.751292 -0.65997 0 1 453.519 300.103)" fill="#E01C7A"/>
<rect width="220.261" height="100.544" transform="matrix(0.751292 -0.65997 0 1 453.519 300.103)" stroke="#FE4B4B"/>
<rect width="335.422" height="103.705" transform="matrix(0.751292 -0.65997 0 1 367 493.735)" fill="#E01C7A"/>
<rect width="335.422" height="103.705" transform="matrix(0.751292 -0.65997 0 1 367 493.735)" stroke="#FE4B4B"/>
<rect width="341.128" height="100.544" transform="matrix(0.751292 -0.65997 0 1 336 729.924)" fill="#B50D5D"/>
<rect width="341.128" height="100.544" transform="matrix(0.751292 -0.65997 0 1 336 729.924)" stroke="#FE4B4B"/>
</svg>
