<svg width="599" height="399" viewBox="0 0 599 399" fill="none" xmlns="http://www.w3.org/2000/svg">
<rect width="599" height="399" fill="#1C0732"/>
<path d="M71.8 90.24C75.592 90.24 78.112 87.912 78.112 84.936C78.112 81.504 76.024 80.352 71.992 79.8C69.016 79.368 68.44 78.672 68.44 77.28C68.44 75.96 69.448 75.024 71.392 75.024C73.36 75.024 74.392 75.792 74.704 77.592H77.632C77.296 74.304 75.088 72.624 71.392 72.624C67.816 72.624 65.416 74.736 65.416 77.544C65.416 80.76 67.36 82.008 71.464 82.56C74.248 83.016 75.04 83.616 75.04 85.2C75.04 86.784 73.696 87.84 71.8 87.84C68.896 87.84 68.2 86.4 67.984 84.672H64.912C65.152 87.912 67.12 90.24 71.8 90.24ZM86.4824 90.24C89.6984 90.24 91.8344 88.8 92.2424 86.16H89.4344C89.2184 87.384 88.3064 88.08 86.5544 88.08C84.3944 88.08 83.1944 86.736 83.0984 84.36H92.2904V83.52C92.2904 79.032 89.4824 77.184 86.3624 77.184C82.7864 77.184 80.1224 79.776 80.1224 83.664V83.856C80.1224 87.816 82.7864 90.24 86.4824 90.24ZM83.1464 82.416C83.4344 80.472 84.6104 79.296 86.3624 79.296C88.1624 79.296 89.2664 80.256 89.4104 82.416H83.1464ZM100.236 94.608C104.124 94.608 106.596 92.76 106.62 89.064V77.448H103.716V79.368C102.996 78.12 101.748 77.184 99.6843 77.184C96.4443 77.184 94.0443 79.824 94.0443 83.352V83.52C94.0443 87.144 96.4683 89.496 99.6123 89.496C101.46 89.496 103.02 88.368 103.716 87.168V89.016C103.716 91.272 102.468 92.4 100.212 92.4C98.3163 92.4 97.3563 91.68 97.1163 90.432H94.1883C94.5243 92.832 96.3003 94.608 100.236 94.608ZM100.332 87.264C98.4603 87.264 97.0203 85.824 97.0203 83.496V83.304C97.0203 81.024 98.2683 79.464 100.428 79.464C102.516 79.464 103.812 80.88 103.812 83.256V83.424C103.812 85.824 102.348 87.264 100.332 87.264ZM110.072 90H112.976V82.488C112.976 80.568 114.296 79.608 115.736 79.608C117.152 79.608 117.968 80.4 117.968 82.248V90H120.872V82.488C120.872 80.568 122.192 79.608 123.632 79.608C125.072 79.608 125.864 80.4 125.864 82.248V90H128.768V82.056C128.768 78.6 126.896 77.184 124.592 77.184C123.032 77.184 121.304 77.88 120.344 79.44C119.72 77.88 118.424 77.184 116.792 77.184C114.944 77.184 113.576 78.192 112.976 79.368V77.448H110.072V90ZM137.623 90.24C140.839 90.24 142.975 88.8 143.383 86.16H140.575C140.359 87.384 139.447 88.08 137.695 88.08C135.535 88.08 134.335 86.736 134.239 84.36H143.431V83.52C143.431 79.032 140.623 77.184 137.503 77.184C133.927 77.184 131.263 79.776 131.263 83.664V83.856C131.263 87.816 133.927 90.24 137.623 90.24ZM134.287 82.416C134.575 80.472 135.751 79.296 137.503 79.296C139.303 79.296 140.407 80.256 140.551 82.416H134.287ZM146.025 90H148.929V82.608C148.929 80.616 150.249 79.608 151.881 79.608C153.609 79.608 154.377 80.472 154.377 82.368V90H157.281V82.104C157.281 78.648 155.505 77.184 152.985 77.184C150.921 77.184 149.529 78.216 148.929 79.44V77.448H146.025V90ZM164.898 90.216C165.786 90.216 166.41 90.072 166.866 89.904V87.6C166.458 87.768 166.026 87.84 165.45 87.84C164.538 87.84 164.01 87.336 164.01 86.232V79.632H166.77V77.448H164.01V74.688H161.106V77.448H159.426V79.632H161.106V86.496C161.106 88.872 162.402 90.216 164.898 90.216Z" fill="white"/>
<path d="M68.312 230H76.432V201.888L87.576 230H90.544L101.632 201.888V230H110.648V189.96H98.888L89.648 214.88L80.296 189.96H68.312V230ZM126.23 230.616C130.822 230.616 133.398 228.824 135.078 226.472V230H142.974V210.904C142.974 202.952 137.878 200.04 130.71 200.04C123.542 200.04 118.054 203.12 117.55 210.064H125.222C125.558 207.544 127.014 205.92 130.206 205.92C133.902 205.92 134.966 207.824 134.966 211.296V212.472H131.662C122.702 212.472 116.43 215.048 116.43 221.88C116.43 228.04 120.91 230.616 126.23 230.616ZM128.638 224.96C125.67 224.96 124.382 223.56 124.382 221.432C124.382 218.296 127.126 217.288 131.83 217.288H134.966V219.752C134.966 223 132.222 224.96 128.638 224.96ZM160.639 230.56C162.823 230.56 164.447 230.168 165.567 229.776V223.504C164.615 223.896 163.719 224.064 162.487 224.064C160.415 224.064 159.239 222.944 159.239 220.592V206.48H165.399V200.712H159.239V194.384H151.175V200.712H147.423V206.48H151.175V221.32C151.175 227.424 154.479 230.56 160.639 230.56ZM184.325 230.616C192.837 230.616 197.877 225.8 198.325 218.856H190.989C190.597 222.608 187.965 224.512 184.717 224.512C180.181 224.512 177.549 221.488 177.549 215.608V215.16C177.549 209.56 180.349 206.424 184.549 206.424C187.853 206.424 189.925 207.992 190.485 211.408H198.157C197.429 203.008 191.157 200.04 184.381 200.04C176.037 200.04 169.261 205.808 169.261 215.272V215.72C169.261 225.296 175.757 230.616 184.325 230.616ZM203.428 230H211.548V213.088C211.548 208.776 214.18 206.648 217.652 206.648C221.236 206.648 222.804 208.552 222.804 212.528V230H230.924V211.352C230.924 203.512 226.836 200.04 221.068 200.04C216.196 200.04 213.004 202.448 211.548 205.36V187.44H203.428V230ZM245.777 230.616C250.369 230.616 252.945 228.824 254.625 226.472V230H262.521V210.904C262.521 202.952 257.425 200.04 250.257 200.04C243.089 200.04 237.601 203.12 237.097 210.064H244.769C245.105 207.544 246.561 205.92 249.753 205.92C253.449 205.92 254.513 207.824 254.513 211.296V212.472H251.209C242.249 212.472 235.977 215.048 235.977 221.88C235.977 228.04 240.457 230.616 245.777 230.616ZM248.185 224.96C245.217 224.96 243.929 223.56 243.929 221.432C243.929 218.296 246.673 217.288 251.377 217.288H254.513V219.752C254.513 223 251.769 224.96 248.185 224.96Z" fill="#75CAA9"/>
<path d="M77.384 286.944V261.016H80.968C89.424 261.016 92.952 265.44 92.952 273.672V274.12C92.952 282.408 89.144 286.944 81.08 286.944H77.384ZM68.312 294H81.36C95.416 294 102.416 285.992 102.416 274.008V273.56C102.416 261.576 95.472 253.96 81.416 253.96H68.312V294ZM121.713 294.616C129.721 294.616 134.761 291.088 135.713 284.76H128.041C127.537 287.224 125.689 288.848 121.937 288.848C117.513 288.848 114.881 286.048 114.657 281.176H135.769V278.936C135.769 268.464 129.049 264.04 121.489 264.04C112.977 264.04 106.425 270.032 106.425 279.272V279.72C106.425 289.072 112.865 294.616 121.713 294.616ZM114.769 276.192C115.385 272.048 117.849 269.64 121.489 269.64C125.353 269.64 127.593 271.768 127.873 276.192H114.769ZM151.997 294.616C159.725 294.616 164.317 291.312 164.317 284.984C164.317 278.712 160.285 276.864 152.949 275.8C148.693 275.184 147.293 274.456 147.293 272.608C147.293 270.816 148.805 269.584 151.437 269.584C154.237 269.584 155.581 270.704 156.029 273.112H163.477C162.749 266.392 157.877 264.04 151.381 264.04C145.389 264.04 139.789 267.064 139.789 273.168C139.789 278.88 142.813 281.12 150.597 282.296C154.797 282.912 156.533 283.752 156.533 285.768C156.533 287.784 155.077 288.96 151.941 288.96C148.413 288.96 147.125 287.448 146.789 284.816H139.229C139.509 291.144 144.101 294.616 151.997 294.616ZM169.691 294H177.755V264.712H169.691V294ZM173.667 260.736C176.299 260.736 178.315 258.832 178.315 256.312C178.315 253.792 176.299 251.888 173.667 251.888C171.091 251.888 169.075 253.792 169.075 256.312C169.075 258.832 171.091 260.736 173.667 260.736ZM198.209 304.808C207.841 304.808 213.609 300.384 213.665 291.704V264.712H205.601V269.08C203.921 266.112 201.065 264.04 196.305 264.04C189.025 264.04 183.425 269.92 183.425 278.32V278.712C183.425 287.392 189.081 292.712 196.193 292.712C200.505 292.712 203.977 290.136 205.601 287.28V291.704C205.601 296.296 203.137 298.872 198.209 298.872C194.065 298.872 192.217 297.192 191.713 294.616H183.649C184.433 300.664 188.745 304.808 198.209 304.808ZM198.601 286.608C194.569 286.608 191.713 283.584 191.713 278.712V278.264C191.713 273.448 194.233 270.2 198.769 270.2C203.193 270.2 205.825 273.224 205.825 278.208V278.6C205.825 283.584 202.857 286.608 198.601 286.608ZM220.818 294H228.938V277.088C228.938 272.776 231.57 270.648 235.042 270.648C238.626 270.648 240.194 272.552 240.194 276.528V294H248.314V275.352C248.314 267.512 244.226 264.04 238.458 264.04C233.586 264.04 230.394 266.448 228.938 269.36V264.712H220.818V294ZM282.414 294.616C291.878 294.616 297.702 288.96 297.702 281.848C297.702 273.56 292.718 270.928 283.03 269.696C276.87 268.8 275.582 267.456 275.582 264.6C275.582 261.912 277.598 260.064 281.574 260.064C285.55 260.064 287.678 261.744 288.238 265.384H296.582C295.854 257.432 290.59 253.4 281.574 253.4C272.726 253.4 267.014 258.496 267.014 265.328C267.014 273.056 271.214 276.136 281.462 277.48C287.342 278.376 289.022 279.496 289.022 282.688C289.022 285.824 286.39 288.008 282.414 288.008C276.478 288.008 274.966 285.04 274.574 281.456H265.894C266.398 289.464 271.438 294.616 282.414 294.616ZM306.655 303.968H314.495L330.343 264.712H322.559L316.007 282.296L308.895 264.712H300.159L311.807 291.032L306.655 303.968ZM345.372 294.616C353.1 294.616 357.692 291.312 357.692 284.984C357.692 278.712 353.66 276.864 346.324 275.8C342.068 275.184 340.668 274.456 340.668 272.608C340.668 270.816 342.18 269.584 344.812 269.584C347.612 269.584 348.956 270.704 349.404 273.112H356.852C356.124 266.392 351.252 264.04 344.756 264.04C338.764 264.04 333.164 267.064 333.164 273.168C333.164 278.88 336.188 281.12 343.972 282.296C348.172 282.912 349.908 283.752 349.908 285.768C349.908 287.784 348.452 288.96 345.316 288.96C341.788 288.96 340.5 287.448 340.164 284.816H332.604C332.884 291.144 337.476 294.616 345.372 294.616ZM373.538 294.56C375.722 294.56 377.346 294.168 378.466 293.776V287.504C377.514 287.896 376.618 288.064 375.386 288.064C373.314 288.064 372.138 286.944 372.138 284.592V270.48H378.298V264.712H372.138V258.384H364.074V264.712H360.322V270.48H364.074V285.32C364.074 291.424 367.378 294.56 373.538 294.56ZM397.447 294.616C405.455 294.616 410.495 291.088 411.447 284.76H403.775C403.271 287.224 401.423 288.848 397.671 288.848C393.247 288.848 390.615 286.048 390.391 281.176H411.503V278.936C411.503 268.464 404.783 264.04 397.223 264.04C388.711 264.04 382.159 270.032 382.159 279.272V279.72C382.159 289.072 388.599 294.616 397.447 294.616ZM390.503 276.192C391.119 272.048 393.583 269.64 397.223 269.64C401.087 269.64 403.327 271.768 403.607 276.192H390.503ZM416.818 294H424.938V276.696C424.938 272.72 427.458 270.704 430.594 270.704C433.45 270.704 435.186 272.384 435.186 276.136V294H443.25V276.696C443.25 272.72 445.77 270.704 448.906 270.704C451.818 270.704 453.498 272.384 453.498 276.136V294H461.562V275.24C461.562 267.456 457.362 264.04 451.93 264.04C448.234 264.04 444.426 265.608 442.074 269.136C440.674 265.664 437.762 264.04 433.898 264.04C429.53 264.04 426.394 266.448 424.938 269.192V264.712H416.818V294Z" fill="white"/>
</svg>
