<svg width="1214" height="245" viewBox="0 0 1214 245" fill="none" xmlns="http://www.w3.org/2000/svg">
<g clip-path="url(#clip0_311_141)">
<path fill-rule="evenodd" clip-rule="evenodd" d="M-68.5 -27L-43.0735 -12.32L-206.573 270.87L-232 256.19L-68.5 -27ZM31.1332 0H78.5508L0 136.054V53.9243L31.1332 0ZM31.1332 0L38.2462 -12.32L12.8197 -27L-150.68 256.19L-125.254 270.87L0 53.9243V0H31.1332ZM0 194.774L-43.9342 270.87L-69.3607 256.19L0 136.054V194.774ZM112.453 0L0 194.774V245H18.4197L11.959 256.19L37.3855 270.87L52.3217 245H99.7393L93.2786 256.19L118.705 270.87L133.641 245H181.059L174.598 256.19L200.025 270.87L214.961 245H262.379L255.918 256.19L281.344 270.87L296.281 245H343.698L337.238 256.19L362.664 270.87L377.6 245H425.018L418.557 256.19L443.984 270.87L458.92 245H506.338L499.877 256.19L525.303 270.87L540.24 245H587.657L581.196 256.19L606.623 270.87L621.559 245H668.977L662.516 256.19L687.943 270.87L702.879 245H750.296L743.836 256.19L769.262 270.87L784.198 245H831.616L825.155 256.19L850.582 270.87L865.518 245H912.936L906.475 256.19L931.902 270.87L946.838 245H994.255L987.795 256.19L1013.22 270.87L1028.16 245H1075.58L1069.11 256.19L1094.54 270.87L1109.48 245H1156.89L1150.43 256.19L1175.86 270.87L1190.8 245H1214V204.811L1339.36 -12.32L1313.93 -27L1214 146.091V63.9613L1258.04 -12.32L1232.61 -27L1214 5.24126V0H1169.61L1176.72 -12.32L1151.29 -27L1135.71 0H1088.29L1095.4 -12.32L1069.98 -27L1054.39 0H1006.97L1014.08 -12.32L988.655 -27L973.067 0H925.649L932.762 -12.32L907.336 -27L891.747 0H844.33L851.443 -12.32L826.016 -27L810.428 0H763.01L770.123 -12.32L744.696 -27L729.108 0H681.69L688.803 -12.32L663.377 -27L647.788 0H600.371L607.484 -12.32L582.057 -27L566.469 0H519.051L526.164 -12.32L500.738 -27L485.149 0H437.731L444.844 -12.32L419.418 -27L403.829 0H356.412L363.525 -12.32L338.098 -27L322.51 0H275.092L282.205 -12.32L256.779 -27L241.19 0H193.773L200.885 -12.32L175.459 -27L159.871 0H112.453ZM112.453 0L119.566 -12.32L94.1393 -27L78.5508 0H112.453ZM159.871 0H193.773L52.3217 245H18.4197L159.871 0ZM241.19 0H275.092L133.641 245H99.7393L241.19 0ZM322.51 0L181.059 245H214.961L356.412 0H322.51ZM403.829 0H437.731L296.281 245H262.379L403.829 0ZM485.149 0L343.698 245H377.6L519.051 0H485.149ZM566.469 0H600.371L458.92 245H425.018L566.469 0ZM647.788 0L506.338 245H540.24L681.69 0H647.788ZM729.108 0H763.01L621.559 245H587.657L729.108 0ZM810.428 0L668.977 245H702.879L844.33 0H810.428ZM891.747 0H925.649L784.198 245H750.296L891.747 0ZM973.067 0L831.616 245H865.518L1006.97 0H973.067ZM1054.39 0H1088.29L946.838 245H912.936L1054.39 0ZM1135.71 0L994.255 245H1028.16L1169.61 0H1135.71ZM1214 5.24126V63.9613L1109.48 245H1075.58L1214 5.24126ZM1214 146.091L1156.89 245H1190.8L1214 204.811V146.091ZM1395.25 -27L1420.68 -12.32L1257.18 270.87L1231.75 256.19L1395.25 -27ZM1502 -12.32L1476.57 -27L1313.07 256.19L1338.5 270.87L1502 -12.32Z" fill="#B5D969"/>
</g>
<defs>
<clipPath id="clip0_311_141">
<rect width="1214" height="245" fill="white"/>
</clipPath>
</defs>
</svg>
