<svg width="1440" height="300" viewBox="0 0 1440 300" fill="none" xmlns="http://www.w3.org/2000/svg">
<rect x="123.5" width="32.3626" height="327" transform="rotate(30 123.5 0)" fill="#1B1B20"/>
<rect x="192.367" width="32.3626" height="327" transform="rotate(30 192.367 0)" fill="#1B1B20"/>
<rect x="261.234" width="32.3626" height="327" transform="rotate(30 261.234 0)" fill="#1B1B20"/>
<rect x="330.101" width="32.3626" height="327" transform="rotate(30 330.101 0)" fill="#1B1B20"/>
<rect x="398.968" width="32.3626" height="327" transform="rotate(30 398.968 0)" fill="#1B1B20"/>
<rect x="467.835" width="32.3626" height="327" transform="rotate(30 467.835 0)" fill="#1B1B20"/>
<rect x="536.702" width="32.3626" height="327" transform="rotate(30 536.702 0)" fill="#1B1B20"/>
<rect x="605.569" width="32.3626" height="327" transform="rotate(30 605.569 0)" fill="#1B1B20"/>
<rect x="674.436" width="32.3626" height="327" transform="rotate(30 674.436 0)" fill="#1B1B20"/>
<rect x="743.303" width="32.3626" height="327" transform="rotate(30 743.303 0)" fill="#1B1B20"/>
<rect x="812.17" width="32.3626" height="327" transform="rotate(30 812.17 0)" fill="#1B1B20"/>
<rect x="881.037" width="32.3626" height="327" transform="rotate(30 881.037 0)" fill="#1B1B20"/>
<rect x="949.904" width="32.3626" height="327" transform="rotate(30 949.904 0)" fill="#1B1B20"/>
<rect x="1018.77" width="32.3626" height="327" transform="rotate(30 1018.77 0)" fill="#1B1B20"/>
<rect x="1087.64" width="32.3626" height="327" transform="rotate(30 1087.64 0)" fill="#1B1B20"/>
<rect x="1156.51" width="32.3626" height="327" transform="rotate(30 1156.51 0)" fill="#1B1B20"/>
<rect x="1225.37" width="32.3626" height="327" transform="rotate(30 1225.37 0)" fill="#1B1B20"/>
<rect x="1294.24" width="32.3626" height="327" transform="rotate(30 1294.24 0)" fill="#1B1B20"/>
<rect x="1363.11" width="32.3626" height="327" transform="rotate(30 1363.11 0)" fill="#1B1B20"/>
<rect x="1431.97" width="32.3626" height="327" transform="rotate(30 1431.97 0)" fill="#1B1B20"/>
</svg>
